<svg xmlns="http://www.w3.org/2000/svg" xmlns:xlink="http://www.w3.org/1999/xlink" width="100" height="100">
    <defs>
        <radialGradient id="a" cx="100.758%" cy="11.323%" r="77.553%" fx="100.758%" fy="11.323%" gradientTransform="matrix(.97 0 0 1 .03 0)">
            <stop offset="0%" stop-color="#F8FAFF"/>
            <stop offset="40.366%" stop-color="#E0EFFF"/>
            <stop offset="86.53%" stop-color="#5682B4"/>
            <stop offset="100%" stop-color="#4071AD"/>
        </radialGradient>
        <radialGradient id="b" cx="65.35%" cy="7.927%" r="96.84%" fx="65.35%" fy="7.927%" gradientTransform="matrix(.8418 0 0 1 .103 0)">
            <stop offset="0%" stop-color="#F1F2F2"/>
            <stop offset="77%" stop-color="#1C396E"/>
            <stop offset="100%" stop-color="#FFF"/>
        </radialGradient>
        <radialGradient id="c" cx="65.348%" cy="7.926%" r="96.917%" fx="65.348%" fy="7.926%" gradientTransform="matrix(.8378 0 0 1 .106 0)">
            <stop offset="0%" stop-color="#F1F2F2"/>
            <stop offset="77%" stop-color="#1C396E"/>
            <stop offset="100%" stop-color="#6374A7"/>
        </radialGradient>
        <radialGradient id="i" cx="50.383%" cy="49.228%" r="65.216%" fx="50.383%" fy="49.228%" gradientTransform="matrix(.8277 0 0 1 .087 0)">
            <stop offset="0%" stop-color="#01D1FE"/>
            <stop offset="17%" stop-color="#00CDFD"/>
            <stop offset="33%" stop-color="#00C2FB"/>
            <stop offset="48%" stop-color="#00AFF8"/>
            <stop offset="63%" stop-color="#0095F4"/>
            <stop offset="69%" stop-color="#0088F2"/>
            <stop offset="100%" stop-color="#002A90"/>
        </radialGradient>
        <radialGradient id="j" cx="50%" cy="78.872%" r="60.493%" fx="50%" fy="78.872%" gradientTransform="matrix(.5202 0 0 1 .24 0)">
            <stop offset="0%" stop-color="#00217D"/>
            <stop offset="100%" stop-color="#00104E"/>
        </radialGradient>
        <radialGradient id="m" cx="50%" cy="-352.347%" r="0%" fx="50%" fy="-352.347%" gradientTransform="matrix(1 0 0 .6663 0 -1.176)">
            <stop offset="0%" stop-color="#001F5C"/>
            <stop offset="100%" stop-color="#000B34"/>
        </radialGradient>
        <radialGradient id="n" cx="50.009%" cy="50.02%" r="61.246%" fx="50.009%" fy="50.02%" gradientTransform="matrix(.2409 -.68657 .97055 .17041 -.106 .758)">
            <stop offset="0%" stop-color="#FFF" stop-opacity=".4"/>
            <stop offset="100%" stop-color="#F8FAFF" stop-opacity="0"/>
        </radialGradient>
        <ellipse id="k" cx="4.698" cy="7.051" rx="4.698" ry="7.051"/>
        <ellipse id="o" cx="4.698" cy="7.051" rx="4.698" ry="7.051"/>
        <path id="d" d="M45.105 75.355c-6.039 0-11.919-1.048-17.476-3.114-5.342-1.987-10.159-4.822-14.315-8.428-4.153-3.603-7.423-7.779-9.72-12.41C1.21 46.59 0 41.526 0 36.353 0 26.22 4.755 16.915 13.39 10.156 21.756 3.607 33.02 0 45.106 0c12.087 0 23.35 3.606 31.716 10.156 8.635 6.76 13.39 16.063 13.39 26.198 0 5.174-1.209 10.237-3.594 15.048-2.297 4.632-5.566 8.808-9.72 12.411-4.156 3.607-8.973 6.442-14.315 8.428-5.558 2.066-11.438 3.114-17.476 3.114h-.002Z"/>
        <path id="g" d="M42.765 71.443c-5.725 0-11.3-.993-16.569-2.953-5.065-1.882-9.631-4.57-13.572-7.99-3.937-3.416-7.038-7.375-9.215-11.767C1.147 44.171 0 39.37 0 34.466c0-9.609 4.509-18.43 12.694-24.839C20.626 3.42 31.304 0 42.764 0 54.222 0 64.9 3.42 72.831 9.627c8.187 6.409 12.695 15.23 12.695 24.839 0 4.905-1.147 9.705-3.41 14.267-2.176 4.392-5.277 8.351-9.214 11.766-3.941 3.42-8.507 6.109-13.572 7.991-5.27 1.958-10.844 2.953-16.569 2.953h.003Z"/>
        <linearGradient id="e" x1="15.365%" x2="93.253%" y1="75.929%" y2="32.949%">
            <stop offset="0%" stop-color="#1C396E"/>
            <stop offset="100%" stop-color="#FFF"/>
        </linearGradient>
    </defs>
    <g fill="none" fill-rule="evenodd">
        <path fill="url(#a)" fill-rule="nonzero" d="M100 49.888C100 78.264 77.615 97 50 97S0 78.556 0 49.888C0 21.22 22.492 0 50.106 0c27.613 0 49.893 21.511 49.893 49.888H100Z" transform="translate(0 2)"/>
        <g fill-rule="nonzero">
            <path fill="url(#b)" d="M46.907 78.967c-6.252 0-12.343-1.085-18.101-3.226-5.546-2.062-10.548-5.008-14.869-8.756-4.334-3.76-7.75-8.125-10.153-12.973C1.274 48.948 0 43.613 0 38.16c0-10.703 5.002-20.512 14.083-27.622C22.763 3.743 34.42 0 46.906 0 59.393 0 71.05 3.743 79.73 10.538c9.082 7.11 14.083 16.919 14.083 27.622 0 5.455-1.274 10.789-3.784 15.853-2.404 4.847-5.82 9.212-10.154 12.973-4.32 3.748-9.322 6.694-14.868 8.756-5.76 2.14-11.85 3.227-18.102 3.227l.002-.002Z" transform="translate(3.159 15.85)"/>
            <path fill="url(#c)" d="M46.907 77.839c-6.118 0-12.077-1.062-17.71-3.156-5.42-2.015-10.305-4.891-14.523-8.55-4.221-3.662-7.545-7.91-9.883-12.622C2.36 48.603 1.126 43.44 1.126 38.16c0-10.348 4.847-19.842 13.65-26.732 8.484-6.641 19.895-10.3 32.131-10.3 12.237 0 23.648 3.659 32.132 10.3 8.802 6.89 13.65 16.414 13.65 26.732 0 5.279-1.234 10.443-3.666 15.35-2.336 4.713-5.661 8.959-9.882 12.621-4.218 3.66-9.104 6.538-14.523 8.551-5.633 2.094-11.592 3.156-17.71 3.156Z" transform="translate(3.159 15.85)"/>
        </g>
        <g transform="translate(4.961 17.658)">
            <mask id="f" fill="#fff">
                <use xlink:href="#d"/>
            </mask>
            <g fill="url(#e)" fill-rule="nonzero" mask="url(#f)">
                <path d="M46.866 75.355 0 39.298V22.756l.951-1.243 69.278 53.3-.415.542H46.866ZM0 39.298l46.866 36.057H30.82L0 51.643V39.298Zm0 12.345 30.82 23.712H0V51.643Zm2.437-32.075 69.281 53.296-1.486 1.942L.95 21.51l1.486-1.942Zm.425-.555 69.28 53.296-.14.185-.143.185-.141.184L2.436 19.567l.142-.185.142-.184.142-.185Zm.567-.74L72.71 71.567l-.141.186-.243-.187.242.186-.142.185-.141.185-.142.185-69.28-53.296.141-.185.283-.37.142-.185Zm.425-.557 69.28 53.296-.14.185-.142.185-.143.185L3.428 18.271l.142-.186.142-.184.142-.185Zm.568-.74 69.28 53.295-.14.185-.143.186-.48-.37.48.37-.142.184-.141.185L3.854 17.715l.142-.185.142-.185.142-.185.142-.185Zm.85-1.112 69.28 53.296-.141.185-.143.185-.14.184-.142.186-.721-.555.722.555-.142.185-.142.186-69.28-53.297.14-.184.143-.186.14-.185.141-.185.142-.185.143-.185Zm.568-.74 69.28 53.295-.141.186-.142.184-.142.185-.143.185-69.28-53.296.141-.185.143-.185.141-.185.143-.185Zm.424-.557 69.281 53.296-.142.185-.141.185-.142.186L5.84 15.123l.141-.186.242.186-.242-.186.141-.185.142-.185Zm.568-.74 69.28 53.295-.141.186-.141.185-.143.184-.141.185L6.265 14.566l.141-.185.142-.185.481.37-.48-.37.141-.185.142-.185Zm.991-1.297 69.281 53.296-.141.185-.142.185-.142.185-.141.185-.142.186-.141.185-.143.185-69.28-53.297.141-.185.242.186-.241-.185.141-.185.142-.185v-.001l.14-.185.142-.185.482.37-.48-.37.14-.185.142-.185Zm.427-.556L77.53 65.27l-.141.186-.142.184-.142.186L7.824 12.529l.141-.185.142-.185.481.37-.48-.37.142-.185Zm.566-.741 69.28 53.296-.14.185-.142.185-.141.186-.143.185L8.25 11.974l.141-.186.242.186-.241-.185.141-.185.14-.186.143-.185Zm.993-1.296L79.09 63.234l-.142.185-.141.184-.142.185-.142.185L9.242 10.676l.141-.185.242.186-.24-.185.14-.185.142-.186.142-.184Zm2.41-3.149L81.5 60.085l-.141.185-.142.183-.142.186-69.28-53.296.14-.185.143-.186.141-.184ZM17.181.306l69.281 53.296-.142.185-1.439-1.107 1.439 1.107-.142.185-.141.185-.142.184L16.614 1.045l.141-.186.142-.183.142-.185.142-.185ZM48.151 0l42.06 32.359v.588L47.387 0h.764Zm30.23 64.158-.142.185-.142.185-69.28-53.296.14-.185.143-.185.48.37-.48-.37.142-.185 69.281 53.296-.142.186-.962-.74.962.74Zm.85-1.111-.142.185L9.808 9.936l.142-.185.242.186-.242-.186.142-.185.142-.185 69.28 53.296-.14.185-.143.185-.48-.37.48.37Zm.709-.926-.142.185-.14.185-.143.186L10.235 9.38l.14-.185.142-.184.142-.186.481.37-.48-.37.141-.185 69.282 53.297-.142.185-.483-.371.482.37Zm.284-.37-.142.185L10.801 8.64l.142-.186.482.372-.482-.371.142-.185h-.001l.142-.186 69.28 53.296-.14.185-.141.186-.964-.741.963.74Zm.567-.742-.142.185-.141.186L11.226 8.083l.142-.185.142-.185.481.37-.48-.37.14-.184.143-.186 69.28 53.297-.14.184-.143.186-.48-.37.48.37Zm.991-1.296-.141.185-.141.186L12.219 6.788l.141-.185.141-.186.723.556-.722-.556.142-.185 69.28 53.296-.141.186-.723-.557.722.556Zm.568-.74-.141.184-.142.186-.143.185L12.644 6.23l.141-.185.483.371-.482-.37.141-.185.142-.186.481.37-.48-.37.142-.185 69.28 53.297-.141.185-.483-.371.482.37Zm.284-.371-.142.185-69.28-53.296.141-.186.483.372-.482-.371.141-.185.142-.185 69.281 53.296-.142.185-.141.185-.482-.37.481.37Zm.567-.742-.142.185-.141.186L13.637 4.934l.141-.185.142-.185.481.37-.48-.37.141-.184.142-.186 69.281 53.297-.142.184-.141.186-.482-.37.481.37Zm.425-.555-.142.185-69.28-53.296.141-.186.483.372-.482-.371.14-.184.142-.186L83.91 56.936l-.141.184-.142.185-.962-.74.961.74Zm.567-.74-.141.185-.142.185L14.63 3.64l.14-.185.142-.185.482.37-.482-.37.142-.186.141-.185 69.282 53.296-.142.185-.142.186-.481-.37.481.37Zm.567-.741-.141.184-.142.186-69.28-53.296.14-.185.142-.186.482.37-.481-.37.142-.185 69.28 53.297-.14.185-.484-.371.482.37Zm.284-.371-.142.185-69.28-53.296.141-.186.483.372-.482-.371.141-.185.142-.185.142-.185 69.28 53.296-.14.185-.142.185-.142.185-.481-.37.48.37Zm.709-.927-.142.185-.142.186L16.19 1.6l.14-.184.143-.186.48.37-.48-.37.142-.185 69.281 53.297-.142.185-.962-.74.962.74Zm4.458-20.108v.59l-20.07-15.441 20.07 15.44v1.471l-13.388-10.3 13.388 10.3v.59l-22.746-17.5 22.746 17.5v1.471l-22.13-17.026L90.21 38.54v.588l-10.71-8.24 10.71 8.24V40.6L72.475 26.953 90.21 40.6v.588L66.254 22.756l23.957 18.43v1.473L74.91 30.887l15.3 11.772v.589L76.82 32.947l13.39 10.3v1.473L68.788 28.238 90.211 44.72v.588L71.467 30.887l18.744 14.42v1.472L74.91 35.007 90.211 46.78v.588L68.79 30.887l21.421 16.48v1.341l-.063.083-.142.185L47.69 16.419l42.317 32.557-.142.185-.141.185-16.726-12.868 16.726 12.868-.142.186-.284.37-9.415-7.243 9.415 7.243-.142.185-.142.186-20.607-15.855 20.607 15.855-.141.185-.142.185-20.323-15.636L88.73 50.643l-.142.185-.142.185-.14.186-.143.185-5.985-4.605 5.985 4.605-.141.185-18.85-14.502 18.85 14.502-.142.185-.142.186-20.862-16.05 20.862 16.05-.142.185-.142.185-42.8-32.928 42.8 32.928-.142.185-.142.185-.141.186-.142.185-.142.185L64.198 35.89l22.547 17.346-.142.186-.002-.002-.14.181L17.182.305l.142-.185.002.002.093-.122h10.076l5.21 4.008L27.494 0h5.738l2.803 2.156L33.232 0h2.679l1.84 1.416L35.91 0h3.825l2.803 2.156L39.736 0h3.826l2.082 1.602L43.562 0h3.825l42.824 32.947v1.471L70.907 19.567l19.304 14.851ZM56.95 0h33.26v26.178l-11.48-8.833 11.481 8.833v2.06l-14.64-11.263 14.64 11.263v2.06L78.79 21.51l11.422 8.788v.589L74.777 19.013l15.434 11.874v1.472L48.151 0h.383l4.248 3.268L48.534 0h3.443l2.803 2.156L51.977 0h3.825l4.73 3.639L55.802 0h1.148l.637.49L56.95 0Z"/>
            </g>
        </g>
        <path fill="#6374A7" fill-rule="nonzero" d="M50.066 93.182c-6.058 0-11.958-1.051-17.534-3.124-5.36-1.994-10.195-4.84-14.367-8.46-4.17-3.617-7.453-7.81-9.76-12.463-2.397-4.837-3.612-9.925-3.612-15.124 0-10.189 4.777-19.54 13.454-26.332 8.395-6.572 19.696-10.19 31.82-10.19 12.123 0 23.424 3.62 31.819 10.19 8.676 6.792 13.455 16.143 13.455 26.332 0 5.2-1.215 10.287-3.612 15.124-2.307 4.652-5.59 8.846-9.76 12.463-4.172 3.62-9.005 6.466-14.367 8.46-5.577 2.073-11.477 3.124-17.534 3.124h-.002Zm0-75.355c-12.049 0-23.275 3.594-31.61 10.12C9.861 34.673 5.13 43.93 5.13 54.012c0 5.146 1.204 10.185 3.578 14.974 2.287 4.612 5.542 8.77 9.678 12.357 4.142 3.593 8.94 6.419 14.264 8.397 5.54 2.06 11.399 3.103 17.418 3.103 6.018 0 11.878-1.044 17.417-3.103 5.324-1.98 10.122-4.804 14.264-8.397 4.135-3.588 7.392-7.746 9.678-12.357 2.374-4.79 3.578-9.828 3.578-14.974 0-10.081-4.733-19.339-13.325-26.065-8.337-6.526-19.563-10.12-31.611-10.12h-.003Z"/>
        <g transform="translate(7.302 21.57)">
            <mask id="h" fill="#fff">
                <use xlink:href="#g"/>
            </mask>
            <g fill="#6374A7" fill-rule="nonzero" mask="url(#h)">
                <path d="M23.4-.898v.783h.146c.08-.227.163-.453.248-.678v.678h.182l.21-.573v.573h.22c.056-.156.113-.312.171-.467v.467h.261l.133-.361v.36l.298.001c.03-.085.062-.17.094-.255v.255h.338l.056-.151v.15l.375.001.017-.046v.046h.414l.067-.178.09-.239v.417h.276a46.3 46.3 0 0 1 .301-.777v.777h.13c.084-.22.17-.441.257-.662v.662h.176c.07-.182.14-.364.213-.546v.546h.22c.055-.144.111-.288.168-.431v.43h.265l.124-.313v.314h1.24l.039-.095.117-.287v.382h1.213l.172-.415v.415h1.202l.008-.018v.018h1.369a40.7 40.7 0 0 1 .168-.382v.382h1.215l.087-.193c.073-.161.148-.322.225-.482v.675h1.079l.099-.21v.21h1.3c.065-.134.13-.268.198-.402v.402h1.21l.056-.113c.07-.137.142-.274.214-.41v.523h1.148c.102-.193.206-.384.313-.576v.576h1.118l.01-.017v.017h1.438c.094-.16.19-.32.287-.479v.479h1.181l.008-.012c.066-.105.132-.21.2-.315v.327h1.288l.073-.108v.108h1.451l.165-.226v.226h1.407l.156-.195v.195h1.48l.013-.015v.015h1.717c.072-.07.143-.14.216-.209v.209h1.674l.112-.09v.09h2.103c.47-.283.953-.532 1.444-.745v.745h1.915c.065-.017.131-.032.197-.048 1.428-.328 2.879-.322 4.23.048h2.56v-.51c.269.155.53.324.784.51h1.836v-.382c.13.124.258.252.38.382h1.46v-.559c.152.182.298.368.437.559h1.447V-.57c.098.15.193.301.285.455h1.605v-.059l.03.059h1.52v-.116l.05.116h1.513v-.037l.014.037h1.235v-.722c.09.238.177.479.258.722h1.328v-.447c.048.148.094.297.139.447h1.44v-.032l.008.032h1.28v-.59c.052.195.102.392.149.59h.479v2.67c.055.442.097.887.127 1.334a26.266 26.266 0 0 1-.126 4.832v5.048h.264c-.084.28-.172.559-.264.837v2.07h.6c-.188.473-.388.944-.6 1.412v1.719h.577a34.06 34.06 0 0 1-.577 1.102v2.223h.163l-.163.262v1.809h.32l-.32.466v1.705h.32l-.32.427v1.818h.165l-.165.203v1.358h.503c-.166.196-.334.391-.503.584v1.015h.78c-.257.291-.517.578-.78.86v.167h.39l-.266.285h.548c-.222.24-.446.478-.672.712v.324h.245l-.245.253v.04h.52c-.172.18-.346.356-.52.532v.509h.055l-.055.054v.246h.322c-.102.1-.203.201-.306.3h.572c-.195.194-.391.386-.588.575v.48h.078l-.078.075v.235h.336l-.326.308h.583a50.61 50.61 0 0 1-.593.556v.507h.04l-.04.036v.28h.289a61.12 61.12 0 0 1-.29.261v.057h.538a83.44 83.44 0 0 1-.537.482v.218h.363c-.12.108-.242.216-.363.322v.378h.176l-.176.154v.171h.418c-.125.11-.25.218-.376.326h.616c-.218.19-.438.378-.658.564v.523h.002l-.002.002v.329h.235l-.235.195v.138h.465l-.401.332h.634a62.34 62.34 0 0 1-.698.573v.147h.459a68.09 68.09 0 0 1-.46.37v.35h.21l-.21.166v.175h.432c-.143.114-.287.228-.431.34h.655a56.87 56.87 0 0 1-.655.516v.214h.384l-.384.297v.432h.102l-.102.078v.268h.314l-.314.239v.107h.529a57.39 57.39 0 0 1-.459.346h.672a75.65 75.65 0 0 1-.742.558v.181h.433a62.27 62.27 0 0 1-.433.32v.422h.112l-.112.082v.271h.318l-.318.231v.123h.523l-.49.353h.694c-.241.176-.484.35-.727.523v.227h.38l-.38.27v.48h.022l-.022.015v.345h.22l-.22.152v.208h.415a65.63 65.63 0 0 1-.415.287v.073h.61c-.203.141-.406.281-.61.42v.338h.226l-.226.154v.209h.416l-.416.281v.478h.015l-.015.01v.357h.202l-.202.134v.234h.39l-.39.257v.109h.574l-.554.364h.74c-.252.168-.506.335-.76.499v.273h.33l-.33.213v.156h.513a67.38 67.38 0 0 1-.514.331v.444h.063l-.063.04v.332h.24l-.24.15v.221h.416l-.416.262v.11h.595c-.197.125-.395.249-.593.371h.77a63.49 63.49 0 0 1-.772.483v.302h.291l-.291.179v.195h.465l-.465.285v.09h.636c-.212.13-.424.26-.636.388v.4h.134l-.134.08v.297h.302l-.415.248v7.446H67.844c-.602.157-1.204.305-1.807.443v-.33h-.487c-.816.181-1.633.345-2.45.493v-.442a60.23 60.23 0 0 1-2.897.45v-.437a57.86 57.86 0 0 1-5.717.464c-3.199.1-6.375-.074-9.496-.528h-1.913v.146l-.132-.024v.466a52.283 52.283 0 0 1-2.805-.588h-.134v.439a50.597 50.597 0 0 1-2.113-.552H0V0h3.47l.104-.367v.254h.351l.053-.185v.185h.37l.035-.117v.117h.392l.014-.05v.05h.409c.07-.243.142-.487.215-.73v.73h.21c.063-.22.128-.439.194-.658v.657h.23c.057-.195.114-.39.173-.583v.583h.252l.15-.51v.51h.275a69.6 69.6 0 0 1 .129-.436v.436h.295l.108-.363v.363h.319l.086-.29v.29h.337l.065-.217v.217h.36l.043-.143v.143h.382l.021-.07v.07h.405l.105-.344.107-.347v.691h.213l.047-.155.141-.459v.614h.237l.06-.194.105-.342v.535h.26l.002-.003.139-.452v.455h.287l.012-.04.104-.336v.376h.308l.092-.297v.297H12l.067-.22v.22h.358l.044-.141v.14h.382c.074-.237.15-.475.226-.712v.713h.2c.065-.21.132-.42.2-.629v.629h.226c.057-.182.115-.364.174-.545v.545h.253c.048-.154.097-.307.147-.46v.46h.28l.12-.377v.377h.306c.03-.098.062-.196.094-.294v.294h.332l.067-.21v.21h.36a82.6 82.6 0 0 1 .04-.125v.125h.387l.014-.042v.042h.412l.052-.158.134-.4v.558h.244l.024-.072.132-.399v.47h.271l.028-.084.098-.295v.38h.301l.097-.291v.29l.33.001c.086-.26.175-.522.266-.782v.782h.162c.077-.23.155-.46.235-.689v.689h.193c.067-.198.134-.396.203-.594v.594h.225l.172-.499v.499h.255l.14-.404v.404h.29l.107-.31v.31h.32l.075-.216v.216h.356l.042-.12v.12h.387l.009-.025v.025h.42l.07-.196.094-.266v.462h.266l.004-.01c.04-.118.083-.235.125-.351v.36h.3l.001-.003c.092-.26.187-.52.284-.78Z"/>
            </g>
        </g>
        <path fill="#FFF" fill-rule="nonzero" d="M50.066 93.125c-5.738 0-11.325-.995-16.607-2.959-5.078-1.887-9.656-4.582-13.607-8.011-3.948-3.426-7.057-7.396-9.241-11.801-2.27-4.578-3.42-9.395-3.42-14.318 0-9.645 4.523-18.497 12.738-24.928 7.95-6.224 18.654-9.652 30.139-9.652 11.484 0 22.187 3.428 30.138 9.652 8.214 6.43 12.739 15.283 12.739 24.928 0 4.922-1.15 9.739-3.42 14.318-2.185 4.405-5.294 8.375-9.242 11.8-3.95 3.429-8.53 6.124-13.607 8.012-5.282 1.964-10.87 2.96-16.607 2.96h-.003Zm0-71.442c-11.433 0-22.088 3.41-30 9.603-8.158 6.387-12.651 15.176-12.651 24.75 0 4.887 1.142 9.67 3.396 14.217 2.17 4.378 5.262 8.325 9.188 11.731 3.93 3.411 8.485 6.092 13.537 7.971 5.257 1.954 10.818 2.945 16.53 2.945 5.71 0 11.272-.991 16.528-2.945 5.053-1.878 9.608-4.56 13.538-7.97 3.926-3.406 7.017-7.353 9.188-11.732 2.253-4.546 3.396-9.33 3.396-14.217 0-9.574-4.493-18.363-12.652-24.75-7.91-6.193-18.565-9.603-30-9.603h.002Z"/>
        <path fill="url(#i)" fill-rule="nonzero" d="M90.98 54.035c0 18.855-18.318 35.12-40.912 35.12-22.595 0-40.913-16.265-40.913-35.12 0-18.854 18.318-32.61 40.913-32.61 22.594 0 40.912 13.756 40.912 32.61Z" transform="translate(0 2)"/>
        <g fill-rule="nonzero">
            <path fill="#4DE9FE" d="M60.424 65.363c0 4.471-4.607 8.184-10.29 8.184-5.683 0-10.29-3.713-10.29-8.184 0-4.472 4.607-1.632 10.29-1.632 5.683 0 10.29-2.841 10.29 1.632Z"/>
            <path fill="url(#j)" d="M20.58 2.521c0 4.472-4.607 8.184-10.29 8.184C4.607 10.705 0 6.993 0 2.521 0-1.95 4.607.89 10.29.89c5.683 0 10.29-2.84 10.29 1.632Z" transform="translate(39.844 62.379)"/>
        </g>
        <g transform="translate(24.985 44.155)">
            <g transform="translate(0 .436)">
                <mask id="l" fill="#fff">
                    <use xlink:href="#k"/>
                </mask>
                <g fill="#20C7F5" fill-rule="nonzero" mask="url(#l)">
                    <path d="M0 14.072h9.396v.03H0v-.03Zm0-.325h9.396v.325H0v-.325Zm0-1.17h9.396v1.17H0v-1.17Zm9.396 0H0v-.324h9.396v.325Zm0-.324H0V0h9.396v12.253Z"/>
                </g>
            </g>
            <g fill-rule="nonzero">
                <ellipse cx="4.698" cy="7.051" fill="url(#m)" rx="4.698" ry="7.051"/>
                <path fill="#021B7C" d="M4.84 13.015c-2.195 0-3.974-2.524-3.974-5.638 0-.796.117-1.552.326-2.238A7.532 7.532 0 0 0 .71 7.83c0 3.114 1.78 5.637 3.974 5.637 1.635 0 3.038-1.4 3.648-3.4-.673 1.756-1.985 2.947-3.493 2.947Z" opacity=".73"/>
            </g>
            <ellipse cx="6.325" cy="4.389" fill="url(#n)" fill-rule="nonzero" rx="2.321" ry="3.282" transform="rotate(-26.98 6.325 4.389)"/>
        </g>
        <g transform="translate(64.613 44.155)">
            <g transform="translate(0 .436)">
                <mask id="p" fill="#fff">
                    <use xlink:href="#o"/>
                </mask>
                <g fill="#20C7F5" fill-rule="nonzero" mask="url(#p)">
                    <path d="M0 14.072h9.396v.03H0v-.03Zm0-.325h9.396v.325H0v-.325Zm0-1.17h9.396v1.17H0v-1.17Zm9.396 0H0v-.324h9.396v.325Zm0-.324H0V0h9.396v12.253Z"/>
                </g>
            </g>
            <g fill-rule="nonzero">
                <ellipse cx="4.698" cy="7.051" fill="url(#m)" rx="4.698" ry="7.051"/>
                <path fill="#021B7C" d="M4.84 13.015c-2.195 0-3.974-2.524-3.974-5.638 0-.796.117-1.552.326-2.238A7.532 7.532 0 0 0 .71 7.83c0 3.114 1.78 5.637 3.974 5.637 1.635 0 3.038-1.4 3.648-3.4-.673 1.756-1.985 2.947-3.493 2.947Z" opacity=".73"/>
            </g>
            <ellipse cx="6.325" cy="4.389" fill="url(#n)" fill-rule="nonzero" rx="2.321" ry="3.282" transform="rotate(-26.98 6.325 4.389)"/>
        </g>
    </g>
</svg>
