<?xml version="1.0" encoding="utf-8" standalone="no"?>
<!DOCTYPE svg PUBLIC "-//W3C//DTD SVG 1.1//EN"
  "http://www.w3.org/Graphics/SVG/1.1/DTD/svg11.dtd">
<svg xmlns:xlink="http://www.w3.org/1999/xlink" width="720pt" height="720pt" viewBox="0 0 720 720" xmlns="http://www.w3.org/2000/svg" version="1.1">
 <metadata>
  <rdf:RDF xmlns:dc="http://purl.org/dc/elements/1.1/" xmlns:cc="http://creativecommons.org/ns#" xmlns:rdf="http://www.w3.org/1999/02/22-rdf-syntax-ns#">
   <cc:Work>
    <dc:type rdf:resource="http://purl.org/dc/dcmitype/StillImage"/>
    <dc:date>2025-04-08T11:50:29.554047</dc:date>
    <dc:format>image/svg+xml</dc:format>
    <dc:creator>
     <cc:Agent>
      <dc:title>Matplotlib v3.10.1, https://matplotlib.org/</dc:title>
     </cc:Agent>
    </dc:creator>
   </cc:Work>
  </rdf:RDF>
 </metadata>
 <defs>
  <style type="text/css">*{stroke-linejoin: round; stroke-linecap: butt}</style>
 </defs>
 <g id="figure_1">
  <g id="patch_1">
   <path d="M 0 720 
L 720 720 
L 720 0 
L 0 0 
z
" style="fill: #ffffff"/>
  </g>
  <g id="axes_1">
   <g id="matplotlib.axis_1"/>
   <g id="matplotlib.axis_2"/>
   <g id="patch_2">
    <path d="M 351.930557 78.251416 
C 300.93944 78.251416 250.83585 91.676634 206.676248 117.172196 
C 162.516647 142.667757 125.838277 179.346135 100.342724 223.505741 
C 74.847171 267.665348 61.421963 317.76894 61.421973 368.760058 
C 61.421983 419.751176 74.847211 469.854763 100.342782 514.014359 
L 351.930557 368.76 
z
" style="fill: #443983; stroke: #ffffff; stroke-linejoin: miter"/>
   </g>
   <g id="patch_3">
    <path d="M 100.342765 514.014344 
C 125.838344 558.173955 162.516689 594.852265 206.676291 620.347827 
C 250.835902 645.843389 300.939576 659.268619 351.930699 659.268584 
L 351.930557 368.76 
z
" style="fill: #31688e; stroke: #ffffff; stroke-linejoin: miter"/>
   </g>
   <g id="patch_4">
    <path d="M 351.930699 659.268584 
C 402.921802 659.268567 453.02536 645.843319 497.184936 620.347758 
C 541.344512 594.852196 578.022874 558.173816 603.518419 514.014223 
L 351.930557 368.76 
z
" style="fill: #21918c; stroke: #ffffff; stroke-linejoin: miter"/>
   </g>
   <g id="patch_5">
    <path d="M 603.518419 514.014223 
C 629.013963 469.85463 642.439142 419.75105 642.439142 368.759949 
C 642.439124 317.768846 629.013929 267.665284 603.518367 223.505691 
L 351.930557 368.76 
z
" style="fill: #35b779; stroke: #ffffff; stroke-linejoin: miter"/>
   </g>
   <g id="patch_6">
    <path d="M 603.518367 223.505691 
C 578.022805 179.346097 541.344443 142.667735 497.184849 117.17219 
C 453.025256 91.676646 402.921698 78.251416 351.930598 78.251416 
L 351.930557 368.76 
z
" style="fill: #90d743; stroke: #ffffff; stroke-linejoin: miter"/>
   </g>
   <g id="text_1">
    <!-- HTTP Clients -->
    <g transform="translate(16.305806 211.580332) scale(0.1 -0.1)">
     <defs>
      <path id="NotoSans-Regular-48" d="M 4115 0 
L 3539 0 
L 3539 2131 
L 1197 2131 
L 1197 0 
L 621 0 
L 621 4570 
L 1197 4570 
L 1197 2637 
L 3539 2637 
L 3539 4570 
L 4115 4570 
L 4115 0 
z
" transform="scale(0.015625)"/>
      <path id="NotoSans-Regular-54" d="M 2067 0 
L 1491 0 
L 1491 4064 
L 64 4064 
L 64 4570 
L 3488 4570 
L 3488 4064 
L 2067 4064 
L 2067 0 
z
" transform="scale(0.015625)"/>
      <path id="NotoSans-Regular-50" d="M 1830 4570 
Q 2726 4570 3136 4218 
Q 3546 3866 3546 3226 
Q 3546 2848 3376 2518 
Q 3206 2189 2806 1984 
Q 2406 1779 1722 1779 
L 1197 1779 
L 1197 0 
L 621 0 
L 621 4570 
L 1830 4570 
z
M 1779 4077 
L 1197 4077 
L 1197 2272 
L 1658 2272 
Q 2310 2272 2630 2483 
Q 2950 2694 2950 3200 
Q 2950 3642 2668 3859 
Q 2387 4077 1779 4077 
z
" transform="scale(0.015625)"/>
      <path id="NotoSans-Regular-20" transform="scale(0.015625)"/>
      <path id="NotoSans-Regular-43" d="M 2579 4128 
Q 1843 4128 1420 3635 
Q 998 3142 998 2285 
Q 998 1434 1392 938 
Q 1786 442 2573 442 
Q 2874 442 3142 493 
Q 3411 544 3667 621 
L 3667 122 
Q 3411 26 3139 -19 
Q 2867 -64 2490 -64 
Q 1792 -64 1325 224 
Q 858 512 624 1043 
Q 390 1574 390 2291 
Q 390 2982 643 3510 
Q 896 4038 1389 4336 
Q 1882 4634 2586 4634 
Q 3309 4634 3846 4365 
L 3616 3878 
Q 3405 3974 3145 4051 
Q 2886 4128 2579 4128 
z
" transform="scale(0.015625)"/>
      <path id="NotoSans-Regular-6c" d="M 1107 0 
L 544 0 
L 544 4864 
L 1107 4864 
L 1107 0 
z
" transform="scale(0.015625)"/>
      <path id="NotoSans-Regular-69" d="M 832 4717 
Q 960 4717 1059 4630 
Q 1158 4544 1158 4358 
Q 1158 4179 1059 4089 
Q 960 4000 832 4000 
Q 691 4000 595 4089 
Q 499 4179 499 4358 
Q 499 4544 595 4630 
Q 691 4717 832 4717 
z
M 1107 3430 
L 1107 0 
L 544 0 
L 544 3430 
L 1107 3430 
z
" transform="scale(0.015625)"/>
      <path id="NotoSans-Regular-65" d="M 1869 3494 
Q 2310 3494 2627 3302 
Q 2944 3110 3113 2761 
Q 3283 2413 3283 1946 
L 3283 1606 
L 934 1606 
Q 947 1024 1232 720 
Q 1517 416 2029 416 
Q 2355 416 2608 477 
Q 2861 538 3130 653 
L 3130 160 
Q 2867 45 2611 -9 
Q 2355 -64 2003 -64 
Q 1517 -64 1142 134 
Q 768 333 560 726 
Q 352 1120 352 1690 
Q 352 2253 541 2656 
Q 730 3059 1072 3276 
Q 1414 3494 1869 3494 
z
M 1862 3034 
Q 1459 3034 1225 2774 
Q 992 2515 947 2054 
L 2694 2054 
Q 2688 2490 2489 2762 
Q 2291 3034 1862 3034 
z
" transform="scale(0.015625)"/>
      <path id="NotoSans-Regular-6e" d="M 2195 3494 
Q 2810 3494 3123 3196 
Q 3437 2899 3437 2234 
L 3437 0 
L 2880 0 
L 2880 2195 
Q 2880 3021 2112 3021 
Q 1542 3021 1324 2701 
Q 1107 2381 1107 1779 
L 1107 0 
L 544 0 
L 544 3430 
L 998 3430 
L 1082 2963 
L 1114 2963 
Q 1280 3232 1574 3363 
Q 1869 3494 2195 3494 
z
" transform="scale(0.015625)"/>
      <path id="NotoSans-Regular-74" d="M 1690 397 
Q 1818 397 1952 419 
Q 2086 442 2170 467 
L 2170 38 
Q 2080 -6 1913 -35 
Q 1747 -64 1594 -64 
Q 1325 -64 1097 29 
Q 870 122 729 352 
Q 589 582 589 998 
L 589 2995 
L 102 2995 
L 102 3264 
L 595 3488 
L 819 4218 
L 1152 4218 
L 1152 3430 
L 2144 3430 
L 2144 2995 
L 1152 2995 
L 1152 1011 
Q 1152 698 1302 547 
Q 1453 397 1690 397 
z
" transform="scale(0.015625)"/>
      <path id="NotoSans-Regular-73" d="M 2778 947 
Q 2778 448 2406 192 
Q 2035 -64 1408 -64 
Q 1050 -64 790 -6 
Q 531 51 333 154 
L 333 666 
Q 538 563 829 476 
Q 1120 390 1421 390 
Q 1850 390 2042 528 
Q 2234 666 2234 896 
Q 2234 1024 2163 1126 
Q 2093 1229 1910 1331 
Q 1728 1434 1389 1562 
Q 1056 1690 819 1818 
Q 582 1946 454 2125 
Q 326 2304 326 2586 
Q 326 3021 681 3257 
Q 1037 3494 1613 3494 
Q 1926 3494 2198 3433 
Q 2470 3373 2707 3264 
L 2515 2816 
Q 2298 2906 2061 2970 
Q 1824 3034 1574 3034 
Q 1229 3034 1046 2922 
Q 864 2810 864 2618 
Q 864 2477 947 2377 
Q 1030 2278 1225 2185 
Q 1421 2093 1747 1965 
Q 2074 1843 2304 1715 
Q 2534 1587 2656 1404 
Q 2778 1222 2778 947 
z
" transform="scale(0.015625)"/>
     </defs>
     <use xlink:href="#NotoSans-Regular-48"/>
     <use xlink:href="#NotoSans-Regular-54" transform="translate(74.099991 0)"/>
     <use xlink:href="#NotoSans-Regular-54" transform="translate(129.699982 0)"/>
     <use xlink:href="#NotoSans-Regular-50" transform="translate(185.299973 0)"/>
     <use xlink:href="#NotoSans-Regular-20" transform="translate(245.799957 0)"/>
     <use xlink:href="#NotoSans-Regular-43" transform="translate(271.799942 0)"/>
     <use xlink:href="#NotoSans-Regular-6c" transform="translate(334.999939 0)"/>
     <use xlink:href="#NotoSans-Regular-69" transform="translate(360.799927 0)"/>
     <use xlink:href="#NotoSans-Regular-65" transform="translate(386.599915 0)"/>
     <use xlink:href="#NotoSans-Regular-6e" transform="translate(442.999908 0)"/>
     <use xlink:href="#NotoSans-Regular-74" transform="translate(504.799896 0)"/>
     <use xlink:href="#NotoSans-Regular-73" transform="translate(540.899887 0)"/>
    </g>
   </g>
   <g id="text_2">
    <!-- 33.3% -->
    <g transform="translate(186.902852 284.207454) scale(0.1 -0.1)">
     <defs>
      <path id="NotoSans-Regular-33" d="M 3155 3501 
Q 3155 3040 2899 2768 
Q 2643 2496 2208 2406 
L 2208 2381 
Q 2758 2317 3027 2035 
Q 3296 1754 3296 1299 
Q 3296 902 3110 592 
Q 2925 282 2537 109 
Q 2150 -64 1542 -64 
Q 1184 -64 877 -9 
Q 570 45 288 186 
L 288 710 
Q 576 570 909 490 
Q 1242 410 1549 410 
Q 2163 410 2435 650 
Q 2707 890 2707 1312 
Q 2707 1741 2371 1929 
Q 2035 2118 1427 2118 
L 986 2118 
L 986 2598 
L 1434 2598 
Q 1997 2598 2288 2835 
Q 2579 3072 2579 3462 
Q 2579 3795 2355 3977 
Q 2131 4160 1747 4160 
Q 1376 4160 1113 4051 
Q 851 3942 595 3776 
L 314 4160 
Q 557 4352 918 4493 
Q 1280 4634 1741 4634 
Q 2458 4634 2806 4314 
Q 3155 3994 3155 3501 
z
" transform="scale(0.015625)"/>
      <path id="NotoSans-Regular-2e" d="M 461 346 
Q 461 582 576 678 
Q 691 774 851 774 
Q 1018 774 1136 678 
Q 1254 582 1254 346 
Q 1254 115 1136 12 
Q 1018 -90 851 -90 
Q 691 -90 576 12 
Q 461 115 461 346 
z
" transform="scale(0.015625)"/>
      <path id="NotoSans-Regular-25" d="M 1248 4634 
Q 1722 4634 1965 4259 
Q 2208 3885 2208 3206 
Q 2208 2528 1974 2147 
Q 1741 1766 1248 1766 
Q 794 1766 554 2147 
Q 314 2528 314 3206 
Q 314 3885 538 4259 
Q 762 4634 1248 4634 
z
M 4173 4570 
L 1638 0 
L 1146 0 
L 3680 4570 
L 4173 4570 
z
M 1248 4237 
Q 1005 4237 893 3977 
Q 781 3718 781 3206 
Q 781 2694 893 2432 
Q 1005 2170 1248 2170 
Q 1741 2170 1741 3206 
Q 1741 4237 1248 4237 
z
M 4045 2803 
Q 4512 2803 4758 2428 
Q 5005 2054 5005 1376 
Q 5005 698 4771 317 
Q 4538 -64 4045 -64 
Q 3590 -64 3350 317 
Q 3110 698 3110 1376 
Q 3110 2054 3334 2428 
Q 3558 2803 4045 2803 
z
M 4045 2400 
Q 3802 2400 3690 2144 
Q 3578 1888 3578 1376 
Q 3578 858 3690 598 
Q 3802 339 4045 339 
Q 4538 339 4538 1376 
Q 4538 2400 4045 2400 
z
" transform="scale(0.015625)"/>
     </defs>
     <use xlink:href="#NotoSans-Regular-33"/>
     <use xlink:href="#NotoSans-Regular-33" transform="translate(57.199997 0)"/>
     <use xlink:href="#NotoSans-Regular-2e" transform="translate(114.399994 0)"/>
     <use xlink:href="#NotoSans-Regular-33" transform="translate(141.199982 0)"/>
     <use xlink:href="#NotoSans-Regular-25" transform="translate(198.399979 0)"/>
    </g>
   </g>
   <g id="text_3">
    <!-- Email Tools -->
    <g transform="translate(138.843188 648.10669) scale(0.1 -0.1)">
     <defs>
      <path id="NotoSans-Regular-45" d="M 3174 0 
L 621 0 
L 621 4570 
L 3174 4570 
L 3174 4064 
L 1197 4064 
L 1197 2637 
L 3059 2637 
L 3059 2138 
L 1197 2138 
L 1197 506 
L 3174 506 
L 3174 0 
z
" transform="scale(0.015625)"/>
      <path id="NotoSans-Regular-6d" d="M 4307 3494 
Q 4890 3494 5178 3196 
Q 5466 2899 5466 2234 
L 5466 0 
L 4909 0 
L 4909 2208 
Q 4909 3021 4211 3021 
Q 3712 3021 3497 2733 
Q 3283 2445 3283 1894 
L 3283 0 
L 2726 0 
L 2726 2208 
Q 2726 3021 2022 3021 
Q 1504 3021 1305 2701 
Q 1107 2381 1107 1779 
L 1107 0 
L 544 0 
L 544 3430 
L 998 3430 
L 1082 2963 
L 1114 2963 
Q 1274 3232 1546 3363 
Q 1818 3494 2125 3494 
Q 2931 3494 3174 2918 
L 3206 2918 
Q 3379 3213 3676 3353 
Q 3974 3494 4307 3494 
z
" transform="scale(0.015625)"/>
      <path id="NotoSans-Regular-61" d="M 1843 3488 
Q 2470 3488 2771 3213 
Q 3072 2938 3072 2336 
L 3072 0 
L 2662 0 
L 2554 486 
L 2528 486 
Q 2304 205 2057 70 
Q 1811 -64 1376 -64 
Q 909 -64 601 182 
Q 294 429 294 954 
Q 294 1466 697 1744 
Q 1101 2022 1939 2048 
L 2522 2067 
L 2522 2272 
Q 2522 2701 2336 2867 
Q 2150 3034 1811 3034 
Q 1542 3034 1299 2954 
Q 1056 2874 845 2771 
L 672 3194 
Q 896 3315 1203 3401 
Q 1510 3488 1843 3488 
z
M 2010 1658 
Q 1370 1632 1123 1453 
Q 877 1274 877 947 
Q 877 659 1053 524 
Q 1229 390 1504 390 
Q 1939 390 2227 630 
Q 2515 870 2515 1370 
L 2515 1677 
L 2010 1658 
z
" transform="scale(0.015625)"/>
      <path id="NotoSans-Regular-6f" d="M 3526 1722 
Q 3526 870 3094 403 
Q 2662 -64 1926 -64 
Q 1472 -64 1117 144 
Q 762 352 557 752 
Q 352 1152 352 1722 
Q 352 2573 781 3033 
Q 1210 3494 1946 3494 
Q 2413 3494 2768 3286 
Q 3123 3078 3324 2684 
Q 3526 2291 3526 1722 
z
M 934 1722 
Q 934 1114 1174 758 
Q 1414 403 1939 403 
Q 2458 403 2701 758 
Q 2944 1114 2944 1722 
Q 2944 2330 2701 2675 
Q 2458 3021 1933 3021 
Q 1408 3021 1171 2675 
Q 934 2330 934 1722 
z
" transform="scale(0.015625)"/>
     </defs>
     <use xlink:href="#NotoSans-Regular-45"/>
     <use xlink:href="#NotoSans-Regular-6d" transform="translate(55.599991 0)"/>
     <use xlink:href="#NotoSans-Regular-61" transform="translate(149.099976 0)"/>
     <use xlink:href="#NotoSans-Regular-69" transform="translate(205.199966 0)"/>
     <use xlink:href="#NotoSans-Regular-6c" transform="translate(230.999954 0)"/>
     <use xlink:href="#NotoSans-Regular-20" transform="translate(256.799942 0)"/>
     <use xlink:href="#NotoSans-Regular-54" transform="translate(282.799927 0)"/>
     <use xlink:href="#NotoSans-Regular-6f" transform="translate(338.399918 0)"/>
     <use xlink:href="#NotoSans-Regular-6f" transform="translate(398.899902 0)"/>
     <use xlink:href="#NotoSans-Regular-6c" transform="translate(459.399887 0)"/>
     <use xlink:href="#NotoSans-Regular-73" transform="translate(485.199875 0)"/>
    </g>
   </g>
   <g id="text_4">
    <!-- 16.7% -->
    <g transform="translate(250.703071 522.31274) scale(0.1 -0.1)">
     <defs>
      <path id="NotoSans-Regular-31" d="M 2272 0 
L 1722 0 
L 1722 3194 
Q 1722 3469 1728 3635 
Q 1734 3802 1747 3981 
Q 1645 3878 1561 3808 
Q 1478 3738 1350 3629 
L 864 3232 
L 570 3610 
L 1805 4570 
L 2272 4570 
L 2272 0 
z
" transform="scale(0.015625)"/>
      <path id="NotoSans-Regular-36" d="M 352 1952 
Q 352 2445 438 2921 
Q 525 3398 752 3785 
Q 979 4173 1388 4403 
Q 1798 4634 2445 4634 
Q 2579 4634 2742 4621 
Q 2906 4608 3008 4576 
L 3008 4096 
Q 2893 4134 2749 4153 
Q 2605 4173 2458 4173 
Q 2016 4173 1721 4025 
Q 1427 3878 1257 3622 
Q 1088 3366 1011 3033 
Q 934 2701 915 2323 
L 954 2323 
Q 1101 2547 1363 2704 
Q 1626 2861 2035 2861 
Q 2630 2861 2995 2499 
Q 3360 2138 3360 1472 
Q 3360 755 2966 345 
Q 2573 -64 1907 -64 
Q 1472 -64 1120 153 
Q 768 371 560 819 
Q 352 1267 352 1952 
z
M 1901 410 
Q 2304 410 2553 669 
Q 2803 928 2803 1472 
Q 2803 1907 2582 2163 
Q 2362 2419 1920 2419 
Q 1619 2419 1395 2294 
Q 1171 2170 1046 1978 
Q 922 1786 922 1581 
Q 922 1306 1030 1034 
Q 1139 762 1356 586 
Q 1574 410 1901 410 
z
" transform="scale(0.015625)"/>
      <path id="NotoSans-Regular-37" d="M 870 0 
L 2746 4058 
L 282 4058 
L 282 4570 
L 3347 4570 
L 3347 4134 
L 1491 0 
L 870 0 
z
" transform="scale(0.015625)"/>
     </defs>
     <use xlink:href="#NotoSans-Regular-31"/>
     <use xlink:href="#NotoSans-Regular-36" transform="translate(57.199997 0)"/>
     <use xlink:href="#NotoSans-Regular-2e" transform="translate(114.399994 0)"/>
     <use xlink:href="#NotoSans-Regular-37" transform="translate(141.199982 0)"/>
     <use xlink:href="#NotoSans-Regular-25" transform="translate(198.399979 0)"/>
    </g>
   </g>
   <g id="text_5">
    <!-- Logging -->
    <g transform="translate(511.710385 648.106534) scale(0.1 -0.1)">
     <defs>
      <path id="NotoSans-Regular-4c" d="M 621 0 
L 621 4570 
L 1197 4570 
L 1197 512 
L 3194 512 
L 3194 0 
L 621 0 
z
" transform="scale(0.015625)"/>
      <path id="NotoSans-Regular-67" d="M 1760 3494 
Q 2099 3494 2371 3366 
Q 2643 3238 2835 2976 
L 2867 2976 
L 2944 3430 
L 3392 3430 
L 3392 -58 
Q 3392 -794 3017 -1165 
Q 2643 -1536 1856 -1536 
Q 1101 -1536 621 -1318 
L 621 -800 
Q 1126 -1069 1888 -1069 
Q 2330 -1069 2582 -809 
Q 2835 -550 2835 -102 
L 2835 32 
Q 2835 109 2841 253 
Q 2848 397 2854 454 
L 2829 454 
Q 2483 -64 1766 -64 
Q 1101 -64 726 403 
Q 352 870 352 1709 
Q 352 2528 726 3011 
Q 1101 3494 1760 3494 
z
M 1837 3021 
Q 1408 3021 1171 2678 
Q 934 2336 934 1702 
Q 934 1069 1168 733 
Q 1402 397 1850 397 
Q 2368 397 2605 675 
Q 2842 954 2842 1574 
L 2842 1709 
Q 2842 2413 2598 2717 
Q 2355 3021 1837 3021 
z
" transform="scale(0.015625)"/>
     </defs>
     <use xlink:href="#NotoSans-Regular-4c"/>
     <use xlink:href="#NotoSans-Regular-6f" transform="translate(52.399994 0)"/>
     <use xlink:href="#NotoSans-Regular-67" transform="translate(112.899979 0)"/>
     <use xlink:href="#NotoSans-Regular-67" transform="translate(174.399963 0)"/>
     <use xlink:href="#NotoSans-Regular-69" transform="translate(235.899948 0)"/>
     <use xlink:href="#NotoSans-Regular-6e" transform="translate(261.699936 0)"/>
     <use xlink:href="#NotoSans-Regular-67" transform="translate(323.499924 0)"/>
    </g>
   </g>
   <g id="text_6">
    <!-- 16.7% -->
    <g transform="translate(425.008191 522.312655) scale(0.1 -0.1)">
     <use xlink:href="#NotoSans-Regular-31"/>
     <use xlink:href="#NotoSans-Regular-36" transform="translate(57.199997 0)"/>
     <use xlink:href="#NotoSans-Regular-2e" transform="translate(114.399994 0)"/>
     <use xlink:href="#NotoSans-Regular-37" transform="translate(141.199982 0)"/>
     <use xlink:href="#NotoSans-Regular-25" transform="translate(198.399979 0)"/>
    </g>
   </g>
   <g id="text_7">
    <!-- Security -->
    <g transform="translate(671.49 371.359944) scale(0.1 -0.1)">
     <defs>
      <path id="NotoSans-Regular-53" d="M 3213 1222 
Q 3213 614 2771 275 
Q 2330 -64 1581 -64 
Q 1197 -64 870 -6 
Q 544 51 326 154 
L 326 704 
Q 557 602 899 518 
Q 1242 435 1606 435 
Q 2118 435 2377 633 
Q 2637 832 2637 1171 
Q 2637 1395 2541 1548 
Q 2445 1702 2211 1833 
Q 1978 1965 1562 2112 
Q 979 2323 681 2630 
Q 384 2938 384 3469 
Q 384 3834 569 4093 
Q 755 4352 1084 4493 
Q 1414 4634 1843 4634 
Q 2221 4634 2534 4563 
Q 2848 4493 3104 4378 
L 2925 3885 
Q 2688 3987 2409 4057 
Q 2131 4128 1830 4128 
Q 1402 4128 1184 3945 
Q 966 3763 966 3462 
Q 966 3232 1062 3078 
Q 1158 2925 1376 2803 
Q 1594 2682 1965 2541 
Q 2368 2394 2646 2224 
Q 2925 2054 3069 1817 
Q 3213 1581 3213 1222 
z
" transform="scale(0.015625)"/>
      <path id="NotoSans-Regular-63" d="M 1920 -64 
Q 1466 -64 1110 121 
Q 755 307 553 697 
Q 352 1088 352 1696 
Q 352 2330 563 2726 
Q 774 3123 1136 3308 
Q 1498 3494 1958 3494 
Q 2221 3494 2464 3440 
Q 2707 3386 2861 3309 
L 2688 2842 
Q 2534 2899 2329 2950 
Q 2125 3002 1946 3002 
Q 934 3002 934 1702 
Q 934 1082 1180 752 
Q 1427 422 1914 422 
Q 2195 422 2409 480 
Q 2624 538 2803 621 
L 2803 122 
Q 2630 32 2422 -16 
Q 2214 -64 1920 -64 
z
" transform="scale(0.015625)"/>
      <path id="NotoSans-Regular-75" d="M 3411 3430 
L 3411 0 
L 2950 0 
L 2867 454 
L 2842 454 
Q 2675 186 2380 61 
Q 2086 -64 1754 -64 
Q 1133 -64 819 233 
Q 506 531 506 1184 
L 506 3430 
L 1075 3430 
L 1075 1222 
Q 1075 403 1837 403 
Q 2406 403 2627 723 
Q 2848 1043 2848 1645 
L 2848 3430 
L 3411 3430 
z
" transform="scale(0.015625)"/>
      <path id="NotoSans-Regular-72" d="M 2144 3494 
Q 2240 3494 2352 3484 
Q 2464 3475 2547 3456 
L 2477 2938 
Q 2394 2957 2294 2969 
Q 2195 2982 2106 2982 
Q 1843 2982 1612 2838 
Q 1382 2694 1244 2435 
Q 1107 2176 1107 1830 
L 1107 0 
L 544 0 
L 544 3430 
L 1005 3430 
L 1069 2803 
L 1094 2803 
Q 1261 3085 1523 3289 
Q 1786 3494 2144 3494 
z
" transform="scale(0.015625)"/>
      <path id="NotoSans-Regular-79" d="M 6 3430 
L 608 3430 
L 1350 1478 
Q 1446 1222 1523 988 
Q 1600 755 1638 544 
L 1664 544 
Q 1702 704 1785 963 
Q 1869 1222 1958 1485 
L 2656 3430 
L 3264 3430 
L 1786 -474 
Q 1606 -960 1321 -1248 
Q 1037 -1536 538 -1536 
Q 384 -1536 269 -1520 
Q 154 -1504 70 -1485 
L 70 -1037 
Q 141 -1050 240 -1062 
Q 339 -1075 448 -1075 
Q 742 -1075 924 -908 
Q 1107 -742 1210 -467 
L 1389 -13 
L 6 3430 
z
" transform="scale(0.015625)"/>
     </defs>
     <use xlink:href="#NotoSans-Regular-53"/>
     <use xlink:href="#NotoSans-Regular-65" transform="translate(54.899994 0)"/>
     <use xlink:href="#NotoSans-Regular-63" transform="translate(111.299988 0)"/>
     <use xlink:href="#NotoSans-Regular-75" transform="translate(159.299973 0)"/>
     <use xlink:href="#NotoSans-Regular-72" transform="translate(221.09996 0)"/>
     <use xlink:href="#NotoSans-Regular-69" transform="translate(262.399948 0)"/>
     <use xlink:href="#NotoSans-Regular-74" transform="translate(288.199936 0)"/>
     <use xlink:href="#NotoSans-Regular-79" transform="translate(324.299927 0)"/>
    </g>
   </g>
   <g id="text_8">
    <!-- 16.7% -->
    <g transform="translate(512.160708 371.35997) scale(0.1 -0.1)">
     <use xlink:href="#NotoSans-Regular-31"/>
     <use xlink:href="#NotoSans-Regular-36" transform="translate(57.199997 0)"/>
     <use xlink:href="#NotoSans-Regular-2e" transform="translate(114.399994 0)"/>
     <use xlink:href="#NotoSans-Regular-37" transform="translate(141.199982 0)"/>
     <use xlink:href="#NotoSans-Regular-25" transform="translate(198.399979 0)"/>
    </g>
   </g>
   <g id="text_9">
    <!-- Utilities -->
    <g transform="translate(511.710024 94.613258) scale(0.1 -0.1)">
     <defs>
      <path id="NotoSans-Regular-55" d="M 4096 1613 
Q 4096 1139 3904 758 
Q 3712 378 3318 157 
Q 2925 -64 2317 -64 
Q 1466 -64 1021 400 
Q 576 864 576 1626 
L 576 4570 
L 1152 4570 
L 1152 1606 
Q 1152 1050 1449 742 
Q 1747 435 2349 435 
Q 2970 435 3248 764 
Q 3526 1094 3526 1613 
L 3526 4570 
L 4096 4570 
L 4096 1613 
z
" transform="scale(0.015625)"/>
     </defs>
     <use xlink:href="#NotoSans-Regular-55"/>
     <use xlink:href="#NotoSans-Regular-74" transform="translate(73.099991 0)"/>
     <use xlink:href="#NotoSans-Regular-69" transform="translate(109.199982 0)"/>
     <use xlink:href="#NotoSans-Regular-6c" transform="translate(134.999969 0)"/>
     <use xlink:href="#NotoSans-Regular-69" transform="translate(160.799957 0)"/>
     <use xlink:href="#NotoSans-Regular-74" transform="translate(186.599945 0)"/>
     <use xlink:href="#NotoSans-Regular-69" transform="translate(222.699936 0)"/>
     <use xlink:href="#NotoSans-Regular-65" transform="translate(248.499924 0)"/>
     <use xlink:href="#NotoSans-Regular-73" transform="translate(304.899918 0)"/>
    </g>
   </g>
   <g id="text_10">
    <!-- 16.7% -->
    <g transform="translate(425.007994 220.407231) scale(0.1 -0.1)">
     <use xlink:href="#NotoSans-Regular-31"/>
     <use xlink:href="#NotoSans-Regular-36" transform="translate(57.199997 0)"/>
     <use xlink:href="#NotoSans-Regular-2e" transform="translate(114.399994 0)"/>
     <use xlink:href="#NotoSans-Regular-37" transform="translate(141.199982 0)"/>
     <use xlink:href="#NotoSans-Regular-25" transform="translate(198.399979 0)"/>
    </g>
   </g>
   <g id="text_11">
    <!-- Package Categories Distribution -->
    <g transform="translate(231.404307 22.32) scale(0.16 -0.16)">
     <defs>
      <path id="NotoSans-Regular-6b" d="M 1101 2323 
Q 1101 2221 1091 2054 
Q 1082 1888 1075 1766 
L 1101 1766 
Q 1139 1818 1216 1914 
Q 1293 2010 1373 2109 
Q 1453 2208 1510 2272 
L 2605 3430 
L 3264 3430 
L 1875 1965 
L 3360 0 
L 2682 0 
L 1491 1600 
L 1101 1261 
L 1101 0 
L 544 0 
L 544 4864 
L 1101 4864 
L 1101 2323 
z
" transform="scale(0.015625)"/>
      <path id="NotoSans-Regular-44" d="M 4282 2330 
Q 4282 1171 3651 585 
Q 3021 0 1894 0 
L 621 0 
L 621 4570 
L 2029 4570 
Q 2720 4570 3225 4314 
Q 3731 4058 4006 3562 
Q 4282 3066 4282 2330 
z
M 3674 2310 
Q 3674 3226 3222 3651 
Q 2771 4077 1946 4077 
L 1197 4077 
L 1197 493 
L 1818 493 
Q 3674 493 3674 2310 
z
" transform="scale(0.015625)"/>
      <path id="NotoSans-Regular-62" d="M 1107 3680 
Q 1107 3462 1097 3273 
Q 1088 3085 1075 2976 
L 1107 2976 
Q 1254 3194 1510 3341 
Q 1766 3488 2170 3488 
Q 2810 3488 3197 3043 
Q 3584 2598 3584 1715 
Q 3584 832 3193 384 
Q 2803 -64 2170 -64 
Q 1766 -64 1510 83 
Q 1254 230 1107 435 
L 1062 435 
L 947 0 
L 544 0 
L 544 4864 
L 1107 4864 
L 1107 3680 
z
M 2074 3021 
Q 1530 3021 1318 2707 
Q 1107 2394 1107 1734 
L 1107 1709 
Q 1107 1075 1315 739 
Q 1523 403 2086 403 
Q 2547 403 2774 742 
Q 3002 1082 3002 1722 
Q 3002 3021 2074 3021 
z
" transform="scale(0.015625)"/>
     </defs>
     <use xlink:href="#NotoSans-Regular-50"/>
     <use xlink:href="#NotoSans-Regular-61" transform="translate(60.499985 0)"/>
     <use xlink:href="#NotoSans-Regular-63" transform="translate(116.599976 0)"/>
     <use xlink:href="#NotoSans-Regular-6b" transform="translate(164.59996 0)"/>
     <use xlink:href="#NotoSans-Regular-61" transform="translate(217.999954 0)"/>
     <use xlink:href="#NotoSans-Regular-67" transform="translate(274.099945 0)"/>
     <use xlink:href="#NotoSans-Regular-65" transform="translate(335.59993 0)"/>
     <use xlink:href="#NotoSans-Regular-20" transform="translate(391.999924 0)"/>
     <use xlink:href="#NotoSans-Regular-43" transform="translate(417.999908 0)"/>
     <use xlink:href="#NotoSans-Regular-61" transform="translate(481.199905 0)"/>
     <use xlink:href="#NotoSans-Regular-74" transform="translate(537.299896 0)"/>
     <use xlink:href="#NotoSans-Regular-65" transform="translate(573.399887 0)"/>
     <use xlink:href="#NotoSans-Regular-67" transform="translate(629.799881 0)"/>
     <use xlink:href="#NotoSans-Regular-6f" transform="translate(691.299866 0)"/>
     <use xlink:href="#NotoSans-Regular-72" transform="translate(751.79985 0)"/>
     <use xlink:href="#NotoSans-Regular-69" transform="translate(793.099838 0)"/>
     <use xlink:href="#NotoSans-Regular-65" transform="translate(818.899826 0)"/>
     <use xlink:href="#NotoSans-Regular-73" transform="translate(875.29982 0)"/>
     <use xlink:href="#NotoSans-Regular-20" transform="translate(923.199814 0)"/>
     <use xlink:href="#NotoSans-Regular-44" transform="translate(949.199799 0)"/>
     <use xlink:href="#NotoSans-Regular-69" transform="translate(1022.199783 0)"/>
     <use xlink:href="#NotoSans-Regular-73" transform="translate(1047.999771 0)"/>
     <use xlink:href="#NotoSans-Regular-74" transform="translate(1095.899765 0)"/>
     <use xlink:href="#NotoSans-Regular-72" transform="translate(1131.999756 0)"/>
     <use xlink:href="#NotoSans-Regular-69" transform="translate(1173.299744 0)"/>
     <use xlink:href="#NotoSans-Regular-62" transform="translate(1199.099731 0)"/>
     <use xlink:href="#NotoSans-Regular-75" transform="translate(1260.599716 0)"/>
     <use xlink:href="#NotoSans-Regular-74" transform="translate(1322.399704 0)"/>
     <use xlink:href="#NotoSans-Regular-69" transform="translate(1358.499695 0)"/>
     <use xlink:href="#NotoSans-Regular-6f" transform="translate(1384.299683 0)"/>
     <use xlink:href="#NotoSans-Regular-6e" transform="translate(1444.799667 0)"/>
    </g>
   </g>
  </g>
 </g>
</svg>
