<svg xmlns="http://www.w3.org/2000/svg" width="369" height="200"><defs><linearGradient id="a" x1="50%" x2="50%" y1="118.57%" y2="320.71%"><stop offset="0%" stop-color="#80B43A"/><stop offset="100%" stop-color="#8AC43F"/></linearGradient><linearGradient id="b" x1="50%" x2="50%" y1="21.157%" y2="93.077%"><stop offset="0%" stop-color="#80B43A"/><stop offset="100%" stop-color="#8AC43F"/></linearGradient><linearGradient id="c" x1=".001%" x2="100%" y1="50.001%" y2="50.001%"><stop offset="0%" stop-color="#FAAF40"/><stop offset="100%" stop-color="#F6931E"/></linearGradient><linearGradient id="d" x1="9.113%" x2="89.958%" y1="85.52%" y2="21.052%"><stop offset="0%" stop-color="#FAAF40"/><stop offset="100%" stop-color="#F6931E"/></linearGradient><linearGradient id="e" x1="50%" x2="50%" y1="99.219%" y2=".316%"><stop offset="0%" stop-color="#FAAF40"/><stop offset="100%" stop-color="#F6931E"/></linearGradient><linearGradient id="f" x1="50%" x2="50%" y1="102.781%" y2=".36%"><stop offset="0%" stop-color="#5FB7E6"/><stop offset="100%" stop-color="#26A8DF"/></linearGradient><linearGradient id="g" x1=".002%" x2="100.004%" y1="49.999%" y2="49.999%"><stop offset="0%" stop-color="#8CC53F"/><stop offset="100%" stop-color="#39B44A"/></linearGradient><linearGradient id="h" x1=".001%" x2="100.001%" y1="49.999%" y2="49.999%"><stop offset="0%" stop-color="#8CC53F"/><stop offset="100%" stop-color="#39B44A"/></linearGradient></defs><g fill="none" fill-rule="evenodd"><path fill="#8CC53F" fill-rule="nonzero" d="M29.862 148.017c-2.235 1.033-4.945 6.404-8.325 5.158-3.38-1.245-10.228-12.601-11.37-13.686-1.236-1.174-2.203-1.572-2.778-.96-.575.614-.175 1.561-.175 1.561s-1.74-1.96-3.071-.696c-1.259 1.195-.004 2.764-.004 2.764s-1.653-.05-2.415.904c-.578.725 4.67 6.061 7.538 10.13 2.592 3.679 9.162 13.172 16.05 11.045 6.888-2.128 12.137-6.713 11.225-10.19-.91-3.476-3.593-7.455-6.675-6.03m67.881 0c2.235 1.033 4.945 6.404 8.325 5.158 3.379-1.245 10.229-12.601 11.37-13.686 1.237-1.174 2.203-1.572 2.778-.96.575.614.175 1.561.175 1.561s1.74-1.96 3.071-.696c1.258 1.195.004 2.764.004 2.764s1.653-.05 2.414.904c.579.725-4.67 6.061-7.537 10.13-2.592 3.679-9.163 13.172-16.05 11.045-6.888-2.128-12.136-6.713-11.225-10.19.911-3.476 3.593-7.455 6.675-6.03"/><path fill="#B6D351" d="M32.191 196.865c3.581-.163 6.85-2.165 6.181-.04-.67 2.124 1.24 2.106 3.18.473.818-.687 8.67-.508 9.757.174 2.21 1.388-.69-5.26-2.725-7.893-2.037-2.634-8.077 2.87-16.393 7.286"/><path fill="#B6D351" d="M40.275 197.868h-8.084v-2.002h8.084zm58.093-3.786c-3.582-.163-6.232 1.855-5.564 3.98-1.099-3.486 1.456 2.974-2.254-.145-.113-.096-7.725-1.409-9.755-.136-2.211 1.388.688-5.26 2.725-7.893 2.036-2.634 6.532-.223 14.848 4.194"/><path fill="#B6D351" d="M99.306 196.826h-9.268v-3.873l8.959 1.547z"/><path fill="url(#a)" fill-rule="nonzero" d="M4.827 28.902c5.902-5.418 11.16-17.778-2.097-24.554C-.749 2.572-.638 1.299 1.574 1.552c2.45.282 6.72 4.494 7.406 4.022.603-.415-.972-1.686-1.362-4.027-.228-1.368.394-1.212 1.48-.441 1.521 1.078 3.92 4.333 5.19 4.378.711.024 2.152-1.316 3.523-2.656 2.118-2.07 4.071-4.14 2.92-1.18-4.346 11.162-2.16 16.18 12.826 16 .292-.017.602-.025.95-.017.35-.008.66 0 .953.017 14.985.18 17.171-4.838 12.826-16-1.153-2.96.8-.89 2.919 1.18 1.37 1.34 2.811 2.68 3.523 2.656 1.271-.045 3.669-3.61 5.19-4.688.734-.521 1.052-.407 1.207-.292.088.065.125.13.156.079-.553 2.376-2.109 5.846-1.553 6.228.686.472 7.734-5.596 10.186-5.877 2.212-.254 1.088 1.947-2.391 3.723-13.257 6.776-9.234 18.827-3.333 24.245-.13 1.178-14.906 1.767-29.682 1.767-14.776 0-29.553-.589-29.681-1.767M61.399 0c-.063.376-.088.534-.118.583A9.19 9.19 0 0 0 61.399 0" transform="matrix(1 0 0 -1 31.543 198.727)"/><path fill="url(#b)" fill-rule="nonzero" d="M0 44.803C0 20.126 20.105 0 44.753 0 69.403 0 89.51 20.126 89.51 44.803c0 24.678-20.105 44.805-44.756 44.805C20.105 89.608 0 69.481 0 44.803" transform="matrix(1 0 0 -1 21.297 181.096)"/><path fill="#1A1A1A" d="M83.688 134.583a3.755 3.755 0 0 0 3.746-3.751 3.755 3.755 0 0 0-3.746-3.75 3.755 3.755 0 0 0-3.746 3.75 3.756 3.756 0 0 0 3.746 3.75"/><path fill="#FFF" d="M85.332 130.444a1.102 1.102 0 0 0 0-2.202 1.101 1.101 0 0 0 0 2.202"/><path fill="#1A1A1A" d="M48.415 134.583a3.756 3.756 0 0 0 3.745-3.751 3.755 3.755 0 0 0-3.745-3.75 3.754 3.754 0 0 0-3.746 3.75 3.755 3.755 0 0 0 3.746 3.75"/><path fill="#FFF" d="M50.059 130.444a1.102 1.102 0 0 0 0-2.202 1.102 1.102 0 0 0 0 2.202"/><path fill="#1A1A1A" fill-rule="nonzero" d="M72.433 143.29a.977.977 0 0 0-1.378.112c-.017.02-1.787 2.005-5.003 2.005-3.433 0-4.802-1.738-4.938-1.924a.982.982 0 0 0-1.617 1.11c.076.113 1.923 2.777 6.555 2.777 4.153 0 6.4-2.583 6.492-2.69a.988.988 0 0 0-.11-1.39"/><path fill="url(#c)" fill-rule="nonzero" d="M6.833 22.095c-.64-.264-1.026.245-1.416.753-.387.502-.778 1.004-1.426.761-1.611-.604.137-2.448-1.13-3.19-.46-.27-.748-.097-1.057.076-.32.178-.663.357-1.246.046-2.116-1.132 2.022-12.284 8.4-17.306 6.516-5.131 17.482-3.467 25.818.208 6.445 2.84 5.885 9.216-1.798 6.634-7.685-2.582-13.674-2.696-18.87 3.103-5.764 6.433-2.95 10.997-4.949 11.258a2.685 2.685 0 0 1-.336.024c-1.512 0-.47-1.741-1.99-2.367" transform="matrix(1 0 0 -1 235.08 144.024)"/><path fill="url(#d)" fill-rule="nonzero" d="M3.476 20.907c5.922-1.663 9.729-4.15 10.517-10.008.875-6.498-2.836-8.16-1.693-9.177.66-.587.943-.247 1.315.093.273.25.593.499 1.143.384 1.022-.216.112-1.916 1.138-2.165.67-.163.9.29 1.13.744.207.405.415.81.94.776.821-.056.412-.956 1.392-1.06 1.81-.194 3.967 8.57 2.106 14.446-1.902 6.003-9.492 9.642-16.289 10.898a8.3 8.3 0 0 1-1.494.142c-4.152 0-5.53-3.579-.205-5.073" transform="matrix(1 0 0 -1 337.287 159.243)"/><path fill="url(#e)" fill-rule="nonzero" d="M38.573 113.503c-16.872-.411-32.34-11.555-35.135-25.442-4.185-20.804-.485-64.667-.485-64.667H3c.195-6.82.286-14.274-.181-15.77C1.92 4.744-.715 4.603.184 3.218c.97-1.493 3.342-.023 3.342-.023S2.84.545 5.696.066c2.81-.47 2.875 1.721 2.875 1.721s2.578-.767 3.484.462c1.106 1.5-.608 1.956-1.327 3.396-.72 1.44-.287 8.568.764 12.371.734 2.658 5.909 5.415 9.32 6.178 12.93 2.89 25.507 2.957 39.048.718 3.177-.525 9.688-3.533 10.62-6.729 1.101-3.789 1.633-10.91.933-12.36-.698-1.449-2.407-1.93-1.28-3.414.923-1.215 3.482-.414 3.482-.414s.104-2.19 2.909-1.68c2.848.519 2.124 2.849 2.124 2.849s2.392-1.128 3.342.379c.88 1.397-1.757 1.503-2.695 4.369-.507 1.547-.5 9.534-.387 16.56l.08.002s4.298 40.947-3.41 62.937c-6.955 19.847-18.724 26.114-35.317 26.114-.557 0-1.12-.008-1.688-.022" transform="matrix(1 0 0 -1 264.595 197.955)"/><path fill="#1A1A1A" d="M321.979 125.607a3.755 3.755 0 0 0 3.746-3.75 3.755 3.755 0 0 0-3.746-3.75 3.755 3.755 0 0 0-3.747 3.75 3.756 3.756 0 0 0 3.747 3.75"/><path fill="#FFF" d="M323.623 121.468c.605 0 1.1-.495 1.1-1.101s-.495-1.1-1.1-1.1a1.101 1.101 0 0 0 0 2.2"/><path fill="#1A1A1A" d="M286.705 125.607a3.755 3.755 0 0 0 3.745-3.75 3.754 3.754 0 0 0-3.745-3.75 3.755 3.755 0 0 0-3.746 3.75 3.756 3.756 0 0 0 3.746 3.75"/><path fill="#FFF" d="M288.349 121.468a1.102 1.102 0 0 0 0-2.201 1.101 1.101 0 0 0 0 2.2"/><path fill="#1A1A1A" fill-rule="nonzero" d="M310.724 134.315a.977.977 0 0 0-1.379.111c-.018.02-1.786 2.006-5.003 2.006-3.434 0-4.802-1.738-4.938-1.925a.982.982 0 0 0-1.617 1.11c.076.114 1.923 2.778 6.555 2.778 4.153 0 6.4-2.584 6.491-2.691a.987.987 0 0 0-.11-1.389"/><path fill="#27A9E0" fill-rule="nonzero" d="M251.343 198.457c0 .851-.69 1.543-1.541 1.543H124.11a1.542 1.542 0 1 1 0-3.086h125.692a1.54 1.54 0 0 1 1.54 1.543"/><path fill="#8CC53F" fill-rule="nonzero" d="M118.684 198.457c0 .851-.69 1.543-1.541 1.543H25.004a1.542 1.542 0 1 1 0-3.086h92.139a1.54 1.54 0 0 1 1.541 1.543m-99.422-.037c0 .872-.703 1.58-1.576 1.58H1.578a1.579 1.579 0 0 1 0-3.16h16.108c.873 0 1.576.709 1.576 1.58"/><path fill="#F6931E" fill-rule="nonzero" d="M357.045 198.457c0 .851-.69 1.543-1.54 1.543h-98.85a1.542 1.542 0 0 1-1.543-1.543 1.54 1.54 0 0 1 1.543-1.543h98.85a1.54 1.54 0 0 1 1.54 1.543m3.993 0c0 .851.69 1.543 1.541 1.543h4.879c.854 0 1.542-.692 1.542-1.543a1.54 1.54 0 0 0-1.542-1.543h-4.879a1.54 1.54 0 0 0-1.54 1.543"/><path fill="url(#f)" fill-rule="nonzero" d="M75.487 199.362a2.689 2.689 0 0 1-.414-.036C-2.56 193.54-1.477 119.634.609 89.566.78 87.143 12.25.04 20.627 0c11.564-.055 5.784 15.645 5.784 15.645s17.854-5.155 48.662-5.357v-.008c.14.001.275.003.414.003.139 0 .273-.002.415-.003v.008c30.806.202 48.66 5.356 48.66 5.356S118.782-.055 130.346 0c8.377.04 19.849 87.143 20.018 89.566 2.087 30.068 3.168 103.974-74.462 109.76 0 0-.228.036-.373.036h-.042" transform="matrix(1 0 0 -1 111.04 199.362)"/><path fill="#1A1A1A" d="M219.05 77.446c3.804 0 6.907-3.108 6.907-6.917 0-3.81-3.103-6.915-6.908-6.915-3.804 0-6.909 3.106-6.909 6.915s3.105 6.917 6.91 6.917"/><path fill="#FFF" d="M222.082 69.813a2.033 2.033 0 0 0 2.026-2.03c0-1.117-.91-2.03-2.026-2.03a2.032 2.032 0 0 0-2.028 2.03c0 1.117.91 2.03 2.028 2.03"/><path fill="#1A1A1A" d="M154.004 77.446c3.804 0 6.908-3.108 6.908-6.917 0-3.81-3.104-6.915-6.908-6.915-3.805 0-6.909 3.105-6.909 6.915 0 3.809 3.104 6.917 6.909 6.917"/><path fill="#FFF" d="M157.036 69.813a2.032 2.032 0 0 0 2.026-2.03c0-1.117-.91-2.03-2.026-2.03a2.03 2.03 0 0 0 0 4.06"/><path fill="#1A1A1A" fill-rule="nonzero" d="M198.533 90.471a1.815 1.815 0 0 0-2.543.207c-.031.036-3.293 3.697-9.224 3.697-6.332 0-8.856-3.205-9.107-3.546a1.805 1.805 0 0 0-3.267.696 1.8 1.8 0 0 0 .285 1.349c.142.209 3.547 5.122 12.09 5.122 7.656 0 11.799-4.764 11.969-4.964a1.82 1.82 0 0 0-.203-2.56"/><path fill="#A6A8AB" fill-rule="nonzero" d="m222.963 136.532-36.079 21.302-36.08-21.302c0-.016 0-.04.004-.058.03-.134 2.02-1.8 5.059-4.27.028-.022.052-.045.08-.07 9.964-8.098 30.937-24.682 30.937-24.682s20.97 16.584 30.933 24.683c3.085 2.505 5.112 4.198 5.14 4.34a.2.2 0 0 1 .006.057"/><path fill="#FFF" fill-rule="nonzero" d="M172.643 160.84h38.929a6.046 6.046 0 0 0 6.045-6.05l.002-42.994a6.05 6.05 0 0 0-6.047-6.053h-48.779a6.048 6.048 0 0 0-6.045 6.052v33.135l15.895 15.91Z"/><path fill="#D0D2D3" fill-rule="nonzero" d="M222.967 136.531v34.653c0 2.423-1.978 4.402-4.396 4.402h-63.38c-2.42 0-4.384-1.98-4.384-4.402v-34.653l36.08 21.298 36.08-21.298Z"/><path fill="#F3F3F3" fill-rule="nonzero" d="m221.748 174.207-23.223-23.248-11.638 6.87-11.644-6.873-23.223 23.25a4.354 4.354 0 0 0 3.171 1.38h63.38c1.25 0 2.375-.534 3.177-1.38"/><path fill="#179AC8" d="M112.936 118.156c.807 18.927 7.766 40.919 23.298 48.371 15.201 7.296 39.763 4.786 39.928-.2.09-2.701-2.503-1.932-2.34-4.183.22-3.047 5.257-1.476 4.908-5.036-.288-2.882-5.237-1.064-5.429-3.916-.246-3.637 4.546-3 2.228-6.492-2.317-3.49-8.235 5.95-25.503 1.093-15.564-4.375-20.848-15.66-23.088-32.366-2.24-16.708-14.625-11.904-14.002 2.729m148.022 0c-.805 18.927-7.765 40.919-23.296 48.371-15.203 7.296-39.764 4.786-39.929-.2-.09-2.701 2.503-1.932 2.34-4.183-.221-3.047-5.26-1.476-4.907-5.036.287-2.882 5.236-1.064 5.428-3.917.246-3.636-4.545-3-2.23-6.49 2.32-3.49 8.237 5.95 25.504 1.092 15.564-4.375 20.847-15.66 23.088-32.366 2.24-16.708 14.625-11.904 14.002 2.729"/><path fill="#27A9E0" d="M112.936 116.708c.807 18.927 7.766 40.919 23.298 48.372 15.201 7.295 39.763 4.786 39.928-.2.09-2.702-2.503-1.932-2.34-4.185.22-3.045 5.257-1.476 4.908-5.035-.288-2.883-5.237-1.063-5.429-3.917-.246-3.636 4.546-3 2.228-6.492-2.317-3.488-8.235 5.951-25.503 1.094-15.564-4.375-20.848-15.659-23.088-32.366-2.24-16.708-14.625-11.903-14.002 2.73m148.022-.001c-.805 18.927-7.765 40.919-23.296 48.372-15.203 7.294-39.764 4.786-39.929-.2-.09-2.702 2.503-1.933 2.34-4.185-.221-3.045-5.26-1.476-4.907-5.035.287-2.883 5.236-1.063 5.428-3.917.246-3.636-4.545-3-2.23-6.492 2.32-3.488 8.237 5.951 25.504 1.094 15.564-4.375 20.847-15.659 23.088-32.366 2.24-16.707 14.625-11.903 14.002 2.73"/><path fill="url(#g)" fill-rule="nonzero" d="M2.923 2.996 1.197 4.253 0 3.201 2.868 0l.007.005L2.879 0l5.144 5.233-.919 1.209z" transform="matrix(1 0 0 -1 183.42 133.732)"/><path fill="url(#h)" fill-rule="nonzero" d="M0 13.162C0 5.895 5.887 0 13.148 0c7.262 0 13.15 5.893 13.15 13.162 0 7.27-5.888 13.164-13.15 13.164C5.887 26.326 0 20.432 0 13.162m5.9 4.186 7.248 3.089h.001l7.248-3.089S19.914 5.89 13.149 5.89C6.382 5.89 5.9 17.35 5.9 17.35" transform="matrix(1 0 0 -1 173.954 143.2)"/><path fill="#2AA9DF" fill-rule="nonzero" d="M252.169 187.058v-2.222h-.897v-.298h2.157v.298h-.9v2.222zm1.261 0v-2.52h.524l.625 1.784c.057.166.1.29.126.373.03-.092.076-.226.14-.404l.631-1.753h.47v2.52h-.337v-2.109l-.766 2.109h-.315l-.762-2.145v2.145h-.337Z"/></g></svg>