<svg xmlns="http://www.w3.org/2000/svg" width="150" height="150"><g fill="none"><path fill="#7AC2ED" d="m149.998 74.99-.017-1.025-.248-2.084-41.127-63.94A73.515 73.515 0 0 0 86.603.892L69.845 2.3 18.512 41.987 1.257 88.771a73.86 73.86 0 0 0 6.7 19.852l85.33 35.767 26.387-9.165c9.375-6.97 16.73-15.633 22.069-25.99 5.503-10.709 8.255-22.124 8.255-34.245Z"/><path fill="#68A6DC" d="M117.143 25.245c6.496 6.485 11.525 13.935 15.086 22.35 3.684 8.724 5.525 17.855 5.525 27.395 0 7.776-1.235 15.308-3.705 22.598a69.592 69.592 0 0 1-10.323 19.555 69.822 69.822 0 0 1-15.716 15.286 69.363 69.363 0 0 1-19.869 9.793l5.145 2.168 26.387-9.165c9.375-6.97 16.73-15.633 22.069-25.99 5.503-10.709 8.254-22.124 8.254-34.245l-.017-1.025-.247-2.084-41.126-63.94A73.515 73.515 0 0 0 86.603.892L69.845 2.3l-3.027 2.333h.562c9.54 0 18.672 1.841 27.396 5.525 8.415 3.562 15.87 8.59 22.367 15.087Z"/><path fill="#D1E16F" d="M86.605.893A74.317 74.317 0 0 0 74.992 0c-8.977 0-17.635 1.544-25.974 4.632a74.448 74.448 0 0 0-22.035 12.755c-8.404 7.003-14.96 15.43-19.67 25.279C2.437 52.844 0 63.62 0 74.99c0 4.666.419 9.259 1.257 13.781 5.868-1.201 10.417-3.662 13.65-7.378 2.48-2.868 4.355-6.744 5.624-11.63.407-1.566.843-3.623 1.307-6.171.55-2.966.921-4.874 1.108-5.724.915-4.092 2.244-6.816 3.987-8.172 1.346-1.048 3.965-1.655 7.858-1.82 2.294-.088 6.154-.115 11.58-.082 4.897-.122 8.784-.646 11.663-1.572 3.838-1.236 6.524-3.315 8.057-6.236 1.103-2.095 1.555-4.649 1.357-7.66-.464-3.452-.706-6.093-.728-7.925-.044-3.198.683-6.11 2.183-8.735 1.92-3.376 5.278-6.733 10.076-10.075 2.118-1.5 4.66-3.066 7.626-4.699v.001Zm-5.841 78.333c-2.856-2.845-5.702-5.002-8.536-6.468-3.099-1.61-5.57-2.034-7.411-1.274-1.29.54-2.25 1.89-2.88 4.052-.573 1.952-.815 4.296-.728 7.032.089 2.636.447 5.101 1.076 7.395.672 2.405 1.516 4.113 2.53 5.128 1.015 1.015 2.72 1.854 5.113 2.515 2.283.64 4.737.998 7.361 1.075 2.735.09 5.078-.154 7.031-.728 2.173-.629 3.54-1.583 4.103-2.862.794-1.82.397-4.273-1.19-7.361-1.456-2.823-3.613-5.657-6.469-8.504ZM43.31 93.502c-2.757-3.154-6.214-4.73-10.372-4.73-2.934 0-4.777 1.036-5.525 3.109-.453 1.235-.794 3.508-1.026 6.816-.507 3.044-1.836 5.321-3.987 6.832-2.956 2.063-7.77 3.094-14.443 3.094a73.714 73.714 0 0 0 8.322 13.003 74.866 74.866 0 0 0 10.737 10.985c6.628 5.525 13.967 9.776 22.018 12.755 8.338 3.077 16.99 4.616 25.956 4.616 8.228 0 16.207-1.301 23.938-3.905a74.267 74.267 0 0 0 20.745-10.852c-4.71 0-8.519-.987-11.43-2.962-1.512-1.025-2.973-2.459-4.385-4.301-1.49-2.118-2.608-3.667-3.358-4.649-1.312-1.698-2.648-2.944-4.003-3.738-1.754-1.015-3.855-1.522-6.303-1.522-3.044 0-6.188.53-9.43 1.587-1.136.376-3.733 1.418-7.792 3.127-2.901 1.214-5.234 1.93-6.997 2.15-2.481.31-4.848-.114-7.097-1.274-2.13-1.103-4.026-3.644-5.692-7.626-.561-1.357-1.257-3.248-2.084-5.674-1.08-3.23-1.77-5.255-2.068-6.071-1.775-4.853-3.683-8.443-5.724-10.77Z"/><path fill="#E6F8FC" d="M108.606 7.94c0 3.651-.308 6.772-.926 9.364-.893 3.75-2.48 6.54-4.764 8.372-1.5 1.213-3.683 2.194-6.55 2.944-3.044.794-4.974 1.468-5.79 2.019-1.665 1.114-2.498 2.988-2.498 5.624 0 4.853 1.334 8.41 4.003 10.67 1.853 1.566 5.046 2.845 9.579 3.838 1.236.265 3.148.679 5.741 1.24 2.24.552 4.158 1.159 5.757 1.82 4.29 1.798 7.554 4.588 9.794 8.371 2.007 3.376 4.395 5.785 7.163 7.23 2.15 1.114 4.666 1.692 7.544 1.736 1.125.022 2.69-.06 4.698-.247 1.864-.176 3.16-.243 3.888-.2 1.201.055 2.095.354 2.68.894.672.629 1.031 1.648 1.075 3.06-.055-14.38-3.91-27.62-11.563-39.719-7.444-11.767-17.387-20.773-29.828-27.016h-.003Z"/><path fill="#9CCC4B" d="M78.977 5.592c2.118-1.5 4.66-3.066 7.626-4.699A74.317 74.317 0 0 0 74.99 0c-8.977 0-17.634 1.544-25.973 4.632a74.448 74.448 0 0 0-22.035 12.755A69.936 69.936 0 0 1 45.824 7.99c6.97-2.24 14.156-3.358 21.556-3.358 3.894 0 7.758.32 11.597.96ZM67.381 145.349c-7.389 0-14.563-1.12-21.523-3.359a69.534 69.534 0 0 1-18.842-9.38c6.628 5.526 13.967 9.777 22.018 12.756 8.338 3.077 16.99 4.616 25.956 4.616 8.228 0 16.207-1.301 23.938-3.905a74.267 74.267 0 0 0 20.745-10.852c-4.71 0-8.519-.987-11.43-2.962a69.565 69.565 0 0 1-19.042 9.63 69.853 69.853 0 0 1-21.82 3.457v-.001Z"/><path fill="#D0EDF5" d="M108.606 7.94c0 3.651-.308 6.772-.926 9.364 8.746 6.11 15.744 13.803 20.993 23.079 5.404 9.54 8.398 19.802 8.983 30.786 1.125.022 2.691-.06 4.699-.247 1.864-.176 3.159-.243 3.887-.2 1.202.055 2.095.354 2.68.894.673.629 1.032 1.648 1.076 3.061-.055-14.382-3.91-27.621-11.564-39.72-7.444-11.767-17.387-20.773-29.828-27.015V7.94Z"/></g></svg>