<svg xmlns="http://www.w3.org/2000/svg" xmlns:xlink="http://www.w3.org/1999/xlink" width="1707" height="960"><defs><linearGradient id="a" x1="44.06%" x2="56.246%" y1="102.667%" y2="-1.793%"><stop offset="0%" stop-color="#5FB7E6"/><stop offset="100%" stop-color="#26A8DF"/></linearGradient><linearGradient id="d" x1="-.031%" x2="103.839%" y1="41.323%" y2="55.292%"><stop offset="0%" stop-color="#8CC53F"/><stop offset="100%" stop-color="#39B44A"/></linearGradient><linearGradient id="e" x1=".54%" x2="99.462%" y1="42.721%" y2="57.28%"><stop offset="0%" stop-color="#8CC53F"/><stop offset="100%" stop-color="#39B44A"/></linearGradient><linearGradient id="h" x1="58.89%" x2="36.722%" y1="20.087%" y2="75.673%"><stop offset="0%" stop-color="#80B43A"/><stop offset="100%" stop-color="#8AC43F"/></linearGradient><linearGradient id="k" x1="55.693%" x2="42.602%" y1="98.475%" y2="-19.451%"><stop offset="0%" stop-color="#FAAF40"/><stop offset="100%" stop-color="#F6931E"/></linearGradient><linearGradient id="n" x1="12.279%" x2="82.979%" y1="37.786%" y2="85.846%"><stop offset="0%" stop-color="#5FB7E6"/><stop offset="100%" stop-color="#26A8DF"/></linearGradient><linearGradient id="q" x1="92.853%" x2="20.128%" y1="68.546%" y2="41.127%"><stop offset="0%" stop-color="#FAAF40"/><stop offset="100%" stop-color="#F6931E"/></linearGradient><linearGradient id="t" x1="64.135%" x2="28.887%" y1="24.844%" y2="87.571%"><stop offset="0%" stop-color="#80B43A"/><stop offset="100%" stop-color="#8AC43F"/></linearGradient><linearGradient id="w" x1="83.226%" x2="-.519%" y1="79.542%" y2="27.59%"><stop offset="0%" stop-color="#5FB7E6"/><stop offset="100%" stop-color="#26A8DF"/></linearGradient><path id="b" d="M0 0h1706.667v960H0z"/><path id="f" d="M0 0h1706.667v960H0z"/><path id="i" d="M0 0h1706.667v960H0z"/><path id="l" d="M0 0h1706.667v960H0z"/><path id="o" d="M0 0h1706.667v960H0z"/><path id="r" d="M0 0h1706.667v960H0z"/><path id="u" d="M0 0h1706.667v960H0z"/></defs><g fill="none" fill-rule="evenodd"><path d="M0 960h1706.667V0H0z"/><path fill="#F1F2F2" fill-rule="nonzero" d="M1164.765 933.172H542.133V146.215h622.632z"/><path fill="url(#a)" fill-rule="nonzero" d="M205.373 625.664s-.902.01-1.345-.085c-.45-.036-1.316-.307-1.316-.307C-43.703 570.056-5.363 333.642 15.516 238.235 16.791 232.436 61.411 75.28 94.815 0h44.042c-2.532 7.71-5.658 13.444-5.658 13.444s59.73-8.093 158.696 5.81l.005-.029 1.33.21c.443.062.88.121 1.331.182l-.002.03C393.329 34.84 448.2 59.796 448.2 59.796S437.06 6.74 474.14 12.375c26.87 4.084 22.598 288.74 21.993 296.588-7.212 93.824-36.645 317.668-264.074 317.682-8.615 0-17.492-.32-26.686-.981" transform="matrix(1 0 0 -1 668.03 960)"/><mask id="c" fill="#fff"><use xlink:href="#b" transform="matrix(1 0 0 -1 0 960)"/></mask><g mask="url(#c)"><path fill="#1A1A1A" d="M1012.969 567.332c12.208-1.796 20.702-13.228 18.906-25.439-1.794-12.209-13.224-20.701-25.433-18.905-12.213 1.799-20.71 13.221-18.91 25.43 1.794 12.214 13.223 20.713 25.437 18.914"/><path fill="#FFF" d="M1019.099 541.43c3.581-.527 6.073-3.883 5.547-7.466-.528-3.578-3.878-6.074-7.463-5.548-3.59.53-6.076 3.883-5.553 7.464.529 3.582 3.88 6.078 7.469 5.55"/><path fill="#1A1A1A" d="M804.216 598.052c12.208-1.796 20.7-13.227 18.904-25.437-1.797-12.21-13.22-20.703-25.432-18.907-12.21 1.799-20.704 13.22-18.905 25.43 1.796 12.214 13.221 20.713 25.433 18.914"/><path fill="#FFF" d="M810.345 572.15c3.583-.528 6.072-3.883 5.543-7.466-.526-3.58-3.876-6.073-7.459-5.545-3.587.527-6.072 3.877-5.547 7.46.53 3.581 3.875 6.079 7.463 5.55"/><path fill="#1A1A1A" fill-rule="nonzero" d="M953.268 618.779a5.862 5.862 0 0 0-3.942-.815 5.867 5.867 0 0 0-4.118 2.68c-.085.127-8.825 13.405-27.861 16.205-20.321 2.992-29.936-6.092-30.901-7.064a5.86 5.86 0 0 0-5.151-1.812 5.854 5.854 0 0 0-3.139 1.503 5.825 5.825 0 0 0-1.87 4.08 5.849 5.849 0 0 0 1.556 4.192c.552.603 13.798 14.745 41.21 10.71 24.576-3.615 35.628-20.846 36.076-21.565 1.724-2.724.903-6.352-1.86-8.114"/><path fill="#A6A8AB" fill-rule="nonzero" d="m1053.406 754.904-105.742 85.328-125.844-51.248a.511.511 0 0 1-.011-.188c.028-.446 5.635-6.726 14.22-16.08.079-.084.143-.17.225-.26 28.152-30.668 87.642-93.738 87.642-93.738s75.125 43.26 110.917 64.518c11.083 6.574 18.388 11.044 18.55 11.482.022.054.035.13.043.186"/><path fill="#FFF" fill-rule="nonzero" d="m903.378 856.598 124.934-18.384c10.719-1.58 18.126-11.544 16.547-22.26l-20.279-137.827c-1.574-10.719-11.544-18.127-22.26-16.55l-156.548 23.038c-10.721 1.576-18.121 11.545-16.545 22.256l15.633 106.225 58.518 43.502Z"/><path fill="#D0D2D3" fill-rule="nonzero" d="m1053.417 754.897 16.349 111.092c1.143 7.764-4.273 15.047-12.032 16.188l-203.405 29.934c-7.768 1.142-15.007-4.28-16.15-12.042l-16.348-111.09 125.84 51.236 105.746-85.318Z"/><path fill="#F3F3F3" fill-rule="nonzero" d="m1067.279 876.255-85.498-63.561-34.109 27.521-40.615-16.534-63.56 85.5c2.958 2.336 6.822 3.52 10.832 2.93l203.406-29.934c4.01-.591 7.366-2.836 9.544-5.922"/><path fill="#179AC8" d="M691.622 747.957c11.519 60.297 44.227 127.513 97.588 144.065 52.23 16.208 129.868-3.434 128.051-19.5-.985-8.7-8.948-5.009-9.488-12.305-.73-9.87 16.175-7.215 13.377-18.463-2.285-9.102-17.304-.936-19.268-9.99-2.508-11.543 13.172-11.764 4.087-21.862-9.084-10.092-23.625 22.963-81.332 15.548-52.013-6.677-74.299-40.354-89.364-92.857-15.072-52.501-52.556-31.252-43.65 15.364m475.052-69.91c6.346 61.06-5.615 134.847-51.948 166.073-45.35 30.566-125.355 34.123-128.24 18.215-1.562-8.615 7.125-7.376 5.537-14.517-2.147-9.662-17.573-2.246-18.125-13.824-.438-9.378 16.306-5.884 15.573-15.122-.925-11.773-16-7.468-10.213-19.754 5.796-12.283 29.236 15.182 82.36-8.542 47.889-21.38 59.52-60.048 58.832-114.666-.698-54.616 41.317-45.068 46.224 2.137"/><path fill="#27A9E0" d="M690.939 743.315c11.517 60.295 44.225 127.512 97.588 144.068 52.23 16.207 129.872-3.437 128.05-19.503-.986-8.702-8.946-5.008-9.486-12.306-.727-9.868 16.174-7.215 13.377-18.459-2.285-9.108-17.307-.939-19.27-9.995-2.506-11.54 13.171-11.765 4.086-21.862-9.081-10.09-23.623 22.966-81.33 15.552-52.015-6.676-74.298-40.355-89.365-92.856-15.073-52.506-52.556-31.255-43.65 15.361m475.053-69.91c6.344 61.057-5.617 134.848-51.948 166.075-45.35 30.564-125.357 34.122-128.24 18.213-1.564-8.616 7.123-7.376 5.537-14.519-2.146-9.657-17.576-2.246-18.125-13.821-.437-9.381 16.304-5.884 15.573-15.124-.928-11.772-16-7.47-10.216-19.755 5.8-12.278 29.236 15.186 82.364-8.541 47.886-21.375 59.522-60.045 58.831-114.664-.697-54.617 41.317-45.067 46.224 2.136"/></g><g mask="url(#c)"><path fill="url(#d)" fill-rule="nonzero" d="m9.476 9.633-6.133 3.215L0 8.908 10.713 0l.02.023.014-.016 14.042 19.208-3.518 3.437z" transform="matrix(1 0 0 -1 923.664 763.25)"/></g><g mask="url(#c)"><path fill="url(#e)" fill-rule="nonzero" d="M36.445 84.856C13.14 81.426-2.971 59.753.46 36.446 3.887 13.147 25.562-2.968 48.865.46 72.17 3.892 88.289 25.564 84.859 48.868c-3.12 21.199-21.34 36.448-42.149 36.45-2.067 0-4.159-.151-6.265-.462M17.419 52.653 39.223 65.98l.006.001 24.714-6.479S67.8 22.54 46.09 19.343a18.287 18.287 0 0 0-2.653-.199c-19.635-.003-26.018 33.51-26.018 33.51" transform="matrix(1 0 0 -1 892.594 793.677)"/></g><mask id="g" fill="#fff"><use xlink:href="#f" transform="matrix(1 0 0 -1 0 960)"/></mask><g fill-rule="nonzero" mask="url(#g)"><path fill="#FFF" d="M1146.188 905.368H563.793v-735.36h582.395v735.36Zm-635.859 112.093h689.322V122.208H510.329v895.253Z"/><path fill="#F1F2F2" d="m1692.338 945.077-345.305 111.87-141.397-436.437 345.306-111.87z"/></g><g mask="url(#g)"><path fill="url(#h)" fill-rule="nonzero" d="M133.885 305.047C32.475 272.19-23.442 162.68 9.415 61.265 16.839 38.357 28.176 17.765 42.445 0H344.52c39.221 49.165 53.907 116.483 33.143 180.57-26.472 81.713-102.716 133.891-184.384 133.891-19.692 0-39.694-3.03-59.395-9.414" transform="matrix(1 0 0 -1 1273.683 960)"/></g><mask id="j" fill="#fff"><use xlink:href="#i" transform="matrix(1 0 0 -1 0 960)"/></mask><g mask="url(#j)"><path fill="#1A1A1A" d="M1537.505 808.547c8.492-2.75 13.17-11.919 10.416-20.408-2.75-8.49-11.91-13.168-20.403-10.417-8.486 2.749-13.172 11.914-10.422 20.405 2.75 8.488 11.922 13.17 20.41 10.42"/><path fill="#FFF" d="M1538.758 789.345c2.492-.805 3.864-3.499 3.057-5.99a4.763 4.763 0 0 0-5.987-3.055 4.757 4.757 0 0 0-3.057 5.984 4.76 4.76 0 0 0 5.987 3.061"/><path fill="#1A1A1A" d="M1392.385 855.563c8.49-2.751 13.167-11.918 10.416-20.408-2.749-8.49-11.913-13.168-20.402-10.418-8.487 2.75-13.167 11.914-10.418 20.404 2.751 8.49 11.915 13.172 20.404 10.422"/><path fill="#FFF" d="M1393.638 836.362c2.492-.807 3.861-3.499 3.055-5.99a4.758 4.758 0 0 0-5.984-3.057 4.76 4.76 0 0 0-3.058 5.986 4.763 4.763 0 0 0 5.987 3.061"/><path fill="#1A1A1A" fill-rule="nonzero" d="M1502.794 859.333a4.233 4.233 0 0 0-2.91-.11 4.255 4.255 0 0 0-2.614 2.408c-.044.102-4.676 10.62-17.91 14.906-14.126 4.578-22.071-.74-22.878-1.325a4.246 4.246 0 0 0-5.95.783 4.212 4.212 0 0 0-.836 3.13 4.203 4.203 0 0 0 1.612 2.803c.462.367 11.612 8.85 30.666 2.677 17.08-5.533 22.89-19.148 23.123-19.712.9-2.15-.12-4.638-2.303-5.56"/><path fill="#FFF" fill-rule="nonzero" d="m1677.039 932.995-322.99 104.642-132.127-407.824 322.992-104.64 132.125 407.822Zm-493.355-320.083 160.855 496.497 382.292-123.854-160.855-496.498-382.292 123.855Z"/><path fill="#F1F2F2" fill-rule="nonzero" d="m380.855 1018.54-497.974-67.462 85.264-629.398 497.974 67.462z"/></g><g mask="url(#j)"><path fill="url(#k)" fill-rule="nonzero" d="M19.89 319.64C11.878 296.51 5.316 266.064 0 233.808V0h9.064c1.447 5.017 3.045 9.719 4.687 13.553 4.71 11.008 28.606 19.848 43.745 21.143 57.381 4.895 111.597-2.16 168.624-19.695C233.23 12.815 243.992 7.06 252.835 0h54.774l.303 1.993.348-.041s42.379 173.676 21.996 272.793c-19.012 92.464-68.623 125.499-144.195 133.866a175.058 175.058 0 0 1-19.261 1.058c-66.14 0-128.553-37.03-146.91-90.029" transform="matrix(1 0 0 -1 0 960)"/></g><mask id="m" fill="#fff"><use xlink:href="#l" transform="matrix(1 0 0 -1 0 960)"/></mask><g mask="url(#m)"><path fill="#1A1A1A" d="M243.099 739.447c8.89 1.205 17.119-5.064 18.323-13.952 1.205-8.89-5.062-17.118-13.951-18.322-8.887-1.204-17.12 5.062-18.324 13.95-1.205 8.888 5.064 17.121 13.952 18.324"/><path fill="#FFF" d="M252.594 722.598a4.792 4.792 0 0 0 5.378-4.096 4.79 4.79 0 0 0-4.095-5.376 4.784 4.784 0 0 0-5.375 4.092 4.788 4.788 0 0 0 4.092 5.38"/><path fill="#1A1A1A" d="M91.156 718.863c8.888 1.204 17.118-5.065 18.322-13.954 1.204-8.887-5.062-17.115-13.95-18.32-8.888-1.204-17.118 5.061-18.321 13.949-1.204 8.89 5.061 17.121 13.95 18.325"/><path fill="#FFF" d="M100.65 702.013a4.789 4.789 0 0 0 5.376-4.095 4.789 4.789 0 0 0-4.092-5.377 4.788 4.788 0 0 0-5.376 4.092 4.789 4.789 0 0 0 4.092 5.38"/><path fill="#1A1A1A" fill-rule="nonzero" d="M189.541 770.346a4.266 4.266 0 0 0-6.003-.323c-.086.074-8.86 7.585-22.717 5.707-14.79-2.002-19.673-10.28-20.15-11.16a4.267 4.267 0 0 0-5.731-1.88 4.234 4.234 0 0 0-2.122 2.471 4.225 4.225 0 0 0 .24 3.241c.262.532 6.667 13.072 26.62 15.776 17.884 2.422 29.072-7.38 29.53-7.792 1.752-1.557 1.91-4.253.333-6.04"/><path fill="#FFF" fill-rule="nonzero" d="m369.008 994.29-465.793-63.1 79.676-588.133 465.792 63.101-79.675 588.131ZM-54.689 299.033l-97 716.011 551.312 74.687 96.999-716.01-551.31-74.688Z"/><path fill="#F1F2F2" fill-rule="nonzero" d="m1480.385-268.519 277.903 225.687-285.25 351.242-277.9-225.685z"/></g><g mask="url(#m)"><path fill="url(#n)" fill-rule="nonzero" d="M14.41 196.684c-21.5-47.347-25.36-106.17 34.096-163.997 0 0 .341-.394.55-.546.188-.18.635-.448.635-.448 117.93-84.701 204.792 22.16 237.777 67.606 1.622 2.237 34.994 54.63 58.015 97.385H14.41Z" transform="matrix(1 0 0 -1 1308.397 196.684)"/></g><mask id="p" fill="#fff"><use xlink:href="#o" transform="matrix(1 0 0 -1 0 960)"/></mask><g mask="url(#p)"><path fill="#1A1A1A" d="M1403.59 14.977c-5.439-4.556-13.596-3.833-18.152 1.608-4.558 5.44-3.834 13.592 1.605 18.148 5.443 4.558 13.596 3.839 18.152-1.601 4.557-5.441 3.836-13.597-1.605-18.155"/><path fill="#FFF" d="M1390.122 22.248a3.789 3.789 0 0 0-5.325.472 3.79 3.79 0 0 0 .47 5.327 3.789 3.789 0 0 0 5.329-.47 3.791 3.791 0 0 0-.474-5.329"/><path fill="#1A1A1A" d="M1496.602 92.872c-5.44-4.555-13.595-3.83-18.152 1.608-4.556 5.441-3.834 13.593 1.605 18.15 5.443 4.556 13.593 3.835 18.15-1.605 4.555-5.441 3.837-13.597-1.603-18.153"/><path fill="#FFF" d="M1483.135 100.144a3.79 3.79 0 0 0-5.325.473 3.785 3.785 0 0 0 .47 5.324 3.785 3.785 0 0 0 5.325-.47 3.79 3.79 0 0 0-.47-5.327"/><path fill="#1A1A1A" fill-rule="nonzero" d="M1448.509 20.942a3.37 3.37 0 0 0 1.157 2.004 3.37 3.37 0 0 0 2.726.744c.088-.012 9.13-1.336 17.613 5.768 9.053 7.581 8.83 15.181 8.78 15.97a3.372 3.372 0 0 0 5.504 2.92 3.361 3.361 0 0 0 1.205-2.27c.047-.467 1.055-11.563-11.157-21.793-10.95-9.168-22.576-7.327-23.055-7.244-1.829.301-3.073 2.04-2.773 3.901"/><path fill="#179AC8" d="M1604.023 83.903c21.49-28.001 37.847-67.748 24.55-96.99-13.01-28.626-51.132-54.455-57.336-47.531-3.358 3.749 1.27 5.758-1.655 8.777-3.961 4.09-9.284-4.185-13.044 1.317-3.036 4.462 6.215 7.788 3.077 12.094-3.998 5.49-10.088-1.159-10.95 6.602-.862 7.76 18.893 1.368 37.776 28.982 17.02 24.888 11.08 47.334-5.706 73.88-16.78 26.548 6.676 34.517 23.288 12.869"/><path fill="#27A9E0" d="M1602.292 85.972c21.488-28 37.846-67.748 24.55-96.992-13.012-28.625-51.133-54.455-57.336-47.53-3.36 3.751 1.27 5.757-1.658 8.778-3.96 4.087-9.283-4.187-13.04 1.316-3.039 4.463 6.213 7.79 3.074 12.095-3.997 5.488-10.088-1.158-10.95 6.605-.859 7.757 18.894 1.363 37.777 28.977 17.023 24.89 11.081 47.335-5.705 73.88-16.782 26.55 6.676 34.518 23.288 12.871"/><path fill="#FFF" fill-rule="nonzero" d="m1478.6-249.376 259.942 211.102-266.546 328.213-259.941-211.1L1478.6-249.376Zm-.068 580.031 324.503-399.58-307.667-249.86-324.502 399.581 307.666 249.86Z"/><path fill="#F1F2F2" fill-rule="nonzero" d="m58.078 440.256-169.063-315.567L287.862-88.992l169.064 315.567z"/></g><g mask="url(#p)"><path fill="url(#q)" fill-rule="nonzero" d="M33.373 112.126 0 93.536c11.188-21.122 32.36-57.485 53.957-75.353C83.36-6.149 107.36-4 133.293 12.495c25.024 15.915 38.218 46.695 29.847 70.111-3.081 8.623-8.144 18.91-14.025 29.52H33.373Z" transform="matrix(1 0 0 -1 79.499 112.126)"/></g><mask id="s" fill="#fff"><use xlink:href="#r" transform="matrix(1 0 0 -1 0 960)"/></mask><g mask="url(#s)"><path fill="#1A1A1A" d="M147.204 54.8c-3.108 1.87-4.114 5.928-2.242 9.035 1.87 3.108 5.93 4.114 9.037 2.244 3.104-1.87 4.113-5.93 2.24-9.036-1.87-3.104-5.93-4.112-9.035-2.243"/><path fill="#FFF" d="M148.478 62.514a1.938 1.938 0 0 0-.657 2.653 1.932 1.932 0 0 0 3.308-1.993 1.937 1.937 0 0 0-2.651-.66"/><path fill="#1A1A1A" d="M200.303 22.82c-3.105 1.87-4.112 5.929-2.241 9.036 1.872 3.106 5.928 4.113 9.035 2.244 3.105-1.871 4.112-5.93 2.241-9.038-1.87-3.104-5.928-4.112-9.035-2.242"/><path fill="#FFF" d="M201.577 30.533a1.933 1.933 0 0 0 1.995 3.312 1.937 1.937 0 0 0 .657-2.653 1.938 1.938 0 0 0-2.652-.659"/><path fill="#1A1A1A" fill-rule="nonzero" d="M156.262 31.502a1.71 1.71 0 0 0 1.161-.224 1.73 1.73 0 0 0 .812-1.193c.01-.047.873-4.635 5.715-7.55 5.172-3.114 8.804-1.742 9.174-1.585.52.233 1.12.2 1.606-.093a1.719 1.719 0 0 0 .723-2.08 1.72 1.72 0 0 0-.897-.962c-.218-.102-5.412-2.433-12.385 1.768-6.25 3.766-7.295 9.686-7.333 9.932a1.728 1.728 0 0 0 1.424 1.987"/></g><g mask="url(#s)"><path fill="url(#t)" fill-rule="nonzero" d="M47.555 174.618C2.753 149.442-13.254 92.366 11.927 47.56 37.105 2.757 94.18-13.253 138.983 11.922c44.802 25.177 60.811 82.253 35.63 127.055-17.091 30.418-48.883 47.565-81.556 47.565a92.618 92.618 0 0 1-45.502-11.924" transform="matrix(1 0 0 -1 250.577 297.765)"/></g><mask id="v" fill="#fff"><use xlink:href="#u" transform="matrix(1 0 0 -1 0 960)"/></mask><g mask="url(#v)"><path fill="#1A1A1A" d="M374.158 183.377c3.754-2.108 5.09-6.885 2.983-10.636-2.108-3.752-6.884-5.09-10.64-2.981-3.745 2.108-5.09 6.884-2.981 10.636 2.108 3.749 6.889 5.09 10.638 2.981"/><path fill="#FFF" d="M372.925 174.184a2.296 2.296 0 0 0 .87-3.124 2.3 2.3 0 0 0-3.117-.875 2.296 2.296 0 0 0-.876 3.121 2.3 2.3 0 0 0 3.123.878"/><path fill="#1A1A1A" d="M310.045 219.401c3.75-2.104 5.088-6.881 2.981-10.632-2.108-3.752-6.885-5.09-10.634-2.985-3.748 2.11-5.091 6.882-2.982 10.636 2.108 3.75 6.883 5.092 10.635 2.981"/><path fill="#FFF" d="M308.81 210.208a2.293 2.293 0 0 0 .872-3.122 2.294 2.294 0 0 0-3.119-.872 2.293 2.293 0 0 0-.873 3.12 2.293 2.293 0 0 0 3.12.874"/><path fill="#1A1A1A" fill-rule="nonzero" d="M362.585 210.684a2.024 2.024 0 0 0-1.385.224c-.52.293-.89.798-1.007 1.386-.01.054-1.2 5.464-7.048 8.748-6.238 3.508-10.501 1.75-10.938 1.552a2.041 2.041 0 0 0-1.902.054 2.04 2.04 0 0 0-.932 2.44c.179.518.546.937 1.028 1.172.255.13 6.331 3.077 14.75-1.654 7.545-4.238 8.996-11.226 9.052-11.514a2.054 2.054 0 0 0-1.618-2.408"/></g><g mask="url(#v)"><path fill="url(#w)" fill-rule="nonzero" d="M12.707 196.088c-.576-.35-5.482-3.725-12.707-8.861V18.205c1.165-1.354 1.805-2.03 1.805-2.03s-.702-.087-1.805-.31V0c28.483 4.443 96.307 28.896 98.556 29.864 34.536 14.904 117.095 56.02 79.01 145.503 0 0-.109.333-.2.48-.069.161-.275.442-.275.442-22.726 36.976-51.508 48.783-79.271 48.783-34.444 0-67.316-18.17-85.113-28.984" transform="matrix(1 0 0 -1 0 356.67)"/></g><g mask="url(#v)"><path fill="#1A1A1A" d="M110.145 261.268c2.18 4.221 7.408 5.888 11.63 3.705 4.224-2.181 5.886-7.401 3.706-11.625-2.18-4.226-7.404-5.892-11.627-3.714-4.225 2.184-5.89 7.41-3.71 11.634"/><path fill="#FFF" d="M120.346 260.264a2.54 2.54 0 0 0 3.414 1.085 2.541 2.541 0 0 0 1.088-3.412 2.542 2.542 0 0 0-3.414-1.09 2.544 2.544 0 0 0-1.088 3.417"/><path fill="#1A1A1A" d="M72.855 189.068c2.183 4.222 7.408 5.886 11.631 3.707 4.223-2.181 5.887-7.404 3.71-11.628-2.187-4.223-7.407-5.888-11.633-3.708-4.22 2.183-5.886 7.407-3.708 11.63"/><path fill="#FFF" d="M83.057 188.063a2.536 2.536 0 0 0 3.414 1.086 2.532 2.532 0 0 0-2.323-4.499 2.54 2.54 0 0 0-1.09 3.413"/><path fill="#1A1A1A" fill-rule="nonzero" d="M83.943 245.951a2.266 2.266 0 0 0-1.688-2.7c-.059-.016-5.987-1.54-9.39-8.124-3.626-7.028-1.521-11.664-1.286-12.138a2.256 2.256 0 0 0-.926-3.058 2.253 2.253 0 0 0-3.05.919c-.151.276-3.644 6.87 1.25 16.352 4.391 8.497 12.048 10.37 12.366 10.443 1.206.288 2.424-.464 2.724-1.694"/><path fill="#179AC8" d="M4.177 166.797c-20.523 11.734-40.916 32.05-40.275 53.558.627 21.05 17.488 46.873 23.114 44.204 3.042-1.446.705-3.887 3.293-4.994 3.505-1.498 4.65 4.99 8.399 2.563 3.03-1.97-1.823-6.419 1.23-8.267 3.891-2.356 5.932 3.33 8.474-1.242 2.54-4.57-11.318-5.736-15.83-27.683-4.072-19.781 5.408-32.11 22.648-44.16 17.24-12.056 4.814-23.05-11.053-13.979m84.857 164.299c-21.447 9.944-49.82 14.81-66.987 1.84-16.805-12.696-28.1-41.394-22.67-44.432 2.946-1.65 3.58 1.67 5.984.197 3.25-1.987-1.38-6.681 2.768-8.328 3.36-1.33 4.18 5.205 7.456 3.783 4.172-1.81.718-6.762 5.917-6.19 5.2.574-1.875 12.547 13.407 28.934 13.776 14.77 29.317 14.168 49.124 7.093 19.808-7.085 21.582 9.413 5 17.103"/><path fill="#27A9E0" d="M5.784 165.968c-20.523 11.733-40.919 32.05-40.279 53.559.63 21.05 17.49 46.873 23.115 44.202 3.045-1.446.704-3.882 3.296-4.993 3.505-1.499 4.652 4.99 8.397 2.564 3.03-1.97-1.824-6.42 1.232-8.267 3.888-2.357 5.93 3.327 8.474-1.245 2.538-4.57-11.32-5.733-15.834-27.681-4.073-19.78 5.41-32.11 22.652-44.16 17.24-12.056 4.812-23.052-11.053-13.979m84.854 164.3c-21.447 9.944-49.817 14.81-66.985 1.838C6.849 319.41-4.45 290.713.986 287.672c2.941-1.646 3.576 1.674 5.98.202 3.25-1.988-1.38-6.682 2.767-8.329 3.364-1.332 4.181 5.204 7.457 3.781 4.173-1.809.72-6.761 5.919-6.19 5.197.576-1.878 12.548 13.408 28.933 13.772 14.77 29.312 14.175 49.121 7.093 19.807-7.082 21.581 9.416 5 17.106"/><path fill="#FFF" fill-rule="nonzero" d="M67.125 423.29-91.012 128.118l372.697-199.67L439.82 223.62 67.125 423.29Zm224.27-534.92-453.737 243.088L24.83 480.822l453.735-243.087-187.17-349.365Z"/></g></g></svg>