<svg xmlns="http://www.w3.org/2000/svg" width="1189" height="565"><g fill="#5300EF" opacity=".8"><path fill-opacity=".68" d="M676.51 19.75c0-2.03-.73-3.78-2.2-5.25-1.43-1.43-3.17-2.15-5.2-2.15-2.03 0-3.82.72-5.25 2.15-1.43 1.47-2.15 3.22-2.15 5.25s.72 3.77 2.15 5.2c1.43 1.47 3.18 2.2 5.25 2.2s3.77-.73 5.2-2.2c1.47-1.43 2.2-3.17 2.2-5.2ZM273.27 511.93c0-1.36-.48-2.52-1.45-3.48s-2.13-1.45-3.48-1.45-2.52.48-3.48 1.45-1.45 2.13-1.45 3.48.48 2.52 1.45 3.48 2.13 1.45 3.48 1.45c1.36 0 2.52-.48 3.48-1.45s1.45-2.13 1.45-3.48Zm101.41 42.78c0-.81-.29-1.51-.87-2.09-.58-.58-1.28-.87-2.09-.87-.81 0-1.51.29-2.09.87-.58.58-.87 1.28-.87 2.09 0 .81.29 1.51.87 2.09.58.58 1.28.87 2.09.87.81 0 1.51-.29 2.09-.87.58-.58.87-1.28.87-2.09Zm190.55-343.98c0-2.03-.72-3.78-2.17-5.23-1.45-1.45-3.19-2.17-5.23-2.17-2.04 0-3.78.72-5.23 2.17-1.45 1.45-2.17 3.19-2.17 5.23 0 2.04.72 3.78 2.17 5.23 1.45 1.45 3.19 2.17 5.23 2.17 2.03 0 3.78-.72 5.23-2.17 1.45-1.45 2.17-3.19 2.17-5.23Zm-107.31 96.08c0-1.49-.53-2.77-1.6-3.84-1.07-1.07-2.34-1.6-3.84-1.6s-2.77.53-3.84 1.6c-1.07 1.07-1.6 2.34-1.6 3.84s.53 2.77 1.6 3.84c1.07 1.07 2.34 1.6 3.84 1.6 1.49 0 2.77-.53 3.84-1.6 1.07-1.07 1.6-2.34 1.6-3.84Zm-27.1-110.88c0-1.36-.48-2.52-1.45-3.48s-2.13-1.45-3.48-1.45-2.52.48-3.48 1.45-1.45 2.13-1.45 3.48.48 2.52 1.45 3.48 2.13 1.45 3.48 1.45c1.36 0 2.52-.48 3.48-1.45s1.45-2.13 1.45-3.48Zm101.41 42.78c0-.81-.29-1.51-.87-2.09-.58-.58-1.28-.87-2.09-.87-.81 0-1.51.29-2.09.87-.58.58-.87 1.28-.87 2.09 0 .81.29 1.51.87 2.09.58.58 1.28.87 2.09.87.81 0 1.51-.29 2.09-.87.58-.58.87-1.28.87-2.09Zm46.3-8.85c0-.81-.29-1.51-.87-2.09-.58-.58-1.28-.87-2.09-.87-.81 0-1.51.29-2.09.87-.58.58-.87 1.28-.87 2.09 0 .81.29 1.51.87 2.09.58.58 1.28.87 2.09.87.81 0 1.51-.29 2.09-.87.58-.58.87-1.28.87-2.09Zm-97 85.35c0-.81-.29-1.51-.87-2.09-.58-.58-1.28-.87-2.09-.87-.81 0-1.51.29-2.09.87-.58.58-.87 1.28-.87 2.09 0 .81.29 1.51.87 2.09.58.58 1.28.87 2.09.87.81 0 1.51-.29 2.09-.87.58-.58.87-1.28.87-2.09Zm470.69 192.8c0-1.49-.53-2.77-1.6-3.84-1.07-1.07-2.34-1.6-3.84-1.6s-2.77.53-3.84 1.6c-1.07 1.07-1.6 2.34-1.6 3.84s.53 2.77 1.6 3.84c1.07 1.07 2.34 1.6 3.84 1.6 1.49 0 2.77-.53 3.84-1.6 1.07-1.07 1.6-2.34 1.6-3.84Zm-27.1-110.88c0-1.36-.48-2.52-1.45-3.48s-2.13-1.45-3.48-1.45-2.52.48-3.48 1.45-1.45 2.13-1.45 3.48.48 2.52 1.45 3.48 2.13 1.45 3.48 1.45c1.36 0 2.52-.48 3.48-1.45s1.45-2.13 1.45-3.48Zm101.41 42.78c0-.81-.29-1.51-.87-2.09-.58-.58-1.28-.87-2.09-.87-.81 0-1.51.29-2.09.87-.58.58-.87 1.28-.87 2.09 0 .81.29 1.51.87 2.09.58.58 1.28.87 2.09.87.81 0 1.51-.29 2.09-.87.58-.58.87-1.28.87-2.09Zm-126.51-196.5c0-1.49-.53-2.77-1.6-3.84-1.07-1.07-2.34-1.6-3.84-1.6s-2.77.53-3.84 1.6c-1.07 1.07-1.6 2.34-1.6 3.84s.53 2.77 1.6 3.84c1.07 1.07 2.34 1.6 3.84 1.6 1.49 0 2.77-.53 3.84-1.6 1.07-1.07 1.6-2.34 1.6-3.84Zm-27.1-110.88c0-1.36-.48-2.52-1.45-3.48s-2.13-1.45-3.48-1.45-2.52.48-3.48 1.45-1.45 2.13-1.45 3.48.48 2.52 1.45 3.48 2.13 1.45 3.48 1.45c1.36 0 2.52-.48 3.48-1.45s1.45-2.13 1.45-3.48Zm50.71 119.28c0-.81-.29-1.51-.87-2.09-.58-.58-1.28-.87-2.09-.87-.81 0-1.51.29-2.09.87-.58.58-.87 1.28-.87 2.09 0 .81.29 1.51.87 2.09.58.58 1.28.87 2.09.87.81 0 1.51-.29 2.09-.87.58-.58.87-1.28.87-2.09ZM246.22 145.36c0-1.49-.53-2.77-1.6-3.84-1.07-1.07-2.34-1.6-3.84-1.6s-2.77.53-3.84 1.6c-1.07 1.07-1.6 2.34-1.6 3.84s.53 2.77 1.6 3.84c1.07 1.07 2.34 1.6 3.84 1.6 1.49 0 2.77-.53 3.84-1.6 1.07-1.07 1.6-2.34 1.6-3.84Zm23.61 8.4c0-.81-.29-1.51-.87-2.09-.58-.58-1.28-.87-2.09-.87-.81 0-1.51.29-2.09.87-.58.58-.87 1.28-.87 2.09 0 .81.29 1.51.87 2.09.58.58 1.28.87 2.09.87.81 0 1.51-.29 2.09-.87.58-.58.87-1.28.87-2.09Zm-65 76.1c0-.81-.29-1.51-.87-2.09-.58-.58-1.28-.87-2.09-.87-.81 0-1.51.29-2.09.87-.58.58-.87 1.28-.87 2.09 0 .81.29 1.51.87 2.09.58.58 1.28.87 2.09.87.81 0 1.51-.29 2.09-.87.58-.58.87-1.28.87-2.09Zm559.79-49.68c0-1.36-.48-2.52-1.45-3.48s-2.13-1.45-3.48-1.45-2.52.48-3.48 1.45-1.45 2.13-1.45 3.48.48 2.52 1.45 3.48 2.13 1.45 3.48 1.45c1.36 0 2.52-.48 3.48-1.45s1.45-2.13 1.45-3.48ZM542.07 4.93c0-1.36-.48-2.52-1.45-3.48S538.49 0 537.14 0s-2.52.48-3.48 1.45-1.45 2.13-1.45 3.48.48 2.52 1.45 3.48 2.13 1.45 3.48 1.45c1.36 0 2.52-.48 3.48-1.45s1.45-2.13 1.45-3.48Zm101.41 42.78c0-.81-.29-1.51-.87-2.09-.58-.58-1.28-.87-2.09-.87-.81 0-1.51.29-2.09.87-.58.58-.87 1.28-.87 2.09 0 .81.29 1.51.87 2.09.58.58 1.28.87 2.09.87.81 0 1.51-.29 2.09-.87.58-.58.87-1.28.87-2.09Zm46.3-8.85c0-.81-.29-1.51-.87-2.09-.58-.58-1.28-.87-2.09-.87-.81 0-1.51.29-2.09.87-.58.58-.87 1.28-.87 2.09 0 .81.29 1.51.87 2.09.58.58 1.28.87 2.09.87.81 0 1.51-.29 2.09-.87.58-.58.87-1.28.87-2.09Zm47.34 378.87c0-1.36-.48-2.52-1.45-3.48s-2.13-1.45-3.48-1.45-2.52.48-3.48 1.45-1.45 2.13-1.45 3.48.48 2.52 1.45 3.48 2.13 1.45 3.48 1.45c1.36 0 2.52-.48 3.48-1.45s1.45-2.13 1.45-3.48Zm101.41 42.78c0-.81-.29-1.51-.87-2.09-.58-.58-1.28-.87-2.09-.87-.81 0-1.51.29-2.09.87-.58.58-.87 1.28-.87 2.09 0 .81.29 1.51.87 2.09.58.58 1.28.87 2.09.87.81 0 1.51-.29 2.09-.87.58-.58.87-1.28.87-2.09ZM696.18 248.56c0-.81-.29-1.51-.87-2.09-.58-.58-1.28-.87-2.09-.87-.81 0-1.51.29-2.09.87-.58.58-.87 1.28-.87 2.09 0 .81.29 1.51.87 2.09.58.58 1.28.87 2.09.87.81 0 1.51-.29 2.09-.87.58-.58.87-1.28.87-2.09Zm430.84-226.25c0-1.49-.53-2.77-1.6-3.84-1.07-1.07-2.34-1.6-3.84-1.6s-2.77.53-3.84 1.6c-1.07 1.07-1.6 2.34-1.6 3.84s.53 2.77 1.6 3.84c1.07 1.07 2.34 1.6 3.84 1.6 1.49 0 2.77-.53 3.84-1.6 1.07-1.07 1.6-2.34 1.6-3.84ZM745.03 58.03c0-2.03-.72-3.78-2.17-5.23-1.45-1.45-3.19-2.17-5.23-2.17-2.04 0-3.78.72-5.23 2.17-1.45 1.45-2.17 3.19-2.17 5.23 0 2.04.72 3.78 2.17 5.23 1.45 1.45 3.19 2.17 5.23 2.17 2.03 0 3.78-.72 5.23-2.17 1.45-1.45 2.17-3.19 2.17-5.23Zm-33 27.98c0-.81-.29-1.51-.87-2.09-.58-.58-1.28-.87-2.09-.87-.81 0-1.51.29-2.09.87-.58.58-.87 1.28-.87 2.09 0 .81.29 1.51.87 2.09.58.58 1.28.87 2.09.87.81 0 1.51-.29 2.09-.87.58-.58.87-1.28.87-2.09Zm46.3-8.85c0-.81-.29-1.51-.87-2.09-.58-.58-1.28-.87-2.09-.87-.81 0-1.51.29-2.09.87-.58.58-.87 1.28-.87 2.09 0 .81.29 1.51.87 2.09.58.58 1.28.87 2.09.87.81 0 1.51-.29 2.09-.87.58-.58.87-1.28.87-2.09Z"/><path d="M420.98 545.86c0-.81-.29-1.51-.87-2.09-.58-.58-1.28-.87-2.09-.87-.81 0-1.51.29-2.09.87-.58.58-.87 1.28-.87 2.09 0 .81.29 1.51.87 2.09.58.58 1.28.87 2.09.87.81 0 1.51-.29 2.09-.87.58-.58.87-1.28.87-2.09ZM185.13 351.48c0-2.03-.72-3.78-2.17-5.23-1.45-1.45-3.19-2.17-5.23-2.17-2.04 0-3.78.72-5.23 2.17-1.45 1.45-2.17 3.19-2.17 5.23 0 2.04.72 3.78 2.17 5.23 1.45 1.45 3.19 2.17 5.23 2.17 2.03 0 3.78-.72 5.23-2.17 1.45-1.45 2.17-3.19 2.17-5.23ZM77.82 447.56c0-1.49-.53-2.77-1.6-3.84-1.07-1.07-2.34-1.6-3.84-1.6s-2.77.53-3.84 1.6c-1.07 1.07-1.6 2.34-1.6 3.84s.53 2.77 1.6 3.84c1.07 1.07 2.34 1.6 3.84 1.6 1.49 0 2.77-.53 3.84-1.6 1.07-1.07 1.6-2.34 1.6-3.84Zm-27.1-110.88c0-1.36-.48-2.52-1.45-3.48s-2.13-1.45-3.48-1.45-2.52.48-3.48 1.45-1.45 2.13-1.45 3.48.48 2.52 1.45 3.48 2.13 1.45 3.48 1.45c1.36 0 2.52-.48 3.48-1.45s1.45-2.13 1.45-3.48Zm101.41 42.78c0-.81-.29-1.51-.87-2.09-.58-.58-1.28-.87-2.09-.87-.81 0-1.51.29-2.09.87-.58.58-.87 1.28-.87 2.09 0 .81.29 1.51.87 2.09.58.58 1.28.87 2.09.87.81 0 1.51-.29 2.09-.87.58-.58.87-1.28.87-2.09Zm46.3-8.85c0-.81-.29-1.51-.87-2.09-.58-.58-1.28-.87-2.09-.87-.81 0-1.51.29-2.09.87-.58.58-.87 1.28-.87 2.09 0 .81.29 1.51.87 2.09.58.58 1.28.87 2.09.87.81 0 1.51-.29 2.09-.87.58-.58.87-1.28.87-2.09Zm-97 85.35c0-.81-.29-1.51-.87-2.09-.58-.58-1.28-.87-2.09-.87-.81 0-1.51.29-2.09.87-.58.58-.87 1.28-.87 2.09 0 .81.29 1.51.87 2.09.58.58 1.28.87 2.09.87.81 0 1.51-.29 2.09-.87.58-.58.87-1.28.87-2.09Zm958.1-44.03c0-2.03-.72-3.78-2.17-5.23-1.45-1.45-3.19-2.17-5.23-2.17-2.04 0-3.78.72-5.23 2.17-1.45 1.45-2.17 3.19-2.17 5.23 0 2.04.72 3.78 2.17 5.23 1.45 1.45 3.19 2.17 5.23 2.17 2.03 0 3.78-.72 5.23-2.17 1.45-1.45 2.17-3.19 2.17-5.23Zm13.3 19.13c0-.81-.29-1.51-.87-2.09-.58-.58-1.28-.87-2.09-.87-.81 0-1.51.29-2.09.87-.58.58-.87 1.28-.87 2.09 0 .81.29 1.51.87 2.09.58.58 1.28.87 2.09.87.81 0 1.51-.29 2.09-.87.58-.58.87-1.28.87-2.09Zm-97 85.35c0-.81-.29-1.51-.87-2.09-.58-.58-1.28-.87-2.09-.87-.81 0-1.51.29-2.09.87-.58.58-.87 1.28-.87 2.09 0 .81.29 1.51.87 2.09.58.58 1.28.87 2.09.87.81 0 1.51-.29 2.09-.87.58-.58.87-1.28.87-2.09Zm-335.3-209.2c0-.81-.29-1.51-.87-2.09-.58-.58-1.28-.87-2.09-.87-.81 0-1.51.29-2.09.87-.58.58-.87 1.28-.87 2.09 0 .81.29 1.51.87 2.09.58.58 1.28.87 2.09.87.81 0 1.51-.29 2.09-.87.58-.58.87-1.28.87-2.09Zm-453.85-85.73c0-2.99-1.06-5.55-3.19-7.68s-4.69-3.19-7.68-3.19c-2.99 0-5.55 1.06-7.68 3.19s-3.19 4.69-3.19 7.68c0 2.99 1.06 5.55 3.19 7.68s4.69 3.19 7.68 3.19c2.99 0 5.55-1.06 7.68-3.19s3.19-4.69 3.19-7.68Zm382.49-105.67c0-1.49-.53-2.77-1.6-3.84-1.07-1.07-2.34-1.6-3.84-1.6s-2.77.53-3.84 1.6c-1.07 1.07-1.6 2.34-1.6 3.84s.53 2.77 1.6 3.84c1.07 1.07 2.34 1.6 3.84 1.6 1.49 0 2.77-.53 3.84-1.6 1.07-1.07 1.6-2.34 1.6-3.84Zm23.61 8.4c0-.81-.29-1.51-.87-2.09-.58-.58-1.28-.87-2.09-.87-.81 0-1.51.29-2.09.87-.58.58-.87 1.28-.87 2.09 0 .81.29 1.51.87 2.09.58.58 1.28.87 2.09.87.81 0 1.51-.29 2.09-.87.58-.58.87-1.28.87-2.09Zm595.74 273.72c0-1.36-.48-2.52-1.45-3.48-.97-.97-2.13-1.45-3.48-1.45s-2.52.48-3.48 1.45c-.97.97-1.45 2.13-1.45 3.48s.48 2.52 1.45 3.48c.97.97 2.13 1.45 3.48 1.45 1.36 0 2.52-.48 3.48-1.45.97-.97 1.45-2.13 1.45-3.48ZM672.57 240.16c0-1.49-.53-2.77-1.6-3.84-1.07-1.07-2.34-1.6-3.84-1.6s-2.77.53-3.84 1.6c-1.07 1.07-1.6 2.34-1.6 3.84s.53 2.77 1.6 3.84c1.07 1.07 2.34 1.6 3.84 1.6 1.49 0 2.77-.53 3.84-1.6 1.07-1.07 1.6-2.34 1.6-3.84Zm-660.7-33.25c0-1.49-.53-2.77-1.6-3.84-1.07-1.07-2.34-1.6-3.84-1.6s-2.77.53-3.84 1.6c-1.07 1.07-1.6 2.34-1.6 3.84s.53 2.77 1.6 3.84c1.07 1.07 2.34 1.6 3.84 1.6 1.49 0 2.77-.53 3.84-1.6 1.07-1.07 1.6-2.34 1.6-3.84Zm74.31-68.1c0-.81-.29-1.51-.87-2.09-.58-.58-1.28-.87-2.09-.87-.81 0-1.51.29-2.09.87-.58.58-.87 1.28-.87 2.09 0 .81.29 1.51.87 2.09.58.58 1.28.87 2.09.87.81 0 1.51-.29 2.09-.87.58-.58.87-1.28.87-2.09Zm46.3-8.85c0-.81-.29-1.51-.87-2.09-.58-.58-1.28-.87-2.09-.87-.81 0-1.51.29-2.09.87-.58.58-.87 1.28-.87 2.09 0 .81.29 1.51.87 2.09.58.58 1.28.87 2.09.87.81 0 1.51-.29 2.09-.87.58-.58.87-1.28.87-2.09Zm-97 85.35c0-.81-.29-1.51-.87-2.09-.58-.58-1.28-.87-2.09-.87-.81 0-1.51.29-2.09.87-.58.58-.87 1.28-.87 2.09 0 .81.29 1.51.87 2.09.58.58 1.28.87 2.09.87.81 0 1.51-.29 2.09-.87.58-.58.87-1.28.87-2.09Zm627.75 317.87c0-2.03-.72-3.78-2.17-5.23-1.45-1.45-3.19-2.17-5.23-2.17-2.04 0-3.78.72-5.23 2.17-1.45 1.45-2.17 3.19-2.17 5.23 0 2.04.72 3.78 2.17 5.23 1.45 1.45 3.19 2.17 5.23 2.17 2.03 0 3.78-.72 5.23-2.17 1.45-1.45 2.17-3.19 2.17-5.23Zm-134.41-14.8c0-1.36-.48-2.52-1.45-3.48s-2.13-1.45-3.48-1.45-2.52.48-3.48 1.45-1.45 2.13-1.45 3.48.48 2.52 1.45 3.48 2.13 1.45 3.48 1.45c1.36 0 2.52-.48 3.48-1.45s1.45-2.13 1.45-3.48Zm101.41 42.78c0-.81-.29-1.51-.87-2.09-.58-.58-1.28-.87-2.09-.87-.81 0-1.51.29-2.09.87-.58.58-.87 1.28-.87 2.09 0 .81.29 1.51.87 2.09.58.58 1.28.87 2.09.87.81 0 1.51-.29 2.09-.87.58-.58.87-1.28.87-2.09Zm46.3-8.85c0-.81-.29-1.51-.87-2.09-.58-.58-1.28-.87-2.09-.87-.81 0-1.51.29-2.09.87-.58.58-.87 1.28-.87 2.09 0 .81.29 1.51.87 2.09.58.58 1.28.87 2.09.87.81 0 1.51-.29 2.09-.87.58-.58.87-1.28.87-2.09Zm498.7-300.23c0-2.03-.72-3.78-2.17-5.23-1.45-1.45-3.19-2.17-5.23-2.17-2.04 0-3.78.72-5.23 2.17-1.45 1.45-2.17 3.19-2.17 5.23 0 2.04.72 3.78 2.17 5.23 1.45 1.45 3.19 2.17 5.23 2.17 2.03 0 3.78-.72 5.23-2.17 1.45-1.45 2.17-3.19 2.17-5.23Zm-33 27.98c0-.81-.29-1.51-.87-2.09-.58-.58-1.28-.87-2.09-.87-.81 0-1.51.29-2.09.87-.58.58-.87 1.28-.87 2.09 0 .81.29 1.51.87 2.09.58.58 1.28.87 2.09.87.81 0 1.51-.29 2.09-.87.58-.58.87-1.28.87-2.09Zm46.3-8.85c0-.81-.29-1.51-.87-2.09-.58-.58-1.28-.87-2.09-.87-.81 0-1.51.29-2.09.87-.58.58-.87 1.28-.87 2.09 0 .81.29 1.51.87 2.09.58.58 1.28.87 2.09.87.81 0 1.51-.29 2.09-.87.58-.58.87-1.28.87-2.09Zm-37.9-240.5c0-.81-.29-1.51-.87-2.09-.58-.58-1.28-.87-2.09-.87-.81 0-1.51.29-2.09.87-.58.58-.87 1.28-.87 2.09 0 .81.29 1.51.87 2.09.58.58 1.28.87 2.09.87.81 0 1.51-.29 2.09-.87.58-.58.87-1.28.87-2.09Zm9.84 81.67c0-1.36-.48-2.52-1.45-3.48s-2.13-1.45-3.48-1.45-2.52.48-3.48 1.45-1.45 2.13-1.45 3.48.48 2.52 1.45 3.48 2.13 1.45 3.48 1.45c1.36 0 2.52-.48 3.48-1.45s1.45-2.13 1.45-3.48ZM550.98 62.51c0-.81-.29-1.51-.87-2.09-.58-.58-1.28-.87-2.09-.87-.81 0-1.51.29-2.09.87-.58.58-.87 1.28-.87 2.09 0 .81.29 1.51.87 2.09.58.58 1.28.87 2.09.87.81 0 1.51-.29 2.09-.87.58-.58.87-1.28.87-2.09Z"/></g></svg>