<svg xmlns="http://www.w3.org/2000/svg" id="Layer_2" data-name="Layer 2" viewBox="0 0 1187.53 564.12"><defs><style>.cls-1{fill:#5300ef}.cls-2{fill:rgba(83,0,239,.68)}</style></defs><g id="Layer_1-2" data-name="Layer 1"><path id="Layer6_1_FILL" d="M675.51 19.75c0-2.03-.73-3.78-2.2-5.25-1.43-1.43-3.17-2.15-5.2-2.15s-3.82.72-5.25 2.15c-1.43 1.47-2.15 3.22-2.15 5.25s.72 3.77 2.15 5.2c1.43 1.47 3.18 2.2 5.25 2.2s3.77-.73 5.2-2.2c1.47-1.43 2.2-3.17 2.2-5.2Z" class="cls-2" data-name="Layer6 1 FILL"/><path id="Layer6_1_MEMBER_0_FILL" d="M272.27 511.93c0-1.36-.48-2.52-1.45-3.48s-2.13-1.45-3.48-1.45-2.52.48-3.48 1.45-1.45 2.13-1.45 3.48.48 2.52 1.45 3.48 2.13 1.45 3.48 1.45c1.36 0 2.52-.48 3.48-1.45s1.45-2.13 1.45-3.48Z" class="cls-2" data-name="Layer6 1 MEMBER 0 FILL"/><path id="Layer6_1_MEMBER_1_FILL" d="M373.68 554.71c0-.81-.29-1.51-.87-2.09s-1.28-.87-2.09-.87-1.51.29-2.09.87-.87 1.28-.87 2.09.29 1.51.87 2.09 1.28.87 2.09.87c.81 0 1.51-.29 2.09-.87s.87-1.28.87-2.09Z" class="cls-2" data-name="Layer6 1 MEMBER 1 FILL"/><path id="Layer6_1_MEMBER_2_FILL" d="M564.23 210.73c0-2.03-.72-3.78-2.17-5.23s-3.19-2.17-5.23-2.17-3.78.72-5.23 2.17-2.17 3.19-2.17 5.23.72 3.78 2.17 5.23 3.19 2.17 5.23 2.17c2.03 0 3.78-.72 5.23-2.17s2.17-3.19 2.17-5.23Z" class="cls-2" data-name="Layer6 1 MEMBER 2 FILL"/><path id="Layer6_1_MEMBER_3_FILL" d="M456.92 306.81c0-1.49-.53-2.77-1.6-3.84s-2.34-1.6-3.84-1.6-2.77.53-3.84 1.6-1.6 2.34-1.6 3.84.53 2.77 1.6 3.84 2.34 1.6 3.84 1.6c1.49 0 2.77-.53 3.84-1.6s1.6-2.34 1.6-3.84Z" class="cls-2" data-name="Layer6 1 MEMBER 3 FILL"/><path id="Layer6_1_MEMBER_4_FILL" d="M429.82 195.93c0-1.36-.48-2.52-1.45-3.48s-2.13-1.45-3.48-1.45-2.52.48-3.48 1.45-1.45 2.13-1.45 3.48.48 2.52 1.45 3.48 2.13 1.45 3.48 1.45c1.36 0 2.52-.48 3.48-1.45s1.45-2.13 1.45-3.48Z" class="cls-2" data-name="Layer6 1 MEMBER 4 FILL"/><path id="Layer6_1_MEMBER_5_FILL" d="M531.23 238.71c0-.81-.29-1.51-.87-2.09s-1.28-.87-2.09-.87-1.51.29-2.09.87-.87 1.28-.87 2.09.29 1.51.87 2.09 1.28.87 2.09.87c.81 0 1.51-.29 2.09-.87s.87-1.28.87-2.09Z" class="cls-2" data-name="Layer6 1 MEMBER 5 FILL"/><path id="Layer6_1_MEMBER_6_FILL" d="M577.53 229.86c0-.81-.29-1.51-.87-2.09s-1.28-.87-2.09-.87-1.51.29-2.09.87-.87 1.28-.87 2.09.29 1.51.87 2.09 1.28.87 2.09.87c.81 0 1.51-.29 2.09-.87s.87-1.28.87-2.09Z" class="cls-2" data-name="Layer6 1 MEMBER 6 FILL"/><path id="Layer6_1_MEMBER_7_FILL" d="M480.53 315.21c0-.81-.29-1.51-.87-2.09s-1.28-.87-2.09-.87-1.51.29-2.09.87-.87 1.28-.87 2.09.29 1.51.87 2.09 1.28.87 2.09.87c.81 0 1.51-.29 2.09-.87s.87-1.28.87-2.09Z" class="cls-2" data-name="Layer6 1 MEMBER 7 FILL"/><path id="Layer6_1_MEMBER_8_FILL" d="M951.22 508.01c0-1.49-.53-2.77-1.6-3.84s-2.34-1.6-3.84-1.6-2.77.53-3.84 1.6-1.6 2.34-1.6 3.84.53 2.77 1.6 3.84 2.34 1.6 3.84 1.6c1.49 0 2.77-.53 3.84-1.6s1.6-2.34 1.6-3.84Z" class="cls-2" data-name="Layer6 1 MEMBER 8 FILL"/><path id="Layer6_1_MEMBER_9_FILL" d="M924.12 397.13c0-1.36-.48-2.52-1.45-3.48s-2.13-1.45-3.48-1.45-2.52.48-3.48 1.45-1.45 2.13-1.45 3.48.48 2.52 1.45 3.48 2.13 1.45 3.48 1.45c1.36 0 2.52-.48 3.48-1.45s1.45-2.13 1.45-3.48Z" class="cls-2" data-name="Layer6 1 MEMBER 9 FILL"/><path id="Layer6_1_MEMBER_10_FILL" d="M1025.53 439.91c0-.81-.29-1.51-.87-2.09s-1.28-.87-2.09-.87-1.51.29-2.09.87-.87 1.28-.87 2.09.29 1.51.87 2.09 1.28.87 2.09.87c.81 0 1.51-.29 2.09-.87s.87-1.28.87-2.09Z" class="cls-2" data-name="Layer6 1 MEMBER 10 FILL"/><path id="Layer6_1_MEMBER_11_FILL" d="M899.02 243.41c0-1.49-.53-2.77-1.6-3.84s-2.34-1.6-3.84-1.6-2.77.53-3.84 1.6-1.6 2.34-1.6 3.84.53 2.77 1.6 3.84 2.34 1.6 3.84 1.6c1.49 0 2.77-.53 3.84-1.6s1.6-2.34 1.6-3.84Z" class="cls-2" data-name="Layer6 1 MEMBER 11 FILL"/><path id="Layer6_1_MEMBER_12_FILL" d="M871.92 132.53c0-1.36-.48-2.52-1.45-3.48s-2.13-1.45-3.48-1.45-2.52.48-3.48 1.45-1.45 2.13-1.45 3.48.48 2.52 1.45 3.48 2.13 1.45 3.48 1.45c1.36 0 2.52-.48 3.48-1.45s1.45-2.13 1.45-3.48Z" class="cls-2" data-name="Layer6 1 MEMBER 12 FILL"/><path id="Layer6_1_MEMBER_13_FILL" d="M922.63 251.81c0-.81-.29-1.51-.87-2.09s-1.28-.87-2.09-.87-1.51.29-2.09.87-.87 1.28-.87 2.09.29 1.51.87 2.09 1.28.87 2.09.87c.81 0 1.51-.29 2.09-.87s.87-1.28.87-2.09Z" class="cls-2" data-name="Layer6 1 MEMBER 13 FILL"/><path id="Layer6_1_MEMBER_14_FILL" d="M245.22 145.36c0-1.49-.53-2.77-1.6-3.84s-2.34-1.6-3.84-1.6-2.77.53-3.84 1.6-1.6 2.34-1.6 3.84.53 2.77 1.6 3.84 2.34 1.6 3.84 1.6c1.49 0 2.77-.53 3.84-1.6s1.6-2.34 1.6-3.84Z" class="cls-2" data-name="Layer6 1 MEMBER 14 FILL"/><path id="Layer6_1_MEMBER_15_FILL" d="M268.83 153.76c0-.81-.29-1.51-.87-2.09s-1.28-.87-2.09-.87-1.51.29-2.09.87-.87 1.28-.87 2.09.29 1.51.87 2.09 1.28.87 2.09.87c.81 0 1.51-.29 2.09-.87s.87-1.28.87-2.09Z" class="cls-2" data-name="Layer6 1 MEMBER 15 FILL"/><path id="Layer6_1_MEMBER_16_FILL" d="M203.83 229.86c0-.81-.29-1.51-.87-2.09s-1.28-.87-2.09-.87-1.51.29-2.09.87-.87 1.28-.87 2.09.29 1.51.87 2.09 1.28.87 2.09.87c.81 0 1.51-.29 2.09-.87s.87-1.28.87-2.09Z" class="cls-2" data-name="Layer6 1 MEMBER 16 FILL"/><path id="Layer6_1_MEMBER_17_FILL" d="M763.62 180.18c0-1.36-.48-2.52-1.45-3.48s-2.13-1.45-3.48-1.45-2.52.48-3.48 1.45-1.45 2.13-1.45 3.48.48 2.52 1.45 3.48 2.13 1.45 3.48 1.45c1.36 0 2.52-.48 3.48-1.45s1.45-2.13 1.45-3.48Z" class="cls-2" data-name="Layer6 1 MEMBER 17 FILL"/><path id="Layer6_1_MEMBER_18_FILL" d="M541.07 4.93c0-1.36-.48-2.52-1.45-3.48S537.49 0 536.14 0s-2.52.48-3.48 1.45-1.45 2.13-1.45 3.48.48 2.52 1.45 3.48 2.13 1.45 3.48 1.45c1.36 0 2.52-.48 3.48-1.45s1.45-2.13 1.45-3.48Z" class="cls-2" data-name="Layer6 1 MEMBER 18 FILL"/><path id="Layer6_1_MEMBER_19_FILL" d="M642.48 47.71c0-.81-.29-1.51-.87-2.09s-1.28-.87-2.09-.87-1.51.29-2.09.87-.87 1.28-.87 2.09.29 1.51.87 2.09 1.28.87 2.09.87c.81 0 1.51-.29 2.09-.87s.87-1.28.87-2.09Z" class="cls-2" data-name="Layer6 1 MEMBER 19 FILL"/><path id="Layer6_1_MEMBER_20_FILL" d="M688.78 38.86c0-.81-.29-1.51-.87-2.09s-1.28-.87-2.09-.87-1.51.29-2.09.87-.87 1.28-.87 2.09.29 1.51.87 2.09 1.28.87 2.09.87c.81 0 1.51-.29 2.09-.87s.87-1.28.87-2.09Z" class="cls-2" data-name="Layer6 1 MEMBER 20 FILL"/><path id="Layer6_1_MEMBER_21_FILL" d="M736.12 417.73c0-1.36-.48-2.52-1.45-3.48s-2.13-1.45-3.48-1.45-2.52.48-3.48 1.45-1.45 2.13-1.45 3.48.48 2.52 1.45 3.48 2.13 1.45 3.48 1.45c1.36 0 2.52-.48 3.48-1.45s1.45-2.13 1.45-3.48Z" class="cls-2" data-name="Layer6 1 MEMBER 21 FILL"/><path id="Layer6_1_MEMBER_22_FILL" d="M837.53 460.51c0-.81-.29-1.51-.87-2.09s-1.28-.87-2.09-.87-1.51.29-2.09.87-.87 1.28-.87 2.09.29 1.51.87 2.09 1.28.87 2.09.87c.81 0 1.51-.29 2.09-.87s.87-1.28.87-2.09Z" class="cls-2" data-name="Layer6 1 MEMBER 22 FILL"/><path id="Layer6_1_MEMBER_23_FILL" d="M695.18 248.56c0-.81-.29-1.51-.87-2.09s-1.28-.87-2.09-.87-1.51.29-2.09.87-.87 1.28-.87 2.09.29 1.51.87 2.09 1.28.87 2.09.87c.81 0 1.51-.29 2.09-.87s.87-1.28.87-2.09Z" class="cls-2" data-name="Layer6 1 MEMBER 23 FILL"/><path id="Layer6_1_MEMBER_24_FILL" d="M1126.02 22.31c0-1.49-.53-2.77-1.6-3.84s-2.34-1.6-3.84-1.6-2.77.53-3.84 1.6-1.6 2.34-1.6 3.84.53 2.77 1.6 3.84 2.34 1.6 3.84 1.6c1.49 0 2.77-.53 3.84-1.6s1.6-2.34 1.6-3.84Z" class="cls-2" data-name="Layer6 1 MEMBER 24 FILL"/><path id="Layer6_1_MEMBER_25_FILL" d="M744.03 58.03c0-2.03-.72-3.78-2.17-5.23s-3.19-2.17-5.23-2.17-3.78.72-5.23 2.17-2.17 3.19-2.17 5.23.72 3.78 2.17 5.23 3.19 2.17 5.23 2.17c2.03 0 3.78-.72 5.23-2.17s2.17-3.19 2.17-5.23Z" class="cls-2" data-name="Layer6 1 MEMBER 25 FILL"/><path id="Layer6_1_MEMBER_26_FILL" d="M711.03 86.01c0-.81-.29-1.51-.87-2.09s-1.28-.87-2.09-.87-1.51.29-2.09.87-.87 1.28-.87 2.09.29 1.51.87 2.09 1.28.87 2.09.87c.81 0 1.51-.29 2.09-.87s.87-1.28.87-2.09Z" class="cls-2" data-name="Layer6 1 MEMBER 26 FILL"/><path id="Layer6_1_MEMBER_27_FILL" d="M757.33 77.16c0-.81-.29-1.51-.87-2.09s-1.28-.87-2.09-.87-1.51.29-2.09.87-.87 1.28-.87 2.09.29 1.51.87 2.09 1.28.87 2.09.87c.81 0 1.51-.29 2.09-.87s.87-1.28.87-2.09Z" class="cls-2" data-name="Layer6 1 MEMBER 27 FILL"/><path id="Layer6_1_MEMBER_28_FILL" d="M419.98 545.86c0-.81-.29-1.51-.87-2.09s-1.28-.87-2.09-.87-1.51.29-2.09.87-.87 1.28-.87 2.09.29 1.51.87 2.09 1.28.87 2.09.87c.81 0 1.51-.29 2.09-.87s.87-1.28.87-2.09Z" class="cls-1" data-name="Layer6 1 MEMBER 28 FILL"/><path id="Layer6_1_MEMBER_29_FILL" d="M184.13 351.48c0-2.03-.72-3.78-2.17-5.23s-3.19-2.17-5.23-2.17-3.78.72-5.23 2.17-2.17 3.19-2.17 5.23.72 3.78 2.17 5.23 3.19 2.17 5.23 2.17c2.03 0 3.78-.72 5.23-2.17s2.17-3.19 2.17-5.23Z" class="cls-1" data-name="Layer6 1 MEMBER 29 FILL"/><path id="Layer6_1_MEMBER_30_FILL" d="M76.82 447.56c0-1.49-.53-2.77-1.6-3.84s-2.34-1.6-3.84-1.6-2.77.53-3.84 1.6-1.6 2.34-1.6 3.84.53 2.77 1.6 3.84 2.34 1.6 3.84 1.6c1.49 0 2.77-.53 3.84-1.6s1.6-2.34 1.6-3.84Z" class="cls-1" data-name="Layer6 1 MEMBER 30 FILL"/><path id="Layer6_1_MEMBER_31_FILL" d="M49.72 336.68c0-1.36-.48-2.52-1.45-3.48s-2.13-1.45-3.48-1.45-2.52.48-3.48 1.45-1.45 2.13-1.45 3.48.48 2.52 1.45 3.48 2.13 1.45 3.48 1.45c1.36 0 2.52-.48 3.48-1.45s1.45-2.13 1.45-3.48Z" class="cls-1" data-name="Layer6 1 MEMBER 31 FILL"/><path id="Layer6_1_MEMBER_32_FILL" d="M151.13 379.46c0-.81-.29-1.51-.87-2.09s-1.28-.87-2.09-.87-1.51.29-2.09.87-.87 1.28-.87 2.09.29 1.51.87 2.09 1.28.87 2.09.87c.81 0 1.51-.29 2.09-.87s.87-1.28.87-2.09Z" class="cls-1" data-name="Layer6 1 MEMBER 32 FILL"/><path id="Layer6_1_MEMBER_33_FILL" d="M197.43 370.61c0-.81-.29-1.51-.87-2.09s-1.28-.87-2.09-.87-1.51.29-2.09.87-.87 1.28-.87 2.09.29 1.51.87 2.09 1.28.87 2.09.87c.81 0 1.51-.29 2.09-.87s.87-1.28.87-2.09Z" class="cls-1" data-name="Layer6 1 MEMBER 33 FILL"/><path id="Layer6_1_MEMBER_34_FILL" d="M100.43 455.96c0-.81-.29-1.51-.87-2.09s-1.28-.87-2.09-.87-1.51.29-2.09.87-.87 1.28-.87 2.09.29 1.51.87 2.09 1.28.87 2.09.87c.81 0 1.51-.29 2.09-.87s.87-1.28.87-2.09Z" class="cls-1" data-name="Layer6 1 MEMBER 34 FILL"/><path id="Layer6_1_MEMBER_35_FILL" d="M1058.53 411.93c0-2.03-.72-3.78-2.17-5.23s-3.19-2.17-5.23-2.17-3.78.72-5.23 2.17c-1.45 1.45-2.17 3.19-2.17 5.23s.72 3.78 2.17 5.23c1.45 1.45 3.19 2.17 5.23 2.17 2.03 0 3.78-.72 5.23-2.17s2.17-3.19 2.17-5.23Z" class="cls-1" data-name="Layer6 1 MEMBER 35 FILL"/><path id="Layer6_1_MEMBER_36_FILL" d="M1071.83 431.06c0-.81-.29-1.51-.87-2.09s-1.28-.87-2.09-.87-1.51.29-2.09.87-.87 1.28-.87 2.09.29 1.51.87 2.09 1.28.87 2.09.87c.81 0 1.51-.29 2.09-.87s.87-1.28.87-2.09Z" class="cls-1" data-name="Layer6 1 MEMBER 36 FILL"/><path id="Layer6_1_MEMBER_37_FILL" d="M974.83 516.41c0-.81-.29-1.51-.87-2.09s-1.28-.87-2.09-.87-1.51.29-2.09.87-.87 1.28-.87 2.09.29 1.51.87 2.09 1.28.87 2.09.87c.81 0 1.51-.29 2.09-.87s.87-1.28.87-2.09Z" class="cls-1" data-name="Layer6 1 MEMBER 37 FILL"/><path id="Layer6_1_MEMBER_52_FILL" d="M639.53 307.21c0-.81-.29-1.51-.87-2.09s-1.28-.87-2.09-.87-1.51.29-2.09.87-.87 1.28-.87 2.09.29 1.51.87 2.09 1.28.87 2.09.87c.81 0 1.51-.29 2.09-.87s.87-1.28.87-2.09Z" class="cls-1" data-name="Layer6 1 MEMBER 52 FILL"/><path id="Layer6_1_MEMBER_53_FILL" d="M185.68 221.48c0-2.99-1.06-5.55-3.19-7.68s-4.69-3.19-7.68-3.19-5.55 1.06-7.68 3.19-3.19 4.69-3.19 7.68 1.06 5.55 3.19 7.68 4.69 3.19 7.68 3.19c2.99 0 5.55-1.06 7.68-3.19s3.19-4.69 3.19-7.68Z" class="cls-1" data-name="Layer6 1 MEMBER 53 FILL"/><path id="Layer6_1_MEMBER_54_FILL" d="M568.17 115.81c0-1.49-.53-2.77-1.6-3.84s-2.34-1.6-3.84-1.6-2.77.53-3.84 1.6-1.6 2.34-1.6 3.84.53 2.77 1.6 3.84 2.34 1.6 3.84 1.6c1.49 0 2.77-.53 3.84-1.6s1.6-2.34 1.6-3.84Z" class="cls-1" data-name="Layer6 1 MEMBER 54 FILL"/><path id="Layer6_1_MEMBER_55_FILL" d="M591.78 124.21c0-.81-.29-1.51-.87-2.09s-1.28-.87-2.09-.87-1.51.29-2.09.87-.87 1.28-.87 2.09.29 1.51.87 2.09 1.28.87 2.09.87c.81 0 1.51-.29 2.09-.87s.87-1.28.87-2.09Z" class="cls-1" data-name="Layer6 1 MEMBER 55 FILL"/><path id="Layer6_1_MEMBER_73_FILL" d="M1187.52 397.93c0-1.36-.48-2.52-1.45-3.48-.97-.97-2.13-1.45-3.48-1.45s-2.52.48-3.48 1.45c-.97.97-1.45 2.13-1.45 3.48s.48 2.52 1.45 3.48c.97.97 2.13 1.45 3.48 1.45 1.36 0 2.52-.48 3.48-1.45.97-.97 1.45-2.13 1.45-3.48Z" class="cls-1" data-name="Layer6 1 MEMBER 73 FILL"/><path id="Layer6_1_MEMBER_74_FILL" d="M671.57 240.16c0-1.49-.53-2.77-1.6-3.84s-2.34-1.6-3.84-1.6-2.77.53-3.84 1.6-1.6 2.34-1.6 3.84.53 2.77 1.6 3.84 2.34 1.6 3.84 1.6c1.49 0 2.77-.53 3.84-1.6s1.6-2.34 1.6-3.84Z" class="cls-1" data-name="Layer6 1 MEMBER 74 FILL"/><path id="Layer6_1_MEMBER_75_FILL" d="M10.87 206.91c0-1.49-.53-2.77-1.6-3.84s-2.34-1.6-3.84-1.6-2.77.53-3.84 1.6-1.6 2.34-1.6 3.84.53 2.77 1.6 3.84 2.34 1.6 3.84 1.6c1.49 0 2.77-.53 3.84-1.6s1.6-2.34 1.6-3.84Z" class="cls-1" data-name="Layer6 1 MEMBER 75 FILL"/><path id="Layer6_1_MEMBER_76_FILL" d="M85.18 138.81c0-.81-.29-1.51-.87-2.09s-1.28-.87-2.09-.87-1.51.29-2.09.87-.87 1.28-.87 2.09.29 1.51.87 2.09 1.28.87 2.09.87c.81 0 1.51-.29 2.09-.87s.87-1.28.87-2.09Z" class="cls-1" data-name="Layer6 1 MEMBER 76 FILL"/><path id="Layer6_1_MEMBER_77_FILL" d="M131.48 129.96c0-.81-.29-1.51-.87-2.09s-1.28-.87-2.09-.87-1.51.29-2.09.87-.87 1.28-.87 2.09.29 1.51.87 2.09 1.28.87 2.09.87c.81 0 1.51-.29 2.09-.87s.87-1.28.87-2.09Z" class="cls-1" data-name="Layer6 1 MEMBER 77 FILL"/><path id="Layer6_1_MEMBER_78_FILL" d="M34.48 215.31c0-.81-.29-1.51-.87-2.09s-1.28-.87-2.09-.87-1.51.29-2.09.87-.87 1.28-.87 2.09.29 1.51.87 2.09 1.28.87 2.09.87c.81 0 1.51-.29 2.09-.87s.87-1.28.87-2.09Z" class="cls-1" data-name="Layer6 1 MEMBER 78 FILL"/><path id="Layer6_1_MEMBER_79_FILL" d="M662.23 533.18c0-2.03-.72-3.78-2.17-5.23s-3.19-2.17-5.23-2.17-3.78.72-5.23 2.17-2.17 3.19-2.17 5.23.72 3.78 2.17 5.23 3.19 2.17 5.23 2.17c2.03 0 3.78-.72 5.23-2.17s2.17-3.19 2.17-5.23Z" class="cls-1" data-name="Layer6 1 MEMBER 79 FILL"/><path id="Layer6_1_MEMBER_80_FILL" d="M527.82 518.38c0-1.36-.48-2.52-1.45-3.48s-2.13-1.45-3.48-1.45-2.52.48-3.48 1.45-1.45 2.13-1.45 3.48.48 2.52 1.45 3.48 2.13 1.45 3.48 1.45c1.36 0 2.52-.48 3.48-1.45s1.45-2.13 1.45-3.48Z" class="cls-1" data-name="Layer6 1 MEMBER 80 FILL"/><path id="Layer6_1_MEMBER_81_FILL" d="M629.23 561.16c0-.81-.29-1.51-.87-2.09s-1.28-.87-2.09-.87-1.51.29-2.09.87-.87 1.28-.87 2.09.29 1.51.87 2.09 1.28.87 2.09.87c.81 0 1.51-.29 2.09-.87s.87-1.28.87-2.09Z" class="cls-1" data-name="Layer6 1 MEMBER 81 FILL"/><path id="Layer6_1_MEMBER_82_FILL" d="M675.53 552.31c0-.81-.29-1.51-.87-2.09s-1.28-.87-2.09-.87-1.51.29-2.09.87-.87 1.28-.87 2.09.29 1.51.87 2.09 1.28.87 2.09.87c.81 0 1.51-.29 2.09-.87s.87-1.28.87-2.09Z" class="cls-1" data-name="Layer6 1 MEMBER 82 FILL"/><path id="Layer6_1_MEMBER_83_FILL" d="M1174.23 252.08c0-2.03-.72-3.78-2.17-5.23s-3.19-2.17-5.23-2.17-3.78.72-5.23 2.17-2.17 3.19-2.17 5.23.72 3.78 2.17 5.23 3.19 2.17 5.23 2.17c2.03 0 3.78-.72 5.23-2.17s2.17-3.19 2.17-5.23Z" class="cls-1" data-name="Layer6 1 MEMBER 83 FILL"/><path id="Layer6_1_MEMBER_84_FILL" d="M1141.23 280.06c0-.81-.29-1.51-.87-2.09s-1.28-.87-2.09-.87-1.51.29-2.09.87-.87 1.28-.87 2.09.29 1.51.87 2.09 1.28.87 2.09.87c.81 0 1.51-.29 2.09-.87s.87-1.28.87-2.09Z" class="cls-1" data-name="Layer6 1 MEMBER 84 FILL"/><path id="Layer6_1_MEMBER_85_FILL" d="M1187.53 271.21c0-.81-.29-1.51-.87-2.09s-1.28-.87-2.09-.87-1.51.29-2.09.87-.87 1.28-.87 2.09.29 1.51.87 2.09 1.28.87 2.09.87c.81 0 1.51-.29 2.09-.87s.87-1.28.87-2.09Z" class="cls-1" data-name="Layer6 1 MEMBER 85 FILL"/><path id="Layer6_1_MEMBER_91_FILL" d="M1149.63 30.71c0-.81-.29-1.51-.87-2.09s-1.28-.87-2.09-.87-1.51.29-2.09.87-.87 1.28-.87 2.09.29 1.51.87 2.09 1.28.87 2.09.87c.81 0 1.51-.29 2.09-.87s.87-1.28.87-2.09Z" class="cls-1" data-name="Layer6 1 MEMBER 91 FILL"/><path id="Layer6_1_MEMBER_92_FILL" d="M1159.47 112.38c0-1.36-.48-2.52-1.45-3.48s-2.13-1.45-3.48-1.45-2.52.48-3.48 1.45-1.45 2.13-1.45 3.48.48 2.52 1.45 3.48 2.13 1.45 3.48 1.45c1.36 0 2.52-.48 3.48-1.45s1.45-2.13 1.45-3.48Z" class="cls-1" data-name="Layer6 1 MEMBER 92 FILL"/><path id="Layer6_1_MEMBER_93_FILL" d="M549.98 62.51c0-.81-.29-1.51-.87-2.09s-1.28-.87-2.09-.87-1.51.29-2.09.87-.87 1.28-.87 2.09.29 1.51.87 2.09 1.28.87 2.09.87c.81 0 1.51-.29 2.09-.87s.87-1.28.87-2.09Z" class="cls-1" data-name="Layer6 1 MEMBER 93 FILL"/></g></svg>