<svg xmlns="http://www.w3.org/2000/svg" xmlns:xlink="http://www.w3.org/1999/xlink" width="1707" height="960"><defs><path id="a" d="M0 0h1706.667v960H0z"/><path id="c" d="M0 954.321h1155.525V0H0z"/><path id="e" d="M0 954.321h1155.525V0H0z"/><path id="g" d="M0 893.332h1033.544V0H0z"/><path id="i" d="M0 832.341h911.564V0H0z"/><path id="k" d="M0 371.647h1533.456V0H0z"/><path id="m" d="M0 163.33h1590.073V0H0z"/></defs><g fill="none" fill-rule="evenodd" transform="matrix(1 0 0 -1 0 960)"><mask id="b" fill="#fff"><use xlink:href="#a"/></mask><g mask="url(#b)"><g transform="translate(271.968 -.012)"><mask id="d" fill="#fff"><use xlink:href="#c"/></mask><g mask="url(#d)" opacity=".1"><mask id="f" fill="#fff"><use xlink:href="#e"/></mask><g mask="url(#f)" opacity=".7"><path fill="#27A9E0" fill-rule="nonzero" d="M60.994 376.559c0 284.953 231.82 516.773 516.764 516.773 284.947 0 516.776-231.82 516.776-516.773 0-148.318-62.833-282.228-163.252-376.559h84.31c87.16 101.201 139.93 232.83 139.93 376.559 0 318.582-259.181 577.762-577.764 577.762C259.186 954.321 0 695.141 0 376.56 0 232.83 52.768 101.2 139.928 0h84.314C123.822 94.33 60.994 228.241 60.994 376.559"/></g><g transform="translate(60.995)"><mask id="h" fill="#fff"><use xlink:href="#g"/></mask><g mask="url(#h)" opacity=".3"><path fill="#27A9E0" fill-rule="nonzero" d="M1033.54 376.559c0 284.953-231.83 516.773-516.776 516.773C231.819 893.332 0 661.512 0 376.559 0 228.24 62.828 94.33 163.247 0h96.685C139.827 82.084 60.98 220.1 60.98 376.559c0 251.73 204.06 455.782 455.784 455.782s455.78-204.052 455.78-455.782C972.544 220.1 893.701 82.084 773.599 0h96.689c100.419 94.33 163.252 228.241 163.252 376.559"/></g></g><g transform="translate(121.975)"><mask id="j" fill="#fff"><use xlink:href="#i"/></mask><g mask="url(#j)" opacity=".6"><path fill="#27A9E0" fill-rule="nonzero" d="M911.564 376.559c0 251.73-204.056 455.782-455.78 455.782C204.06 832.341 0 628.29 0 376.56 0 220.1 78.847 82.084 198.952 0h513.667C832.72 82.084 911.564 220.1 911.564 376.559"/></g></g></g></g><g transform="translate(63.717 525.137)"><mask id="l" fill="#fff"><use xlink:href="#k"/></mask><g mask="url(#l)" opacity=".2"><path fill="#27A9E0" d="m1331.041 223.667 6.125-.239c3.639-.15 9.059-1.976 12.044-4.056l5.026-3.51c2.988-2.086 5.545-.814 5.693 2.826l.24 6.123c.144 3.636 1.968 9.056 4.052 12.041l3.503 5.025c2.088 2.987.818 5.546-2.822 5.692l-6.124.242c-3.638.148-9.054 1.968-12.042 4.053l-5.023 3.501c-2.988 2.09-5.55.823-5.69-2.82l-.243-6.121c-.14-3.641-1.97-9.061-4.052-12.045l-3.512-5.028c-2.086-2.979-.806-5.542 2.825-5.684M4.283 3.675l5.926.907c3.514.54 9.052-.196 12.306-1.64L27.993.514c3.25-1.444 5.465.257 4.925 3.77l-.91 5.929c-.543 3.512.197 9.049 1.642 12.3l2.425 5.484c1.442 3.249-.25 5.469-3.772 4.926l-5.918-.913c-3.52-.54-9.05.199-12.302 1.643l-5.48 2.425c-3.257 1.443-5.472-.25-4.93-3.77l.912-5.92c.537-3.52-.2-9.051-1.643-12.309L.518 8.605c-1.45-3.252.25-5.471 3.765-4.93m449.229 355.76 3.118-5.333c1.846-3.16 3.233-8.742 3.077-12.406l-.25-6.165c-.147-3.661 2.317-5.144 5.477-3.3l5.328 3.116c3.17 1.85 8.748 3.233 12.41 3.087l6.168-.254c3.655-.158 5.143 2.31 3.292 5.478l-3.109 5.324c-1.85 3.168-3.24 8.75-3.088 12.413l.253 6.167c.152 3.66-2.316 5.133-5.477 3.29l-5.327-3.11c-3.164-1.851-8.749-3.234-12.409-3.083l-6.165.253c-3.658.15-5.139-2.316-3.298-5.477m1046.39-305.952c-2.972 9.028 1.94 18.756 10.969 21.72 9.021 2.973 18.745-1.945 21.712-10.97 2.973-9.025-1.944-18.751-10.967-21.717-9.025-2.969-18.749 1.942-21.714 10.967M474.165 215.397c-4.81-.738-9.308 2.559-10.043 7.37-.743 4.806 2.563 9.296 7.37 10.034a8.798 8.798 0 0 0 10.035-7.364c.74-4.808-2.562-9.304-7.362-10.04m-360.248 34.746c-4.81-.739-9.307 2.565-10.046 7.374-.736 4.802 2.563 9.295 7.372 10.034 4.807.738 9.306-2.559 10.039-7.36.737-4.81-2.56-9.312-7.365-10.048M1206.56 121.494c-4.805-.74-9.303 2.564-10.042 7.37-.735 4.806 2.567 9.3 7.37 10.04 4.809.735 9.306-2.56 10.04-7.363.738-4.81-2.562-9.312-7.367-10.047m-149.882 173.409c-4.81-.737-9.305 2.56-10.041 7.361a8.8 8.8 0 0 0 7.369 10.043 8.801 8.801 0 0 0 10.039-7.361c.733-4.81-2.563-9.306-7.367-10.043"/></g></g><g transform="translate(88.847 73.564)"><mask id="n" fill="#fff"><use xlink:href="#m"/></mask><g mask="url(#n)" opacity=".2"><path fill="#27A9E0" d="m1552.378 8.807 6.127-.24c3.64-.145 9.06-1.97 12.042-4.052l5.026-3.51c2.988-2.086 5.55-.818 5.694 2.826l.24 6.123c.144 3.635 1.968 9.052 4.052 12.041l3.506 5.024c2.088 2.988.816 5.543-2.822 5.69l-6.126.244c-3.638.149-9.055 1.966-12.043 4.053l-5.024 3.504c-2.987 2.085-5.545.824-5.69-2.82l-.243-6.125c-.14-3.643-1.967-9.063-4.046-12.047l-3.513-5.023c-2.09-2.978-.812-5.545 2.82-5.688M4.283 29.969l5.924.902c3.516.544 9.054-.19 12.31-1.638l5.477-2.427c3.248-1.444 5.464.26 4.924 3.773l-.91 5.927c-.542 3.513.197 9.047 1.642 12.3l2.425 5.481c1.443 3.248-.25 5.474-3.77 4.93l-5.92-.911c-3.52-.545-9.05.193-12.302 1.64l-5.48 2.428c-3.257 1.44-5.472-.25-4.93-3.773l.912-5.923c.537-3.515-.202-9.05-1.643-12.304L.518 34.897c-1.448-3.252.248-5.471 3.765-4.928m1413.086 110.773c-2.97 9.027 1.945 18.755 10.972 21.721 9.021 2.972 18.747-1.948 21.712-10.97 2.972-9.027-1.944-18.75-10.968-21.719-9.024-2.97-18.747 1.944-21.716 10.968M128.17 144.499c-4.81-.74-9.305 2.565-10.044 7.373-.739 4.8 2.561 9.297 7.37 10.033 4.806.739 9.305-2.557 10.04-7.362.734-4.807-2.56-9.31-7.366-10.044"/></g></g></g></g></svg>