<svg xmlns="http://www.w3.org/2000/svg" xmlns:xlink="http://www.w3.org/1999/xlink" width="1707" height="960"><defs><path id="a" d="M0 0h1706.667v960H0z"/><path id="c" d="M0 312.41h1533.447V0H0z"/><path id="e" d="M0 163.328h1590.064V0H0z"/><path id="i" d="M0 0h1706.667v960H0z"/><path id="k" d="M0 24.688h338.92V0H0z"/><path id="o" d="M0 0h1706.667v960H0z"/><path id="q" d="M0 24.69h338.921V0H0z"/><path id="t" d="M0 0h1706.667v960H0z"/><linearGradient id="g" x1="-4.174%" x2="102.519%" y1="58.611%" y2="36.838%"><stop offset="0%" stop-color="#FAAF40"/><stop offset="100%" stop-color="#F6931E"/></linearGradient><linearGradient id="h" x1=".504%" x2="99.107%" y1="48.046%" y2="51.081%"><stop offset="0%" stop-color="#FAAF40"/><stop offset="100%" stop-color="#F6931E"/></linearGradient><linearGradient id="m" x1="50%" x2="50%" y1="118.572%" y2="320.713%"><stop offset="0%" stop-color="#80B43A"/><stop offset="100%" stop-color="#8AC43F"/></linearGradient><linearGradient id="n" x1="50%" x2="50%" y1="21.157%" y2="93.077%"><stop offset="0%" stop-color="#80B43A"/><stop offset="100%" stop-color="#8AC43F"/></linearGradient><linearGradient id="s" x1="50%" x2="50%" y1="99.218%" y2=".316%"><stop offset="0%" stop-color="#FAAF40"/><stop offset="100%" stop-color="#F6931E"/></linearGradient></defs><g fill="none" fill-rule="evenodd"><path fill="#E6FAFF" fill-rule="nonzero" d="M0 960h1706.667V0H0z"/><g transform="matrix(1 0 0 -1 0 960)"><mask id="b" fill="#fff"><use xlink:href="#a"/></mask><g mask="url(#b)"><g transform="translate(64.38 524.952)"><mask id="d" fill="#fff"><use xlink:href="#c"/></mask><g mask="url(#d)" opacity=".2"><path fill="#27A9E0" d="m1331.04 223.668 6.126-.24c3.639-.148 9.059-1.975 12.044-4.055l5.026-3.51c2.988-2.087 5.545-.815 5.693 2.826l.24 6.121c.144 3.638 1.968 9.056 4.052 12.043l3.503 5.024c2.088 2.987.818 5.545-2.822 5.693l-6.124.24c-3.638.15-9.054 1.97-12.042 4.054l-5.023 3.501c-2.988 2.09-5.55.824-5.69-2.82l-.243-6.12c-.14-3.643-1.97-9.063-4.052-12.047l-3.512-5.026c-2.086-2.979-.806-5.543 2.825-5.684M4.283 3.676l5.926.906c3.513.54 9.052-.196 12.308-1.64L27.993.514c3.25-1.444 5.466.258 4.925 3.77l-.91 5.928c-.543 3.513.197 9.05 1.64 12.302l2.429 5.483c1.44 3.25-.251 5.47-3.774 4.927l-5.92-.912c-3.517-.542-9.05.197-12.3 1.64l-5.48 2.428c-3.257 1.442-5.472-.252-4.928-3.771l.91-5.92c.538-3.52-.202-9.052-1.644-12.31L.519 8.606c-1.45-3.252.247-5.47 3.764-4.93m1495.619 49.807c-2.972 9.028 1.94 18.756 10.969 21.721 9.021 2.974 18.745-1.946 21.712-10.97 2.973-9.024-1.944-18.751-10.967-21.718-9.025-2.968-18.75 1.943-21.714 10.967M474.165 215.397c-4.81-.737-9.308 2.56-10.043 7.37-.743 4.807 2.563 9.295 7.37 10.035 4.8.74 9.298-2.556 10.035-7.365a8.805 8.805 0 0 0-7.362-10.04m-360.248 34.746c-4.809-.739-9.306 2.567-10.045 7.373a8.804 8.804 0 0 0 7.37 10.035c4.809.739 9.306-2.559 10.04-7.36.737-4.81-2.56-9.312-7.365-10.048M1206.56 121.495c-4.805-.74-9.303 2.564-10.042 7.369-.735 4.807 2.567 9.301 7.37 10.041 4.809.735 9.306-2.56 10.04-7.364.738-4.809-2.562-9.31-7.367-10.046m-149.882 173.408c-4.81-.737-9.305 2.562-10.041 7.362a8.801 8.801 0 0 0 7.369 10.042 8.801 8.801 0 0 0 10.039-7.36c.733-4.81-2.563-9.305-7.367-10.044"/></g></g><g transform="translate(89.51 73.38)"><mask id="f" fill="#fff"><use xlink:href="#e"/></mask><g mask="url(#f)" opacity=".2"><path fill="#27A9E0" d="m1552.378 8.806 6.127-.24c3.64-.145 9.06-1.97 12.043-4.052l5.025-3.51c2.988-2.086 5.55-.818 5.695 2.826l.238 6.123c.146 3.634 1.97 9.052 4.054 12.04l3.505 5.025c2.088 2.988.816 5.543-2.821 5.69l-6.127.243c-3.637.15-9.055 1.967-12.043 4.054l-5.024 3.504c-2.986 2.085-5.545.824-5.69-2.82l-.243-6.126c-.14-3.642-1.967-9.062-4.045-12.046l-3.514-5.023c-2.09-2.979-.812-5.545 2.82-5.688M4.283 29.967l5.924.903c3.515.544 9.054-.19 12.31-1.639l5.477-2.426c3.248-1.444 5.464.26 4.924 3.773l-.91 5.927c-.542 3.513.197 9.046 1.642 12.3l2.425 5.481c1.443 3.248-.25 5.473-3.77 4.93l-5.92-.911c-3.52-.546-9.05.193-12.302 1.64l-5.48 2.428c-3.256 1.44-5.472-.251-4.93-3.774l.912-5.922c.538-3.515-.202-9.051-1.643-12.304L.518 34.895c-1.448-3.252.248-5.47 3.765-4.928M1417.37 140.74c-2.97 9.027 1.944 18.755 10.971 21.722 9.021 2.972 18.747-1.948 21.712-10.97 2.972-9.027-1.944-18.75-10.968-21.72-9.024-2.97-18.747 1.945-21.716 10.969M128.17 144.497c-4.81-.74-9.305 2.566-10.044 7.374-.739 4.8 2.561 9.297 7.37 10.033 4.806.739 9.305-2.557 10.04-7.363.734-4.806-2.56-9.309-7.366-10.044"/></g></g></g></g><path fill="url(#g)" fill-rule="nonzero" d="M18.481 97.984c-6.03-.626-1.707-8.46-6.688-9.858-1.836-.517-2.66.359-3.575 1.235-.92.88-1.934 1.761-4.164 1.225-8.217-1.97-4.016-43.622 13.263-66.393C34.97.929 73.83-3.151 105.507 1.948c24.49 3.944 28.246 26.15-.24 24.186-28.485-1.957-49.005 2.982-61.565 27.347-13.933 27.024-.286 40.065-6.868 42.732-6.582 2.66-3.89-5.081-10.009-5.912-2.42-.328-3.281 1.753-4.165 3.835-.822 1.934-1.66 3.869-3.787 3.869-.125 0-.257-.007-.392-.021" transform="matrix(1 0 0 -1 346.144 656.944)"/><path fill="url(#h)" fill-rule="nonzero" d="M11.18 52.512c-16.82-8.454-14.456-25.379 5.706-17.444 20.157 7.934 36.134 9.053 50.796-5.7C83.944 13 77.054.448 82.424.025c5.374-.421 1.658 4.568 5.892 6.565 1.671.788 2.771-.513 3.883-1.813 1.1-1.288 2.216-2.576 3.913-1.836 4.216 1.83-.7 6.51 2.583 8.664 1.188.779 1.976.361 2.823-.059.878-.433 1.82-.869 3.337.046 5.495 3.306-7.07 32.481-24.783 45.001-7.24 5.12-16.236 7.24-25.816 7.24-14.358 0-30.03-4.761-43.077-11.321" transform="matrix(1 0 0 -1 658.17 676.736)"/><g transform="matrix(1 0 0 -1 0 960)"><mask id="j" fill="#fff"><use xlink:href="#i"/></mask><g mask="url(#j)"><path fill="#8CC53F" fill-rule="nonzero" d="M1020.221 307.89c-7.944-3.669-17.58-22.737-29.592-18.314-12.013 4.42-36.361 44.744-40.421 48.597-4.393 4.17-7.827 5.58-9.872 3.407-2.044-2.177-.623-5.544-.623-5.544s-6.188 6.961-10.918 2.473c-4.474-4.241-.012-9.814-.012-9.814s-5.878.174-8.586-3.21c-2.056-2.572 16.603-21.521 26.795-35.972 9.212-13.061 32.57-46.77 57.056-39.216 24.484 7.556 43.144 23.836 39.901 36.18-3.237 12.344-12.773 26.475-23.728 21.412m227.969.001c7.944-3.669 17.58-22.737 29.593-18.314 12.011 4.42 36.36 44.744 40.42 48.597 4.395 4.17 7.827 5.58 9.872 3.407 2.044-2.177.622-5.544.622-5.544s6.188 6.961 10.918 2.473c4.474-4.241.011-9.814.011-9.814s5.88.174 8.587-3.21c2.056-2.572-16.604-21.521-26.794-35.972-9.214-13.061-32.572-46.77-57.056-39.216-24.485 7.556-43.14 23.836-39.9 36.18 3.238 12.344 12.771 26.475 23.727 21.412"/><path fill="#92EAFF" fill-rule="nonzero" d="M356.059 1047.342h40.854L379.988 128.11h-7.004zm369.371 0h40.788L749.292 128.11h-6.937z"/><path fill="#8DC63F" fill-rule="nonzero" d="M343.195 156.583h435.913V103.28H343.195z"/><path fill="#92EAFF" fill-rule="nonzero" d="M933.643 1047.342h40.842L957.559 128.11h-6.992zm369.379 0h40.815L1326.91 128.11h-6.965z"/><path fill="#FBB040" fill-rule="nonzero" d="M920.779 156.583h435.897V103.28H920.779z"/><path fill="#F7941E" fill-rule="nonzero" d="M127.249-142.684H99.443l131.638 1194.148h61.678z"/><path fill="#27AAE1" fill-rule="nonzero" d="M1638.05-142.684h-27.843l-165.5 1194.148h61.692z"/><g transform="translate(966.076 122.234)"><mask id="l" fill="#fff"><use xlink:href="#k"/></mask><g mask="url(#l)" opacity=".3"><path fill="#F15A29" d="M338.92 12.344C338.92 5.528 263.05 0 169.46 0 75.869 0 0 5.528 0 12.344s75.868 12.345 169.46 12.345c93.59 0 169.461-5.528 169.461-12.345"/></g></g><path fill="#B6D351" d="M1015.167 134.439c12.73.58 24.348 7.688 21.972.141-2.38-7.54 4.41-7.476 11.308-1.679 2.904 2.44 30.813 1.803 34.68-.618 7.86-4.927-2.448 18.681-9.686 28.03-7.242 9.351-28.714-10.19-58.274-25.874"/><path fill="#B6D351" d="M1043.905 130.876h-28.738v7.112h28.738zm206.505 13.447c-12.73.579-22.15-6.59-19.777-14.136-3.907 12.383 5.173-10.559-8.012.516-.403.341-27.462 5.004-34.679.481-7.86-4.926 2.445 18.68 9.688 28.03 7.239 9.35 23.22.793 52.78-14.891"/><path fill="#B6D351" d="M1253.745 134.578h-32.946v13.75l31.848-5.49z"/></g></g><path fill="url(#m)" fill-rule="nonzero" d="M17.158 102.625C38.135 83.387 56.828 39.5 9.705 15.44-2.663 9.133-2.265 4.61 5.597 5.513c8.71.999 23.884 15.955 26.324 14.278 2.141-1.472-3.456-5.986-4.843-14.3-.81-4.856 1.404-4.3 5.261-1.566 5.41 3.83 13.935 15.39 18.45 15.548 2.526.088 7.648-4.672 12.522-9.429 7.531-7.35 14.475-14.7 10.378-4.19-15.444 39.631-7.67 57.45 45.597 56.813 1.039-.06 2.143-.09 3.38-.06 1.243-.03 2.345 0 3.384.06 53.268.637 61.04-17.182 45.595-56.814-4.098-10.509 2.846-3.16 10.376 4.191 4.874 4.757 9.994 9.517 12.522 9.43 4.52-.16 13.043-12.817 18.454-16.649 2.608-1.849 3.736-1.442 4.288-1.034.313.229.442.458.552.282-1.967 8.435-7.494 20.755-5.522 22.11 2.44 1.678 27.5-19.868 36.211-20.868 7.864-.9 3.868 6.916-8.5 13.222-47.127 24.06-32.823 66.85-11.847 86.088-.457 4.186-52.984 6.278-105.51 6.278-52.527 0-105.054-2.092-105.51-6.278M218.256 0c-.224 1.336-.312 1.9-.42 2.073.17-.722.31-1.417.42-2.073" transform="matrix(1 0 0 -1 1012.866 832.172)"/><path fill="url(#n)" fill-rule="nonzero" d="M0 159.085C0 71.463 71.465 0 159.088 0c87.625 0 159.095 71.463 159.095 159.085 0 87.63-71.47 159.099-159.095 159.099C71.465 318.184 0 246.714 0 159.085" transform="matrix(1 0 0 -1 976.444 769.565)"/><g transform="matrix(1 0 0 -1 0 960)"><mask id="p" fill="#fff"><use xlink:href="#o"/></mask><g mask="url(#p)"><path fill="#1A1A1A" d="M1198.227 355.595c7.338 0 13.318 5.983 13.318 13.319 0 7.334-5.98 13.314-13.318 13.314-7.334 0-13.316-5.98-13.316-13.314 0-7.336 5.982-13.319 13.316-13.319"/><path fill="#FFF" d="M1204.072 370.292a3.917 3.917 0 0 1 3.909 3.91 3.916 3.916 0 0 1-3.91 3.907 3.915 3.915 0 0 1-3.906-3.907 3.916 3.916 0 0 1 3.907-3.91"/><path fill="#1A1A1A" d="M1072.84 355.595c7.332 0 13.313 5.983 13.313 13.319 0 7.334-5.981 13.314-13.313 13.314-7.336 0-13.316-5.98-13.316-13.314 0-7.336 5.98-13.319 13.316-13.319"/><path fill="#FFF" d="M1078.684 370.292a3.918 3.918 0 0 1 3.908 3.91 3.917 3.917 0 0 1-3.908 3.907 3.916 3.916 0 0 1-3.908-3.907 3.917 3.917 0 0 1 3.908-3.91"/><path fill="#1A1A1A" fill-rule="nonzero" d="M1158.219 324.675a3.47 3.47 0 0 1-2.246.824 3.491 3.491 0 0 1-2.654-1.223c-.062-.068-6.35-7.117-17.783-7.117-12.204 0-17.07 6.172-17.555 6.833a3.49 3.49 0 0 1-4.848.893 3.45 3.45 0 0 1-1.449-2.234c-.17-.922.03-1.847.55-2.6.271-.404 6.838-9.863 23.302-9.863 14.76 0 22.75 9.175 23.076 9.555 1.248 1.456 1.079 3.657-.393 4.932"/><g transform="translate(391.448 125.044)"><mask id="r" fill="#fff"><use xlink:href="#q"/></mask><g mask="url(#r)" opacity=".3"><path fill="#39B54A" d="M338.921 12.344C338.921 5.528 263.051 0 169.46 0 75.87 0 0 5.528 0 12.344c0 6.817 75.87 12.345 169.459 12.345 93.59 0 169.461-5.528 169.461-12.345"/></g></g></g></g><path fill="url(#s)" fill-rule="nonzero" d="M135.881 399.404c-59.43-1.45-113.923-40.663-123.768-89.528-14.748-73.21-1.708-227.555-1.708-227.555l.161.002c.688-24 1.008-50.23-.636-55.494C6.764 16.7-2.518 16.2.65 11.327c3.416-5.256 11.774-.083 11.774-.083S10.005 1.92 20.062.234c9.902-1.658 10.132 6.055 10.132 6.055s9.083-2.697 12.275 1.627c3.896 5.276-2.147 6.883-4.676 11.947-2.535 5.068-1.012 30.149 2.69 43.534 2.587 9.355 20.815 19.054 32.83 21.739 45.55 10.173 89.856 10.405 137.561 2.527 11.19-1.847 34.127-12.435 37.407-23.679 3.884-13.332 5.753-38.39 3.29-43.493-2.46-5.098-8.48-6.79-4.511-12.01 3.253-4.281 12.268-1.458 12.268-1.458s.366-7.708 10.244-5.912c10.036 1.825 7.486 10.024 7.486 10.024s8.427-3.97 11.772 1.332c3.098 4.918-6.19 5.289-9.496 15.373-1.784 5.448-1.76 33.55-1.36 58.275l.283.006s15.139 144.087-12.013 221.467c-24.506 69.837-65.956 91.89-124.41 91.89-1.965 0-3.949-.026-5.953-.074" transform="matrix(1 0 0 -1 416.403 830.525)"/><g transform="matrix(1 0 0 -1 0 960)"><mask id="u" fill="#fff"><use xlink:href="#t"/></mask><g mask="url(#u)"><path fill="#1A1A1A" d="M618.55 384.059c7.269 0 13.195 5.93 13.195 13.2 0 7.269-5.926 13.196-13.196 13.196-7.268 0-13.198-5.927-13.198-13.196 0-7.27 5.93-13.2 13.198-13.2"/><path fill="#FFF" d="M624.34 398.624a3.884 3.884 0 0 1 3.874 3.874 3.88 3.88 0 0 1-3.873 3.872 3.877 3.877 0 0 1-3.871-3.872 3.88 3.88 0 0 1 3.87-3.874"/><path fill="#1A1A1A" d="M494.29 384.059c7.267 0 13.194 5.93 13.194 13.2 0 7.269-5.927 13.196-13.195 13.196-7.27 0-13.196-5.927-13.196-13.196 0-7.27 5.927-13.2 13.196-13.2"/><path fill="#FFF" d="M500.08 398.624a3.88 3.88 0 0 1 3.87 3.874 3.877 3.877 0 0 1-3.87 3.872 3.879 3.879 0 0 1-3.871-3.872 3.882 3.882 0 0 1 3.872-3.874"/><path fill="#1A1A1A" fill-rule="nonzero" d="M578.9 353.417a3.435 3.435 0 0 1-2.227.817 3.464 3.464 0 0 1-2.63-1.21c-.06-.069-6.29-7.054-17.62-7.054-12.097 0-16.92 6.115-17.398 6.77a3.456 3.456 0 0 1-4.807.886 3.43 3.43 0 0 1-1.434-2.216 3.43 3.43 0 0 1 .545-2.576c.268-.397 6.776-9.773 23.093-9.773 14.627 0 22.546 9.093 22.867 9.472 1.239 1.438 1.07 3.622-.39 4.884"/></g></g></g></svg>