<?xml version="1.0" encoding="utf-8" standalone="no"?>
<!DOCTYPE svg PUBLIC "-//W3C//DTD SVG 1.1//EN"
  "http://www.w3.org/Graphics/SVG/1.1/DTD/svg11.dtd">
<svg xmlns:xlink="http://www.w3.org/1999/xlink" width="1000.7125pt" height="712.580233pt" viewBox="0 0 1000.7125 712.580233" xmlns="http://www.w3.org/2000/svg" version="1.1">
 <metadata>
  <rdf:RDF xmlns:dc="http://purl.org/dc/elements/1.1/" xmlns:cc="http://creativecommons.org/ns#" xmlns:rdf="http://www.w3.org/1999/02/22-rdf-syntax-ns#">
   <cc:Work>
    <dc:type rdf:resource="http://purl.org/dc/dcmitype/StillImage"/>
    <dc:date>2025-04-08T16:24:39.000162</dc:date>
    <dc:format>image/svg+xml</dc:format>
    <dc:creator>
     <cc:Agent>
      <dc:title>Matplotlib v3.10.1, https://matplotlib.org/</dc:title>
     </cc:Agent>
    </dc:creator>
   </cc:Work>
  </rdf:RDF>
 </metadata>
 <defs>
  <style type="text/css">*{stroke-linejoin: round; stroke-linecap: butt}</style>
 </defs>
 <g id="figure_1">
  <g id="patch_1">
   <path d="M 0 712.580233 
L 1000.7125 712.580233 
L 1000.7125 0 
L 0 0 
z
" style="fill: #ffffff"/>
  </g>
  <g id="axes_1">
   <g id="patch_2">
    <path d="M 77.9625 597.196854 
L 993.5125 597.196854 
L 993.5125 40.002023 
L 77.9625 40.002023 
z
" style="fill: #ffffff"/>
   </g>
   <g id="patch_3">
    <path d="M 119.578409 597.196854 
L 161.721102 597.196854 
L 161.721102 66.53511 
L 119.578409 66.53511 
z
" clip-path="url(#pb535d79b72)" style="fill: #1f77b4"/>
   </g>
   <g id="patch_4">
    <path d="M 172.256775 597.196854 
L 214.399468 597.196854 
L 214.399468 117.628962 
L 172.256775 117.628962 
z
" clip-path="url(#pb535d79b72)" style="fill: #1f77b4"/>
   </g>
   <g id="patch_5">
    <path d="M 224.935141 597.196854 
L 267.077834 597.196854 
L 267.077834 418.130184 
L 224.935141 418.130184 
z
" clip-path="url(#pb535d79b72)" style="fill: #1f77b4"/>
   </g>
   <g id="patch_6">
    <path d="M 277.613507 597.196854 
L 319.7562 597.196854 
L 319.7562 528.13259 
L 277.613507 528.13259 
z
" clip-path="url(#pb535d79b72)" style="fill: #1f77b4"/>
   </g>
   <g id="patch_7">
    <path d="M 330.291873 597.196854 
L 372.434566 597.196854 
L 372.434566 575.243277 
L 330.291873 575.243277 
z
" clip-path="url(#pb535d79b72)" style="fill: #1f77b4"/>
   </g>
   <g id="patch_8">
    <path d="M 382.970239 597.196854 
L 425.112932 597.196854 
L 425.112932 579.506086 
L 382.970239 579.506086 
z
" clip-path="url(#pb535d79b72)" style="fill: #1f77b4"/>
   </g>
   <g id="patch_9">
    <path d="M 435.648605 597.196854 
L 477.791297 597.196854 
L 477.791297 581.510879 
L 435.648605 581.510879 
z
" clip-path="url(#pb535d79b72)" style="fill: #1f77b4"/>
   </g>
   <g id="patch_10">
    <path d="M 488.326971 597.196854 
L 530.469663 597.196854 
L 530.469663 585.902952 
L 488.326971 585.902952 
z
" clip-path="url(#pb535d79b72)" style="fill: #1f77b4"/>
   </g>
   <g id="patch_11">
    <path d="M 541.005337 597.196854 
L 583.148029 597.196854 
L 583.148029 586.468036 
L 541.005337 586.468036 
z
" clip-path="url(#pb535d79b72)" style="fill: #1f77b4"/>
   </g>
   <g id="patch_12">
    <path d="M 593.683703 597.196854 
L 635.826395 597.196854 
L 635.826395 589.667586 
L 593.683703 589.667586 
z
" clip-path="url(#pb535d79b72)" style="fill: #1f77b4"/>
   </g>
   <g id="patch_13">
    <path d="M 646.362068 597.196854 
L 688.504761 597.196854 
L 688.504761 590.11847 
L 646.362068 590.11847 
z
" clip-path="url(#pb535d79b72)" style="fill: #1f77b4"/>
   </g>
   <g id="patch_14">
    <path d="M 699.040434 597.196854 
L 741.183127 597.196854 
L 741.183127 590.140135 
L 699.040434 590.140135 
z
" clip-path="url(#pb535d79b72)" style="fill: #1f77b4"/>
   </g>
   <g id="patch_15">
    <path d="M 751.7188 597.196854 
L 793.861493 597.196854 
L 793.861493 591.58337 
L 751.7188 591.58337 
z
" clip-path="url(#pb535d79b72)" style="fill: #1f77b4"/>
   </g>
   <g id="patch_16">
    <path d="M 804.397166 597.196854 
L 846.539859 597.196854 
L 846.539859 591.92897 
L 804.397166 591.92897 
z
" clip-path="url(#pb535d79b72)" style="fill: #1f77b4"/>
   </g>
   <g id="patch_17">
    <path d="M 857.075532 597.196854 
L 899.218225 597.196854 
L 899.218225 596.287067 
L 857.075532 596.287067 
z
" clip-path="url(#pb535d79b72)" style="fill: #1f77b4"/>
   </g>
   <g id="patch_18">
    <path d="M 909.753898 597.196854 
L 951.896591 597.196854 
L 951.896591 597.044575 
L 909.753898 597.044575 
z
" clip-path="url(#pb535d79b72)" style="fill: #1f77b4"/>
   </g>
   <g id="matplotlib.axis_1">
    <g id="xtick_1">
     <g id="line2d_1">
      <path d="M 140.649755 597.196854 
L 140.649755 40.002023 
" clip-path="url(#pb535d79b72)" style="fill: none; stroke-dasharray: 2.96,1.28; stroke-dashoffset: 0; stroke: #b0b0b0; stroke-opacity: 0.7; stroke-width: 0.8"/>
     </g>
     <g id="line2d_2">
      <defs>
       <path id="mb0a476702d" d="M 0 0 
L 0 3.5 
" style="stroke: #000000; stroke-width: 0.8"/>
      </defs>
      <g>
       <use xlink:href="#mb0a476702d" x="140.649755" y="597.196854" style="stroke: #000000; stroke-width: 0.8"/>
      </g>
     </g>
     <g id="text_1">
      <!-- superagent -->
      <g transform="translate(100.712585 647.810979) rotate(-45) scale(0.1 -0.1)">
       <defs>
        <path id="NotoSans-Regular-73" d="M 2778 947 
Q 2778 448 2406 192 
Q 2035 -64 1408 -64 
Q 1050 -64 790 -6 
Q 531 51 333 154 
L 333 666 
Q 538 563 829 476 
Q 1120 390 1421 390 
Q 1850 390 2042 528 
Q 2234 666 2234 896 
Q 2234 1024 2163 1126 
Q 2093 1229 1910 1331 
Q 1728 1434 1389 1562 
Q 1056 1690 819 1818 
Q 582 1946 454 2125 
Q 326 2304 326 2586 
Q 326 3021 681 3257 
Q 1037 3494 1613 3494 
Q 1926 3494 2198 3433 
Q 2470 3373 2707 3264 
L 2515 2816 
Q 2298 2906 2061 2970 
Q 1824 3034 1574 3034 
Q 1229 3034 1046 2922 
Q 864 2810 864 2618 
Q 864 2477 947 2377 
Q 1030 2278 1225 2185 
Q 1421 2093 1747 1965 
Q 2074 1843 2304 1715 
Q 2534 1587 2656 1404 
Q 2778 1222 2778 947 
z
" transform="scale(0.015625)"/>
        <path id="NotoSans-Regular-75" d="M 3411 3430 
L 3411 0 
L 2950 0 
L 2867 454 
L 2842 454 
Q 2675 186 2380 61 
Q 2086 -64 1754 -64 
Q 1133 -64 819 233 
Q 506 531 506 1184 
L 506 3430 
L 1075 3430 
L 1075 1222 
Q 1075 403 1837 403 
Q 2406 403 2627 723 
Q 2848 1043 2848 1645 
L 2848 3430 
L 3411 3430 
z
" transform="scale(0.015625)"/>
        <path id="NotoSans-Regular-70" d="M 2176 3494 
Q 2810 3494 3197 3052 
Q 3584 2611 3584 1722 
Q 3584 845 3197 390 
Q 2810 -64 2170 -64 
Q 1773 -64 1513 86 
Q 1254 237 1107 435 
L 1069 435 
Q 1082 326 1094 160 
Q 1107 -6 1107 -128 
L 1107 -1536 
L 544 -1536 
L 544 3430 
L 1005 3430 
L 1082 2963 
L 1107 2963 
Q 1261 3187 1510 3340 
Q 1760 3494 2176 3494 
z
M 2074 3021 
Q 1549 3021 1334 2726 
Q 1120 2432 1107 1830 
L 1107 1722 
Q 1107 1088 1315 745 
Q 1523 403 2086 403 
Q 2400 403 2601 576 
Q 2803 749 2902 1046 
Q 3002 1344 3002 1728 
Q 3002 2317 2774 2669 
Q 2547 3021 2074 3021 
z
" transform="scale(0.015625)"/>
        <path id="NotoSans-Regular-65" d="M 1869 3494 
Q 2310 3494 2627 3302 
Q 2944 3110 3113 2761 
Q 3283 2413 3283 1946 
L 3283 1606 
L 934 1606 
Q 947 1024 1232 720 
Q 1517 416 2029 416 
Q 2355 416 2608 477 
Q 2861 538 3130 653 
L 3130 160 
Q 2867 45 2611 -9 
Q 2355 -64 2003 -64 
Q 1517 -64 1142 134 
Q 768 333 560 726 
Q 352 1120 352 1690 
Q 352 2253 541 2656 
Q 730 3059 1072 3276 
Q 1414 3494 1869 3494 
z
M 1862 3034 
Q 1459 3034 1225 2774 
Q 992 2515 947 2054 
L 2694 2054 
Q 2688 2490 2489 2762 
Q 2291 3034 1862 3034 
z
" transform="scale(0.015625)"/>
        <path id="NotoSans-Regular-72" d="M 2144 3494 
Q 2240 3494 2352 3484 
Q 2464 3475 2547 3456 
L 2477 2938 
Q 2394 2957 2294 2969 
Q 2195 2982 2106 2982 
Q 1843 2982 1612 2838 
Q 1382 2694 1244 2435 
Q 1107 2176 1107 1830 
L 1107 0 
L 544 0 
L 544 3430 
L 1005 3430 
L 1069 2803 
L 1094 2803 
Q 1261 3085 1523 3289 
Q 1786 3494 2144 3494 
z
" transform="scale(0.015625)"/>
        <path id="NotoSans-Regular-61" d="M 1843 3488 
Q 2470 3488 2771 3213 
Q 3072 2938 3072 2336 
L 3072 0 
L 2662 0 
L 2554 486 
L 2528 486 
Q 2304 205 2057 70 
Q 1811 -64 1376 -64 
Q 909 -64 601 182 
Q 294 429 294 954 
Q 294 1466 697 1744 
Q 1101 2022 1939 2048 
L 2522 2067 
L 2522 2272 
Q 2522 2701 2336 2867 
Q 2150 3034 1811 3034 
Q 1542 3034 1299 2954 
Q 1056 2874 845 2771 
L 672 3194 
Q 896 3315 1203 3401 
Q 1510 3488 1843 3488 
z
M 2010 1658 
Q 1370 1632 1123 1453 
Q 877 1274 877 947 
Q 877 659 1053 524 
Q 1229 390 1504 390 
Q 1939 390 2227 630 
Q 2515 870 2515 1370 
L 2515 1677 
L 2010 1658 
z
" transform="scale(0.015625)"/>
        <path id="NotoSans-Regular-67" d="M 1760 3494 
Q 2099 3494 2371 3366 
Q 2643 3238 2835 2976 
L 2867 2976 
L 2944 3430 
L 3392 3430 
L 3392 -58 
Q 3392 -794 3017 -1165 
Q 2643 -1536 1856 -1536 
Q 1101 -1536 621 -1318 
L 621 -800 
Q 1126 -1069 1888 -1069 
Q 2330 -1069 2582 -809 
Q 2835 -550 2835 -102 
L 2835 32 
Q 2835 109 2841 253 
Q 2848 397 2854 454 
L 2829 454 
Q 2483 -64 1766 -64 
Q 1101 -64 726 403 
Q 352 870 352 1709 
Q 352 2528 726 3011 
Q 1101 3494 1760 3494 
z
M 1837 3021 
Q 1408 3021 1171 2678 
Q 934 2336 934 1702 
Q 934 1069 1168 733 
Q 1402 397 1850 397 
Q 2368 397 2605 675 
Q 2842 954 2842 1574 
L 2842 1709 
Q 2842 2413 2598 2717 
Q 2355 3021 1837 3021 
z
" transform="scale(0.015625)"/>
        <path id="NotoSans-Regular-6e" d="M 2195 3494 
Q 2810 3494 3123 3196 
Q 3437 2899 3437 2234 
L 3437 0 
L 2880 0 
L 2880 2195 
Q 2880 3021 2112 3021 
Q 1542 3021 1324 2701 
Q 1107 2381 1107 1779 
L 1107 0 
L 544 0 
L 544 3430 
L 998 3430 
L 1082 2963 
L 1114 2963 
Q 1280 3232 1574 3363 
Q 1869 3494 2195 3494 
z
" transform="scale(0.015625)"/>
        <path id="NotoSans-Regular-74" d="M 1690 397 
Q 1818 397 1952 419 
Q 2086 442 2170 467 
L 2170 38 
Q 2080 -6 1913 -35 
Q 1747 -64 1594 -64 
Q 1325 -64 1097 29 
Q 870 122 729 352 
Q 589 582 589 998 
L 589 2995 
L 102 2995 
L 102 3264 
L 595 3488 
L 819 4218 
L 1152 4218 
L 1152 3430 
L 2144 3430 
L 2144 2995 
L 1152 2995 
L 1152 1011 
Q 1152 698 1302 547 
Q 1453 397 1690 397 
z
" transform="scale(0.015625)"/>
       </defs>
       <use xlink:href="#NotoSans-Regular-73"/>
       <use xlink:href="#NotoSans-Regular-75" transform="translate(47.899994 0)"/>
       <use xlink:href="#NotoSans-Regular-70" transform="translate(109.699982 0)"/>
       <use xlink:href="#NotoSans-Regular-65" transform="translate(171.199966 0)"/>
       <use xlink:href="#NotoSans-Regular-72" transform="translate(227.59996 0)"/>
       <use xlink:href="#NotoSans-Regular-61" transform="translate(268.899948 0)"/>
       <use xlink:href="#NotoSans-Regular-67" transform="translate(324.999939 0)"/>
       <use xlink:href="#NotoSans-Regular-65" transform="translate(386.499924 0)"/>
       <use xlink:href="#NotoSans-Regular-6e" transform="translate(442.899918 0)"/>
       <use xlink:href="#NotoSans-Regular-74" transform="translate(504.699905 0)"/>
      </g>
     </g>
    </g>
    <g id="xtick_2">
     <g id="line2d_3">
      <path d="M 193.328121 597.196854 
L 193.328121 40.002023 
" clip-path="url(#pb535d79b72)" style="fill: none; stroke-dasharray: 2.96,1.28; stroke-dashoffset: 0; stroke: #b0b0b0; stroke-opacity: 0.7; stroke-width: 0.8"/>
     </g>
     <g id="line2d_4">
      <g>
       <use xlink:href="#mb0a476702d" x="193.328121" y="597.196854" style="stroke: #000000; stroke-width: 0.8"/>
      </g>
     </g>
     <g id="text_2">
      <!-- supertest -->
      <g transform="translate(160.136087 641.065843) rotate(-45) scale(0.1 -0.1)">
       <use xlink:href="#NotoSans-Regular-73"/>
       <use xlink:href="#NotoSans-Regular-75" transform="translate(47.899994 0)"/>
       <use xlink:href="#NotoSans-Regular-70" transform="translate(109.699982 0)"/>
       <use xlink:href="#NotoSans-Regular-65" transform="translate(171.199966 0)"/>
       <use xlink:href="#NotoSans-Regular-72" transform="translate(227.59996 0)"/>
       <use xlink:href="#NotoSans-Regular-74" transform="translate(268.899948 0)"/>
       <use xlink:href="#NotoSans-Regular-65" transform="translate(304.999939 0)"/>
       <use xlink:href="#NotoSans-Regular-73" transform="translate(361.399933 0)"/>
       <use xlink:href="#NotoSans-Regular-74" transform="translate(409.299927 0)"/>
      </g>
     </g>
    </g>
    <g id="xtick_3">
     <g id="line2d_5">
      <path d="M 246.006487 597.196854 
L 246.006487 40.002023 
" clip-path="url(#pb535d79b72)" style="fill: none; stroke-dasharray: 2.96,1.28; stroke-dashoffset: 0; stroke: #b0b0b0; stroke-opacity: 0.7; stroke-width: 0.8"/>
     </g>
     <g id="line2d_6">
      <g>
       <use xlink:href="#mb0a476702d" x="246.006487" y="597.196854" style="stroke: #000000; stroke-width: 0.8"/>
      </g>
     </g>
     <g id="text_3">
      <!-- koa -->
      <g transform="translate(232.288616 621.591681) rotate(-45) scale(0.1 -0.1)">
       <defs>
        <path id="NotoSans-Regular-6b" d="M 1101 2323 
Q 1101 2221 1091 2054 
Q 1082 1888 1075 1766 
L 1101 1766 
Q 1139 1818 1216 1914 
Q 1293 2010 1373 2109 
Q 1453 2208 1510 2272 
L 2605 3430 
L 3264 3430 
L 1875 1965 
L 3360 0 
L 2682 0 
L 1491 1600 
L 1101 1261 
L 1101 0 
L 544 0 
L 544 4864 
L 1101 4864 
L 1101 2323 
z
" transform="scale(0.015625)"/>
        <path id="NotoSans-Regular-6f" d="M 3526 1722 
Q 3526 870 3094 403 
Q 2662 -64 1926 -64 
Q 1472 -64 1117 144 
Q 762 352 557 752 
Q 352 1152 352 1722 
Q 352 2573 781 3033 
Q 1210 3494 1946 3494 
Q 2413 3494 2768 3286 
Q 3123 3078 3324 2684 
Q 3526 2291 3526 1722 
z
M 934 1722 
Q 934 1114 1174 758 
Q 1414 403 1939 403 
Q 2458 403 2701 758 
Q 2944 1114 2944 1722 
Q 2944 2330 2701 2675 
Q 2458 3021 1933 3021 
Q 1408 3021 1171 2675 
Q 934 2330 934 1722 
z
" transform="scale(0.015625)"/>
       </defs>
       <use xlink:href="#NotoSans-Regular-6b"/>
       <use xlink:href="#NotoSans-Regular-6f" transform="translate(53.399994 0)"/>
       <use xlink:href="#NotoSans-Regular-61" transform="translate(113.899979 0)"/>
      </g>
     </g>
    </g>
    <g id="xtick_4">
     <g id="line2d_7">
      <path d="M 298.684853 597.196854 
L 298.684853 40.002023 
" clip-path="url(#pb535d79b72)" style="fill: none; stroke-dasharray: 2.96,1.28; stroke-dashoffset: 0; stroke: #b0b0b0; stroke-opacity: 0.7; stroke-width: 0.8"/>
     </g>
     <g id="line2d_8">
      <g>
       <use xlink:href="#mb0a476702d" x="298.684853" y="597.196854" style="stroke: #000000; stroke-width: 0.8"/>
      </g>
     </g>
     <g id="text_4">
      <!-- @koa/router -->
      <g transform="translate(254.950299 651.608364) rotate(-45) scale(0.1 -0.1)">
       <defs>
        <path id="NotoSans-Regular-40" d="M 5382 2285 
Q 5382 1990 5315 1708 
Q 5248 1427 5107 1200 
Q 4966 973 4761 835 
Q 4557 698 4275 698 
Q 3981 698 3811 867 
Q 3642 1037 3603 1254 
L 3571 1254 
Q 3456 1018 3232 858 
Q 3008 698 2669 698 
Q 2182 698 1916 1024 
Q 1651 1350 1651 1888 
Q 1651 2310 1817 2633 
Q 1984 2957 2288 3142 
Q 2592 3328 3008 3328 
Q 3290 3328 3562 3280 
Q 3834 3232 3987 3174 
L 3923 1875 
Q 3917 1760 3917 1712 
Q 3917 1664 3917 1645 
Q 3917 1312 4035 1203 
Q 4154 1094 4314 1094 
Q 4512 1094 4649 1257 
Q 4787 1421 4860 1693 
Q 4934 1965 4934 2291 
Q 4934 2886 4694 3299 
Q 4454 3712 4035 3929 
Q 3616 4147 3085 4147 
Q 2355 4147 1852 3846 
Q 1350 3546 1091 3018 
Q 832 2490 832 1811 
Q 832 864 1331 358 
Q 1830 -147 2771 -147 
Q 3162 -147 3517 -60 
Q 3872 26 4147 128 
L 4147 -307 
Q 3872 -422 3529 -496 
Q 3187 -570 2771 -570 
Q 2016 -570 1478 -288 
Q 941 -6 656 522 
Q 371 1050 371 1792 
Q 371 2387 556 2896 
Q 742 3405 1094 3779 
Q 1446 4154 1948 4362 
Q 2451 4570 3085 4570 
Q 3750 4570 4268 4294 
Q 4787 4019 5084 3507 
Q 5382 2995 5382 2285 
z
M 2150 1875 
Q 2150 1466 2313 1280 
Q 2477 1094 2752 1094 
Q 3110 1094 3267 1363 
Q 3424 1632 3450 2061 
L 3488 2861 
Q 3405 2886 3277 2905 
Q 3149 2925 3014 2925 
Q 2701 2925 2509 2771 
Q 2317 2618 2233 2378 
Q 2150 2138 2150 1875 
z
" transform="scale(0.015625)"/>
        <path id="NotoSans-Regular-2f" d="M 2317 4570 
L 614 0 
L 64 0 
L 1766 4570 
L 2317 4570 
z
" transform="scale(0.015625)"/>
       </defs>
       <use xlink:href="#NotoSans-Regular-40"/>
       <use xlink:href="#NotoSans-Regular-6b" transform="translate(89.899994 0)"/>
       <use xlink:href="#NotoSans-Regular-6f" transform="translate(143.299988 0)"/>
       <use xlink:href="#NotoSans-Regular-61" transform="translate(203.799973 0)"/>
       <use xlink:href="#NotoSans-Regular-2f" transform="translate(259.899963 0)"/>
       <use xlink:href="#NotoSans-Regular-72" transform="translate(297.09996 0)"/>
       <use xlink:href="#NotoSans-Regular-6f" transform="translate(338.399948 0)"/>
       <use xlink:href="#NotoSans-Regular-75" transform="translate(398.899933 0)"/>
       <use xlink:href="#NotoSans-Regular-74" transform="translate(460.699921 0)"/>
       <use xlink:href="#NotoSans-Regular-65" transform="translate(496.799911 0)"/>
       <use xlink:href="#NotoSans-Regular-72" transform="translate(553.199905 0)"/>
      </g>
     </g>
    </g>
    <g id="xtick_5">
     <g id="line2d_9">
      <path d="M 351.363219 597.196854 
L 351.363219 40.002023 
" clip-path="url(#pb535d79b72)" style="fill: none; stroke-dasharray: 2.96,1.28; stroke-dashoffset: 0; stroke: #b0b0b0; stroke-opacity: 0.7; stroke-width: 0.8"/>
     </g>
     <g id="line2d_10">
      <g>
       <use xlink:href="#mb0a476702d" x="351.363219" y="597.196854" style="stroke: #000000; stroke-width: 0.8"/>
      </g>
     </g>
     <g id="text_5">
      <!-- koa-router -->
      <g transform="translate(314.33955 644.897478) rotate(-45) scale(0.1 -0.1)">
       <defs>
        <path id="NotoSans-Regular-2d" d="M 256 1466 
L 256 1965 
L 1805 1965 
L 1805 1466 
L 256 1466 
z
" transform="scale(0.015625)"/>
       </defs>
       <use xlink:href="#NotoSans-Regular-6b"/>
       <use xlink:href="#NotoSans-Regular-6f" transform="translate(53.399994 0)"/>
       <use xlink:href="#NotoSans-Regular-61" transform="translate(113.899979 0)"/>
       <use xlink:href="#NotoSans-Regular-2d" transform="translate(169.999969 0)"/>
       <use xlink:href="#NotoSans-Regular-72" transform="translate(202.199966 0)"/>
       <use xlink:href="#NotoSans-Regular-6f" transform="translate(243.499954 0)"/>
       <use xlink:href="#NotoSans-Regular-75" transform="translate(303.999939 0)"/>
       <use xlink:href="#NotoSans-Regular-74" transform="translate(365.799927 0)"/>
       <use xlink:href="#NotoSans-Regular-65" transform="translate(401.899918 0)"/>
       <use xlink:href="#NotoSans-Regular-72" transform="translate(458.299911 0)"/>
      </g>
     </g>
    </g>
    <g id="xtick_6">
     <g id="line2d_11">
      <path d="M 404.041585 597.196854 
L 404.041585 40.002023 
" clip-path="url(#pb535d79b72)" style="fill: none; stroke-dasharray: 2.96,1.28; stroke-dashoffset: 0; stroke: #b0b0b0; stroke-opacity: 0.7; stroke-width: 0.8"/>
     </g>
     <g id="line2d_12">
      <g>
       <use xlink:href="#mb0a476702d" x="404.041585" y="597.196854" style="stroke: #000000; stroke-width: 0.8"/>
      </g>
     </g>
     <g id="text_6">
      <!-- url-regex -->
      <g transform="translate(371.966559 639.948836) rotate(-45) scale(0.1 -0.1)">
       <defs>
        <path id="NotoSans-Regular-6c" d="M 1107 0 
L 544 0 
L 544 4864 
L 1107 4864 
L 1107 0 
z
" transform="scale(0.015625)"/>
        <path id="NotoSans-Regular-78" d="M 1357 1754 
L 173 3430 
L 813 3430 
L 1696 2138 
L 2573 3430 
L 3206 3430 
L 2022 1754 
L 3270 0 
L 2630 0 
L 1696 1370 
L 749 0 
L 115 0 
L 1357 1754 
z
" transform="scale(0.015625)"/>
       </defs>
       <use xlink:href="#NotoSans-Regular-75"/>
       <use xlink:href="#NotoSans-Regular-72" transform="translate(61.799988 0)"/>
       <use xlink:href="#NotoSans-Regular-6c" transform="translate(103.099976 0)"/>
       <use xlink:href="#NotoSans-Regular-2d" transform="translate(128.899963 0)"/>
       <use xlink:href="#NotoSans-Regular-72" transform="translate(161.09996 0)"/>
       <use xlink:href="#NotoSans-Regular-65" transform="translate(202.399948 0)"/>
       <use xlink:href="#NotoSans-Regular-67" transform="translate(258.799942 0)"/>
       <use xlink:href="#NotoSans-Regular-65" transform="translate(320.299927 0)"/>
       <use xlink:href="#NotoSans-Regular-78" transform="translate(376.699921 0)"/>
      </g>
     </g>
    </g>
    <g id="xtick_7">
     <g id="line2d_13">
      <path d="M 456.719951 597.196854 
L 456.719951 40.002023 
" clip-path="url(#pb535d79b72)" style="fill: none; stroke-dasharray: 2.96,1.28; stroke-dashoffset: 0; stroke: #b0b0b0; stroke-opacity: 0.7; stroke-width: 0.8"/>
     </g>
     <g id="line2d_14">
      <g>
       <use xlink:href="#mb0a476702d" x="456.719951" y="597.196854" style="stroke: #000000; stroke-width: 0.8"/>
      </g>
     </g>
     <g id="text_7">
      <!-- preview-email -->
      <g transform="translate(408.311863 656.281898) rotate(-45) scale(0.1 -0.1)">
       <defs>
        <path id="NotoSans-Regular-76" d="M 1299 0 
L 0 3430 
L 602 3430 
L 1331 1408 
Q 1382 1267 1440 1094 
Q 1498 922 1542 765 
Q 1587 608 1606 499 
L 1632 499 
Q 1658 608 1706 768 
Q 1754 928 1814 1101 
Q 1875 1274 1920 1408 
L 2650 3430 
L 3251 3430 
L 1946 0 
L 1299 0 
z
" transform="scale(0.015625)"/>
        <path id="NotoSans-Regular-69" d="M 832 4717 
Q 960 4717 1059 4630 
Q 1158 4544 1158 4358 
Q 1158 4179 1059 4089 
Q 960 4000 832 4000 
Q 691 4000 595 4089 
Q 499 4179 499 4358 
Q 499 4544 595 4630 
Q 691 4717 832 4717 
z
M 1107 3430 
L 1107 0 
L 544 0 
L 544 3430 
L 1107 3430 
z
" transform="scale(0.015625)"/>
        <path id="NotoSans-Regular-77" d="M 2758 1939 
Q 2675 2202 2614 2454 
Q 2554 2707 2522 2848 
L 2496 2848 
Q 2470 2707 2412 2454 
Q 2355 2202 2266 1933 
L 1651 6 
L 1011 6 
L 70 3437 
L 653 3437 
L 1126 1606 
Q 1197 1331 1261 1049 
Q 1325 768 1350 582 
L 1376 582 
Q 1402 691 1437 851 
Q 1472 1011 1517 1187 
Q 1562 1363 1606 1504 
L 2214 3437 
L 2829 3437 
L 3418 1504 
Q 3488 1286 3555 1030 
Q 3622 774 3648 589 
L 3674 589 
Q 3693 749 3760 1030 
Q 3827 1312 3904 1606 
L 4384 3437 
L 4960 3437 
L 4006 6 
L 3347 6 
L 2758 1939 
z
" transform="scale(0.015625)"/>
        <path id="NotoSans-Regular-6d" d="M 4307 3494 
Q 4890 3494 5178 3196 
Q 5466 2899 5466 2234 
L 5466 0 
L 4909 0 
L 4909 2208 
Q 4909 3021 4211 3021 
Q 3712 3021 3497 2733 
Q 3283 2445 3283 1894 
L 3283 0 
L 2726 0 
L 2726 2208 
Q 2726 3021 2022 3021 
Q 1504 3021 1305 2701 
Q 1107 2381 1107 1779 
L 1107 0 
L 544 0 
L 544 3430 
L 998 3430 
L 1082 2963 
L 1114 2963 
Q 1274 3232 1546 3363 
Q 1818 3494 2125 3494 
Q 2931 3494 3174 2918 
L 3206 2918 
Q 3379 3213 3676 3353 
Q 3974 3494 4307 3494 
z
" transform="scale(0.015625)"/>
       </defs>
       <use xlink:href="#NotoSans-Regular-70"/>
       <use xlink:href="#NotoSans-Regular-72" transform="translate(61.499985 0)"/>
       <use xlink:href="#NotoSans-Regular-65" transform="translate(102.799973 0)"/>
       <use xlink:href="#NotoSans-Regular-76" transform="translate(159.199966 0)"/>
       <use xlink:href="#NotoSans-Regular-69" transform="translate(209.999954 0)"/>
       <use xlink:href="#NotoSans-Regular-65" transform="translate(235.799942 0)"/>
       <use xlink:href="#NotoSans-Regular-77" transform="translate(292.199936 0)"/>
       <use xlink:href="#NotoSans-Regular-2d" transform="translate(370.799927 0)"/>
       <use xlink:href="#NotoSans-Regular-65" transform="translate(402.999924 0)"/>
       <use xlink:href="#NotoSans-Regular-6d" transform="translate(459.399918 0)"/>
       <use xlink:href="#NotoSans-Regular-61" transform="translate(552.899902 0)"/>
       <use xlink:href="#NotoSans-Regular-69" transform="translate(608.999893 0)"/>
       <use xlink:href="#NotoSans-Regular-6c" transform="translate(634.799881 0)"/>
      </g>
     </g>
    </g>
    <g id="xtick_8">
     <g id="line2d_15">
      <path d="M 509.398317 597.196854 
L 509.398317 40.002023 
" clip-path="url(#pb535d79b72)" style="fill: none; stroke-dasharray: 2.96,1.28; stroke-dashoffset: 0; stroke: #b0b0b0; stroke-opacity: 0.7; stroke-width: 0.8"/>
     </g>
     <g id="line2d_16">
      <g>
       <use xlink:href="#mb0a476702d" x="509.398317" y="597.196854" style="stroke: #000000; stroke-width: 0.8"/>
      </g>
     </g>
     <g id="text_8">
      <!-- cabin -->
      <g transform="translate(489.798201 627.473925) rotate(-45) scale(0.1 -0.1)">
       <defs>
        <path id="NotoSans-Regular-63" d="M 1920 -64 
Q 1466 -64 1110 121 
Q 755 307 553 697 
Q 352 1088 352 1696 
Q 352 2330 563 2726 
Q 774 3123 1136 3308 
Q 1498 3494 1958 3494 
Q 2221 3494 2464 3440 
Q 2707 3386 2861 3309 
L 2688 2842 
Q 2534 2899 2329 2950 
Q 2125 3002 1946 3002 
Q 934 3002 934 1702 
Q 934 1082 1180 752 
Q 1427 422 1914 422 
Q 2195 422 2409 480 
Q 2624 538 2803 621 
L 2803 122 
Q 2630 32 2422 -16 
Q 2214 -64 1920 -64 
z
" transform="scale(0.015625)"/>
        <path id="NotoSans-Regular-62" d="M 1107 3680 
Q 1107 3462 1097 3273 
Q 1088 3085 1075 2976 
L 1107 2976 
Q 1254 3194 1510 3341 
Q 1766 3488 2170 3488 
Q 2810 3488 3197 3043 
Q 3584 2598 3584 1715 
Q 3584 832 3193 384 
Q 2803 -64 2170 -64 
Q 1766 -64 1510 83 
Q 1254 230 1107 435 
L 1062 435 
L 947 0 
L 544 0 
L 544 4864 
L 1107 4864 
L 1107 3680 
z
M 2074 3021 
Q 1530 3021 1318 2707 
Q 1107 2394 1107 1734 
L 1107 1709 
Q 1107 1075 1315 739 
Q 1523 403 2086 403 
Q 2547 403 2774 742 
Q 3002 1082 3002 1722 
Q 3002 3021 2074 3021 
z
" transform="scale(0.015625)"/>
       </defs>
       <use xlink:href="#NotoSans-Regular-63"/>
       <use xlink:href="#NotoSans-Regular-61" transform="translate(47.999985 0)"/>
       <use xlink:href="#NotoSans-Regular-62" transform="translate(104.099976 0)"/>
       <use xlink:href="#NotoSans-Regular-69" transform="translate(165.59996 0)"/>
       <use xlink:href="#NotoSans-Regular-6e" transform="translate(191.399948 0)"/>
      </g>
     </g>
    </g>
    <g id="xtick_9">
     <g id="line2d_17">
      <path d="M 562.076683 597.196854 
L 562.076683 40.002023 
" clip-path="url(#pb535d79b72)" style="fill: none; stroke-dasharray: 2.96,1.28; stroke-dashoffset: 0; stroke: #b0b0b0; stroke-opacity: 0.7; stroke-width: 0.8"/>
     </g>
     <g id="line2d_18">
      <g>
       <use xlink:href="#mb0a476702d" x="562.076683" y="597.196854" style="stroke: #000000; stroke-width: 0.8"/>
      </g>
     </g>
     <g id="text_9">
      <!-- @breejs/later -->
      <g transform="translate(515.682744 654.267748) rotate(-45) scale(0.1 -0.1)">
       <defs>
        <path id="NotoSans-Regular-6a" d="M 499 4358 
Q 499 4544 595 4630 
Q 691 4717 832 4717 
Q 960 4717 1059 4630 
Q 1158 4544 1158 4358 
Q 1158 4179 1059 4089 
Q 960 4000 832 4000 
Q 691 4000 595 4089 
Q 499 4179 499 4358 
z
M 141 -1536 
Q -19 -1536 -140 -1513 
Q -262 -1491 -352 -1459 
L -352 -1005 
Q -256 -1030 -153 -1049 
Q -51 -1069 70 -1069 
Q 275 -1069 409 -957 
Q 544 -845 544 -531 
L 544 3430 
L 1107 3430 
L 1107 -512 
Q 1107 -992 876 -1264 
Q 646 -1536 141 -1536 
z
" transform="scale(0.015625)"/>
       </defs>
       <use xlink:href="#NotoSans-Regular-40"/>
       <use xlink:href="#NotoSans-Regular-62" transform="translate(89.899994 0)"/>
       <use xlink:href="#NotoSans-Regular-72" transform="translate(151.399979 0)"/>
       <use xlink:href="#NotoSans-Regular-65" transform="translate(192.699966 0)"/>
       <use xlink:href="#NotoSans-Regular-65" transform="translate(249.09996 0)"/>
       <use xlink:href="#NotoSans-Regular-6a" transform="translate(305.499954 0)"/>
       <use xlink:href="#NotoSans-Regular-73" transform="translate(331.299942 0)"/>
       <use xlink:href="#NotoSans-Regular-2f" transform="translate(379.199936 0)"/>
       <use xlink:href="#NotoSans-Regular-6c" transform="translate(416.399933 0)"/>
       <use xlink:href="#NotoSans-Regular-61" transform="translate(442.199921 0)"/>
       <use xlink:href="#NotoSans-Regular-74" transform="translate(498.299911 0)"/>
       <use xlink:href="#NotoSans-Regular-65" transform="translate(534.399902 0)"/>
       <use xlink:href="#NotoSans-Regular-72" transform="translate(590.799896 0)"/>
      </g>
     </g>
    </g>
    <g id="xtick_10">
     <g id="line2d_19">
      <path d="M 614.755049 597.196854 
L 614.755049 40.002023 
" clip-path="url(#pb535d79b72)" style="fill: none; stroke-dasharray: 2.96,1.28; stroke-dashoffset: 0; stroke: #b0b0b0; stroke-opacity: 0.7; stroke-width: 0.8"/>
     </g>
     <g id="line2d_20">
      <g>
       <use xlink:href="#mb0a476702d" x="614.755049" y="597.196854" style="stroke: #000000; stroke-width: 0.8"/>
      </g>
     </g>
     <g id="text_10">
      <!-- url-regex-safe -->
      <g transform="translate(566.627594 656.03662) rotate(-45) scale(0.1 -0.1)">
       <defs>
        <path id="NotoSans-Regular-66" d="M 2125 2995 
L 1261 2995 
L 1261 0 
L 698 0 
L 698 2995 
L 96 2995 
L 96 3258 
L 698 3450 
L 698 3648 
Q 698 4314 992 4605 
Q 1286 4896 1811 4896 
Q 2016 4896 2185 4861 
Q 2355 4826 2477 4781 
L 2330 4339 
Q 2227 4371 2092 4403 
Q 1958 4435 1818 4435 
Q 1536 4435 1398 4246 
Q 1261 4058 1261 3654 
L 1261 3430 
L 2125 3430 
L 2125 2995 
z
" transform="scale(0.015625)"/>
       </defs>
       <use xlink:href="#NotoSans-Regular-75"/>
       <use xlink:href="#NotoSans-Regular-72" transform="translate(61.799988 0)"/>
       <use xlink:href="#NotoSans-Regular-6c" transform="translate(103.099976 0)"/>
       <use xlink:href="#NotoSans-Regular-2d" transform="translate(128.899963 0)"/>
       <use xlink:href="#NotoSans-Regular-72" transform="translate(161.09996 0)"/>
       <use xlink:href="#NotoSans-Regular-65" transform="translate(202.399948 0)"/>
       <use xlink:href="#NotoSans-Regular-67" transform="translate(258.799942 0)"/>
       <use xlink:href="#NotoSans-Regular-65" transform="translate(320.299927 0)"/>
       <use xlink:href="#NotoSans-Regular-78" transform="translate(376.699921 0)"/>
       <use xlink:href="#NotoSans-Regular-2d" transform="translate(429.599915 0)"/>
       <use xlink:href="#NotoSans-Regular-73" transform="translate(461.799911 0)"/>
       <use xlink:href="#NotoSans-Regular-61" transform="translate(509.699905 0)"/>
       <use xlink:href="#NotoSans-Regular-66" transform="translate(565.799896 0)"/>
       <use xlink:href="#NotoSans-Regular-65" transform="translate(600.19989 0)"/>
      </g>
     </g>
    </g>
    <g id="xtick_11">
     <g id="line2d_21">
      <path d="M 667.433415 597.196854 
L 667.433415 40.002023 
" clip-path="url(#pb535d79b72)" style="fill: none; stroke-dasharray: 2.96,1.28; stroke-dashoffset: 0; stroke: #b0b0b0; stroke-opacity: 0.7; stroke-width: 0.8"/>
     </g>
     <g id="line2d_22">
      <g>
       <use xlink:href="#mb0a476702d" x="667.433415" y="597.196854" style="stroke: #000000; stroke-width: 0.8"/>
      </g>
     </g>
     <g id="text_11">
      <!-- email-templates -->
      <g transform="translate(612.024969 663.282255) rotate(-45) scale(0.1 -0.1)">
       <use xlink:href="#NotoSans-Regular-65"/>
       <use xlink:href="#NotoSans-Regular-6d" transform="translate(56.399994 0)"/>
       <use xlink:href="#NotoSans-Regular-61" transform="translate(149.899979 0)"/>
       <use xlink:href="#NotoSans-Regular-69" transform="translate(205.999969 0)"/>
       <use xlink:href="#NotoSans-Regular-6c" transform="translate(231.799957 0)"/>
       <use xlink:href="#NotoSans-Regular-2d" transform="translate(257.599945 0)"/>
       <use xlink:href="#NotoSans-Regular-74" transform="translate(289.799942 0)"/>
       <use xlink:href="#NotoSans-Regular-65" transform="translate(325.899933 0)"/>
       <use xlink:href="#NotoSans-Regular-6d" transform="translate(382.299927 0)"/>
       <use xlink:href="#NotoSans-Regular-70" transform="translate(475.799911 0)"/>
       <use xlink:href="#NotoSans-Regular-6c" transform="translate(537.299896 0)"/>
       <use xlink:href="#NotoSans-Regular-61" transform="translate(563.099884 0)"/>
       <use xlink:href="#NotoSans-Regular-74" transform="translate(619.199875 0)"/>
       <use xlink:href="#NotoSans-Regular-65" transform="translate(655.299866 0)"/>
       <use xlink:href="#NotoSans-Regular-73" transform="translate(711.69986 0)"/>
      </g>
     </g>
    </g>
    <g id="xtick_12">
     <g id="line2d_23">
      <path d="M 720.111781 597.196854 
L 720.111781 40.002023 
" clip-path="url(#pb535d79b72)" style="fill: none; stroke-dasharray: 2.96,1.28; stroke-dashoffset: 0; stroke: #b0b0b0; stroke-opacity: 0.7; stroke-width: 0.8"/>
     </g>
     <g id="line2d_24">
      <g>
       <use xlink:href="#mb0a476702d" x="720.111781" y="597.196854" style="stroke: #000000; stroke-width: 0.8"/>
      </g>
     </g>
     <g id="text_12">
      <!-- get-paths -->
      <g transform="translate(686.623646 641.361944) rotate(-45) scale(0.1 -0.1)">
       <defs>
        <path id="NotoSans-Regular-68" d="M 1107 3437 
Q 1107 3181 1075 2957 
L 1114 2957 
Q 1280 3219 1565 3353 
Q 1850 3488 2182 3488 
Q 2810 3488 3123 3190 
Q 3437 2893 3437 2234 
L 3437 0 
L 2880 0 
L 2880 2195 
Q 2880 3021 2112 3021 
Q 1536 3021 1321 2697 
Q 1107 2374 1107 1773 
L 1107 0 
L 544 0 
L 544 4864 
L 1107 4864 
L 1107 3437 
z
" transform="scale(0.015625)"/>
       </defs>
       <use xlink:href="#NotoSans-Regular-67"/>
       <use xlink:href="#NotoSans-Regular-65" transform="translate(61.499985 0)"/>
       <use xlink:href="#NotoSans-Regular-74" transform="translate(117.899979 0)"/>
       <use xlink:href="#NotoSans-Regular-2d" transform="translate(153.999969 0)"/>
       <use xlink:href="#NotoSans-Regular-70" transform="translate(186.199966 0)"/>
       <use xlink:href="#NotoSans-Regular-61" transform="translate(247.699951 0)"/>
       <use xlink:href="#NotoSans-Regular-74" transform="translate(303.799942 0)"/>
       <use xlink:href="#NotoSans-Regular-68" transform="translate(339.899933 0)"/>
       <use xlink:href="#NotoSans-Regular-73" transform="translate(401.699921 0)"/>
      </g>
     </g>
    </g>
    <g id="xtick_13">
     <g id="line2d_25">
      <path d="M 772.790147 597.196854 
L 772.790147 40.002023 
" clip-path="url(#pb535d79b72)" style="fill: none; stroke-dasharray: 2.96,1.28; stroke-dashoffset: 0; stroke: #b0b0b0; stroke-opacity: 0.7; stroke-width: 0.8"/>
     </g>
     <g id="line2d_26">
      <g>
       <use xlink:href="#mb0a476702d" x="772.790147" y="597.196854" style="stroke: #000000; stroke-width: 0.8"/>
      </g>
     </g>
     <g id="text_13">
      <!-- dotenv-parse-variables -->
      <g transform="translate(694.980779 685.683177) rotate(-45) scale(0.1 -0.1)">
       <defs>
        <path id="NotoSans-Regular-64" d="M 1760 -64 
Q 1120 -64 736 381 
Q 352 826 352 1709 
Q 352 2592 739 3043 
Q 1126 3494 1766 3494 
Q 2163 3494 2416 3347 
Q 2669 3200 2829 2989 
L 2867 2989 
Q 2861 3072 2845 3235 
Q 2829 3398 2829 3494 
L 2829 4864 
L 3392 4864 
L 3392 0 
L 2938 0 
L 2854 461 
L 2829 461 
Q 2675 243 2419 89 
Q 2163 -64 1760 -64 
z
M 1850 403 
Q 2394 403 2614 700 
Q 2835 998 2835 1600 
L 2835 1702 
Q 2835 2342 2624 2684 
Q 2413 3027 1843 3027 
Q 1389 3027 1161 2665 
Q 934 2304 934 1696 
Q 934 1082 1161 742 
Q 1389 403 1850 403 
z
" transform="scale(0.015625)"/>
       </defs>
       <use xlink:href="#NotoSans-Regular-64"/>
       <use xlink:href="#NotoSans-Regular-6f" transform="translate(61.499985 0)"/>
       <use xlink:href="#NotoSans-Regular-74" transform="translate(121.999969 0)"/>
       <use xlink:href="#NotoSans-Regular-65" transform="translate(158.09996 0)"/>
       <use xlink:href="#NotoSans-Regular-6e" transform="translate(214.499954 0)"/>
       <use xlink:href="#NotoSans-Regular-76" transform="translate(276.299942 0)"/>
       <use xlink:href="#NotoSans-Regular-2d" transform="translate(327.09993 0)"/>
       <use xlink:href="#NotoSans-Regular-70" transform="translate(359.299927 0)"/>
       <use xlink:href="#NotoSans-Regular-61" transform="translate(420.799911 0)"/>
       <use xlink:href="#NotoSans-Regular-72" transform="translate(476.899902 0)"/>
       <use xlink:href="#NotoSans-Regular-73" transform="translate(518.19989 0)"/>
       <use xlink:href="#NotoSans-Regular-65" transform="translate(566.099884 0)"/>
       <use xlink:href="#NotoSans-Regular-2d" transform="translate(622.499878 0)"/>
       <use xlink:href="#NotoSans-Regular-76" transform="translate(654.699875 0)"/>
       <use xlink:href="#NotoSans-Regular-61" transform="translate(705.499863 0)"/>
       <use xlink:href="#NotoSans-Regular-72" transform="translate(761.599854 0)"/>
       <use xlink:href="#NotoSans-Regular-69" transform="translate(802.899841 0)"/>
       <use xlink:href="#NotoSans-Regular-61" transform="translate(828.699829 0)"/>
       <use xlink:href="#NotoSans-Regular-62" transform="translate(884.79982 0)"/>
       <use xlink:href="#NotoSans-Regular-6c" transform="translate(946.299805 0)"/>
       <use xlink:href="#NotoSans-Regular-65" transform="translate(972.099792 0)"/>
       <use xlink:href="#NotoSans-Regular-73" transform="translate(1028.499786 0)"/>
      </g>
     </g>
    </g>
    <g id="xtick_14">
     <g id="line2d_27">
      <path d="M 825.468513 597.196854 
L 825.468513 40.002023 
" clip-path="url(#pb535d79b72)" style="fill: none; stroke-dasharray: 2.96,1.28; stroke-dashoffset: 0; stroke: #b0b0b0; stroke-opacity: 0.7; stroke-width: 0.8"/>
     </g>
     <g id="line2d_28">
      <g>
       <use xlink:href="#mb0a476702d" x="825.468513" y="597.196854" style="stroke: #000000; stroke-width: 0.8"/>
      </g>
     </g>
     <g id="text_14">
      <!-- @koa/multer -->
      <g transform="translate(780.496521 652.845801) rotate(-45) scale(0.1 -0.1)">
       <use xlink:href="#NotoSans-Regular-40"/>
       <use xlink:href="#NotoSans-Regular-6b" transform="translate(89.899994 0)"/>
       <use xlink:href="#NotoSans-Regular-6f" transform="translate(143.299988 0)"/>
       <use xlink:href="#NotoSans-Regular-61" transform="translate(203.799973 0)"/>
       <use xlink:href="#NotoSans-Regular-2f" transform="translate(259.899963 0)"/>
       <use xlink:href="#NotoSans-Regular-6d" transform="translate(297.09996 0)"/>
       <use xlink:href="#NotoSans-Regular-75" transform="translate(390.599945 0)"/>
       <use xlink:href="#NotoSans-Regular-6c" transform="translate(452.399933 0)"/>
       <use xlink:href="#NotoSans-Regular-74" transform="translate(478.199921 0)"/>
       <use xlink:href="#NotoSans-Regular-65" transform="translate(514.299911 0)"/>
       <use xlink:href="#NotoSans-Regular-72" transform="translate(570.699905 0)"/>
      </g>
     </g>
    </g>
    <g id="xtick_15">
     <g id="line2d_29">
      <path d="M 878.146879 597.196854 
L 878.146879 40.002023 
" clip-path="url(#pb535d79b72)" style="fill: none; stroke-dasharray: 2.96,1.28; stroke-dashoffset: 0; stroke: #b0b0b0; stroke-opacity: 0.7; stroke-width: 0.8"/>
     </g>
     <g id="line2d_30">
      <g>
       <use xlink:href="#mb0a476702d" x="878.146879" y="597.196854" style="stroke: #000000; stroke-width: 0.8"/>
      </g>
     </g>
     <g id="text_15">
      <!-- spamscanner -->
      <g transform="translate(831.739682 654.281006) rotate(-45) scale(0.1 -0.1)">
       <use xlink:href="#NotoSans-Regular-73"/>
       <use xlink:href="#NotoSans-Regular-70" transform="translate(47.899994 0)"/>
       <use xlink:href="#NotoSans-Regular-61" transform="translate(109.399979 0)"/>
       <use xlink:href="#NotoSans-Regular-6d" transform="translate(165.499969 0)"/>
       <use xlink:href="#NotoSans-Regular-73" transform="translate(258.999954 0)"/>
       <use xlink:href="#NotoSans-Regular-63" transform="translate(306.899948 0)"/>
       <use xlink:href="#NotoSans-Regular-61" transform="translate(354.899933 0)"/>
       <use xlink:href="#NotoSans-Regular-6e" transform="translate(410.999924 0)"/>
       <use xlink:href="#NotoSans-Regular-6e" transform="translate(472.799911 0)"/>
       <use xlink:href="#NotoSans-Regular-65" transform="translate(534.599899 0)"/>
       <use xlink:href="#NotoSans-Regular-72" transform="translate(590.999893 0)"/>
      </g>
     </g>
    </g>
    <g id="xtick_16">
     <g id="line2d_31">
      <path d="M 930.825245 597.196854 
L 930.825245 40.002023 
" clip-path="url(#pb535d79b72)" style="fill: none; stroke-dasharray: 2.96,1.28; stroke-dashoffset: 0; stroke: #b0b0b0; stroke-opacity: 0.7; stroke-width: 0.8"/>
     </g>
     <g id="line2d_32">
      <g>
       <use xlink:href="#mb0a476702d" x="930.825245" y="597.196854" style="stroke: #000000; stroke-width: 0.8"/>
      </g>
     </g>
     <g id="text_16">
      <!-- bree -->
      <g transform="translate(913.882303 624.816751) rotate(-45) scale(0.1 -0.1)">
       <use xlink:href="#NotoSans-Regular-62"/>
       <use xlink:href="#NotoSans-Regular-72" transform="translate(61.499985 0)"/>
       <use xlink:href="#NotoSans-Regular-65" transform="translate(102.799973 0)"/>
       <use xlink:href="#NotoSans-Regular-65" transform="translate(159.199966 0)"/>
      </g>
     </g>
    </g>
    <g id="text_17">
     <!-- Package Name -->
     <g transform="translate(486.7375 702.020233) scale(0.14 -0.14)">
      <defs>
       <path id="NotoSans-Regular-50" d="M 1830 4570 
Q 2726 4570 3136 4218 
Q 3546 3866 3546 3226 
Q 3546 2848 3376 2518 
Q 3206 2189 2806 1984 
Q 2406 1779 1722 1779 
L 1197 1779 
L 1197 0 
L 621 0 
L 621 4570 
L 1830 4570 
z
M 1779 4077 
L 1197 4077 
L 1197 2272 
L 1658 2272 
Q 2310 2272 2630 2483 
Q 2950 2694 2950 3200 
Q 2950 3642 2668 3859 
Q 2387 4077 1779 4077 
z
" transform="scale(0.015625)"/>
       <path id="NotoSans-Regular-20" transform="scale(0.015625)"/>
       <path id="NotoSans-Regular-4e" d="M 4243 0 
L 3571 0 
L 1126 3795 
L 1101 3795 
Q 1114 3571 1133 3238 
Q 1152 2906 1152 2554 
L 1152 0 
L 621 0 
L 621 4570 
L 1286 4570 
L 3725 787 
L 3750 787 
Q 3744 890 3734 1094 
Q 3725 1299 3715 1542 
Q 3706 1786 3706 1990 
L 3706 4570 
L 4243 4570 
L 4243 0 
z
" transform="scale(0.015625)"/>
      </defs>
      <use xlink:href="#NotoSans-Regular-50"/>
      <use xlink:href="#NotoSans-Regular-61" transform="translate(60.499985 0)"/>
      <use xlink:href="#NotoSans-Regular-63" transform="translate(116.599976 0)"/>
      <use xlink:href="#NotoSans-Regular-6b" transform="translate(164.59996 0)"/>
      <use xlink:href="#NotoSans-Regular-61" transform="translate(217.999954 0)"/>
      <use xlink:href="#NotoSans-Regular-67" transform="translate(274.099945 0)"/>
      <use xlink:href="#NotoSans-Regular-65" transform="translate(335.59993 0)"/>
      <use xlink:href="#NotoSans-Regular-20" transform="translate(391.999924 0)"/>
      <use xlink:href="#NotoSans-Regular-4e" transform="translate(417.999908 0)"/>
      <use xlink:href="#NotoSans-Regular-61" transform="translate(493.999893 0)"/>
      <use xlink:href="#NotoSans-Regular-6d" transform="translate(550.099884 0)"/>
      <use xlink:href="#NotoSans-Regular-65" transform="translate(643.599869 0)"/>
     </g>
    </g>
   </g>
   <g id="matplotlib.axis_2">
    <g id="ytick_1">
     <g id="line2d_33">
      <path d="M 77.9625 597.196854 
L 993.5125 597.196854 
" clip-path="url(#pb535d79b72)" style="fill: none; stroke-dasharray: 2.96,1.28; stroke-dashoffset: 0; stroke: #b0b0b0; stroke-opacity: 0.7; stroke-width: 0.8"/>
     </g>
     <g id="line2d_34">
      <defs>
       <path id="m05431cd017" d="M 0 0 
L -3.5 0 
" style="stroke: #000000; stroke-width: 0.8"/>
      </defs>
      <g>
       <use xlink:href="#m05431cd017" x="77.9625" y="597.196854" style="stroke: #000000; stroke-width: 0.8"/>
      </g>
     </g>
     <g id="text_18">
      <!-- 0 -->
      <g transform="translate(65.242188 600.996854) scale(0.1 -0.1)">
       <defs>
        <path id="NotoSans-Regular-30" d="M 3347 2291 
Q 3347 1555 3193 1027 
Q 3040 499 2707 217 
Q 2374 -64 1824 -64 
Q 1050 -64 682 560 
Q 314 1184 314 2291 
Q 314 3034 464 3558 
Q 614 4083 947 4361 
Q 1280 4640 1824 4640 
Q 2592 4640 2969 4022 
Q 3347 3405 3347 2291 
z
M 877 2291 
Q 877 1350 1091 883 
Q 1306 416 1824 416 
Q 2336 416 2557 880 
Q 2778 1344 2778 2291 
Q 2778 3226 2557 3693 
Q 2336 4160 1824 4160 
Q 1306 4160 1091 3693 
Q 877 3226 877 2291 
z
" transform="scale(0.015625)"/>
       </defs>
       <use xlink:href="#NotoSans-Regular-30"/>
      </g>
     </g>
    </g>
    <g id="ytick_2">
     <g id="line2d_35">
      <path d="M 77.9625 534.452953 
L 993.5125 534.452953 
" clip-path="url(#pb535d79b72)" style="fill: none; stroke-dasharray: 2.96,1.28; stroke-dashoffset: 0; stroke: #b0b0b0; stroke-opacity: 0.7; stroke-width: 0.8"/>
     </g>
     <g id="line2d_36">
      <g>
       <use xlink:href="#m05431cd017" x="77.9625" y="534.452953" style="stroke: #000000; stroke-width: 0.8"/>
      </g>
     </g>
     <g id="text_19">
      <!-- 10000000 -->
      <g transform="translate(25.2 538.252953) scale(0.1 -0.1)">
       <defs>
        <path id="NotoSans-Regular-31" d="M 2272 0 
L 1722 0 
L 1722 3194 
Q 1722 3469 1728 3635 
Q 1734 3802 1747 3981 
Q 1645 3878 1561 3808 
Q 1478 3738 1350 3629 
L 864 3232 
L 570 3610 
L 1805 4570 
L 2272 4570 
L 2272 0 
z
" transform="scale(0.015625)"/>
       </defs>
       <use xlink:href="#NotoSans-Regular-31"/>
       <use xlink:href="#NotoSans-Regular-30" transform="translate(57.199997 0)"/>
       <use xlink:href="#NotoSans-Regular-30" transform="translate(114.399994 0)"/>
       <use xlink:href="#NotoSans-Regular-30" transform="translate(171.599991 0)"/>
       <use xlink:href="#NotoSans-Regular-30" transform="translate(228.799988 0)"/>
       <use xlink:href="#NotoSans-Regular-30" transform="translate(285.999985 0)"/>
       <use xlink:href="#NotoSans-Regular-30" transform="translate(343.199982 0)"/>
       <use xlink:href="#NotoSans-Regular-30" transform="translate(400.399979 0)"/>
      </g>
     </g>
    </g>
    <g id="ytick_3">
     <g id="line2d_37">
      <path d="M 77.9625 471.709052 
L 993.5125 471.709052 
" clip-path="url(#pb535d79b72)" style="fill: none; stroke-dasharray: 2.96,1.28; stroke-dashoffset: 0; stroke: #b0b0b0; stroke-opacity: 0.7; stroke-width: 0.8"/>
     </g>
     <g id="line2d_38">
      <g>
       <use xlink:href="#m05431cd017" x="77.9625" y="471.709052" style="stroke: #000000; stroke-width: 0.8"/>
      </g>
     </g>
     <g id="text_20">
      <!-- 20000000 -->
      <g transform="translate(25.2 475.509052) scale(0.1 -0.1)">
       <defs>
        <path id="NotoSans-Regular-32" d="M 3328 0 
L 307 0 
L 307 467 
L 1504 1677 
Q 1850 2022 2086 2291 
Q 2323 2560 2444 2819 
Q 2566 3078 2566 3386 
Q 2566 3763 2342 3958 
Q 2118 4154 1760 4154 
Q 1427 4154 1174 4038 
Q 922 3923 659 3718 
L 358 4096 
Q 627 4320 976 4477 
Q 1325 4634 1760 4634 
Q 2400 4634 2771 4310 
Q 3142 3987 3142 3418 
Q 3142 3059 2995 2745 
Q 2848 2432 2585 2128 
Q 2323 1824 1971 1478 
L 1018 538 
L 1018 512 
L 3328 512 
L 3328 0 
z
" transform="scale(0.015625)"/>
       </defs>
       <use xlink:href="#NotoSans-Regular-32"/>
       <use xlink:href="#NotoSans-Regular-30" transform="translate(57.199997 0)"/>
       <use xlink:href="#NotoSans-Regular-30" transform="translate(114.399994 0)"/>
       <use xlink:href="#NotoSans-Regular-30" transform="translate(171.599991 0)"/>
       <use xlink:href="#NotoSans-Regular-30" transform="translate(228.799988 0)"/>
       <use xlink:href="#NotoSans-Regular-30" transform="translate(285.999985 0)"/>
       <use xlink:href="#NotoSans-Regular-30" transform="translate(343.199982 0)"/>
       <use xlink:href="#NotoSans-Regular-30" transform="translate(400.399979 0)"/>
      </g>
     </g>
    </g>
    <g id="ytick_4">
     <g id="line2d_39">
      <path d="M 77.9625 408.965151 
L 993.5125 408.965151 
" clip-path="url(#pb535d79b72)" style="fill: none; stroke-dasharray: 2.96,1.28; stroke-dashoffset: 0; stroke: #b0b0b0; stroke-opacity: 0.7; stroke-width: 0.8"/>
     </g>
     <g id="line2d_40">
      <g>
       <use xlink:href="#m05431cd017" x="77.9625" y="408.965151" style="stroke: #000000; stroke-width: 0.8"/>
      </g>
     </g>
     <g id="text_21">
      <!-- 30000000 -->
      <g transform="translate(25.2 412.765151) scale(0.1 -0.1)">
       <defs>
        <path id="NotoSans-Regular-33" d="M 3155 3501 
Q 3155 3040 2899 2768 
Q 2643 2496 2208 2406 
L 2208 2381 
Q 2758 2317 3027 2035 
Q 3296 1754 3296 1299 
Q 3296 902 3110 592 
Q 2925 282 2537 109 
Q 2150 -64 1542 -64 
Q 1184 -64 877 -9 
Q 570 45 288 186 
L 288 710 
Q 576 570 909 490 
Q 1242 410 1549 410 
Q 2163 410 2435 650 
Q 2707 890 2707 1312 
Q 2707 1741 2371 1929 
Q 2035 2118 1427 2118 
L 986 2118 
L 986 2598 
L 1434 2598 
Q 1997 2598 2288 2835 
Q 2579 3072 2579 3462 
Q 2579 3795 2355 3977 
Q 2131 4160 1747 4160 
Q 1376 4160 1113 4051 
Q 851 3942 595 3776 
L 314 4160 
Q 557 4352 918 4493 
Q 1280 4634 1741 4634 
Q 2458 4634 2806 4314 
Q 3155 3994 3155 3501 
z
" transform="scale(0.015625)"/>
       </defs>
       <use xlink:href="#NotoSans-Regular-33"/>
       <use xlink:href="#NotoSans-Regular-30" transform="translate(57.199997 0)"/>
       <use xlink:href="#NotoSans-Regular-30" transform="translate(114.399994 0)"/>
       <use xlink:href="#NotoSans-Regular-30" transform="translate(171.599991 0)"/>
       <use xlink:href="#NotoSans-Regular-30" transform="translate(228.799988 0)"/>
       <use xlink:href="#NotoSans-Regular-30" transform="translate(285.999985 0)"/>
       <use xlink:href="#NotoSans-Regular-30" transform="translate(343.199982 0)"/>
       <use xlink:href="#NotoSans-Regular-30" transform="translate(400.399979 0)"/>
      </g>
     </g>
    </g>
    <g id="ytick_5">
     <g id="line2d_41">
      <path d="M 77.9625 346.22125 
L 993.5125 346.22125 
" clip-path="url(#pb535d79b72)" style="fill: none; stroke-dasharray: 2.96,1.28; stroke-dashoffset: 0; stroke: #b0b0b0; stroke-opacity: 0.7; stroke-width: 0.8"/>
     </g>
     <g id="line2d_42">
      <g>
       <use xlink:href="#m05431cd017" x="77.9625" y="346.22125" style="stroke: #000000; stroke-width: 0.8"/>
      </g>
     </g>
     <g id="text_22">
      <!-- 40000000 -->
      <g transform="translate(25.2 350.02125) scale(0.1 -0.1)">
       <defs>
        <path id="NotoSans-Regular-34" d="M 3533 1037 
L 2867 1037 
L 2867 0 
L 2323 0 
L 2323 1037 
L 134 1037 
L 134 1517 
L 2285 4595 
L 2867 4595 
L 2867 1542 
L 3533 1542 
L 3533 1037 
z
M 2323 2982 
Q 2323 3315 2336 3548 
Q 2349 3782 2355 3994 
L 2330 3994 
Q 2278 3872 2201 3731 
Q 2125 3590 2054 3494 
L 685 1542 
L 2323 1542 
L 2323 2982 
z
" transform="scale(0.015625)"/>
       </defs>
       <use xlink:href="#NotoSans-Regular-34"/>
       <use xlink:href="#NotoSans-Regular-30" transform="translate(57.199997 0)"/>
       <use xlink:href="#NotoSans-Regular-30" transform="translate(114.399994 0)"/>
       <use xlink:href="#NotoSans-Regular-30" transform="translate(171.599991 0)"/>
       <use xlink:href="#NotoSans-Regular-30" transform="translate(228.799988 0)"/>
       <use xlink:href="#NotoSans-Regular-30" transform="translate(285.999985 0)"/>
       <use xlink:href="#NotoSans-Regular-30" transform="translate(343.199982 0)"/>
       <use xlink:href="#NotoSans-Regular-30" transform="translate(400.399979 0)"/>
      </g>
     </g>
    </g>
    <g id="ytick_6">
     <g id="line2d_43">
      <path d="M 77.9625 283.477349 
L 993.5125 283.477349 
" clip-path="url(#pb535d79b72)" style="fill: none; stroke-dasharray: 2.96,1.28; stroke-dashoffset: 0; stroke: #b0b0b0; stroke-opacity: 0.7; stroke-width: 0.8"/>
     </g>
     <g id="line2d_44">
      <g>
       <use xlink:href="#m05431cd017" x="77.9625" y="283.477349" style="stroke: #000000; stroke-width: 0.8"/>
      </g>
     </g>
     <g id="text_23">
      <!-- 50000000 -->
      <g transform="translate(25.2 287.277349) scale(0.1 -0.1)">
       <defs>
        <path id="NotoSans-Regular-35" d="M 1760 2803 
Q 2464 2803 2880 2451 
Q 3296 2099 3296 1459 
Q 3296 749 2845 342 
Q 2394 -64 1587 -64 
Q 1235 -64 924 0 
Q 614 64 403 186 
L 403 717 
Q 634 576 963 496 
Q 1293 416 1594 416 
Q 2099 416 2409 656 
Q 2720 896 2720 1402 
Q 2720 1850 2445 2090 
Q 2170 2330 1574 2330 
Q 1395 2330 1164 2298 
Q 934 2266 794 2234 
L 512 2413 
L 685 4570 
L 2976 4570 
L 2976 4058 
L 1165 4058 
L 1056 2733 
Q 1165 2752 1350 2777 
Q 1536 2803 1760 2803 
z
" transform="scale(0.015625)"/>
       </defs>
       <use xlink:href="#NotoSans-Regular-35"/>
       <use xlink:href="#NotoSans-Regular-30" transform="translate(57.199997 0)"/>
       <use xlink:href="#NotoSans-Regular-30" transform="translate(114.399994 0)"/>
       <use xlink:href="#NotoSans-Regular-30" transform="translate(171.599991 0)"/>
       <use xlink:href="#NotoSans-Regular-30" transform="translate(228.799988 0)"/>
       <use xlink:href="#NotoSans-Regular-30" transform="translate(285.999985 0)"/>
       <use xlink:href="#NotoSans-Regular-30" transform="translate(343.199982 0)"/>
       <use xlink:href="#NotoSans-Regular-30" transform="translate(400.399979 0)"/>
      </g>
     </g>
    </g>
    <g id="ytick_7">
     <g id="line2d_45">
      <path d="M 77.9625 220.733448 
L 993.5125 220.733448 
" clip-path="url(#pb535d79b72)" style="fill: none; stroke-dasharray: 2.96,1.28; stroke-dashoffset: 0; stroke: #b0b0b0; stroke-opacity: 0.7; stroke-width: 0.8"/>
     </g>
     <g id="line2d_46">
      <g>
       <use xlink:href="#m05431cd017" x="77.9625" y="220.733448" style="stroke: #000000; stroke-width: 0.8"/>
      </g>
     </g>
     <g id="text_24">
      <!-- 60000000 -->
      <g transform="translate(25.2 224.533448) scale(0.1 -0.1)">
       <defs>
        <path id="NotoSans-Regular-36" d="M 352 1952 
Q 352 2445 438 2921 
Q 525 3398 752 3785 
Q 979 4173 1388 4403 
Q 1798 4634 2445 4634 
Q 2579 4634 2742 4621 
Q 2906 4608 3008 4576 
L 3008 4096 
Q 2893 4134 2749 4153 
Q 2605 4173 2458 4173 
Q 2016 4173 1721 4025 
Q 1427 3878 1257 3622 
Q 1088 3366 1011 3033 
Q 934 2701 915 2323 
L 954 2323 
Q 1101 2547 1363 2704 
Q 1626 2861 2035 2861 
Q 2630 2861 2995 2499 
Q 3360 2138 3360 1472 
Q 3360 755 2966 345 
Q 2573 -64 1907 -64 
Q 1472 -64 1120 153 
Q 768 371 560 819 
Q 352 1267 352 1952 
z
M 1901 410 
Q 2304 410 2553 669 
Q 2803 928 2803 1472 
Q 2803 1907 2582 2163 
Q 2362 2419 1920 2419 
Q 1619 2419 1395 2294 
Q 1171 2170 1046 1978 
Q 922 1786 922 1581 
Q 922 1306 1030 1034 
Q 1139 762 1356 586 
Q 1574 410 1901 410 
z
" transform="scale(0.015625)"/>
       </defs>
       <use xlink:href="#NotoSans-Regular-36"/>
       <use xlink:href="#NotoSans-Regular-30" transform="translate(57.199997 0)"/>
       <use xlink:href="#NotoSans-Regular-30" transform="translate(114.399994 0)"/>
       <use xlink:href="#NotoSans-Regular-30" transform="translate(171.599991 0)"/>
       <use xlink:href="#NotoSans-Regular-30" transform="translate(228.799988 0)"/>
       <use xlink:href="#NotoSans-Regular-30" transform="translate(285.999985 0)"/>
       <use xlink:href="#NotoSans-Regular-30" transform="translate(343.199982 0)"/>
       <use xlink:href="#NotoSans-Regular-30" transform="translate(400.399979 0)"/>
      </g>
     </g>
    </g>
    <g id="ytick_8">
     <g id="line2d_47">
      <path d="M 77.9625 157.989547 
L 993.5125 157.989547 
" clip-path="url(#pb535d79b72)" style="fill: none; stroke-dasharray: 2.96,1.28; stroke-dashoffset: 0; stroke: #b0b0b0; stroke-opacity: 0.7; stroke-width: 0.8"/>
     </g>
     <g id="line2d_48">
      <g>
       <use xlink:href="#m05431cd017" x="77.9625" y="157.989547" style="stroke: #000000; stroke-width: 0.8"/>
      </g>
     </g>
     <g id="text_25">
      <!-- 70000000 -->
      <g transform="translate(25.2 161.789547) scale(0.1 -0.1)">
       <defs>
        <path id="NotoSans-Regular-37" d="M 870 0 
L 2746 4058 
L 282 4058 
L 282 4570 
L 3347 4570 
L 3347 4134 
L 1491 0 
L 870 0 
z
" transform="scale(0.015625)"/>
       </defs>
       <use xlink:href="#NotoSans-Regular-37"/>
       <use xlink:href="#NotoSans-Regular-30" transform="translate(57.199997 0)"/>
       <use xlink:href="#NotoSans-Regular-30" transform="translate(114.399994 0)"/>
       <use xlink:href="#NotoSans-Regular-30" transform="translate(171.599991 0)"/>
       <use xlink:href="#NotoSans-Regular-30" transform="translate(228.799988 0)"/>
       <use xlink:href="#NotoSans-Regular-30" transform="translate(285.999985 0)"/>
       <use xlink:href="#NotoSans-Regular-30" transform="translate(343.199982 0)"/>
       <use xlink:href="#NotoSans-Regular-30" transform="translate(400.399979 0)"/>
      </g>
     </g>
    </g>
    <g id="ytick_9">
     <g id="line2d_49">
      <path d="M 77.9625 95.245646 
L 993.5125 95.245646 
" clip-path="url(#pb535d79b72)" style="fill: none; stroke-dasharray: 2.96,1.28; stroke-dashoffset: 0; stroke: #b0b0b0; stroke-opacity: 0.7; stroke-width: 0.8"/>
     </g>
     <g id="line2d_50">
      <g>
       <use xlink:href="#m05431cd017" x="77.9625" y="95.245646" style="stroke: #000000; stroke-width: 0.8"/>
      </g>
     </g>
     <g id="text_26">
      <!-- 80000000 -->
      <g transform="translate(25.2 99.045646) scale(0.1 -0.1)">
       <defs>
        <path id="NotoSans-Regular-38" d="M 1824 4634 
Q 2426 4634 2810 4352 
Q 3194 4070 3194 3539 
Q 3194 3264 3075 3059 
Q 2957 2854 2758 2697 
Q 2560 2541 2323 2419 
Q 2605 2285 2835 2115 
Q 3066 1946 3203 1722 
Q 3341 1498 3341 1184 
Q 3341 608 2934 272 
Q 2528 -64 1843 -64 
Q 1107 -64 710 259 
Q 314 582 314 1165 
Q 314 1478 445 1708 
Q 576 1939 793 2105 
Q 1011 2272 1261 2387 
Q 928 2579 694 2851 
Q 461 3123 461 3546 
Q 461 3898 640 4138 
Q 819 4378 1126 4506 
Q 1434 4634 1824 4634 
z
M 1818 4179 
Q 1466 4179 1238 4009 
Q 1011 3840 1011 3520 
Q 1011 3283 1123 3123 
Q 1235 2963 1427 2851 
Q 1619 2739 1850 2637 
Q 2182 2778 2409 2976 
Q 2637 3174 2637 3520 
Q 2637 3840 2413 4009 
Q 2189 4179 1818 4179 
z
M 864 1158 
Q 864 826 1101 605 
Q 1338 384 1830 384 
Q 2298 384 2544 605 
Q 2790 826 2790 1178 
Q 2790 1510 2528 1731 
Q 2266 1952 1830 2118 
L 1728 2157 
Q 1306 1978 1085 1744 
Q 864 1510 864 1158 
z
" transform="scale(0.015625)"/>
       </defs>
       <use xlink:href="#NotoSans-Regular-38"/>
       <use xlink:href="#NotoSans-Regular-30" transform="translate(57.199997 0)"/>
       <use xlink:href="#NotoSans-Regular-30" transform="translate(114.399994 0)"/>
       <use xlink:href="#NotoSans-Regular-30" transform="translate(171.599991 0)"/>
       <use xlink:href="#NotoSans-Regular-30" transform="translate(228.799988 0)"/>
       <use xlink:href="#NotoSans-Regular-30" transform="translate(285.999985 0)"/>
       <use xlink:href="#NotoSans-Regular-30" transform="translate(343.199982 0)"/>
       <use xlink:href="#NotoSans-Regular-30" transform="translate(400.399979 0)"/>
      </g>
     </g>
    </g>
    <g id="text_27">
     <!-- Downloads (Feb-Mar 2025) -->
     <g transform="translate(17.84 406.562095) rotate(-90) scale(0.14 -0.14)">
      <defs>
       <path id="NotoSans-Regular-44" d="M 4282 2330 
Q 4282 1171 3651 585 
Q 3021 0 1894 0 
L 621 0 
L 621 4570 
L 2029 4570 
Q 2720 4570 3225 4314 
Q 3731 4058 4006 3562 
Q 4282 3066 4282 2330 
z
M 3674 2310 
Q 3674 3226 3222 3651 
Q 2771 4077 1946 4077 
L 1197 4077 
L 1197 493 
L 1818 493 
Q 3674 493 3674 2310 
z
" transform="scale(0.015625)"/>
       <path id="NotoSans-Regular-28" d="M 256 1754 
Q 256 2534 483 3260 
Q 710 3987 1197 4570 
L 1728 4570 
Q 1280 3968 1053 3245 
Q 826 2522 826 1760 
Q 826 1018 1053 304 
Q 1280 -410 1722 -1011 
L 1197 -1011 
Q 710 -448 483 265 
Q 256 979 256 1754 
z
" transform="scale(0.015625)"/>
       <path id="NotoSans-Regular-46" d="M 1197 0 
L 621 0 
L 621 4570 
L 3174 4570 
L 3174 4064 
L 1197 4064 
L 1197 2445 
L 3053 2445 
L 3053 1939 
L 1197 1939 
L 1197 0 
z
" transform="scale(0.015625)"/>
       <path id="NotoSans-Regular-4d" d="M 2637 0 
L 1133 4006 
L 1107 4006 
Q 1126 3808 1139 3472 
Q 1152 3136 1152 2771 
L 1152 0 
L 621 0 
L 621 4570 
L 1472 4570 
L 2880 826 
L 2906 826 
L 4339 4570 
L 5184 4570 
L 5184 0 
L 4614 0 
L 4614 2810 
Q 4614 3142 4630 3468 
Q 4646 3795 4659 4000 
L 4634 4000 
L 3110 0 
L 2637 0 
z
" transform="scale(0.015625)"/>
       <path id="NotoSans-Regular-29" d="M 1664 1754 
Q 1664 979 1437 265 
Q 1210 -448 723 -1011 
L 198 -1011 
Q 640 -410 867 304 
Q 1094 1018 1094 1760 
Q 1094 2522 867 3245 
Q 640 3968 192 4570 
L 723 4570 
Q 1210 3987 1437 3260 
Q 1664 2534 1664 1754 
z
" transform="scale(0.015625)"/>
      </defs>
      <use xlink:href="#NotoSans-Regular-44"/>
      <use xlink:href="#NotoSans-Regular-6f" transform="translate(72.999985 0)"/>
      <use xlink:href="#NotoSans-Regular-77" transform="translate(133.499969 0)"/>
      <use xlink:href="#NotoSans-Regular-6e" transform="translate(212.09996 0)"/>
      <use xlink:href="#NotoSans-Regular-6c" transform="translate(273.899948 0)"/>
      <use xlink:href="#NotoSans-Regular-6f" transform="translate(299.699936 0)"/>
      <use xlink:href="#NotoSans-Regular-61" transform="translate(360.199921 0)"/>
      <use xlink:href="#NotoSans-Regular-64" transform="translate(416.299911 0)"/>
      <use xlink:href="#NotoSans-Regular-73" transform="translate(477.799896 0)"/>
      <use xlink:href="#NotoSans-Regular-20" transform="translate(525.69989 0)"/>
      <use xlink:href="#NotoSans-Regular-28" transform="translate(551.699875 0)"/>
      <use xlink:href="#NotoSans-Regular-46" transform="translate(581.69986 0)"/>
      <use xlink:href="#NotoSans-Regular-65" transform="translate(633.599854 0)"/>
      <use xlink:href="#NotoSans-Regular-62" transform="translate(689.999847 0)"/>
      <use xlink:href="#NotoSans-Regular-2d" transform="translate(751.499832 0)"/>
      <use xlink:href="#NotoSans-Regular-4d" transform="translate(783.699829 0)"/>
      <use xlink:href="#NotoSans-Regular-61" transform="translate(874.399811 0)"/>
      <use xlink:href="#NotoSans-Regular-72" transform="translate(930.499802 0)"/>
      <use xlink:href="#NotoSans-Regular-20" transform="translate(971.799789 0)"/>
      <use xlink:href="#NotoSans-Regular-32" transform="translate(997.799774 0)"/>
      <use xlink:href="#NotoSans-Regular-30" transform="translate(1054.999771 0)"/>
      <use xlink:href="#NotoSans-Regular-32" transform="translate(1112.199768 0)"/>
      <use xlink:href="#NotoSans-Regular-35" transform="translate(1169.399765 0)"/>
      <use xlink:href="#NotoSans-Regular-29" transform="translate(1226.599762 0)"/>
     </g>
    </g>
   </g>
   <g id="patch_19">
    <path d="M 77.9625 597.196854 
L 77.9625 40.002023 
" style="fill: none; stroke: #000000; stroke-width: 0.8; stroke-linejoin: miter; stroke-linecap: square"/>
   </g>
   <g id="patch_20">
    <path d="M 993.5125 597.196854 
L 993.5125 40.002023 
" style="fill: none; stroke: #000000; stroke-width: 0.8; stroke-linejoin: miter; stroke-linecap: square"/>
   </g>
   <g id="patch_21">
    <path d="M 77.9625 597.196854 
L 993.5125 597.196854 
" style="fill: none; stroke: #000000; stroke-width: 0.8; stroke-linejoin: miter; stroke-linecap: square"/>
   </g>
   <g id="patch_22">
    <path d="M 77.9625 40.002023 
L 993.5125 40.002023 
" style="fill: none; stroke: #000000; stroke-width: 0.8; stroke-linejoin: miter; stroke-linecap: square"/>
   </g>
   <g id="text_28">
    <!-- 84,575,829 -->
    <g transform="translate(143.249755 58.321875) rotate(-90) scale(0.1 -0.1)">
     <defs>
      <path id="NotoSans-Regular-2c" d="M 1229 672 
Q 1146 333 989 -73 
Q 832 -480 678 -826 
L 262 -826 
Q 352 -461 445 -25 
Q 538 410 582 742 
L 1184 742 
L 1229 672 
z
" transform="scale(0.015625)"/>
      <path id="NotoSans-Regular-39" d="M 3328 2618 
Q 3328 2125 3241 1648 
Q 3155 1171 2928 784 
Q 2701 397 2288 166 
Q 1875 -64 1229 -64 
Q 1101 -64 931 -48 
Q 762 -32 653 0 
L 653 480 
Q 902 397 1216 397 
Q 1664 397 1955 544 
Q 2246 691 2419 944 
Q 2592 1197 2669 1533 
Q 2746 1869 2758 2240 
L 2720 2240 
Q 2579 2022 2313 1865 
Q 2048 1709 1632 1709 
Q 1043 1709 681 2070 
Q 320 2432 320 3091 
Q 320 3571 502 3916 
Q 685 4262 1011 4448 
Q 1338 4634 1779 4634 
Q 2214 4634 2566 4413 
Q 2918 4192 3123 3747 
Q 3328 3302 3328 2618 
z
M 1779 4160 
Q 1382 4160 1129 3897 
Q 877 3635 877 3098 
Q 877 2656 1091 2403 
Q 1306 2150 1754 2150 
Q 2061 2150 2285 2275 
Q 2509 2400 2633 2592 
Q 2758 2784 2758 2989 
Q 2758 3264 2649 3533 
Q 2541 3802 2323 3981 
Q 2106 4160 1779 4160 
z
" transform="scale(0.015625)"/>
     </defs>
     <use xlink:href="#NotoSans-Regular-38"/>
     <use xlink:href="#NotoSans-Regular-34" transform="translate(57.199997 0)"/>
     <use xlink:href="#NotoSans-Regular-2c" transform="translate(114.399994 0)"/>
     <use xlink:href="#NotoSans-Regular-35" transform="translate(141.199982 0)"/>
     <use xlink:href="#NotoSans-Regular-37" transform="translate(198.399979 0)"/>
     <use xlink:href="#NotoSans-Regular-35" transform="translate(255.599976 0)"/>
     <use xlink:href="#NotoSans-Regular-2c" transform="translate(312.799973 0)"/>
     <use xlink:href="#NotoSans-Regular-38" transform="translate(339.59996 0)"/>
     <use xlink:href="#NotoSans-Regular-32" transform="translate(396.799957 0)"/>
     <use xlink:href="#NotoSans-Regular-39" transform="translate(453.999954 0)"/>
    </g>
   </g>
   <g id="text_29">
    <!-- 76,432,591 -->
    <g transform="translate(195.928121 109.415727) rotate(-90) scale(0.1 -0.1)">
     <use xlink:href="#NotoSans-Regular-37"/>
     <use xlink:href="#NotoSans-Regular-36" transform="translate(57.199997 0)"/>
     <use xlink:href="#NotoSans-Regular-2c" transform="translate(114.399994 0)"/>
     <use xlink:href="#NotoSans-Regular-34" transform="translate(141.199982 0)"/>
     <use xlink:href="#NotoSans-Regular-33" transform="translate(198.399979 0)"/>
     <use xlink:href="#NotoSans-Regular-32" transform="translate(255.599976 0)"/>
     <use xlink:href="#NotoSans-Regular-2c" transform="translate(312.799973 0)"/>
     <use xlink:href="#NotoSans-Regular-35" transform="translate(339.59996 0)"/>
     <use xlink:href="#NotoSans-Regular-39" transform="translate(396.799957 0)"/>
     <use xlink:href="#NotoSans-Regular-31" transform="translate(453.999954 0)"/>
    </g>
   </g>
   <g id="text_30">
    <!-- 28,539,295 -->
    <g transform="translate(248.606487 409.916949) rotate(-90) scale(0.1 -0.1)">
     <use xlink:href="#NotoSans-Regular-32"/>
     <use xlink:href="#NotoSans-Regular-38" transform="translate(57.199997 0)"/>
     <use xlink:href="#NotoSans-Regular-2c" transform="translate(114.399994 0)"/>
     <use xlink:href="#NotoSans-Regular-35" transform="translate(141.199982 0)"/>
     <use xlink:href="#NotoSans-Regular-33" transform="translate(198.399979 0)"/>
     <use xlink:href="#NotoSans-Regular-39" transform="translate(255.599976 0)"/>
     <use xlink:href="#NotoSans-Regular-2c" transform="translate(312.799973 0)"/>
     <use xlink:href="#NotoSans-Regular-32" transform="translate(339.59996 0)"/>
     <use xlink:href="#NotoSans-Regular-39" transform="translate(396.799957 0)"/>
     <use xlink:href="#NotoSans-Regular-35" transform="translate(453.999954 0)"/>
    </g>
   </g>
   <g id="text_31">
    <!-- 11,007,327 -->
    <g transform="translate(301.284853 519.919356) rotate(-90) scale(0.1 -0.1)">
     <use xlink:href="#NotoSans-Regular-31"/>
     <use xlink:href="#NotoSans-Regular-31" transform="translate(57.199997 0)"/>
     <use xlink:href="#NotoSans-Regular-2c" transform="translate(114.399994 0)"/>
     <use xlink:href="#NotoSans-Regular-30" transform="translate(141.199982 0)"/>
     <use xlink:href="#NotoSans-Regular-30" transform="translate(198.399979 0)"/>
     <use xlink:href="#NotoSans-Regular-37" transform="translate(255.599976 0)"/>
     <use xlink:href="#NotoSans-Regular-2c" transform="translate(312.799973 0)"/>
     <use xlink:href="#NotoSans-Regular-33" transform="translate(339.59996 0)"/>
     <use xlink:href="#NotoSans-Regular-32" transform="translate(396.799957 0)"/>
     <use xlink:href="#NotoSans-Regular-37" transform="translate(453.999954 0)"/>
    </g>
   </g>
   <g id="text_32">
    <!-- 3,498,918 -->
    <g transform="translate(353.963219 567.030043) rotate(-90) scale(0.1 -0.1)">
     <use xlink:href="#NotoSans-Regular-33"/>
     <use xlink:href="#NotoSans-Regular-2c" transform="translate(57.199997 0)"/>
     <use xlink:href="#NotoSans-Regular-34" transform="translate(83.999985 0)"/>
     <use xlink:href="#NotoSans-Regular-39" transform="translate(141.199982 0)"/>
     <use xlink:href="#NotoSans-Regular-38" transform="translate(198.399979 0)"/>
     <use xlink:href="#NotoSans-Regular-2c" transform="translate(255.599976 0)"/>
     <use xlink:href="#NotoSans-Regular-39" transform="translate(282.399963 0)"/>
     <use xlink:href="#NotoSans-Regular-31" transform="translate(339.59996 0)"/>
     <use xlink:href="#NotoSans-Regular-38" transform="translate(396.799957 0)"/>
    </g>
   </g>
   <g id="text_33">
    <!-- 2,819,520 -->
    <g transform="translate(406.641585 571.292851) rotate(-90) scale(0.1 -0.1)">
     <use xlink:href="#NotoSans-Regular-32"/>
     <use xlink:href="#NotoSans-Regular-2c" transform="translate(57.199997 0)"/>
     <use xlink:href="#NotoSans-Regular-38" transform="translate(83.999985 0)"/>
     <use xlink:href="#NotoSans-Regular-31" transform="translate(141.199982 0)"/>
     <use xlink:href="#NotoSans-Regular-39" transform="translate(198.399979 0)"/>
     <use xlink:href="#NotoSans-Regular-2c" transform="translate(255.599976 0)"/>
     <use xlink:href="#NotoSans-Regular-35" transform="translate(282.399963 0)"/>
     <use xlink:href="#NotoSans-Regular-32" transform="translate(339.59996 0)"/>
     <use xlink:href="#NotoSans-Regular-30" transform="translate(396.799957 0)"/>
    </g>
   </g>
   <g id="text_34">
    <!-- 2,500,000 -->
    <g transform="translate(459.319951 573.297644) rotate(-90) scale(0.1 -0.1)">
     <use xlink:href="#NotoSans-Regular-32"/>
     <use xlink:href="#NotoSans-Regular-2c" transform="translate(57.199997 0)"/>
     <use xlink:href="#NotoSans-Regular-35" transform="translate(83.999985 0)"/>
     <use xlink:href="#NotoSans-Regular-30" transform="translate(141.199982 0)"/>
     <use xlink:href="#NotoSans-Regular-30" transform="translate(198.399979 0)"/>
     <use xlink:href="#NotoSans-Regular-2c" transform="translate(255.599976 0)"/>
     <use xlink:href="#NotoSans-Regular-30" transform="translate(282.399963 0)"/>
     <use xlink:href="#NotoSans-Regular-30" transform="translate(339.59996 0)"/>
     <use xlink:href="#NotoSans-Regular-30" transform="translate(396.799957 0)"/>
    </g>
   </g>
   <g id="text_35">
    <!-- 1,800,000 -->
    <g transform="translate(511.998317 577.689717) rotate(-90) scale(0.1 -0.1)">
     <use xlink:href="#NotoSans-Regular-31"/>
     <use xlink:href="#NotoSans-Regular-2c" transform="translate(57.199997 0)"/>
     <use xlink:href="#NotoSans-Regular-38" transform="translate(83.999985 0)"/>
     <use xlink:href="#NotoSans-Regular-30" transform="translate(141.199982 0)"/>
     <use xlink:href="#NotoSans-Regular-30" transform="translate(198.399979 0)"/>
     <use xlink:href="#NotoSans-Regular-2c" transform="translate(255.599976 0)"/>
     <use xlink:href="#NotoSans-Regular-30" transform="translate(282.399963 0)"/>
     <use xlink:href="#NotoSans-Regular-30" transform="translate(339.59996 0)"/>
     <use xlink:href="#NotoSans-Regular-30" transform="translate(396.799957 0)"/>
    </g>
   </g>
   <g id="text_36">
    <!-- 1,709,938 -->
    <g transform="translate(564.676683 578.254801) rotate(-90) scale(0.1 -0.1)">
     <use xlink:href="#NotoSans-Regular-31"/>
     <use xlink:href="#NotoSans-Regular-2c" transform="translate(57.199997 0)"/>
     <use xlink:href="#NotoSans-Regular-37" transform="translate(83.999985 0)"/>
     <use xlink:href="#NotoSans-Regular-30" transform="translate(141.199982 0)"/>
     <use xlink:href="#NotoSans-Regular-39" transform="translate(198.399979 0)"/>
     <use xlink:href="#NotoSans-Regular-2c" transform="translate(255.599976 0)"/>
     <use xlink:href="#NotoSans-Regular-39" transform="translate(282.399963 0)"/>
     <use xlink:href="#NotoSans-Regular-33" transform="translate(339.59996 0)"/>
     <use xlink:href="#NotoSans-Regular-38" transform="translate(396.799957 0)"/>
    </g>
   </g>
   <g id="text_37">
    <!-- 1,200,000 -->
    <g transform="translate(617.355049 581.454351) rotate(-90) scale(0.1 -0.1)">
     <use xlink:href="#NotoSans-Regular-31"/>
     <use xlink:href="#NotoSans-Regular-2c" transform="translate(57.199997 0)"/>
     <use xlink:href="#NotoSans-Regular-32" transform="translate(83.999985 0)"/>
     <use xlink:href="#NotoSans-Regular-30" transform="translate(141.199982 0)"/>
     <use xlink:href="#NotoSans-Regular-30" transform="translate(198.399979 0)"/>
     <use xlink:href="#NotoSans-Regular-2c" transform="translate(255.599976 0)"/>
     <use xlink:href="#NotoSans-Regular-30" transform="translate(282.399963 0)"/>
     <use xlink:href="#NotoSans-Regular-30" transform="translate(339.59996 0)"/>
     <use xlink:href="#NotoSans-Regular-30" transform="translate(396.799957 0)"/>
    </g>
   </g>
   <g id="text_38">
    <!-- 1,128,139 -->
    <g transform="translate(670.033415 581.905235) rotate(-90) scale(0.1 -0.1)">
     <use xlink:href="#NotoSans-Regular-31"/>
     <use xlink:href="#NotoSans-Regular-2c" transform="translate(57.199997 0)"/>
     <use xlink:href="#NotoSans-Regular-31" transform="translate(83.999985 0)"/>
     <use xlink:href="#NotoSans-Regular-32" transform="translate(141.199982 0)"/>
     <use xlink:href="#NotoSans-Regular-38" transform="translate(198.399979 0)"/>
     <use xlink:href="#NotoSans-Regular-2c" transform="translate(255.599976 0)"/>
     <use xlink:href="#NotoSans-Regular-31" transform="translate(282.399963 0)"/>
     <use xlink:href="#NotoSans-Regular-33" transform="translate(339.59996 0)"/>
     <use xlink:href="#NotoSans-Regular-39" transform="translate(396.799957 0)"/>
    </g>
   </g>
   <g id="text_39">
    <!-- 1,124,686 -->
    <g transform="translate(722.711781 581.9269) rotate(-90) scale(0.1 -0.1)">
     <use xlink:href="#NotoSans-Regular-31"/>
     <use xlink:href="#NotoSans-Regular-2c" transform="translate(57.199997 0)"/>
     <use xlink:href="#NotoSans-Regular-31" transform="translate(83.999985 0)"/>
     <use xlink:href="#NotoSans-Regular-32" transform="translate(141.199982 0)"/>
     <use xlink:href="#NotoSans-Regular-34" transform="translate(198.399979 0)"/>
     <use xlink:href="#NotoSans-Regular-2c" transform="translate(255.599976 0)"/>
     <use xlink:href="#NotoSans-Regular-36" transform="translate(282.399963 0)"/>
     <use xlink:href="#NotoSans-Regular-38" transform="translate(339.59996 0)"/>
     <use xlink:href="#NotoSans-Regular-36" transform="translate(396.799957 0)"/>
    </g>
   </g>
   <g id="text_40">
    <!-- 894,666 -->
    <g transform="translate(775.390147 583.370136) rotate(-90) scale(0.1 -0.1)">
     <use xlink:href="#NotoSans-Regular-38"/>
     <use xlink:href="#NotoSans-Regular-39" transform="translate(57.199997 0)"/>
     <use xlink:href="#NotoSans-Regular-34" transform="translate(114.399994 0)"/>
     <use xlink:href="#NotoSans-Regular-2c" transform="translate(171.599991 0)"/>
     <use xlink:href="#NotoSans-Regular-36" transform="translate(198.399979 0)"/>
     <use xlink:href="#NotoSans-Regular-36" transform="translate(255.599976 0)"/>
     <use xlink:href="#NotoSans-Regular-36" transform="translate(312.799973 0)"/>
    </g>
   </g>
   <g id="text_41">
    <!-- 839,585 -->
    <g transform="translate(828.068513 583.715735) rotate(-90) scale(0.1 -0.1)">
     <use xlink:href="#NotoSans-Regular-38"/>
     <use xlink:href="#NotoSans-Regular-33" transform="translate(57.199997 0)"/>
     <use xlink:href="#NotoSans-Regular-39" transform="translate(114.399994 0)"/>
     <use xlink:href="#NotoSans-Regular-2c" transform="translate(171.599991 0)"/>
     <use xlink:href="#NotoSans-Regular-35" transform="translate(198.399979 0)"/>
     <use xlink:href="#NotoSans-Regular-38" transform="translate(255.599976 0)"/>
     <use xlink:href="#NotoSans-Regular-35" transform="translate(312.799973 0)"/>
    </g>
   </g>
   <g id="text_42">
    <!-- 145,000 -->
    <g transform="translate(880.746879 588.073833) rotate(-90) scale(0.1 -0.1)">
     <use xlink:href="#NotoSans-Regular-31"/>
     <use xlink:href="#NotoSans-Regular-34" transform="translate(57.199997 0)"/>
     <use xlink:href="#NotoSans-Regular-35" transform="translate(114.399994 0)"/>
     <use xlink:href="#NotoSans-Regular-2c" transform="translate(171.599991 0)"/>
     <use xlink:href="#NotoSans-Regular-30" transform="translate(198.399979 0)"/>
     <use xlink:href="#NotoSans-Regular-30" transform="translate(255.599976 0)"/>
     <use xlink:href="#NotoSans-Regular-30" transform="translate(312.799973 0)"/>
    </g>
   </g>
   <g id="text_43">
    <!-- 24,270 -->
    <g transform="translate(933.425245 588.83134) rotate(-90) scale(0.1 -0.1)">
     <use xlink:href="#NotoSans-Regular-32"/>
     <use xlink:href="#NotoSans-Regular-34" transform="translate(57.199997 0)"/>
     <use xlink:href="#NotoSans-Regular-2c" transform="translate(114.399994 0)"/>
     <use xlink:href="#NotoSans-Regular-32" transform="translate(141.199982 0)"/>
     <use xlink:href="#NotoSans-Regular-37" transform="translate(198.399979 0)"/>
     <use xlink:href="#NotoSans-Regular-30" transform="translate(255.599976 0)"/>
    </g>
   </g>
   <g id="text_44">
    <!-- Top npm Packages by Downloads (Feb-Mar 2025) -->
    <g transform="translate(351.145 34.002023) scale(0.16 -0.16)">
     <defs>
      <path id="NotoSans-Regular-54" d="M 2067 0 
L 1491 0 
L 1491 4064 
L 64 4064 
L 64 4570 
L 3488 4570 
L 3488 4064 
L 2067 4064 
L 2067 0 
z
" transform="scale(0.015625)"/>
      <path id="NotoSans-Regular-79" d="M 6 3430 
L 608 3430 
L 1350 1478 
Q 1446 1222 1523 988 
Q 1600 755 1638 544 
L 1664 544 
Q 1702 704 1785 963 
Q 1869 1222 1958 1485 
L 2656 3430 
L 3264 3430 
L 1786 -474 
Q 1606 -960 1321 -1248 
Q 1037 -1536 538 -1536 
Q 384 -1536 269 -1520 
Q 154 -1504 70 -1485 
L 70 -1037 
Q 141 -1050 240 -1062 
Q 339 -1075 448 -1075 
Q 742 -1075 924 -908 
Q 1107 -742 1210 -467 
L 1389 -13 
L 6 3430 
z
" transform="scale(0.015625)"/>
     </defs>
     <use xlink:href="#NotoSans-Regular-54"/>
     <use xlink:href="#NotoSans-Regular-6f" transform="translate(55.599991 0)"/>
     <use xlink:href="#NotoSans-Regular-70" transform="translate(116.099976 0)"/>
     <use xlink:href="#NotoSans-Regular-20" transform="translate(177.59996 0)"/>
     <use xlink:href="#NotoSans-Regular-6e" transform="translate(203.599945 0)"/>
     <use xlink:href="#NotoSans-Regular-70" transform="translate(265.399933 0)"/>
     <use xlink:href="#NotoSans-Regular-6d" transform="translate(326.899918 0)"/>
     <use xlink:href="#NotoSans-Regular-20" transform="translate(420.399902 0)"/>
     <use xlink:href="#NotoSans-Regular-50" transform="translate(446.399887 0)"/>
     <use xlink:href="#NotoSans-Regular-61" transform="translate(506.899872 0)"/>
     <use xlink:href="#NotoSans-Regular-63" transform="translate(562.999863 0)"/>
     <use xlink:href="#NotoSans-Regular-6b" transform="translate(610.999847 0)"/>
     <use xlink:href="#NotoSans-Regular-61" transform="translate(664.399841 0)"/>
     <use xlink:href="#NotoSans-Regular-67" transform="translate(720.499832 0)"/>
     <use xlink:href="#NotoSans-Regular-65" transform="translate(781.999817 0)"/>
     <use xlink:href="#NotoSans-Regular-73" transform="translate(838.399811 0)"/>
     <use xlink:href="#NotoSans-Regular-20" transform="translate(886.299805 0)"/>
     <use xlink:href="#NotoSans-Regular-62" transform="translate(912.299789 0)"/>
     <use xlink:href="#NotoSans-Regular-79" transform="translate(973.799774 0)"/>
     <use xlink:href="#NotoSans-Regular-20" transform="translate(1024.799759 0)"/>
     <use xlink:href="#NotoSans-Regular-44" transform="translate(1050.799744 0)"/>
     <use xlink:href="#NotoSans-Regular-6f" transform="translate(1123.799728 0)"/>
     <use xlink:href="#NotoSans-Regular-77" transform="translate(1184.299713 0)"/>
     <use xlink:href="#NotoSans-Regular-6e" transform="translate(1262.899704 0)"/>
     <use xlink:href="#NotoSans-Regular-6c" transform="translate(1324.699692 0)"/>
     <use xlink:href="#NotoSans-Regular-6f" transform="translate(1350.49968 0)"/>
     <use xlink:href="#NotoSans-Regular-61" transform="translate(1410.999664 0)"/>
     <use xlink:href="#NotoSans-Regular-64" transform="translate(1467.099655 0)"/>
     <use xlink:href="#NotoSans-Regular-73" transform="translate(1528.59964 0)"/>
     <use xlink:href="#NotoSans-Regular-20" transform="translate(1576.499634 0)"/>
     <use xlink:href="#NotoSans-Regular-28" transform="translate(1602.499619 0)"/>
     <use xlink:href="#NotoSans-Regular-46" transform="translate(1632.499603 0)"/>
     <use xlink:href="#NotoSans-Regular-65" transform="translate(1684.399597 0)"/>
     <use xlink:href="#NotoSans-Regular-62" transform="translate(1740.799591 0)"/>
     <use xlink:href="#NotoSans-Regular-2d" transform="translate(1802.299576 0)"/>
     <use xlink:href="#NotoSans-Regular-4d" transform="translate(1834.499573 0)"/>
     <use xlink:href="#NotoSans-Regular-61" transform="translate(1925.199554 0)"/>
     <use xlink:href="#NotoSans-Regular-72" transform="translate(1981.299545 0)"/>
     <use xlink:href="#NotoSans-Regular-20" transform="translate(2022.599533 0)"/>
     <use xlink:href="#NotoSans-Regular-32" transform="translate(2048.599518 0)"/>
     <use xlink:href="#NotoSans-Regular-30" transform="translate(2105.799515 0)"/>
     <use xlink:href="#NotoSans-Regular-32" transform="translate(2162.999512 0)"/>
     <use xlink:href="#NotoSans-Regular-35" transform="translate(2220.199509 0)"/>
     <use xlink:href="#NotoSans-Regular-29" transform="translate(2277.399506 0)"/>
    </g>
   </g>
  </g>
 </g>
 <defs>
  <clipPath id="pb535d79b72">
   <rect x="77.9625" y="40.002023" width="915.55" height="557.194831"/>
  </clipPath>
 </defs>
</svg>
