<?xml version="1.0" encoding="UTF-8"?>
<svg width="423px" height="200px" viewBox="0 0 423 200" version="1.1" xmlns="http://www.w3.org/2000/svg" xmlns:xlink="http://www.w3.org/1999/xlink">
    <title>Group 2</title>
    <defs>
        <polygon id="path-1" points="0 18.4487519 165.077836 18.4487519 165.077836 0 0 0"></polygon>
        <polygon id="path-3" points="0 18.4487519 165.077836 18.4487519 165.077836 0 0 0"></polygon>
        <linearGradient x1="-4.17388768%" y1="58.6097399%" x2="102.519144%" y2="36.8396901%" id="linearGradient-5">
            <stop stop-color="#FAAF40" offset="0%"></stop>
            <stop stop-color="#F6931E" offset="100%"></stop>
        </linearGradient>
        <linearGradient x1="0.50440696%" y1="48.0459295%" x2="99.1069563%" y2="51.0812416%" id="linearGradient-6">
            <stop stop-color="#FAAF40" offset="0%"></stop>
            <stop stop-color="#F6931E" offset="100%"></stop>
        </linearGradient>
        <linearGradient x1="50.0002443%" y1="118.571691%" x2="50.0002405%" y2="320.712502%" id="linearGradient-7">
            <stop stop-color="#80B43A" offset="0%"></stop>
            <stop stop-color="#8AC43F" offset="100%"></stop>
        </linearGradient>
        <linearGradient x1="50.000352%" y1="21.1569197%" x2="50.0003489%" y2="93.0769701%" id="linearGradient-8">
            <stop stop-color="#80B43A" offset="0%"></stop>
            <stop stop-color="#8AC43F" offset="100%"></stop>
        </linearGradient>
        <linearGradient x1="49.9999831%" y1="99.2184989%" x2="49.9999771%" y2="0.316335891%" id="linearGradient-9">
            <stop stop-color="#FAAF40" offset="0%"></stop>
            <stop stop-color="#F6931E" offset="100%"></stop>
        </linearGradient>
    </defs>
    <g id="Page-1" stroke="none" stroke-width="1" fill="none" fill-rule="evenodd">
        <g id="Group">
            <g id="g270" transform="translate(319.889678, 190.775624) scale(-1, 1) rotate(-180.000000) translate(-319.889678, -190.775624) translate(237.350760, 181.551248)">
                <g id="g282-Clipped" transform="translate(-0.000000, 0.000000)">
                    <mask id="mask-2" fill="white">
                        <use xlink:href="#path-1"></use>
                    </mask>
                    <g id="path274"></g>
                    <g id="g282" opacity="0.300003" mask="url(#mask-2)">
                        <g transform="translate(0.000584, -0.000199)" id="g280">
                            <g transform="translate(-0.000000, 0.000000)">
                                <path d="M82.5379438,0 C36.9535468,0 0,4.13076371 0,9.22397742 C0,14.3181875 36.9535468,18.4489512 82.5379438,18.4489512 C128.12299,18.4489512 165.077186,14.3181875 165.077186,9.22397742 C165.077186,4.13076371 128.12299,0 82.5379438,0 Z" id="path278" fill="#39B54A"></path>
                            </g>
                        </g>
                    </g>
                </g>
            </g>
            <g id="g270" transform="translate(103.831922, 190.775624) scale(-1, 1) rotate(-180.000000) translate(-103.831922, -190.775624) translate(21.293004, 181.551248)">
                <g id="g282-Clipped" transform="translate(-0.000000, 0.000000)">
                    <mask id="mask-4" fill="white">
                        <use xlink:href="#path-3"></use>
                    </mask>
                    <g id="path274"></g>
                    <g id="g282" opacity="0.300003" mask="url(#mask-4)">
                        <g transform="translate(0.000584, -0.000199)" id="g280">
                            <g transform="translate(-0.000000, 0.000000)">
                                <path d="M82.5379438,0 C36.9535468,0 0,4.13076371 0,9.22397742 C0,14.3181875 36.9535468,18.4489512 82.5379438,18.4489512 C128.12299,18.4489512 165.077186,14.3181875 165.077186,9.22397742 C165.077186,4.13076371 128.12299,0 82.5379438,0 Z" id="path278" fill="#F15A29"></path>
                            </g>
                        </g>
                    </g>
                </g>
            </g>
            <g id="g88" transform="translate(30.411979, 85.880443) scale(-1, 1) rotate(-180.000000) translate(-30.411979, -85.880443) translate(0.000000, 62.090082)" fill="url(#linearGradient-5)" fill-rule="nonzero">
                <g id="g90" transform="translate(-0.000000, 0.000000)">
                    <g id="g96" transform="translate(0.000000, 0.000000)">
                        <g id="g98" transform="translate(0.000000, 0.000000)">
                            <path d="M8.97301452,47.5703638 C6.04563431,47.2667686 8.14438855,43.4637365 5.72583647,42.784693 L5.72583647,42.784693 C4.83441618,42.533531 4.4343452,42.9588233 3.99025346,43.3841156 L3.99025346,43.3841156 C3.54292491,43.8113498 3.05092823,44.2392314 1.96853555,43.9790069 L1.96853555,43.9790069 C-2.02116907,43.0222611 0.0186750432,22.8004876 8.40786571,11.7454778 L8.40786571,11.7454778 C16.9783183,0.450958013 35.8457434,-1.5298553 51.2264658,0.945514017 L51.2264658,0.945514017 C63.1166012,2.86030022 64.9402257,13.6414916 51.1099403,12.6879825 L51.1099403,12.6879825 C37.2796548,11.7377099 27.3167221,14.1354003 21.2185528,25.9646103 L21.2185528,25.9646103 C14.4535985,39.0845855 21.0793695,45.4160675 17.8839806,46.7107168 L17.8839806,46.7107168 C14.6879443,48.0021294 15.9949723,44.2437627 13.0242187,43.8404794 L13.0242187,43.8404794 C11.849253,43.6812376 11.4310558,44.6917113 11.0018534,45.702185 L11.0018534,45.702185 C10.6030772,46.641453 10.1958852,47.580721 9.16333955,47.580721 L9.16333955,47.580721 C9.10248733,47.580721 9.03839829,47.5774844 8.97301452,47.5703638" id="path106"></path>
                        </g>
                    </g>
                </g>
            </g>
            <g id="g108" transform="translate(177.267058, 103.784534) scale(-1, 1) rotate(-180.000000) translate(-177.267058, -103.784534) translate(151.495839, 88.289251)" fill="url(#linearGradient-6)" fill-rule="nonzero">
                <g id="g110" transform="translate(-0.000000, 0.000000)">
                    <g id="g116" transform="translate(-0.000000, 0.000000)">
                        <g id="g118" transform="translate(-0.000000, 0.000000)">
                            <path d="M5.42769661,25.4941324 C-2.73815346,21.3900944 -1.59037701,13.1729557 8.19841473,17.0251845 L8.19841473,17.0251845 C17.9852644,20.8774133 25.7426277,21.4205186 32.8610428,14.2578718 L32.8610428,14.2578718 C40.756942,6.31196218 37.4113647,0.217400953 40.018947,0.0121990514 L40.018947,0.0121990514 C42.6278241,-0.192355526 40.8236205,2.22993317 42.8796488,3.19962544 L42.8796488,3.19962544 C43.6907959,3.58219429 44.2248712,2.95040547 44.7647729,2.31926397 L44.7647729,2.31926397 C45.2988482,1.69394839 45.8406919,1.06863282 46.6647863,1.42789798 L46.6647863,1.42789798 C48.7117514,2.31667467 46.3242728,4.58813673 47.9187305,5.63421331 L47.9187305,5.63421331 C48.4955318,6.01225088 48.878124,5.80963828 49.2892002,5.60573102 L49.2892002,5.60573102 C49.7158131,5.39535052 50.1728521,5.18367538 50.9095524,5.62774006 L50.9095524,5.62774006 C53.5773396,7.2331051 47.4772282,21.3972149 38.8769969,27.475593 L38.8769969,27.475593 C35.3611627,29.9613195 30.9940449,30.9905657 26.3427342,30.9905657 L26.3427342,30.9905657 C19.3712708,30.9905657 11.7621538,28.6789695 5.42769661,25.4941324" id="path126"></path>
                        </g>
                    </g>
                </g>
            </g>
            <g id="g136" transform="translate(245.205712, 113.145334) scale(-1, 1) rotate(-180.000000) translate(-245.205712, -113.145334) translate(215.036361, 90.476206)" fill="#8CC53F" fill-rule="nonzero">
                <path d="M48.640094,28.4899822 C44.783099,26.7091922 40.1045991,17.451803 34.2724964,19.5989787 C28.4397463,21.7448598 16.6182315,41.321898 14.647008,43.1926662 C12.5139434,45.2168502 10.846981,45.9017197 9.85392456,44.8465805 C8.86151548,43.7894995 9.55160555,42.1550048 9.55160555,42.1550048 C9.55160555,42.1550048 6.54718902,45.5346866 4.25034138,43.355792 C2.07843501,41.2966524 4.2445151,38.5908355 4.2445151,38.5908355 C4.2445151,38.5908355 1.39093439,38.675635 0.076138014,37.0327252 C-0.922097345,35.784036 8.13711511,26.5842586 13.0855659,19.5685544 C17.5582041,13.2273625 28.8993748,-3.1382983 40.7875681,0.529442956 C52.6751141,4.19783153 61.7349739,12.101665 60.1605846,18.0945963 C58.5887847,24.0875276 53.958837,30.9478738 48.640094,28.4899822" id="path138"></path>
            </g>
            <g id="g140" transform="translate(392.831096, 113.145334) scale(-1, 1) rotate(-180.000000) translate(-392.831096, -113.145334) translate(362.662191, 90.476206)" fill="#8CC53F" fill-rule="nonzero">
                <path d="M11.6983667,28.4899822 C15.5553616,26.7091922 20.2338616,17.451803 26.0666117,19.5989787 C31.898067,21.7448598 43.7202292,41.321898 45.6908053,43.1926662 C47.8251646,45.2168502 49.4914797,45.9017197 50.4845361,44.8465805 C51.4769452,43.7894995 50.7862077,42.1550048 50.7862077,42.1550048 C50.7862077,42.1550048 53.7906243,45.5346866 56.0874719,43.355792 C58.2593783,41.2966524 56.0926508,38.5908355 56.0926508,38.5908355 C56.0926508,38.5908355 58.9475263,38.675635 60.2616753,37.0327252 C61.2599106,35.784036 52.2000508,26.5842586 47.2528948,19.5685544 C42.7789619,13.2273625 31.4384385,-3.1382983 19.5508925,0.529442956 C7.6626992,4.19783153 -1.39521853,12.101665 0.177876104,18.0945963 C1.75032337,24.0875276 6.3789763,30.9478738 11.6983667,28.4899822" id="path142"></path>
            </g>
            <g id="g188" transform="translate(278.405195, 186.050388) scale(-1, 1) rotate(-180.000000) translate(-278.405195, -186.050388) translate(261.222298, 177.791206)" fill="#B6D351">
                <path d="M0,2.77599247 C6.18103191,3.05757868 11.8215148,6.50846618 10.6679121,2.84460888 C9.51236729,-0.816011801 12.8093924,-0.78494022 16.1582066,2.02962719 C17.5681655,3.21423123 31.1187897,2.90481007 32.9961454,1.72926857 C36.8123565,-0.662595868 31.807585,10.7989337 28.293693,15.3373266 C24.7772115,19.8776614 14.3520609,10.3904719 0,2.77599247" id="path190"></path>
            </g>
            <polygon id="path192" fill="#B6D351" transform="translate(268.198940, 191.536879) scale(-1, 1) rotate(-180.000000) translate(-268.198940, -191.536879) " points="275.175582 189.810465 261.222298 189.810465 261.222298 193.263294 275.175582 193.263294"></polygon>
            <g id="g194" transform="translate(359.588685, 186.241742) scale(-1, 1) rotate(-180.000000) translate(-359.588685, -186.241742) translate(343.738950, 177.621528)" fill="#B6D351">
                <path d="M31.6994691,8.12705993 C25.5190846,8.40799881 20.9448103,4.92733438 22.0971183,1.2641244 C20.2003416,7.27582807 24.6088908,-3.86203921 18.2071077,1.51463902 C18.0116038,1.68035412 4.87399782,3.94404829 1.36981624,1.74832321 C-2.44639481,-0.643541235 2.5570819,10.817341 6.07356339,15.3563812 C9.5881028,19.8960687 17.3474082,15.7415393 31.6994691,8.12705993" id="path196"></path>
            </g>
            <g id="g198" transform="translate(369.059618, 188.128003) scale(-1, 1) rotate(-180.000000) translate(-369.059618, -188.128003) translate(361.061759, 184.790074)" fill="#B6D351">
                <polygon id="path200" points="15.9957182 0 0 0 0 6.67585872 15.4629376 4.01017597"></polygon>
            </g>
            <g id="g202" transform="translate(321.420529, 168.307312) scale(-1, 1) rotate(-180.000000) translate(-321.420529, -168.307312) translate(260.105193, 141.871546)" fill="url(#linearGradient-7)" fill-rule="nonzero">
                <g id="g204" transform="translate(-0.000000, 0.000000)">
                    <g id="g210" transform="translate(-0.000000, 0.000000)">
                        <g id="g212" transform="translate(-0.000000, 0.000000)">
                            <path d="M8.33068204,49.8239281 C18.5156606,40.4836812 27.5917045,19.1763443 4.71191702,7.49537168 L4.71191702,7.49537168 C-1.29303186,4.43417359 -1.10011738,2.23844851 2.7173884,2.67668727 L2.7173884,2.67668727 C6.94597035,3.1615334 14.3136206,10.4225736 15.4982968,9.60823922 L15.4982968,9.60823922 C16.5379634,8.89359284 13.8203291,6.70239903 13.1470705,2.66568275 L13.1470705,2.66568275 C12.7534732,0.308126515 13.8287449,0.578060879 15.7015691,1.90572366 L15.7015691,1.90572366 C18.327925,3.76483994 22.4671707,9.37714433 24.6591454,9.45417596 L24.6591454,9.45417596 C25.8859002,9.49689938 28.3724255,7.18595052 30.7391885,4.8762963 L30.7391885,4.8762963 C34.3955006,1.30759572 37.7669726,-2.26045755 35.7776229,2.84175505 L35.7776229,2.84175505 C28.2792051,22.0828318 32.0539849,30.7336779 57.9161785,30.4242568 L57.9161785,30.4242568 C58.4204751,30.3951272 58.9564925,30.380886 59.5572463,30.3951272 L59.5572463,30.3951272 C60.1605896,30.380886 60.6959597,30.3951272 61.2002563,30.4242568 L61.2002563,30.4242568 C87.0630973,30.7336779 90.8365823,22.0828318 83.3375172,2.84175505 L83.3375172,2.84175505 C81.3481675,-2.26045755 84.7196394,1.30759572 88.3753042,4.8762963 L88.3753042,4.8762963 C90.7420672,7.18595052 93.2279451,9.49689938 94.4553473,9.45417596 L94.4553473,9.45417596 C96.6492641,9.37714433 100.787862,3.23209179 103.414866,1.37168085 L103.414866,1.37168085 C104.68111,0.473841616 105.22878,0.671275623 105.496788,0.869356954 L105.496788,0.869356954 C105.648919,0.980696787 105.711713,1.09203662 105.764797,1.00658977 L105.764797,1.00658977 C104.809935,5.10156527 102.126611,11.0828447 103.084063,11.7405265 L103.084063,11.7405265 C104.268739,12.5555082 116.435299,2.09474244 120.665175,1.60924899 L120.665175,1.60924899 C124.483329,1.17230487 122.543179,4.96692175 116.53823,8.02876716 L116.53823,8.02876716 C93.6571475,19.7097398 100.602069,40.4836812 110.7864,49.8239281 L110.7864,49.8239281 C110.564354,51.85588 85.0614477,52.8715323 59.5585411,52.8715323 L59.5585411,52.8715323 C34.0556345,52.8715323 8.55272791,51.85588 8.33068204,49.8239281 M105.968717,-1.13686838e-13 C105.85996,0.648619261 105.817234,0.922437572 105.764797,1.00658977 L105.764797,1.00658977 C105.847012,0.655739832 105.915633,0.318483709 105.968717,-1.13686838e-13" id="path220"></path>
                        </g>
                    </g>
                </g>
            </g>
            <path d="M242.421551,87.1065891 C242.421551,44.5663576 277.119616,9.87170033 319.662439,9.87170033 L319.662439,9.87170033 C362.206557,9.87170033 396.906565,44.5663576 396.906565,87.1065891 L396.906565,87.1065891 C396.906565,129.650057 362.206557,164.347951 319.662439,164.347951 L319.662439,164.347951 C277.119616,164.347951 242.421551,129.650057 242.421551,87.1065891" id="path240" fill="url(#linearGradient-8)" fill-rule="nonzero" transform="translate(319.664058, 87.109826) scale(-1, 1) rotate(-180.000000) translate(-319.664058, -87.109826) "></path>
            <g id="g250" transform="translate(350.102727, 77.698503) scale(-1, 1) rotate(-180.000000) translate(-350.102727, -77.698503) translate(343.636855, 71.233348)" fill="#1A1A1A">
                <path d="M6.46522473,0 C10.0283164,0 12.9317442,2.90454553 12.9317442,6.46612555 C12.9317442,10.0270582 10.0283164,12.9303091 6.46522473,12.9303091 C2.90472247,12.9303091 0,10.0270582 0,6.46612555 C0,2.90454553 2.90472247,0 6.46522473,0" id="path252"></path>
            </g>
            <g id="g254" transform="translate(352.940641, 75.130954) scale(-1, 1) rotate(-180.000000) translate(-352.940641, -75.130954) translate(351.043217, 73.233322)" fill="#FFFFFF">
                <path d="M1.89677665,0 C2.94291695,0 3.79484804,0.853173839 3.79484804,1.89860309 C3.79484804,2.94209036 2.94291695,3.7952642 1.89677665,3.7952642 C0.85128372,3.7952642 0,2.94209036 0,1.89860309 C0,0.853173839 0.85128372,0 1.89677665,0" id="path256"></path>
            </g>
            <g id="g258" transform="translate(289.223317, 77.698503) scale(-1, 1) rotate(-180.000000) translate(-289.223317, -77.698503) translate(282.758740, 71.233348)" fill="#1A1A1A">
                <path d="M6.46522473,0 C10.0250796,0 12.9291547,2.90454553 12.9291547,6.46612555 C12.9291547,10.0270582 10.0250796,12.9303091 6.46522473,12.9303091 C2.90342775,12.9303091 0,10.0270582 0,6.46612555 C0,2.90454553 2.90342775,0 6.46522473,0" id="path260"></path>
            </g>
            <g id="g262" transform="translate(292.061232, 75.130954) scale(-1, 1) rotate(-180.000000) translate(-292.061232, -75.130954) translate(290.163808, 73.233322)" fill="#FFFFFF">
                <path d="M1.89742402,0 C2.94226959,0 3.79484804,0.853173839 3.79484804,1.89860309 C3.79484804,2.94209036 2.94226959,3.7952642 1.89742402,3.7952642 C0.851931084,3.7952642 0,2.94209036 0,1.89860309 C0,0.853173839 0.851931084,0 1.89742402,0" id="path264"></path>
            </g>
            <g id="g266" transform="translate(319.664254, 102.491618) scale(-1, 1) rotate(-180.000000) translate(-319.664254, -102.491618) translate(308.055095, 98.774680)" fill="#1A1A1A" fill-rule="nonzero">
                <path d="M22.6223079,7.03318191 C22.3180468,7.29146443 21.9315705,7.43322852 21.5321469,7.43322852 C21.036266,7.43322852 20.564985,7.21637477 20.243245,6.83963185 C20.2134663,6.8066183 17.1598501,3.38421307 11.6093508,3.38421307 C5.68402765,3.38421307 3.32114889,6.3806787 3.08615574,6.70175171 C2.77024208,7.16005753 2.24846666,7.43387584 1.69173358,7.43387584 C1.34668855,7.43387584 1.01459079,7.33030391 0.732340068,7.1354592 C0.358811013,6.87911865 0.110870584,6.49396051 0.0286553499,6.05054315 C-0.0535598839,5.60324184 0.0428973589,5.15399856 0.295369337,4.78826015 C0.427431602,4.5921208 3.61569953,0 11.6093508,0 C18.7756708,0 22.6553235,4.45424066 22.8132803,4.63872817 C23.4192131,5.34560665 23.3369978,6.41433958 22.6223079,7.03318191" id="path268"></path>
            </g>
            <g id="g286" transform="translate(104.380367, 96.971825) scale(-1, 1) rotate(-180.000000) translate(-104.380367, -96.971825) translate(34.112192, 0.000000)" fill="url(#linearGradient-9)" fill-rule="nonzero">
                <g id="g296">
                    <path d="M65.9734275,193.908047 C37.1184698,193.204406 10.6613487,174.166589 5.88121255,150.442789 L5.88121255,150.442789 C-1.27928116,114.900137 5.0519392,39.9664868 5.0519392,39.9664868 L5.0519392,39.9664868 L5.13027025,39.9671341 C5.4643101,28.3152911 5.61967747,15.5811214 4.8214776,13.0254838 L4.8214776,13.0254838 C3.28398799,8.10775871 -1.22231313,7.86436466 0.31517648,5.49904053 L0.31517648,5.49904053 C1.97437053,2.94728691 6.03204837,5.4589064 6.03204837,5.4589064 L6.03204837,5.4589064 C6.03204837,5.4589064 4.85772999,0.932165388 9.74079699,0.113299754 L9.74079699,0.113299754 C14.5481224,-0.691324738 14.6601164,3.05344814 14.6601164,3.05344814 L14.6601164,3.05344814 C14.6601164,3.05344814 19.0699603,1.74391045 20.6197498,3.84318417 L20.6197498,3.84318417 C22.5113475,6.40464766 19.5774937,7.18467382 18.3494441,9.64321269 L18.3494441,9.64321269 C17.118805,12.1036935 17.8580948,24.2805168 19.6558247,30.7790086 L19.6558247,30.7790086 C20.911711,35.3206381 29.7618248,40.0292773 35.5952222,41.3329891 L35.5952222,41.3329891 C57.7104728,46.2720759 79.22238,46.3847103 102.384418,42.5596692 L102.384418,42.5596692 C107.817097,41.6631246 118.953701,36.5227199 120.546217,31.0638314 L120.546217,31.0638314 C122.431988,24.5912326 123.339592,12.4254139 122.143911,9.94810258 L122.143911,9.94810258 C120.948877,7.47338059 118.026676,6.65192566 119.953231,4.1176498 L119.953231,4.1176498 C121.532799,2.03909047 125.909628,3.40947668 125.909628,3.40947668 L125.909628,3.40947668 C125.909628,3.40947668 126.087653,-0.332706903 130.883326,0.539239349 L130.883326,0.539239349 C135.756035,1.42542674 134.518275,5.40582578 134.518275,5.40582578 L134.518275,5.40582578 C134.518275,5.40582578 138.609615,3.47874041 140.233852,6.05250307 L140.233852,6.05250307 C141.737679,8.44048356 137.228141,8.62043981 135.623325,13.5161558 L135.623325,13.5161558 C134.757152,16.1611242 134.768157,29.8047851 134.962366,41.8081253 L134.962366,41.8081253 L135.100255,41.811362 C135.100255,41.811362 142.450426,111.764496 129.267505,149.33198 L129.267505,149.33198 C117.369601,183.237549 97.2443477,193.94365 68.8639079,193.94365 L68.8639079,193.94365 C67.9096933,193.94365 66.9464156,193.931351 65.9734275,193.908047" id="path304"></path>
                </g>
            </g>
            <path d="M132.25903,57.529745 C135.788459,57.529745 138.665992,60.4090448 138.665992,63.9382586 C138.665992,67.4674724 135.788459,70.3448303 132.25903,70.3448303 C128.730249,70.3448303 125.850774,67.4674724 125.850774,63.9382586 C125.850774,60.4090448 128.730249,57.529745 132.25903,57.529745" id="path316" fill="#1A1A1A" transform="translate(132.258383, 63.937288) scale(-1, 1) rotate(-180.000000) translate(-132.258383, -63.937288) "></path>
            <path d="M135.070726,59.512565 C136.106509,59.512565 136.951319,60.3592656 136.951319,61.3936903 C136.951319,62.4287624 136.106509,63.273521 135.070726,63.273521 C134.033649,63.273521 133.191429,62.4287624 133.191429,61.3936903 C133.191429,60.3592656 134.033649,59.512565 135.070726,59.512565" id="path320" fill="#FFFFFF" transform="translate(135.071374, 61.393043) scale(-1, 1) rotate(-180.000000) translate(-135.071374, -61.393043) "></path>
            <path d="M71.9277438,57.529745 C75.4565252,57.529745 78.3340584,60.4090448 78.3340584,63.9382586 C78.3340584,67.4674724 75.4565252,70.3448303 71.9277438,70.3448303 C68.398315,70.3448303 65.5207818,67.4674724 65.5207818,63.9382586 C65.5207818,60.4090448 68.398315,57.529745 71.9277438,57.529745" id="path324" fill="#1A1A1A" transform="translate(71.927420, 63.937288) scale(-1, 1) rotate(-180.000000) translate(-71.927420, -63.937288) "></path>
            <path d="M74.739699,59.512565 C75.7754815,59.512565 76.6183494,60.3592656 76.6183494,61.3936903 C76.6183494,62.4287624 75.7754815,63.273521 74.739699,63.273521 C73.7032691,63.273521 72.8597538,62.4287624 72.8597538,61.3936903 C72.8597538,60.3592656 73.7032691,59.512565 74.739699,59.512565" id="path328" fill="#FFFFFF" transform="translate(74.739052, 61.393043) scale(-1, 1) rotate(-180.000000) translate(-74.739052, -61.393043) "></path>
            <path d="M113.008171,91.7935429 C112.7065,92.0498835 112.323908,92.1903529 111.927073,92.1903529 C111.437019,92.1903529 110.969622,91.9754412 110.650472,91.6025822 C110.620693,91.5695686 107.596208,88.178235 102.094908,88.178235 C96.2220217,88.178235 93.8798586,91.1468657 93.6481022,91.4653494 C93.3354254,91.9197712 92.8175342,92.1910003 92.2666274,92.1910003 C91.9248191,92.1910003 91.5953108,92.0880756 91.3143549,91.8951729 C90.9460047,91.6414217 90.699359,91.2595001 90.6177911,90.8193194 C90.5368706,90.3771967 90.6326805,89.93119 90.882563,89.5686883 C91.0126832,89.3757855 94.1724671,84.8237988 102.094908,84.8237988 C109.196492,84.8237988 113.041187,89.2385527 113.197202,89.4223929 C113.798603,90.1208561 113.717035,91.1811739 113.008171,91.7935429" id="path332" fill="#1A1A1A" fill-rule="nonzero" transform="translate(102.094496, 88.507400) scale(-1, 1) rotate(-180.000000) translate(-102.094496, -88.507400) "></path>
        </g>
    </g>
</svg>