<svg width="423" height="200" xmlns="http://www.w3.org/2000/svg" xmlns:xlink="http://www.w3.org/1999/xlink"><defs><linearGradient x1="-4.174%" y1="58.61%" x2="102.519%" y2="36.84%" id="e"><stop stop-color="#FAAF40" offset="0%"/><stop stop-color="#F6931E" offset="100%"/></linearGradient><linearGradient x1=".504%" y1="48.046%" x2="99.107%" y2="51.081%" id="f"><stop stop-color="#FAAF40" offset="0%"/><stop stop-color="#F6931E" offset="100%"/></linearGradient><linearGradient x1="50%" y1="118.572%" x2="50%" y2="320.713%" id="g"><stop stop-color="#80B43A" offset="0%"/><stop stop-color="#8AC43F" offset="100%"/></linearGradient><linearGradient x1="50%" y1="21.157%" x2="50%" y2="93.077%" id="h"><stop stop-color="#80B43A" offset="0%"/><stop stop-color="#8AC43F" offset="100%"/></linearGradient><linearGradient x1="50%" y1="99.218%" x2="50%" y2=".316%" id="i"><stop stop-color="#FAAF40" offset="0%"/><stop stop-color="#F6931E" offset="100%"/></linearGradient><path id="a" d="M0 18.449h165.078V0H0z"/><path id="c" d="M0 18.449h165.078V0H0z"/></defs><g fill="none" fill-rule="evenodd"><g transform="matrix(1 0 0 -1 237.35 200)"><mask id="b" fill="#fff"><use xlink:href="#a"/></mask><g opacity=".3" mask="url(#b)"><path d="M82.539 0C36.954 0 0 4.13 0 9.224s36.953 9.225 82.538 9.225c45.585 0 82.539-4.131 82.539-9.225C165.078 4.13 128.124 0 82.538 0Z" fill="#39B54A"/></g></g><g transform="matrix(1 0 0 -1 21.293 200)"><mask id="d" fill="#fff"><use xlink:href="#c"/></mask><g opacity=".3" mask="url(#d)"><path d="M82.539 0C36.954 0 0 4.13 0 9.224s36.953 9.225 82.538 9.225c45.585 0 82.539-4.131 82.539-9.225C165.078 4.13 128.124 0 82.538 0Z" fill="#F15A29"/></g></g><path d="M8.973 47.57c-2.927-.303-.829-4.106-3.247-4.785-.892-.251-1.292.174-1.736.6-.447.426-.94.854-2.021.594-3.99-.957-1.95-21.179 6.439-32.234C16.978.451 35.846-1.53 51.226.945c11.89 1.915 13.714 12.696-.116 11.743-13.83-.95-23.793 1.447-29.891 13.277-6.765 13.12-.14 19.451-3.335 20.746-3.196 1.291-1.889-2.467-4.86-2.87-1.175-.16-1.593.85-2.022 1.861-.399.94-.806 1.879-1.839 1.879-.06 0-.125-.004-.19-.01" transform="matrix(1 0 0 -1 0 109.67)" fill="url(#e)" fill-rule="nonzero"/><path d="M5.428 25.494c-8.166-4.104-7.018-12.321 2.77-8.469 9.787 3.852 17.545 4.396 24.663-2.767C40.757 6.312 37.411.218 40.019.012c2.609-.204.805 2.218 2.86 3.188.812.382 1.346-.25 1.886-.88.534-.626 1.076-1.251 1.9-.892 2.047.889-.34 3.16 1.254 4.206.577.378.96.176 1.37-.028.427-.21.884-.422 1.62.022 2.668 1.605-3.432 15.77-12.032 21.848-3.516 2.485-7.883 3.515-12.534 3.515-6.972 0-14.58-2.312-20.915-5.497" transform="matrix(1 0 0 -1 151.496 119.28)" fill="url(#f)" fill-rule="nonzero"/><path d="M263.676 107.324c-3.857 1.781-8.535 11.039-14.367 8.891-5.833-2.145-17.654-21.722-19.626-23.593-2.133-2.024-3.8-2.71-4.793-1.654-.992 1.057-.302 2.691-.302 2.691s-3.004-3.38-5.301-1.2c-2.172 2.059-.006 4.765-.006 4.765s-2.854-.085-4.169 1.558c-.998 1.248 8.061 10.448 13.01 17.464 4.473 6.341 15.814 22.707 27.702 19.039 11.887-3.668 20.947-11.572 19.373-17.565-1.572-5.993-6.202-12.853-11.52-10.396m110.683 0c3.858 1.781 8.536 11.039 14.369 8.891 5.831-2.145 17.653-21.722 19.624-23.593 2.134-2.024 3.8-2.71 4.794-1.654.992 1.057.301 2.691.301 2.691s3.005-3.38 5.302-1.2c2.172 2.059.005 4.765.005 4.765s2.855-.085 4.169 1.558c.998 1.248-8.062 10.448-13.009 17.464-4.474 6.341-15.814 22.707-27.702 19.039-11.888-3.668-20.946-11.572-19.373-17.565 1.573-5.993 6.201-12.853 11.52-10.396" fill="#8CC53F" fill-rule="nonzero"/><path d="M261.222 191.534c6.181-.282 11.822-3.733 10.668-.069-1.155 3.66 2.142 3.63 5.49.815 1.41-1.185 14.961-.875 16.838.3 3.817 2.392-1.188-9.07-4.702-13.608-3.516-4.54-13.942 4.947-28.294 12.562" fill="#B6D351"/><path fill="#B6D351" d="M275.176 193.263h-13.954v-3.453h13.954zm100.262-6.528c-6.18-.281-10.754 3.2-9.602 6.863-1.897-6.012 2.512 5.126-3.89-.25-.195-.166-13.333-2.43-16.837-.234-3.816 2.391 1.187-9.07 4.704-13.608 3.514-4.54 11.273-.386 25.625 7.229"/><path d="M377.057 191.466h-15.995v-6.676l15.463 2.666z" fill="#B6D351"/><path d="M8.33 49.824c10.186-9.34 19.262-30.648-3.618-42.329-6.005-3.06-5.812-5.257-1.995-4.818 4.229.485 11.597 7.746 12.781 6.931 1.04-.714-1.678-2.906-2.35-6.942-.395-2.358.68-2.088 2.554-.76 2.626 1.859 6.765 7.471 8.957 7.548 1.227.043 3.713-2.268 6.08-4.578 3.657-3.568 7.028-7.136 5.039-2.034-7.499 19.24-3.724 27.892 22.138 27.582.504-.029 1.04-.043 1.641-.029.604-.014 1.139 0 1.643.03 25.863.309 29.637-8.342 22.138-27.583-1.99-5.102 1.382-1.534 5.037 2.034 2.367 2.31 4.853 4.62 6.08 4.578 2.194-.077 6.333-6.222 8.96-8.082 1.266-.898 1.814-.7 2.082-.503.152.112.215.223.268.138-.955 4.095-3.638 10.076-2.68 10.734 1.184.815 13.35-9.646 17.58-10.132 3.818-.437 1.878 3.358-4.127 6.42-22.88 11.68-15.936 32.455-5.752 41.795-.222 2.032-25.725 3.048-51.227 3.048-25.503 0-51.006-1.016-51.228-3.048M105.969 0c-.109.649-.152.922-.204 1.007.082-.351.15-.689.204-1.007" transform="matrix(1 0 0 -1 260.105 194.743)" fill="url(#g)" fill-rule="nonzero"/><path d="M242.422 87.107c0-42.54 34.698-77.235 77.24-77.235 42.545 0 77.245 34.694 77.245 77.235 0 42.543-34.7 77.241-77.245 77.241-42.542 0-77.24-34.698-77.24-77.241" fill="url(#h)" fill-rule="nonzero" transform="matrix(1 0 0 -1 0 174.22)"/><path d="M350.102 84.164c3.563 0 6.467-2.905 6.467-6.466 0-3.561-2.904-6.465-6.467-6.465-3.56 0-6.465 2.904-6.465 6.465s2.905 6.466 6.465 6.466" fill="#1A1A1A"/><path d="M352.94 77.029a1.902 1.902 0 0 0 1.898-1.899 1.901 1.901 0 0 0-1.898-1.897 1.9 1.9 0 0 0-1.897 1.897c0 1.045.852 1.899 1.897 1.899" fill="#FFF"/><path d="M289.224 84.164c3.56 0 6.464-2.905 6.464-6.466 0-3.561-2.904-6.465-6.464-6.465-3.562 0-6.465 2.904-6.465 6.465s2.903 6.466 6.465 6.466" fill="#1A1A1A"/><path d="M292.061 77.029a1.902 1.902 0 0 0 1.898-1.899 1.902 1.902 0 0 0-1.898-1.897 1.901 1.901 0 0 0-1.897 1.897c0 1.045.852 1.899 1.897 1.899" fill="#FFF"/><path d="M330.677 99.175a1.695 1.695 0 0 0-2.38.194c-.028.033-3.082 3.455-8.633 3.455-5.925 0-8.288-2.996-8.523-3.317a1.694 1.694 0 0 0-3.057.651c-.082.447.014.897.266 1.262.133.196 3.32 4.789 11.314 4.789 7.167 0 11.046-4.455 11.204-4.64a1.701 1.701 0 0 0-.19-2.394" fill="#1A1A1A" fill-rule="nonzero"/><path d="M65.973 193.908c-28.855-.704-55.312-19.741-60.092-43.465-7.16-35.543-.83-110.477-.83-110.477l.08.001c.333-11.652.489-24.386-.31-26.942C3.284 8.108-1.222 7.865.315 5.5c1.66-2.552 5.717-.04 5.717-.04S4.858.932 9.741.113c4.807-.804 4.92 2.94 4.92 2.94s4.409-1.31 5.959.79c1.891 2.562-1.043 3.342-2.27 5.8-1.231 2.46-.492 14.638 1.306 21.136 1.256 4.542 10.106 9.25 15.94 10.554 22.114 4.94 43.626 5.052 66.788 1.227 5.433-.897 16.57-6.037 18.162-11.496 1.886-6.473 2.794-18.639 1.598-21.116-1.195-2.475-4.117-3.296-2.19-5.83 1.579-2.079 5.956-.709 5.956-.709s.178-3.742 4.973-2.87c4.873.886 3.635 4.867 3.635 4.867s4.092-1.927 5.716.647c1.504 2.387-3.006 2.567-4.61 7.463-.867 2.645-.856 16.289-.662 28.292l.138.003s7.35 69.953-5.832 107.521c-11.898 33.906-32.024 44.612-60.404 44.612-.954 0-1.918-.013-2.89-.036" transform="matrix(1 0 0 -1 34.112 193.944)" fill="url(#i)" fill-rule="nonzero"/><path d="M132.259 70.345c3.53 0 6.407-2.88 6.407-6.409s-2.878-6.406-6.407-6.406-6.408 2.877-6.408 6.406c0 3.53 2.88 6.409 6.408 6.409" fill="#1A1A1A"/><path d="M135.07 63.274c1.037 0 1.881-.847 1.881-1.882s-.844-1.88-1.88-1.88c-1.037 0-1.88.845-1.88 1.88s.843 1.882 1.88 1.882" fill="#FFF"/><path d="M71.928 70.345c3.529 0 6.406-2.88 6.406-6.409s-2.877-6.406-6.406-6.406c-3.53 0-6.407 2.877-6.407 6.406 0 3.53 2.877 6.409 6.407 6.409" fill="#1A1A1A"/><path d="M74.74 63.274a1.884 1.884 0 0 0 1.878-1.882c0-1.035-.843-1.88-1.878-1.88-1.037 0-1.88.845-1.88 1.88s.843 1.882 1.88 1.882" fill="#FFF"/><path d="M113.008 85.221a1.668 1.668 0 0 0-1.08-.397c-.491 0-.958.215-1.278.588-.03.033-3.054 3.425-8.555 3.425-5.873 0-8.215-2.97-8.447-3.288a1.678 1.678 0 0 0-3.03.646c-.081.443.015.889.265 1.251.13.193 3.29 4.745 11.212 4.745 7.101 0 10.946-4.415 11.102-4.599a1.683 1.683 0 0 0-.189-2.37" fill="#1A1A1A" fill-rule="nonzero"/></g></svg>