<svg xmlns="http://www.w3.org/2000/svg" width="15" height="18"><path d="M14.187 6.137c-.104.08-1.948 1.12-1.948 3.43 0 2.67 2.346 3.616 2.416 3.64-.01.057-.372 1.293-1.236 2.554-.77 1.108-1.576 2.216-2.8 2.216-1.224 0-1.539-.711-2.952-.711C6.29 17.266 5.8 18 4.68 18s-1.9-1.026-2.799-2.286C.841 14.234 0 11.935 0 9.754c0-3.5 2.275-5.356 4.515-5.356 1.19 0 2.182.781 2.929.781.71 0 1.82-.828 3.173-.828.514 0 2.357.047 3.57 1.786ZM9.975 2.869c.56-.664.956-1.585.956-2.507 0-.128-.011-.258-.035-.362-.91.034-1.994.607-2.648 1.365-.513.583-.991 1.504-.991 2.439 0 .14.023.28.034.326.057.01.15.023.245.023.817 0 1.845-.547 2.439-1.284Z"/></svg>