<?xml version="1.0" encoding="UTF-8"?>
<svg width="60px" height="40px" viewBox="0 0 60 40" version="1.1" xmlns="http://www.w3.org/2000/svg" xmlns:xlink="http://www.w3.org/1999/xlink">
    <!-- Generator: Sketch 51.3 (57544) - http://www.bohemiancoding.com/sketch -->
    <title>bitpay</title>
    <desc>Created with Sketch.</desc>
    <defs>
        <path d="M0,2.13643224 C0,0.956513296 0.954571242,0 2.12661158,0 L57.8733887,0 C59.0478834,0 60,0.959109915 60,2.13643224 L60,37.8635678 C60,39.0434867 59.0454287,40 57.8733887,40 L2.12661158,40 C0.952116435,40 0,39.0408901 0,37.8635678 L0,2.13643224 Z" id="path-1"></path>
    </defs>
    <g id="Page-1" stroke="none" stroke-width="1" fill="none" fill-rule="evenodd">
        <g id="bitpay">
            <path d="M57.8733887,0.533333333 L2.12661158,0.533333333 C1.68666988,0.533333333 1.28766525,0.71311832 0.998673765,1.00344436 C0.709969641,1.29348172 0.530973451,1.69398965 0.530973451,2.13643224 L0.530973451,37.8635678 C0.530973451,38.3055518 0.709955724,38.7064554 0.998993485,38.9968279 C1.28766045,39.2868279 1.68626232,39.4666667 2.12661158,39.4666667 L57.8733887,39.4666667 C58.3133299,39.4666667 58.7123347,39.2868817 59.001326,38.9965556 C59.2900306,38.7065183 59.4690265,38.3060103 59.4690265,37.8635678 L59.4690265,2.13643224 C59.4690265,1.69444817 59.2900444,1.2935446 59.0010064,1.00317206 C58.7123395,0.713172037 58.3137377,0.533333333 57.8733887,0.533333333 Z" id="Shape" stroke="#000000" stroke-width="1.06666667"></path>
            <g id="Logo/Bitpay-Plain-Black-Clipped">
                <mask id="mask-2" fill="white">
                    <use xlink:href="#path-1"></use>
                </mask>
                <g id="path-1"></g>
                <g id="Logo/Bitpay-Plain-Black" mask="url(#mask-2)">
                    <g transform="translate(6.902655, 11.200000)" id="Group-2">
                        <g>
                            <g id="Group" transform="translate(0.000000, 0.309677)" fill="#000000" fill-rule="nonzero">
                                <g id="Logo/Interface/bitpay-logo-black-(160x58)">
                                    <g id="Group">
                                        <path d="M46.7029238,4.0269993 L44.2743431,4.0269993 L42.8689716,10.1567039 L42.6717264,10.9977861 C42.5361204,11.0360171 42.4005144,11.0742481 42.2649083,11.0997354 C42.0183519,11.1507101 41.7594677,11.1761974 41.4882556,11.1761974 C41.1800601,11.1761974 40.9335037,11.1252227 40.7485864,11.0360171 C40.5759969,10.9468114 40.4403909,10.8193747 40.366424,10.6409634 C40.292457,10.4752956 40.2678014,10.271397 40.2801292,10.0420109 C40.292457,9.81262485 40.3417683,9.55775152 40.4034074,9.30287813 L41.1430767,6.11696096 L41.6238617,4.00151196 L39.1459697,4.00151196 L38.024138,8.89508075 C37.888532,9.48128949 37.8145651,10.0420109 37.7899094,10.577245 C37.7652538,11.1124791 37.8515485,11.5712511 38.024138,11.9917922 C38.1967275,12.3995896 38.5049231,12.7181813 38.9240689,12.960311 C39.3432149,13.2024407 39.9472781,13.3171338 40.711603,13.3171338 C41.2416992,13.3171338 41.7101564,13.2661591 42.1046467,13.1769534 C42.1169745,13.1769534 42.1416302,13.1642097 42.153958,13.1642097 C42.0430076,13.6739565 41.8211068,14.0817539 41.4759278,14.4003456 C41.118421,14.7189373 40.6006525,14.884605 39.9102946,14.884605 C39.6144269,14.884605 39.3432149,14.8718613 39.0966584,14.8336303 L38.6158734,16.9108483 C38.9363968,16.9490793 39.2939036,16.9745667 39.6883938,16.9745667 C40.4280631,16.9745667 41.0691098,16.885361 41.6238617,16.7196933 C42.1786136,16.5412819 42.6470708,16.2864085 43.0538889,15.9295858 C43.4483791,15.5727631 43.7812303,15.1267347 44.0524424,14.6042443 C44.3236544,14.0690102 44.5332274,13.4445705 44.693489,12.7054377 L46.3700727,5.4160592 L46.7029238,4.0269993 Z" id="y_2_"></path>
                                        <path d="M36.5324717,9.26464715 C36.3845379,9.90183056 36.3352266,10.5517577 36.3968657,11.1889411 C36.4585048,11.8388682 36.7050612,12.8201307 36.9392898,13.3171338 L34.5970039,13.3171338 C34.313464,12.8201307 34.3257918,12.578001 34.2641527,12.425077 C33.9559572,12.6799503 33.6231061,12.8965927 33.2532714,13.0622604 C32.8834368,13.2279281 32.4766187,13.3171338 32.0081615,13.3171338 C31.4657374,13.3171338 30.9972802,13.2151844 30.6151178,13.0240294 C30.2329553,12.8328743 29.912432,12.5652573 29.6658756,12.2339219 C29.4193192,11.9025866 29.2467297,11.5202765 29.1357793,11.0742481 C29.0248289,10.6282197 28.9755176,10.1567039 28.9755176,9.64695717 C28.9755176,8.86959339 29.1111236,8.14320427 29.3700079,7.45504619 C29.6412199,6.76688805 30.0110545,6.16793563 30.4795118,5.65818891 C30.9479689,5.14844214 32.0944563,4.01425563 33.968285,4.01425563 L37.7282703,4.01425563 L36.5324717,9.26464715 Z M34.8189046,6.14244832 C33.6847451,6.14244832 33.4751722,6.14244832 33.006715,6.38457803 C32.6738638,6.56298939 32.4026518,6.8306064 32.1684232,7.13645445 C31.9341946,7.44230251 31.7369495,7.79912523 31.6013435,8.20692261 C31.4657374,8.61472 31.3917705,9.03526107 31.3917705,9.46854581 C31.3917705,10.0037799 31.4780652,10.4370646 31.6506547,10.7556564 C31.8232442,11.0742481 32.1437676,11.2271721 32.6122247,11.2271721 C32.8587811,11.2271721 33.0930097,11.1761974 33.2902549,11.0742481 C33.4875,10.9722987 33.7094008,10.806631 33.9313015,10.5645013 C33.9559572,10.2841406 33.9929406,9.99103621 34.0422519,9.68518816 C34.0915632,9.37934016 34.1532023,9.08623573 34.2025136,8.8313624 L34.8189046,6.14244832 Z" id="a_2_"></path>
                                        <path d="M28.3098153,7.70991952 C28.3098153,8.53825803 28.1742093,9.29013445 27.915325,9.97829259 C27.6564408,10.6664507 27.2866062,11.2526594 26.818149,11.7496625 C26.3496918,12.2466656 25.7949399,12.6289756 25.1415654,12.9093364 C24.4881908,13.1896971 23.7855051,13.3298774 23.0211802,13.3298774 C22.6513456,13.3298774 22.281511,13.2916464 21.8993485,13.2279281 L21.1596793,16.2991522 L18.7310986,16.2991522 L21.5541696,4.03974297 L24.7963864,4.03974297 C25.4127774,4.03974297 25.9428737,4.14169231 26.3743475,4.33284734 C26.818149,4.52400238 27.1756558,4.79161942 27.4715235,5.12295481 C27.7550634,5.45429019 27.9646363,5.84934389 28.1002424,6.29537232 C28.2481762,6.72865707 28.3098153,7.2001728 28.3098153,7.70991952 Z M22.3554779,11.1889411 C22.5403952,11.2399158 22.7746238,11.2526594 23.0458358,11.2526594 C23.4773096,11.2526594 23.859472,11.1761974 24.2169788,11.0105297 C24.5621578,10.844862 24.8703533,10.615476 25.1169097,10.3223716 C25.3634661,10.0292673 25.5483835,9.67244453 25.6963173,9.26464715 C25.8319233,8.85684971 25.9058902,8.39807765 25.9058902,7.90107456 C25.9058902,7.41681515 25.8072677,6.99627408 25.5976948,6.66493872 C25.3881218,6.32085968 25.030615,6.14244832 24.5128465,6.14244832 L23.5512765,6.14244832 L22.3554779,11.1889411 Z" id="p_2_"></path>
                                        <path d="M17.2517601,11.1889411 C16.9435646,11.1889411 16.6970082,11.1379664 16.5120908,11.0487607 C16.3395014,10.959555 16.2038953,10.8321183 16.1299284,10.653707 C16.0559615,10.4880393 16.0313059,10.2841406 16.0436337,10.0547546 C16.0559615,9.82536853 16.1052728,9.57049515 16.1669119,9.31562181 L16.9065811,6.12970464 L19.668013,6.12970464 L20.1734536,4.01425563 L17.3996939,4.01425563 L18.0407406,1.33808521 L15.4518983,1.75862628 L13.8122981,8.92056805 C13.6766921,9.5067768 13.6027252,10.0674982 13.5780695,10.6027323 C13.5534139,11.1379664 13.6397086,11.5967385 13.8122981,12.0172796 C13.9848876,12.425077 14.2930831,12.7436686 14.712229,12.9857983 C15.1313749,13.2279281 15.7354382,13.3426211 16.499763,13.3426211 C17.0298593,13.3426211 17.4983165,13.2916464 17.8928068,13.2024407 C17.9297902,13.1896971 17.9914293,13.1769534 18.0284128,13.1642097 L18.5338535,10.9850424 C18.361264,11.0487607 18.1886745,11.0869917 18.0284128,11.1124791 C17.7818564,11.1634538 17.5229722,11.1889411 17.2517601,11.1889411 Z" id="t_2_"></path>
                                        <polygon id="i_bottom_6_" points="11.0755219 4.0269993 8.93048113 13.3298774 11.3590618 13.3298774 13.4917748 4.0269993"></polygon>
                                        <polygon id="i_top_2_" points="13.750659 2.95653113 14.1204937 1.33808521 11.691913 1.33808521 11.3220783 2.95653113"></polygon>
                                        <path d="M5.70059209,4.03974297 C6.21836055,4.03974297 6.67448989,4.14169231 7.05665235,4.33284734 C7.43881481,4.52400238 7.74701034,4.77887575 8.00589457,5.11021114 C8.25245097,5.44154651 8.43736827,5.82385659 8.5606465,6.25714133 C8.68392467,6.69042603 8.74556379,7.16194181 8.74556379,7.67168853 C8.74556379,8.44905232 8.60995779,9.17544144 8.32641791,9.8763432 C8.04287804,10.5645013 7.6730434,11.1761974 7.19225841,11.6859442 C6.71147336,12.1956909 6.14439361,12.6034883 5.49101915,12.8965927 C4.83764463,13.1896971 4.13495885,13.3426211 3.37063396,13.3426211 C3.2720114,13.3426211 3.09942191,13.3426211 2.85286549,13.3298774 C2.60630908,13.3298774 2.3227692,13.3043901 2.01457368,13.2534154 C1.69405034,13.2024407 1.36119919,13.1387224 1.01602021,13.0495167 C0.658513402,12.960311 0.325662245,12.8328743 0.0174667264,12.6799503 L2.84053767,0.420541066 L5.36774092,0.0127436687 L4.36918744,4.35833468 C4.59108821,4.25638533 4.78833335,4.17992332 5.01023412,4.12894865 C5.21980707,4.0652303 5.45403568,4.03974297 5.70059209,4.03974297 Z M3.58020692,11.2526594 C3.96236936,11.2526594 4.31987616,11.1634538 4.65272732,10.959555 C4.98557848,10.7684 5.28144618,10.5135267 5.52800257,10.1949349 C5.77455903,9.8763432 5.97180414,9.5067768 6.10741014,9.11172309 C6.24301619,8.70392571 6.31698313,8.28338464 6.31698313,7.85009989 C6.31698313,7.31486581 6.23068837,6.89432475 6.0580989,6.58847669 C5.88550938,6.28262864 5.52800257,6.14244832 5.0595454,6.14244832 C4.91161155,6.14244832 4.75134989,6.15519195 4.50479347,6.21891029 C4.25823706,6.26988496 4.0486641,6.39732165 3.85141897,6.57573301 L2.79122639,11.2016847 C3.11174973,11.2526594 3.2103723,11.2654031 3.29666704,11.2654031 C3.35830614,11.2526594 3.45692871,11.2526594 3.58020692,11.2526594 Z" id="b_2_"></path>
                                    </g>
                                </g>
                            </g>
                        </g>
                    </g>
                </g>
            </g>
        </g>
    </g>
</svg>