<?xml version="1.0" encoding="UTF-8"?>
<svg width="113px" height="75px" viewBox="0 0 113 75" version="1.1" xmlns="http://www.w3.org/2000/svg" xmlns:xlink="http://www.w3.org/1999/xlink">
    <!-- Generator: Sketch 64 (93537) - https://sketch.com -->
    <title>BitPay-Accepted-Card-GrayScale</title>
    <desc>Created with Sketch.</desc>
    <defs>
        <path d="M0,4.00581045 C0,1.79346243 1.79777584,0 4.00511847,0 L108.994882,0 C111.206847,0 113,1.79833109 113,4.00581045 L113,70.9941896 C113,73.2065376 111.202224,75 108.994882,75 L4.00511847,75 C1.79315262,75 0,73.2016689 0,70.9941896 L0,4.00581045 Z" id="path-1"></path>
    </defs>
    <g id="BitPay-Accepted-Card-GrayScale" stroke="none" stroke-width="1" fill="none" fill-rule="evenodd">
        <g id="Mark/Large/Card/BitPay-Accepted-Grayscale">
            <mask id="mask-2" fill="white">
                <use xlink:href="#path-1"></use>
            </mask>
            <path stroke="#000000" stroke-width="2" d="M108.994882,1 L4.00511847,1 C3.17656161,1 2.42510288,1.33709685 1.88083559,1.88145818 C1.33710949,2.42527822 1,3.17623059 1,4.00581045 L1,70.9941896 C1,71.8229097 1.33708328,72.5746039 1.88143773,73.1190524 C2.42509385,73.6628024 3.17579404,74 4.00511847,74 L108.994882,74 C109.823438,74 110.574897,73.6629031 111.119164,73.1185418 C111.662891,72.5747218 112,71.8237694 112,70.9941896 L112,4.00581045 C112,3.17709031 111.662917,2.42539612 111.118562,1.88094762 C110.574906,1.33719757 109.824206,1 108.994882,1 Z"></path>
            <g id="Logo/Bitpay-Plain-Black" mask="url(#mask-2)" fill-rule="evenodd" stroke-width="1">
                <g transform="translate(13.000000, 14.000000)" id="Group-2">
                    <g transform="translate(0.000000, 7.580645)">
                        <g id="Logo/Interface/bitpay-logo-black-(160x58)" fill="#000000">
                            <g id="Group">
                                <path d="M87.9571732,7.55062368 L83.3833462,7.55062368 L80.7365631,19.0438199 L80.3650848,20.6208489 C80.1096934,20.692532 79.8543021,20.7642151 79.5989107,20.8120039 C79.1345628,20.9075814 78.6469975,20.9553702 78.1362148,20.9553702 C77.5557799,20.9553702 77.091432,20.8597926 76.7431711,20.692532 C76.4181275,20.5252713 76.1627362,20.2863276 76.0234318,19.9518063 C75.8841274,19.6411793 75.8376926,19.2588693 75.86091,18.8287705 C75.8841274,18.3986716 75.976997,17.9207841 76.093084,17.4428965 L77.4861277,11.4693018 L78.3916062,7.50283493 L73.7249096,7.50283493 L71.6121266,16.6782764 C71.3567353,17.7774178 71.2174309,18.8287705 71.1709961,19.8323344 C71.1245613,20.8358983 71.2870831,21.6960959 71.6121266,22.4846104 C71.9371702,23.2492305 72.5176051,23.84659 73.3069965,24.3005832 C74.096388,24.7545764 75.2340404,24.9696258 76.6735189,24.9696258 C77.6718669,24.9696258 78.5541279,24.8740483 79.2970846,24.7067876 C79.320302,24.7067876 79.3667368,24.6828932 79.3899542,24.6828932 L79.3899542,24.6828932 C79.1809976,25.6386684 78.7630845,26.4032885 78.1129974,27.000648 C77.4396929,27.5980075 76.4645623,27.9086344 75.1643882,27.9086344 C74.6071707,27.9086344 74.096388,27.88474 73.63204,27.8130569 L72.7265616,31.7078406 C73.3302139,31.7795237 74.0035184,31.8273125 74.746475,31.8273125 C76.1395188,31.8273125 77.3468234,31.6600518 78.3916062,31.3494249 C79.436389,31.0149036 80.31865,30.537016 81.0848241,29.8679734 C81.8277807,29.1989308 82.4546504,28.3626276 82.9654331,27.382958 C83.4762158,26.3793941 83.8709116,25.2085696 84.1727377,23.8226956 L87.3303035,10.155111 L87.3303035,10.155111 L87.9571732,7.55062368 L87.9571732,7.55062368 Z" id="y_2_"></path>
                                <path d="M68.8028217,17.3712134 C68.524213,18.5659323 68.4313434,19.7845456 68.5474304,20.9792645 C68.6635174,22.1978779 69.1278653,24.037745 69.5689958,24.9696258 L65.1576906,24.9696258 C64.6236905,24.037745 64.6469079,23.5837518 64.5308209,23.2970193 C63.950386,23.7749069 63.3235164,24.1811113 62.6269945,24.4917382 C61.9304726,24.8023651 61.1642986,24.9696258 60.2820375,24.9696258 C59.2604721,24.9696258 58.3782111,24.7784708 57.6584718,24.4200551 C56.9387325,24.0616394 56.3350802,23.5598574 55.8707323,22.9386036 C55.4063844,22.3173498 55.0813409,21.6005184 54.8723843,20.7642151 C54.6634278,19.9279119 54.5705582,19.0438199 54.5705582,18.0880447 C54.5705582,16.6304876 54.8259495,15.268508 55.3135148,13.9782116 C55.8242975,12.6879151 56.5208194,11.5648793 57.4030805,10.6091042 C58.2853415,9.65332901 60.4445593,7.52672931 63.9736034,7.52672931 L71.0549091,7.52672931 L68.8028217,17.3712134 L68.8028217,17.3712134 Z M65.5756037,11.5170906 C63.4396033,11.5170906 63.0449076,11.5170906 62.1626466,11.9710838 C61.5357769,12.3056051 61.0249942,12.807387 60.5838637,13.3808521 C60.1427331,13.9543172 59.7712548,14.6233598 59.5158635,15.3879799 C59.2604721,16.1526 59.1211677,16.9411145 59.1211677,17.7535234 C59.1211677,18.7570873 59.2836895,19.5694962 59.608733,20.1668557 C59.9337766,20.7642151 60.5374289,21.0509477 61.4196899,21.0509477 C61.8840378,21.0509477 62.3251683,20.9553702 62.6966467,20.7642151 C63.068125,20.5730601 63.4860381,20.2624332 63.9039512,19.80844 C63.950386,19.2827637 64.0200382,18.7331929 64.1129078,18.1597278 C64.2057774,17.5862628 64.3218644,17.036692 64.414734,16.5588045 L65.5756037,11.5170906 L65.5756037,11.5170906 Z" id="a_2_"></path>
                                <path d="M53.3168188,14.4560991 C53.3168188,16.0092338 53.0614275,17.4190021 52.5738621,18.7092986 C52.0862968,19.999595 51.389775,21.0987364 50.5075139,22.0306172 C49.6252529,22.962498 48.5804701,23.6793293 47.3499481,24.2050057 C46.1194261,24.730682 44.7960346,24.9935202 43.3565561,24.9935202 C42.6600342,24.9935202 41.9635123,24.921837 41.243773,24.8023651 L39.8507293,30.5609104 L35.2769023,30.5609104 L40.593686,7.57451806 L46.699861,7.57451806 C47.8607308,7.57451806 48.8590788,7.76567309 49.6716877,8.12408877 C50.5075139,8.48250446 51.1808184,8.98428641 51.7380359,9.60554026 C52.272036,10.2267941 52.6667317,10.9675198 52.9221231,11.8038231 C53.2007318,12.616232 53.3168188,13.500324 53.3168188,14.4560991 L53.3168188,14.4560991 Z M42.1028167,20.9792645 C42.4510776,21.0748421 42.8922081,21.0987364 43.4029908,21.0987364 C44.2155997,21.0987364 44.935339,20.9553702 45.6086434,20.6447432 C46.2587305,20.3341163 46.8391654,19.9040175 47.3035133,19.3544468 C47.7678612,18.8048761 48.1161222,18.1358335 48.3947309,17.3712134 C48.6501223,16.6065932 48.7894266,15.7463956 48.7894266,14.8145148 C48.7894266,13.9065284 48.6036875,13.1180139 48.2089918,12.4967601 C47.814296,11.8516119 47.1409915,11.5170906 46.1658609,11.5170906 L44.3549041,11.5170906 L42.1028167,20.9792645 L42.1028167,20.9792645 Z" id="p_2_"></path>
                                <path d="M32.4908149,20.9792645 C31.91038,20.9792645 31.4460321,20.883687 31.0977711,20.7164264 C30.7727276,20.5491657 30.5173362,20.3102219 30.3780319,19.9757006 C30.2387275,19.6650737 30.1922927,19.2827637 30.2155101,18.8526648 C30.2387275,18.422566 30.3315971,17.9446784 30.447684,17.4667909 L31.8407278,11.4931962 L37.0414244,11.4931962 L37.9933376,7.52672931 L32.7694236,7.52672931 L33.9767282,2.50890977 L29.1010751,3.29742427 L26.0131615,16.7260651 C25.7577701,17.8252065 25.6184657,18.8765592 25.5720309,19.8801231 C25.5255962,20.883687 25.6881179,21.7438847 26.0131615,22.5323992 C26.338205,23.2970193 26.9186399,23.8943787 27.7080313,24.3483719 C28.4974228,24.8023651 29.6350752,25.0174145 31.0745537,25.0174145 C32.0729017,25.0174145 32.9551628,24.921837 33.6981194,24.7545764 C33.7677716,24.730682 33.8838586,24.7067876 33.9535108,24.6828932 L34.905424,20.5969545 C34.5803805,20.7164264 34.2553369,20.7881095 33.9535108,20.8358983 C33.4891629,20.9314758 33.0015976,20.9792645 32.4908149,20.9792645 L32.4908149,20.9792645 Z" id="t_2_"></path>
                                <polygon id="i_bottom_6_" points="20.8588996 7.55062368 16.8190728 24.9935202 21.3928997 24.9935202 25.4095092 7.55062368"></polygon>
                                <polygon id="i_top_2_" points="25.8970745 5.54349587 26.5935964 2.50890977 22.0197694 2.50890977 21.3232475 5.54349587"></polygon>
                                <path d="M10.7361151,7.57451806 C11.7112457,7.57451806 12.5702893,7.76567309 13.2900286,8.12408877 C14.0097679,8.48250446 14.5902028,8.96039203 15.0777681,9.58164588 C15.542116,10.2028997 15.8903769,10.9197311 16.1225509,11.73214 C16.3547248,12.5445488 16.4708118,13.4286409 16.4708118,14.384416 C16.4708118,15.8419731 16.2154205,17.2039527 15.6814204,18.5181435 C15.1474203,19.80844 14.4508984,20.9553702 13.54542,21.9111453 C12.6399415,22.8669205 11.5719413,23.6315406 10.3414194,24.1811113 C9.11089739,24.730682 7.78750583,25.0174145 6.3480273,25.0174145 C6.16228813,25.0174145 5.83724459,25.0174145 5.37289668,24.9935202 C4.90854877,24.9935202 4.37454866,24.9457314 3.79411377,24.8501539 C3.19046148,24.7545764 2.5635918,24.6351045 1.91350472,24.4678438 C1.24020024,24.3005832 0.613330561,24.0616394 0.0328956681,23.7749069 L5.34967928,0.788514499 L10.1092454,0.0238943788 L8.22863635,8.17187753 C8.64654947,7.9807225 9.01802781,7.83735623 9.43594093,7.74177871 C9.83063665,7.62230682 10.2717672,7.57451806 10.7361151,7.57451806 L10.7361151,7.57451806 Z M6.74272303,21.0987364 C7.46246229,21.0987364 8.13576677,20.9314758 8.76263645,20.5491657 C9.38950614,20.19075 9.94672363,19.7128625 10.4110715,19.115503 C10.8754195,18.5181435 11.2468978,17.8252065 11.5022891,17.0844808 C11.7576805,16.3198607 11.8969849,15.5313462 11.8969849,14.7189373 C11.8969849,13.7153734 11.7344631,12.9268589 11.4094196,12.3533938 C11.084376,11.7799287 10.4110715,11.5170906 9.52881051,11.5170906 C9.25020176,11.5170906 8.94837562,11.5409849 8.4840277,11.6604568 C8.01967979,11.7560343 7.62498406,11.9949781 7.25350573,12.3294994 L5.2568097,21.0031589 C5.86046199,21.0987364 6.04620116,21.1226308 6.20872293,21.1226308 C6.3248099,21.0987364 6.51054907,21.0987364 6.74272303,21.0987364 L6.74272303,21.0987364 Z" id="b_2_"></path>
                            </g>
                        </g>
                    </g>
                </g>
            </g>
        </g>
    </g>
</svg>