<svg width="1284" height="361" xmlns="http://www.w3.org/2000/svg"><g fill="none"><path fill="#A30B00" d="M0 0h233.93v360.27H0z"/><circle fill="#FFF" cx="51.02" cy="237.8" r="24.55"/><circle fill="#FFF" cx="153.26" cy="183.97" r="24.55"/><path d="M106.39 301a59.81 59.81 0 0 1-40.77-31.1 35.3 35.3 0 0 1-21 2.58c12.42 30.439 42.126 50.243 75 50a35.14 35.14 0 0 1-7.21-20.48 60.85 60.85 0 0 1-6.02-1Z" fill="#FFF"/><circle fill="#FFF" cx="147.73" cy="301.11" r="24.55"/><path d="M181.89 292.1c21.58-27.24 23.195-65.27 4-94.24A35.44 35.44 0 0 1 172.11 214a60.23 60.23 0 0 1-2 59.78 35.17 35.17 0 0 1 11.78 18.32ZM49.26 203.297c.651.003-.663 0 0 0 6.91.006 14.052 1.901 18.89 5.49 5.627-8.44 14.038-15.849 19.56-18.54-.05-7.819.928-17.098 3.593-23.286-18.747 5.356-36.444 24.776-42.044 36.336Zm48.002-29.587s-.862 2.456-1.124 12.111c0 0 10.073-3.696 23.082-4.136 2.288-32.61 32.206-47.537 45.742-55.67 0 0-15.726 20.344 0 0-31.607-2.26-61.287 16.092-67.284 45.65l-.416 2.045Zm189.477 152.273V161.51h94.933v14.003h-78.794v57.197h70.25v13.765h-70.25v65.504h84.965v14.003zm226.178-3.798c-4.589 1.583-10.443 3.086-17.563 4.51-7.12 1.424-16.139 2.136-27.056 2.136-9.019 0-17.246-1.424-24.682-4.272-7.279-3.006-13.608-7.278-18.987-12.816-5.221-5.538-9.335-12.262-12.341-20.174-2.848-7.91-4.272-16.85-4.272-26.818 0-9.335 1.186-17.88 3.56-25.632 2.531-7.911 6.17-14.715 10.917-20.41 4.747-5.697 10.522-10.127 17.325-13.291 6.962-3.165 14.873-4.747 23.733-4.747 8.07 0 15.032 1.187 20.886 3.56 6.012 2.215 10.363 4.351 13.053 6.408V144.66l15.427-2.848v180.373Zm-15.427-96.594c-1.424-1.108-3.243-2.294-5.459-3.56-2.056-1.266-4.509-2.453-7.357-3.56-2.848-1.108-5.933-1.978-9.256-2.61-3.323-.792-6.803-1.187-10.443-1.187-7.594 0-14.002 1.344-19.223 4.034-5.064 2.69-9.177 6.33-12.342 10.918-3.164 4.43-5.458 9.73-6.882 15.9-1.424 6.013-2.136 12.421-2.136 19.225 0 16.138 4.034 28.559 12.104 37.261 8.069 8.544 18.749 12.816 32.04 12.816 7.594 0 13.686-.316 18.274-.95 4.747-.79 8.307-1.581 10.68-2.373v-85.914Zm150.469 96.119c-4.589 1.267-10.76 2.69-18.512 4.273-7.753 1.582-17.246 2.373-28.48 2.373-9.177 0-16.85-1.345-23.021-4.035-6.171-2.69-11.155-6.487-14.952-11.392-3.798-4.904-6.567-10.838-8.307-17.8-1.582-6.961-2.373-14.635-2.373-23.02v-68.827h15.426v63.842c0 8.702.633 16.06 1.899 22.072 1.266 6.013 3.323 10.917 6.17 14.715 2.849 3.639 6.488 6.329 10.918 8.07 4.588 1.581 10.126 2.372 16.613 2.372 7.278 0 13.607-.395 18.987-1.186 5.38-.791 8.781-1.503 10.205-2.136V203.28h15.427v118.43Zm56.247-111.071c2.69-2.057 6.962-4.193 12.816-6.408 6.013-2.373 13.054-3.56 21.123-3.56 8.86 0 16.692 1.582 23.496 4.747 6.962 3.164 12.816 7.594 17.563 13.29 4.746 5.696 8.306 12.5 10.68 20.41 2.531 7.754 3.797 16.298 3.797 25.633 0 9.968-1.503 18.907-4.51 26.818-2.847 7.912-6.961 14.636-12.34 20.174-5.222 5.538-11.551 9.81-18.987 12.816-7.279 2.848-15.427 4.272-24.446 4.272-10.917 0-19.936-.712-27.056-2.136-7.12-1.424-12.974-2.927-17.562-4.51V144.66l15.426-2.848v68.827Zm0 100.866c2.374.792 5.855 1.583 10.443 2.374 4.747.633 10.917.95 18.512.95 13.29 0 23.97-4.273 32.04-12.817 8.07-8.702 12.104-21.123 12.104-37.261 0-6.804-.712-13.212-2.136-19.224-1.424-6.17-3.718-11.471-6.883-15.901-3.164-4.589-7.357-8.228-12.578-10.918-5.064-2.69-11.392-4.034-18.987-4.034-3.64 0-7.12.395-10.443 1.186-3.322.633-6.408 1.503-9.256 2.61-2.848 1.108-5.38 2.295-7.594 3.56-2.057 1.267-3.798 2.453-5.222 3.56v85.915Zm217.16 10.205c-4.589 1.267-10.76 2.69-18.512 4.273-7.753 1.582-17.247 2.373-28.48 2.373-9.177 0-16.85-1.345-23.022-4.035-6.17-2.69-11.154-6.487-14.952-11.392-3.797-4.904-6.566-10.838-8.306-17.8-1.582-6.961-2.374-14.635-2.374-23.02v-68.827h15.427v63.842c0 8.702.633 16.06 1.899 22.072 1.266 6.013 3.322 10.917 6.17 14.715 2.848 3.639 6.487 6.329 10.918 8.07 4.588 1.581 10.126 2.372 16.613 2.372 7.278 0 13.607-.395 18.987-1.186 5.38-.791 8.781-1.503 10.205-2.136V203.28h15.427v118.43Zm40.82-114.156c4.589-1.266 10.76-2.69 18.512-4.272 7.753-1.583 17.247-2.374 28.48-2.374 9.336 0 17.088 1.345 23.26 4.035 6.328 2.69 11.312 6.566 14.951 11.63 3.797 4.904 6.487 10.837 8.07 17.8 1.582 6.961 2.373 14.635 2.373 23.02v68.59h-15.427v-63.606c0-8.702-.633-16.059-1.899-22.071-1.107-6.013-3.085-10.918-5.933-14.715-2.69-3.797-6.329-6.487-10.917-8.07-4.43-1.74-10.047-2.61-16.85-2.61-7.28 0-13.608.395-18.988 1.187-5.22.79-8.623 1.503-10.205 2.136v107.749h-15.427v-118.43Zm149.52-4.272h48.89v13.053h-48.89V281.6c0 6.962.554 12.658 1.661 17.088 1.266 4.272 3.006 7.595 5.222 9.968 2.215 2.374 4.904 3.956 8.069 4.747 3.164.791 6.645 1.187 10.443 1.187 6.487 0 11.708-.712 15.663-2.136 3.956-1.582 7.041-3.006 9.257-4.272l3.797 12.816c-2.215 1.424-6.092 3.085-11.63 4.984-5.537 1.74-11.55 2.61-18.037 2.61-7.594 0-14.002-.949-19.224-2.848-5.063-2.056-9.177-5.063-12.341-9.018-3.006-4.114-5.142-9.177-6.408-15.19-1.266-6.012-1.899-13.132-1.899-21.36v-112.97l15.427-2.848v38.923Zm171.591 118.428c-4.588 1.267-10.759 2.69-18.512 4.273-7.752 1.582-17.246 2.373-28.48 2.373-9.176 0-16.85-1.345-23.02-4.035-6.171-2.69-11.155-6.487-14.953-11.392-3.797-4.904-6.566-10.838-8.306-17.8-1.583-6.961-2.374-14.635-2.374-23.02v-68.827h15.427v63.842c0 8.702.633 16.06 1.899 22.072 1.265 6.013 3.322 10.917 6.17 14.715 2.848 3.639 6.487 6.329 10.918 8.07 4.588 1.581 10.126 2.372 16.613 2.372 7.278 0 13.607-.395 18.986-1.186 5.38-.791 8.782-1.503 10.206-2.136V203.28h15.426v118.43Z" fill="#FFF"/></g></svg>