<svg id="Layer_1" data-name="Layer 1" version="1.1" width="1314.297" height="360.27" xmlns="http://www.w3.org/2000/svg"><defs id="defs4"><style id="style2">.cls-2{fill:#fff}</style></defs><path id="rect6" style="fill:#a30b00;fill-opacity:1" d="M0 0h233.93v360.27H0z"/><circle class="cls-2" cx="51.02" cy="237.8" r="24.55" id="circle8"/><circle class="cls-2" cx="153.26" cy="183.97" r="24.55" id="circle10"/><path class="cls-2" d="M106.39 301a59.81 59.81 0 0 1-40.77-31.1 35.3 35.3 0 0 1-21 2.58 80.36 80.36 0 0 0 75 50 35.14 35.14 0 0 1-7.21-20.48 60.85 60.85 0 0 1-6.02-1z" id="path12"/><circle class="cls-2" cx="147.73" cy="301.11" r="24.55" id="circle14"/><path class="cls-2" d="M181.89 292.1a80.32 80.32 0 0 0 4-94.24A35.44 35.44 0 0 1 172.11 214a60.23 60.23 0 0 1-2 59.78 35.17 35.17 0 0 1 11.78 18.32z" id="path16"/><path class="cls-2" d="M49.26 203.297c.651.003-.663 0 0 0 6.91.006 14.052 1.901 18.89 5.49 5.627-8.44 14.038-15.849 19.56-18.54-.05-7.819.928-17.098 3.593-23.286-18.747 5.356-36.444 24.776-42.044 36.336z" id="path18" style="display:inline;stroke-width:1.00348"/><path class="cls-2" d="M97.262 173.71s-.862 2.456-1.124 12.111c0 0 10.073-3.696 23.082-4.136 2.288-32.61 32.206-47.537 45.742-55.67 0 0-15.726 20.344 0 0-31.607-2.26-61.287 16.092-67.284 45.65z" id="path9434" style="stroke-width:1.22759"/><g aria-label="Edubuntu" id="text18569" style="font-size:40px;line-height:1.25;display:inline"><path d="M286.739 325.983V161.51h94.933v14.003h-78.794v57.197h70.25v13.765h-70.25v65.504h84.965v14.003z" style="font-weight:300;font-size:237.333px;font-family:Ubuntu;-inkscape-font-specification:'Ubuntu, Light'" id="path911"/><path d="M512.917 322.185q-6.883 2.374-17.563 4.51-10.68 2.136-27.056 2.136-13.528 0-24.682-4.272-10.918-4.51-18.987-12.816-7.832-8.307-12.341-20.174-4.272-11.866-4.272-26.818 0-14.003 3.56-25.632 3.797-11.867 10.917-20.41 7.12-8.545 17.325-13.291 10.443-4.747 23.733-4.747 12.104 0 20.886 3.56 9.018 3.323 13.053 6.408V144.66l15.427-2.848zm-15.427-96.594q-2.136-1.661-5.459-3.56-3.085-1.899-7.357-3.56t-9.256-2.61q-4.984-1.187-10.443-1.187-11.392 0-19.223 4.034-7.595 4.035-12.342 10.918-4.746 6.645-6.882 15.9-2.136 9.02-2.136 19.225 0 24.208 12.104 37.261 12.104 12.816 32.04 12.816 11.391 0 18.274-.95 7.12-1.186 10.68-2.373z" style="font-weight:300;font-size:237.333px;font-family:Ubuntu;-inkscape-font-specification:'Ubuntu, Light'" id="path913"/><path d="M647.959 321.71q-6.883 1.9-18.512 4.273-11.63 2.373-28.48 2.373-13.765 0-23.021-4.035-9.256-4.034-14.952-11.392-5.696-7.357-8.307-17.8-2.373-10.442-2.373-23.02v-68.827h15.426v63.842q0 13.053 1.899 22.072 1.899 9.019 6.17 14.715 4.273 5.458 10.918 8.07 6.883 2.372 16.613 2.372 10.918 0 18.987-1.186 8.07-1.187 10.205-2.136V203.28h15.427z" style="font-weight:300;font-size:237.333px;font-family:Ubuntu;-inkscape-font-specification:'Ubuntu, Light'" id="path915"/><path d="M704.206 210.639q4.035-3.085 12.816-6.408 9.019-3.56 21.123-3.56 13.29 0 23.496 4.747 10.443 4.746 17.563 13.29 7.12 8.544 10.68 20.41 3.797 11.63 3.797 25.633 0 14.952-4.51 26.818-4.271 11.867-12.34 20.174-7.833 8.306-18.987 12.816-10.918 4.272-24.446 4.272-16.376 0-27.056-2.136t-17.562-4.51V144.66l15.426-2.848zm0 100.866q3.56 1.187 10.443 2.374 7.12.95 18.512.95 19.936 0 32.04-12.817 12.104-13.053 12.104-37.261 0-10.205-2.136-19.224-2.136-9.256-6.883-15.901-4.746-6.883-12.578-10.918-7.595-4.034-18.987-4.034-5.459 0-10.443 1.186-4.984.95-9.256 2.61-4.272 1.662-7.594 3.56-3.086 1.9-5.222 3.56z" style="font-weight:300;font-size:237.333px;font-family:Ubuntu;-inkscape-font-specification:'Ubuntu, Light'" id="path917"/><path d="M921.366 321.71q-6.883 1.9-18.512 4.273-11.63 2.373-28.48 2.373-13.766 0-23.022-4.035-9.256-4.034-14.952-11.392-5.696-7.357-8.306-17.8-2.374-10.442-2.374-23.02v-68.827h15.427v63.842q0 13.053 1.899 22.072 1.898 9.019 6.17 14.715 4.272 5.458 10.918 8.07 6.882 2.372 16.613 2.372 10.917 0 18.987-1.186 8.069-1.187 10.205-2.136V203.28h15.427z" style="font-weight:300;font-size:237.333px;font-family:Ubuntu;-inkscape-font-specification:'Ubuntu, Light'" id="path919"/><path d="M962.186 207.554q6.883-1.9 18.512-4.272 11.63-2.374 28.48-2.374 14.003 0 23.26 4.035 9.492 4.035 14.951 11.63 5.696 7.357 8.07 17.8 2.373 10.442 2.373 23.02v68.59h-15.427v-63.606q0-13.053-1.899-22.071-1.661-9.02-5.933-14.715-4.035-5.696-10.917-8.07-6.646-2.61-16.85-2.61-10.918 0-18.988 1.187-7.832 1.186-10.205 2.136v107.749h-15.427z" style="font-weight:300;font-size:237.333px;font-family:Ubuntu;-inkscape-font-specification:'Ubuntu, Light'" id="path921"/><path d="M1111.706 203.282h48.89v13.053h-48.89V281.6q0 10.443 1.661 17.088 1.899 6.408 5.222 9.968 3.322 3.56 8.069 4.747 4.747 1.187 10.443 1.187 9.73 0 15.663-2.136 5.934-2.374 9.257-4.272l3.797 12.816q-3.323 2.136-11.63 4.984-8.306 2.61-18.037 2.61-11.392 0-19.224-2.848-7.594-3.085-12.341-9.018-4.51-6.17-6.408-15.19-1.899-9.018-1.899-21.36v-112.97l15.427-2.848z" style="font-weight:300;font-size:237.333px;font-family:Ubuntu;-inkscape-font-specification:'Ubuntu, Light'" id="path923"/><path d="M1283.297 321.71q-6.882 1.9-18.512 4.273-11.629 2.373-28.48 2.373-13.765 0-23.02-4.035-9.257-4.034-14.953-11.392-5.696-7.357-8.306-17.8-2.374-10.442-2.374-23.02v-68.827h15.427v63.842q0 13.053 1.899 22.072 1.898 9.019 6.17 14.715 4.272 5.458 10.917 8.07 6.883 2.372 16.614 2.372 10.917 0 18.986-1.186 8.07-1.187 10.206-2.136V203.28h15.426z" style="font-weight:300;font-size:237.333px;font-family:Ubuntu;-inkscape-font-specification:'Ubuntu, Light'" id="path925"/></g></svg>