<?xml version="1.0" encoding="UTF-8" standalone="no"?>
<svg
   id="Layer_1"
   data-name="Layer 1"
   viewBox="0 0 1314.2975 360.27"
   version="1.1"
   sodipodi:docname="edubuntu-logo.svg"
   width="1314.2975"
   height="360.26999"
   inkscape:version="1.1.2 (0a00cf5339, 2022-02-04)"
   inkscape:export-filename="/home/erich/Desktop/Edbuntu-logo-2022_RGB.png"
   inkscape:export-xdpi="154.83"
   inkscape:export-ydpi="154.83"
   xmlns:inkscape="http://www.inkscape.org/namespaces/inkscape"
   xmlns:sodipodi="http://sodipodi.sourceforge.net/DTD/sodipodi-0.dtd"
   xmlns="http://www.w3.org/2000/svg"
   xmlns:svg="http://www.w3.org/2000/svg">
  <sodipodi:namedview
     id="namedview33"
     pagecolor="#ffffff"
     bordercolor="#666666"
     borderopacity="1.0"
     inkscape:pageshadow="2"
     inkscape:pageopacity="0.0"
     inkscape:pagecheckerboard="0"
     showgrid="false"
     width="1314.2975px"
     inkscape:zoom="0.54944725"
     inkscape:cx="754.39453"
     inkscape:cy="148.33089"
     inkscape:window-width="1850"
     inkscape:window-height="1016"
     inkscape:window-x="0"
     inkscape:window-y="0"
     inkscape:window-maximized="1"
     inkscape:current-layer="Layer_1" />
  <defs
     id="defs4">
    <style
       id="style2">.cls-1{fill:#e95420;}.cls-2{fill:#fff;}.cls-3{fill:#111;}</style>
  </defs>
  <rect
     class="cls-1"
     width="233.92999"
     height="360.26999"
     id="rect6"
     style="fill:#a30b00;fill-opacity:1"
     x="0"
     y="0" />
  <circle
     class="cls-2"
     cx="51.02"
     cy="237.8"
     r="24.549999"
     id="circle8" />
  <circle
     class="cls-2"
     cx="153.25999"
     cy="183.97"
     r="24.549999"
     id="circle10" />
  <path
     class="cls-2"
     d="m 106.39,301 a 59.81,59.81 0 0 1 -40.77,-31.1 35.3,35.3 0 0 1 -21,2.58 80.36,80.36 0 0 0 75,50 35.14,35.14 0 0 1 -7.21,-20.48 60.85,60.85 0 0 1 -6.02,-1 z"
     id="path12" />
  <circle
     class="cls-2"
     cx="147.73"
     cy="301.10999"
     r="24.549999"
     id="circle14" />
  <path
     class="cls-2"
     d="m 181.89,292.1 a 80.32,80.32 0 0 0 4,-94.24 35.44,35.44 0 0 1 -13.78,16.14 60.23,60.23 0 0 1 -2,59.78 35.17,35.17 0 0 1 11.78,18.32 z"
     id="path16" />
  <path
     class="cls-2"
     d="m 49.259495,203.29668 c 0.65156,0.003 -0.662068,0 0,0 6.909611,0.006 14.052466,1.90173 18.891146,5.49097 5.625916,-8.43996 14.037855,-15.8492 19.558758,-18.54041 -0.04909,-7.81894 0.92867,-17.09789 3.593356,-23.2867 -18.746968,5.35613 -36.44387,24.77677 -42.04326,36.33614 z"
     id="path18"
     style="display:inline;stroke-width:1.00348"
     sodipodi:nodetypes="cccccc" />
  <path
     class="cls-2"
     d="m 97.262487,173.71044 c 0,0 -0.862136,2.45581 -1.124844,12.11061 0,0 10.073427,-3.69632 23.082397,-4.1364 2.28781,-32.61003 32.20608,-47.53668 45.74147,-55.67037 0,0 -15.72546,20.34515 0,0 -31.60685,-2.25932 -61.28606,16.09295 -67.283914,45.6505 z"
     id="path9434"
     style="stroke-width:1.22759"
     sodipodi:nodetypes="cccccsc" />
  <g
     aria-label="Edubuntu"
     id="text18569"
     style="font-size:40px;line-height:1.25;display:inline">
    <path
       d="M 286.73897,325.98273 V 161.51096 h 94.93319 v 14.00265 h -78.79455 v 57.19725 h 70.25057 v 13.76531 h -70.25057 v 65.50391 h 84.96521 v 14.00265 z"
       style="font-weight:300;font-size:237.333px;font-family:Ubuntu;-inkscape-font-specification:'Ubuntu, Light'"
       id="path911" />
    <path
       d="m 512.91675,322.1854 q -6.88266,2.37333 -17.56264,4.50933 -10.67999,2.13599 -27.05597,2.13599 -13.52798,0 -24.68263,-4.27199 -10.91731,-4.50933 -18.98664,-12.81598 -7.83198,-8.30666 -12.34131,-20.17331 -4.272,-11.86665 -4.272,-26.81863 0,-14.00264 3.56,-25.63196 3.79733,-11.86665 10.91732,-20.41064 7.11999,-8.54398 17.32531,-13.29064 10.44265,-4.74666 23.73329,-4.74666 12.10399,0 20.88531,3.55999 9.01865,3.32266 13.05331,6.40799 v -65.97857 l 15.42665,-2.848 z M 497.4901,225.59087 q -2.13599,-1.66133 -5.45866,-3.55999 -3.08533,-1.89867 -7.35732,-3.56 -4.27199,-1.66133 -9.25599,-2.61066 -4.98399,-1.18667 -10.44265,-1.18667 -11.39198,0 -19.22397,4.03466 -7.59466,4.03467 -12.34132,10.91732 -4.74666,6.64533 -6.88265,15.90131 -2.136,9.01866 -2.136,19.22397 0,24.20797 12.10398,37.26128 12.10399,12.81599 32.03996,12.81599 11.39198,0 18.27464,-0.94934 7.11999,-1.18666 10.67998,-2.37333 z"
       style="font-weight:300;font-size:237.333px;font-family:Ubuntu;-inkscape-font-specification:'Ubuntu, Light'"
       id="path913" />
    <path
       d="m 647.95883,321.71073 q -6.88266,1.89867 -18.51197,4.272 -11.62932,2.37333 -28.47996,2.37333 -13.76531,0 -23.0213,-4.03466 -9.25599,-4.03466 -14.95198,-11.39199 -5.69599,-7.35732 -8.30665,-17.79997 -2.37333,-10.44265 -2.37333,-23.0213 v -68.82657 h 15.42664 v 63.84257 q 0,13.05332 1.89866,22.07197 1.89867,9.01866 6.17066,14.71465 4.272,5.45866 10.91732,8.06932 6.88266,2.37333 16.61331,2.37333 10.91732,0 18.98664,-1.18666 8.06932,-1.18667 10.20532,-2.136 V 203.28157 h 15.42664 z"
       style="font-weight:300;font-size:237.333px;font-family:Ubuntu;-inkscape-font-specification:'Ubuntu, Light'"
       id="path915" />
    <path
       d="m 704.20633,210.63889 q 4.03466,-3.08533 12.81598,-6.40799 9.01866,-3.55999 21.12264,-3.55999 13.29065,0 23.49597,4.74666 10.44265,4.74666 17.56264,13.29064 7.11999,8.54399 10.67998,20.41064 3.79733,11.62932 3.79733,25.63196 0,14.95198 -4.50933,26.81863 -4.27199,11.86665 -12.34131,20.17331 -7.83199,8.30665 -18.98664,12.81598 -10.91732,4.27199 -24.4453,4.27199 -16.37598,0 -27.05596,-2.13599 -10.67999,-2.136 -17.56264,-4.50933 V 144.66032 l 15.42664,-2.848 z m 0,100.86652 q 3.56,1.18667 10.44265,2.37333 7.11999,0.94934 18.51198,0.94934 19.93597,0 32.03995,-12.81599 12.10398,-13.05331 12.10398,-37.26128 0,-10.20531 -2.13599,-19.22397 -2.136,-9.25598 -6.88266,-15.90131 -4.74666,-6.88265 -12.57865,-10.91732 -7.59466,-4.03466 -18.98664,-4.03466 -5.45866,0 -10.44265,1.18667 -4.98399,0.94933 -9.25599,2.61066 -4.27199,1.66133 -7.59465,3.56 -3.08533,1.89866 -5.22133,3.55999 z"
       style="font-weight:300;font-size:237.333px;font-family:Ubuntu;-inkscape-font-specification:'Ubuntu, Light'"
       id="path917" />
    <path
       d="m 921.36563,321.71073 q -6.88266,1.89867 -18.51197,4.272 -11.62932,2.37333 -28.47996,2.37333 -13.76532,0 -23.0213,-4.03466 -9.25599,-4.03466 -14.95198,-11.39199 -5.69599,-7.35732 -8.30666,-17.79997 -2.37333,-10.44265 -2.37333,-23.0213 v -68.82657 h 15.42665 v 63.84257 q 0,13.05332 1.89866,22.07197 1.89867,9.01866 6.17066,14.71465 4.27199,5.45866 10.91732,8.06932 6.88266,2.37333 16.61331,2.37333 10.91732,0 18.98664,-1.18666 8.06932,-1.18667 10.20532,-2.136 V 203.28157 h 15.42664 z"
       style="font-weight:300;font-size:237.333px;font-family:Ubuntu;-inkscape-font-specification:'Ubuntu, Light'"
       id="path919" />
    <path
       d="m 962.18649,207.55356 q 6.88265,-1.89866 18.51197,-4.27199 11.62932,-2.37333 28.47994,-2.37333 14.0027,0 23.2587,4.03466 9.4933,4.03466 14.9519,11.62932 5.696,7.35732 8.0694,17.79997 2.3733,10.44265 2.3733,23.0213 v 68.58924 h -15.4267 v -63.60524 q 0,-13.05332 -1.8986,-22.07197 -1.6614,-9.01866 -5.9334,-14.71465 -4.0346,-5.69599 -10.9173,-8.06932 -6.6453,-2.61066 -16.8506,-2.61066 -10.91733,0 -18.98665,1.18666 -7.83199,1.18667 -10.20532,2.136 v 107.74918 h -15.42664 z"
       style="font-weight:300;font-size:237.333px;font-family:Ubuntu;-inkscape-font-specification:'Ubuntu, Light'"
       id="path921" />
    <path
       d="m 1111.7059,203.28157 h 48.8906 v 13.05331 h -48.8906 v 65.26658 q 0,10.44265 1.6613,17.08797 1.8987,6.40799 5.2214,9.96799 3.3226,3.55999 8.0693,4.74666 4.7467,1.18666 10.4426,1.18666 9.7307,0 15.664,-2.13599 5.9333,-2.37333 9.256,-4.272 l 3.7973,12.81598 q -3.3226,2.136 -11.6293,4.984 -8.3066,2.61066 -18.0373,2.61066 -11.392,0 -19.224,-2.848 -7.5946,-3.08532 -12.3413,-9.01865 -4.5093,-6.17066 -6.408,-15.18931 -1.8986,-9.01865 -1.8986,-21.35997 v -112.9705 l 15.4266,-2.848 z"
       style="font-weight:300;font-size:237.333px;font-family:Ubuntu;-inkscape-font-specification:'Ubuntu, Light'"
       id="path923" />
    <path
       d="m 1283.2975,321.71073 q -6.8827,1.89867 -18.512,4.272 -11.6293,2.37333 -28.48,2.37333 -13.7653,0 -23.0213,-4.03466 -9.256,-4.03466 -14.952,-11.39199 -5.6959,-7.35732 -8.3066,-17.79997 -2.3733,-10.44265 -2.3733,-23.0213 v -68.82657 h 15.4266 v 63.84257 q 0,13.05332 1.8987,22.07197 1.8986,9.01866 6.1706,14.71465 4.272,5.45866 10.9173,8.06932 6.8827,2.37333 16.6134,2.37333 10.9173,0 18.9866,-1.18666 8.0693,-1.18667 10.2053,-2.136 V 203.28157 h 15.4267 z"
       style="font-weight:300;font-size:237.333px;font-family:Ubuntu;-inkscape-font-specification:'Ubuntu, Light'"
       id="path925" />
  </g>
</svg>
