<svg xmlns="http://www.w3.org/2000/svg" height="16" width="16" viewBox="0 0 512 512"><!--!Font Awesome Free 6.5.1 by @fontawesome - https://fontawesome.com License - https://fontawesome.com/license/free Copyright 2023 Fonticons, Inc.--><path d="M512 176c0 97.2-78.8 176-176 176-11.2 0-22.2-1.1-32.8-3.1l-24 27a24 24 0 0 1-18 8.1H224v40c0 13.3-10.7 24-24 24h-40v40c0 13.3-10.7 24-24 24H24c-13.3 0-24-10.7-24-24v-78.1c0-6.4 2.5-12.5 7-17l161.8-161.8c-5.7-17.3-8.8-35.8-8.8-55.1C160 78.8 238.8 0 336 0c97.5 0 176 78.5 176 176zm-176-48c0 26.5 21.5 48 48 48s48-21.5 48-48-21.5-48-48-48-48 21.5-48 48z"/></svg>