<svg xmlns="http://www.w3.org/2000/svg" height="16" width="16" viewBox="0 0 512 512"><!--!Font Awesome Free 6.5.1 by @fontawesome - https://fontawesome.com License - https://fontawesome.com/license/free Copyright 2023 Fonticons, Inc.--><path d="M512 176C512 273.2 433.2 352 336 352c-11.2 0-22.2-1.1-32.8-3.1l-24 27A24 24 0 0 1 261.2 384H224v40c0 13.3-10.7 24-24 24h-40v40c0 13.3-10.7 24-24 24H24c-13.3 0-24-10.7-24-24v-78.1c0-6.4 2.5-12.5 7-17l161.8-161.8C163.1 213.8 160 195.3 160 176 160 78.8 238.8 0 336 0 433.5 0 512 78.5 512 176zM336 128c0 26.5 21.5 48 48 48s48-21.5 48-48-21.5-48-48-48-48 21.5-48 48z"/></svg>
