<svg xmlns="http://www.w3.org/2000/svg" xmlns:xlink="http://www.w3.org/1999/xlink" width="32" height="32">
    <defs>
        <radialGradient id="a" cx="100.758%" cy="11.323%" r="77.653%" fx="100.758%" fy="11.323%" gradientTransform="matrix(.9688 0 0 1 .031 0)">
            <stop offset="0%" stop-color="#F8FAFF"/>
            <stop offset="40.366%" stop-color="#E0EFFF"/>
            <stop offset="86.53%" stop-color="#5682B4"/>
            <stop offset="100%" stop-color="#4071AD"/>
        </radialGradient>
        <radialGradient id="b" cx="65.35%" cy="7.927%" r="96.965%" fx="65.35%" fy="7.927%" gradientTransform="matrix(.8407 0 0 1 .104 0)">
            <stop offset="0%" stop-color="#F1F2F2"/>
            <stop offset="77%" stop-color="#1C396E"/>
            <stop offset="100%" stop-color="#FFF"/>
        </radialGradient>
        <radialGradient id="c" cx="65.348%" cy="7.926%" r="97.042%" fx="65.348%" fy="7.926%" gradientTransform="matrix(.8367 0 0 1 .107 0)">
            <stop offset="0%" stop-color="#F1F2F2"/>
            <stop offset="77%" stop-color="#1C396E"/>
            <stop offset="100%" stop-color="#6374A7"/>
        </radialGradient>
        <radialGradient id="i" cx="50.383%" cy="49.228%" r="65.3%" fx="50.383%" fy="49.228%" gradientTransform="matrix(.8267 0 0 1 .087 0)">
            <stop offset="0%" stop-color="#01D1FE"/>
            <stop offset="17%" stop-color="#00CDFD"/>
            <stop offset="33%" stop-color="#00C2FB"/>
            <stop offset="48%" stop-color="#00AFF8"/>
            <stop offset="63%" stop-color="#0095F4"/>
            <stop offset="69%" stop-color="#0088F2"/>
            <stop offset="100%" stop-color="#002A90"/>
        </radialGradient>
        <radialGradient id="j" cx="50%" cy="78.872%" r="60.571%" fx="50%" fy="78.872%" gradientTransform="matrix(.5195 0 0 1 .24 0)">
            <stop offset="0%" stop-color="#00217D"/>
            <stop offset="100%" stop-color="#00104E"/>
        </radialGradient>
        <radialGradient id="m" cx="50%" cy="-352.347%" r="0%" fx="50%" fy="-352.347%" gradientTransform="matrix(1 0 0 .6672 0 -1.173)">
            <stop offset="0%" stop-color="#001F5C"/>
            <stop offset="100%" stop-color="#000B34"/>
        </radialGradient>
        <radialGradient id="n" cx="50.009%" cy="50.02%" r="61.203%" fx="50.009%" fy="50.02%" gradientTransform="scale(1 .708) rotate(-76.05 .632 .603)">
            <stop offset="0%" stop-color="#FFF" stop-opacity=".4"/>
            <stop offset="100%" stop-color="#F8FAFF" stop-opacity="0"/>
        </radialGradient>
        <ellipse id="k" cx="1.503" cy="2.253" rx="1.503" ry="2.253"/>
        <ellipse id="o" cx="1.503" cy="2.253" rx="1.503" ry="2.253"/>
        <path id="d" d="M14.434 24.082c-1.933 0-3.814-.334-5.593-.995a14.862 14.862 0 0 1-4.58-2.693c-1.33-1.152-2.376-2.486-3.11-3.966A10.725 10.725 0 0 1 0 11.618C0 8.38 1.522 5.406 4.285 3.246 6.962 1.153 10.566 0 14.434 0c3.868 0 7.472 1.152 10.15 3.246 2.762 2.16 4.284 5.133 4.284 8.372 0 1.654-.387 3.272-1.15 4.81-.735 1.48-1.781 2.814-3.11 3.966a14.848 14.848 0 0 1-4.581 2.693 16.01 16.01 0 0 1-5.593.995Z"/>
        <path id="g" d="M13.685 22.832a15.18 15.18 0 0 1-5.302-.943 14.082 14.082 0 0 1-4.343-2.554c-1.26-1.092-2.252-2.357-2.95-3.76A10.182 10.182 0 0 1 0 11.014c0-3.07 1.443-5.89 4.062-7.938C6.6 1.093 10.017 0 13.684 0s7.084 1.093 9.622 3.077c2.62 2.048 4.063 4.867 4.063 7.938a10.18 10.18 0 0 1-1.091 4.56c-.697 1.403-1.69 2.668-2.949 3.76a14.082 14.082 0 0 1-4.343 2.554c-1.686.625-3.47.943-5.302.943Z"/>
        <linearGradient id="e" x1="15.365%" x2="93.253%" y1="75.862%" y2="32.993%">
            <stop offset="0%" stop-color="#1C396E"/>
            <stop offset="100%" stop-color="#FFF"/>
        </linearGradient>
    </defs>
    <g fill="none" fill-rule="evenodd">
        <path fill="url(#a)" fill-rule="nonzero" d="M32 15.943C32 25.013 24.837 31 16 31S0 25.105 0 15.943C0 6.782 7.198 0 16.034 0 24.87 0 32 6.875 32 15.943Z"/>
        <g fill-rule="nonzero">
            <path fill="url(#b)" d="M15.01 25.237c-2 0-3.95-.347-5.792-1.031a15.437 15.437 0 0 1-4.758-2.799c-1.387-1.201-2.48-2.596-3.25-4.146C.408 15.643 0 13.938 0 12.195c0-3.42 1.6-6.555 4.506-8.827C7.284 1.196 11.014 0 15.01 0c3.996 0 7.726 1.196 10.504 3.368 2.906 2.272 4.506 5.407 4.506 8.827 0 1.744-.407 3.448-1.21 5.067-.77 1.55-1.863 2.944-3.25 4.146a15.437 15.437 0 0 1-4.758 2.798 16.586 16.586 0 0 1-5.792 1.031Z" transform="translate(1.01 4.427)"/>
            <path fill="url(#c)" d="M15.01 24.876c-1.958 0-3.864-.34-5.667-1.008a15.079 15.079 0 0 1-4.647-2.733c-1.351-1.17-2.415-2.527-3.163-4.034C.755 15.533.36 13.883.36 12.196c0-3.307 1.552-6.341 4.368-8.544C7.443 1.53 11.095.362 15.01.362c3.916 0 7.568 1.168 10.282 3.29 2.817 2.203 4.369 5.246 4.369 8.544 0 1.687-.395 3.337-1.173 4.905-.748 1.507-1.812 2.864-3.163 4.034a15.071 15.071 0 0 1-4.647 2.733 16.231 16.231 0 0 1-5.668 1.008Z" transform="translate(1.01 4.427)"/>
        </g>
        <g transform="translate(1.588 5.004)">
            <mask id="f" fill="#fff">
                <use xlink:href="#d"/>
            </mask>
            <g fill="url(#e)" fill-rule="nonzero" mask="url(#f)">
                <path d="M14.997 24.082 0 12.56V7.273l.304-.398 22.17 17.034-.134.173h-7.343ZM0 12.56l14.997 11.523H9.862L0 16.504V12.56Zm0 3.945 9.862 7.578H0v-7.578Zm.78-10.25 22.17 17.033-.476.62L.304 6.874l.476-.62Zm.136-.178 22.17 17.033-.046.06-.045.058-.045.06L.78 6.252l.045-.059.045-.059.046-.059Zm.181-.236 22.17 17.032-.045.06-.078-.06.078.06-.046.059-.045.059-.045.059L.916 6.076l.045-.06.09-.117.046-.06Zm.136-.178 22.17 17.033-.045.059-.045.059-.046.059L1.097 5.839l.045-.06.046-.058.045-.06Zm.182-.237 22.17 17.033-.045.059-.046.06-.154-.12.154.119-.045.06-.046.058L1.233 5.662l.046-.06.045-.059.046-.059.045-.059Zm.272-.355 22.17 17.033-.045.059-.046.059-.045.059-.045.06-.231-.178.23.177-.045.06-.045.059L1.415 5.425l.045-.06.046-.059.045-.059.045-.059.045-.059.046-.06Zm.182-.237 22.17 17.033-.046.06-.045.058-.046.06-.045.058L1.687 5.07l.045-.06.046-.059.045-.059.046-.059Zm.135-.178 22.17 17.033-.045.06-.045.058-.046.06L1.868 4.833l.046-.06.077.06-.077-.06.045-.058.045-.06Zm.182-.236 22.17 17.032-.045.06-.046.059-.045.059-.045.059L2.005 4.655l.045-.059.045-.06.154.12-.153-.119.045-.06.045-.058Zm.317-.415 22.17 17.033-.045.06-.045.059-.046.059-.045.059-.045.06-.045.058-.046.06L2.186 4.417l.045-.059.078.06-.077-.06.045-.059.045-.059.045-.06.046-.058.154.118-.154-.118.045-.06.045-.059Zm.137-.177L24.81 20.86l-.046.059-.045.059-.045.059L2.504 4.004l.045-.059.045-.06.154.12-.153-.119.045-.06Zm.181-.237 22.17 17.033-.045.059-.046.059-.045.06-.045.058L2.64 3.827l.045-.06.078.06-.078-.06.046-.059.045-.059.045-.06Zm.318-.414 22.17 17.033-.046.059-.045.059-.045.059-.046.059L2.957 3.412l.046-.06.077.06-.077-.059.045-.06.046-.058.045-.06ZM3.91 2.17l22.17 17.032-.045.06-.046.058-.045.06L3.774 2.346l.045-.06.046-.059.045-.058ZM5.498.098l22.17 17.033-.045.059-.461-.354.46.354-.045.059-.045.059-.046.059L5.316.334l.046-.06.045-.058.045-.06.046-.058ZM15.408 0l13.46 10.341v.188L15.164 0h.244Zm9.674 20.504-.046.06-.045.059L2.821 3.59l.045-.06.046-.059.154.119-.154-.118.045-.06 22.17 17.033-.045.06-.308-.237.308.236Zm.272-.355-.046.06L3.138 3.174l.046-.059.078.06-.078-.06.045-.059.046-.059 22.17 17.033-.046.059-.045.06-.154-.12.154.119Zm.227-.296-.046.06-.045.058-.045.06L3.275 2.998l.045-.06.045-.058.046-.06.154.119-.154-.118.045-.06 22.17 17.033-.045.06-.154-.12.154.12Zm.09-.118-.045.059L3.456 2.761l.046-.06.154.12-.154-.119.045-.059.045-.06 22.17 17.033-.045.06-.045.059-.309-.237.309.237Zm.182-.237-.045.059-.046.06L3.592 2.582l.046-.059.045-.059.154.118-.154-.118.046-.059.045-.06 22.17 17.034-.045.059-.046.059-.154-.118.154.118Zm.317-.414-.045.059-.045.06L3.91 2.168l.045-.059L4 2.05l.232.178L4 2.051l.045-.06 22.17 17.033-.045.06-.232-.178.231.178Zm.182-.237-.045.059-.046.06-.045.058L4.046 1.991l.045-.059.155.119-.155-.119.046-.059.045-.059.154.118-.154-.118.046-.059 22.17 17.033-.046.059-.154-.119.154.119Zm.09-.119-.044.06L4.228 1.755l.045-.06.154.12-.154-.12.045-.058.046-.06 22.17 17.033-.046.06-.045.059-.154-.119.154.118Zm.182-.237-.045.06-.045.059L4.364 1.577l.045-.06.045-.058.154.118-.153-.118.045-.06.045-.059 22.17 17.033-.045.06-.045.059-.154-.119.153.118Zm.136-.177-.045.06L4.545 1.34l.045-.059.155.119-.154-.119.045-.059.045-.059 22.17 17.033-.045.059-.045.059-.308-.237.307.237Zm.182-.237-.045.06-.046.059L4.681 1.163l.046-.06.045-.058.154.118-.154-.118.045-.06.046-.059 22.17 17.033-.046.06-.045.058-.154-.118.154.118Zm.181-.236-.045.059-.045.059L4.863.926l.045-.06.045-.058.154.118-.153-.118.045-.06 22.17 17.033-.045.06-.155-.119.154.119Zm.091-.119-.045.06L4.999.747 5.044.69 5.2.808 5.044.689 5.09.63l.045-.059.045-.06 22.17 17.034-.045.059-.045.059-.046.06-.154-.12.154.119Zm.227-.296-.045.06-.046.058L5.18.511l.046-.059.045-.059.154.118L5.27.393l.046-.059 22.17 17.033-.046.06-.308-.237.308.236ZM28.868 11v.188l-6.423-4.935 6.423 4.935v.47l-4.285-3.292 4.285 3.292v.188l-7.28-5.592 7.28 5.592v.47l-7.082-5.44 7.082 5.44v.189L25.44 9.87l3.428 2.634v.47l-5.676-4.361 5.676 4.36v.189L21.2 7.273l7.667 5.89v.47L23.97 9.871l4.897 3.762v.188l-4.285-3.292 4.285 3.292v.47l-6.856-5.267 6.856 5.268v.188l-5.998-4.61 5.999 4.609v.47l-4.897-3.762 4.897 3.762v.188L22.013 9.87l6.855 5.267v.429l-.02.026-.046.059L15.261 5.247l13.541 10.405-.045.06-.046.058-5.352-4.112 5.352 4.112-.045.06-.09.118-3.014-2.315 3.013 2.315-.045.06-.046.058L21.89 11l6.594 5.066-.045.06-.046.059-6.503-4.997 6.503 4.997-.045.059-.045.06-.045.059-.046.059-1.915-1.472 1.915 1.472-.045.059-6.032-4.635 6.032 4.635-.046.06-.045.058L21.4 11.47l6.676 5.13-.045.058-.046.06L14.29 6.194l13.696 10.524-.045.059-.045.059-.046.06-.045.059-.046.059-7.215-5.544 7.215 5.544-.045.059-.045.057L5.498.097l.045-.059h.001L5.574 0h3.224l1.667 1.281L8.798 0h1.836l.897.69-.897-.69h.857l.59.452L11.49 0h1.225l.896.69-.896-.69h1.224l.666.512L13.94 0h1.224l13.704 10.53V11L22.69 6.253 28.868 11ZM18.224 0h10.644v8.366l-3.674-2.823 3.674 2.823v.658l-4.685-3.599 4.685 3.6v.658l-3.655-2.809 3.655 2.809v.188l-4.94-3.795 4.94 3.795v.47L15.408 0h.123l1.36 1.045L15.53 0h1.102l.897.69-.897-.69h1.224l1.513 1.163L17.857 0h.367l.204.157L18.224 0Z"/>
            </g>
        </g>
        <path fill="#6374A7" fill-rule="nonzero" d="M16.021 29.14a16.05 16.05 0 0 1-5.61-.998 14.914 14.914 0 0 1-4.598-2.703c-1.335-1.156-2.385-2.496-3.123-3.984-.767-1.545-1.156-3.171-1.156-4.833 0-3.256 1.529-6.245 4.305-8.415 2.686-2.1 6.303-3.257 10.182-3.257 3.88 0 7.496 1.157 10.182 3.257 2.777 2.17 4.306 5.159 4.306 8.415 0 1.662-.389 3.288-1.156 4.833-.738 1.487-1.789 2.828-3.123 3.984a14.91 14.91 0 0 1-4.597 2.703 16.065 16.065 0 0 1-5.611.999Zm0-24.082c-3.856 0-7.448 1.149-10.115 3.234-2.75 2.15-4.264 5.108-4.264 8.33 0 1.645.385 3.255 1.145 4.786.731 1.474 1.773 2.803 3.097 3.95a14.804 14.804 0 0 0 4.564 2.683 15.96 15.96 0 0 0 5.574.991 15.96 15.96 0 0 0 5.573-.991 14.81 14.81 0 0 0 4.565-2.684c1.323-1.147 2.365-2.475 3.097-3.95.76-1.53 1.145-3.14 1.145-4.785 0-3.222-1.515-6.18-4.264-8.33-2.668-2.085-6.26-3.234-10.116-3.234Z"/>
        <g transform="translate(2.337 6.254)">
            <mask id="h" fill="#fff">
                <use xlink:href="#g"/>
            </mask>
            <g fill="#6374A7" fill-rule="nonzero" mask="url(#h)">
                <path d="M7.488-.287v.25h.047l.079-.217v.217h.058L7.74-.22v.183h.07l.056-.15v.15h.083l.043-.115v.115h.095l.03-.081v.081h.108l.018-.048v.048h.12l.006-.015v.015H8.5l.022-.057.029-.076v.133h.088c.031-.083.063-.165.096-.248v.248h.042l.082-.211v.211h.056l.068-.174v.174h.07l.055-.138v.138h.084l.04-.1v.1h.397l.012-.03a7.51 7.51 0 0 1 .038-.092v.122h.388l.055-.133v.133h.385l.002-.006v.006h.438a13 13 0 0 1 .054-.122v.122h.389l.028-.061a4.31 4.31 0 0 1 .072-.154v.215h.345l.031-.067v.067h.416l.064-.128v.128h.387l.018-.036.069-.131v.167h.367a8.32 8.32 0 0 1 .1-.184v.184h.358c0-.002.002-.003.003-.005v.005h.46c.03-.05.06-.102.092-.153v.153h.378l.002-.004.064-.1v.104h.413l.023-.034v.034h.464l.053-.072v.072h.45l.05-.062v.062h.474l.004-.004v.004h.55a5.49 5.49 0 0 1 .069-.067v.067h.535l.036-.029v.03h.673c.15-.091.305-.17.462-.239v.238h.613l.063-.015a2.777 2.777 0 0 1 1.354.015h.819v-.162c.086.049.17.103.25.162h.588v-.122c.042.04.083.08.122.122h.467v-.178c.049.058.095.117.14.178h.463v-.145c.031.048.062.096.091.145h.514v-.019l.01.02h.486v-.038l.016.037h.484v-.012l.004.012h.395v-.23c.03.076.057.153.083.23h.425V-.18c.016.048.03.095.044.143h.461v-.01l.003.01h.41v-.188l.047.188h.153v.853a8.384 8.384 0 0 1 0 1.97V4.4h.085c-.026.09-.055.179-.084.268v.661h.192c-.06.151-.124.302-.192.452v.549h.185c-.06.118-.121.235-.185.352v.71h.052a12.3 12.3 0 0 1-.052.084v.578h.102l-.102.15v.544h.102l-.102.137v.58h.053l-.053.065v.434h.16a9.305 9.305 0 0 1-.16.187v.325h.25a22.08 22.08 0 0 1-.25.275v.053h.124l-.084.09h.175c-.071.078-.143.153-.215.228v.104h.078l-.078.08v.014h.166l-.166.17v.162h.017l-.017.018v.078h.103l-.098.096h.183l-.188.184v.153h.025l-.025.024v.075h.107l-.104.099h.187l-.19.177v.162h.012l-.012.012v.09h.092l-.092.083v.018h.172l-.172.154v.07h.116a20.35 20.35 0 0 1-.116.103v.12h.056l-.056.05v.054h.134l-.12.104h.196l-.21.18v.274h.075l-.075.062v.044h.148l-.128.106h.203c-.074.062-.148.123-.223.183v.047h.147l-.147.119v.111h.067l-.067.053v.056h.138a18.18 18.18 0 0 1-.138.11h.21l-.21.164v.068h.123l-.123.095v.138h.032l-.032.025v.086h.1l-.1.076v.034h.169l-.147.111h.215c-.079.06-.158.12-.237.178v.058h.138a19.93 19.93 0 0 1-.138.103v.134h.036l-.036.026v.087h.102l-.102.074v.04h.167l-.156.112h.221l-.232.167v.073h.121l-.121.086v.153h.007l-.007.005v.11h.07l-.07.05v.066h.133l-.133.091v.024h.195l-.195.134v.108h.072l-.072.049v.067h.133l-.133.09v.153h.005l-.005.003v.114h.065l-.065.043v.074h.124l-.124.082v.035h.183l-.177.117h.237l-.243.16v.086h.105l-.105.068v.05h.164l-.165.106v.142h.02l-.02.013v.106h.077l-.077.048v.07h.134l-.134.084v.035h.19c-.062.04-.125.08-.189.119h.246l-.247.154v.097h.094l-.094.057v.062h.15l-.15.091v.03h.204l-.204.123v.128h.043l-.043.026v.094h.097l-.133.08v2.38H21.71c-.192.05-.385.097-.578.141v-.106h-.156c-.261.058-.523.11-.784.158v-.141c-.309.055-.618.103-.927.144v-.14c-.61.08-1.221.13-1.83.148a17.378 17.378 0 0 1-3.038-.169h-.612v.047l-.043-.008v.15c-.3-.055-.6-.118-.897-.189h-.043v.14a16.208 16.208 0 0 1-.676-.176H0V0h1.11l.033-.117v.081h.113l.017-.06v.06h.118l.011-.038v.038h.126l.004-.016v.016h.13l.07-.233v.233h.067l.062-.21v.21h.074l.055-.187v.187h.08L2.12-.2v.163h.087l.041-.14v.14h.094l.035-.117v.117h.102l.028-.093v.093h.108l.02-.07v.07h.116l.013-.046v.046h.123l.006-.023v.023h.13l.033-.11.035-.111v.22h.068l.015-.05.045-.146v.197h.076l.019-.062c.01-.037.022-.073.034-.11v.171h.083l.045-.145v.145h.092l.004-.012.033-.108v.12h.098l.03-.095v.095h.107l.022-.07v.07h.114l.014-.045v.045h.122l.073-.228v.228h.064c.02-.067.042-.134.064-.2v.2h.072L4.44-.21v.174h.08l.048-.147v.147h.09l.038-.12v.12h.097l.03-.094v.094h.107l.021-.067v.067h.115l.013-.04v.04h.124L5.21-.05v.013h.132l.016-.05.043-.128v.178h.078l.008-.023.042-.127v.15h.087l.009-.027.031-.094v.121h.096l.031-.093v.093h.106l.085-.25v.25h.052l.075-.22v.22h.062l.065-.19v.19H6.3l.055-.16v.16h.082l.044-.129v.13h.093l.034-.1v.1h.103l.024-.07v.07h.114l.013-.039v.038h.124l.003-.008v.008h.135l.022-.062.03-.085v.147h.085L7.26-.04l.04-.112v.115h.096v-.001l.091-.25Z"/>
            </g>
        </g>
        <path fill="#FFF" fill-rule="nonzero" d="M16.021 29.123c-1.836 0-3.624-.319-5.314-.946a14.111 14.111 0 0 1-4.354-2.56c-1.264-1.095-2.259-2.364-2.958-3.772a10.216 10.216 0 0 1-1.094-4.576c0-3.082 1.447-5.911 4.076-7.966 2.544-1.99 5.97-3.085 9.645-3.085s7.1 1.095 9.644 3.085c2.628 2.054 4.076 4.884 4.076 7.966 0 1.573-.368 3.113-1.094 4.576-.7 1.408-1.694 2.677-2.958 3.771a14.125 14.125 0 0 1-4.354 2.56c-1.69.628-3.478.947-5.314.947Zm0-22.833c-3.659 0-7.068 1.09-9.6 3.07-2.61 2.04-4.048 4.85-4.048 7.91 0 1.56.365 3.09 1.086 4.543.695 1.399 1.684 2.66 2.94 3.749a14.05 14.05 0 0 0 4.333 2.547 15.13 15.13 0 0 0 5.289.941c1.827 0 3.607-.316 5.29-.94a14.043 14.043 0 0 0 4.331-2.548c1.256-1.088 2.246-2.35 2.94-3.75a10.146 10.146 0 0 0 1.087-4.543c0-3.06-1.438-5.868-4.048-7.91-2.532-1.979-5.941-3.069-9.6-3.069Z"/>
        <path fill="url(#i)" fill-rule="nonzero" d="M29.114 17.27c0 6.025-5.862 11.223-13.092 11.223S2.93 23.295 2.93 17.27 8.791 6.848 16.022 6.848c7.23 0 13.092 4.397 13.092 10.422Z"/>
        <g fill-rule="nonzero">
            <path fill="#4DE9FE" d="M19.336 20.25c0 1.429-1.475 2.615-3.293 2.615-1.819 0-3.293-1.186-3.293-2.615 0-1.43 1.474-.522 3.293-.522 1.818 0 3.293-.908 3.293.522Z"/>
            <path fill="url(#j)" d="M6.585.806c0 1.429-1.474 2.615-3.292 2.615C1.474 3.421 0 2.235 0 .806 0-.624 1.474.284 3.293.284c1.818 0 3.292-.908 3.292.522Z" transform="translate(12.75 19.296)"/>
        </g>
        <g transform="translate(7.995 13.472)">
            <g transform="translate(0 .14)">
                <mask id="l" fill="#fff">
                    <use xlink:href="#k"/>
                </mask>
                <g fill="#20C7F5" fill-rule="nonzero" mask="url(#l)">
                    <path d="M0 4.524h3.007v.029H0v-.03Zm0-.13h3.007v.108H0v-.109Zm0-.374h3.007v.373H0V4.02Zm3.007.004H0v-.108h3.007v.108Zm0-.108H0V0h3.007v3.916Z"/>
                </g>
            </g>
            <g fill-rule="nonzero">
                <ellipse cx="1.503" cy="2.253" fill="url(#m)" rx="1.503" ry="2.253"/>
                <path fill="#021B7C" d="M1.549 4.16C.846 4.16.277 3.352.277 2.357c0-.255.037-.496.104-.716a2.405 2.405 0 0 0-.154.86c0 .996.57 1.802 1.272 1.802.523 0 .972-.447 1.167-1.086-.215.56-.635.941-1.118.941Z" opacity=".73"/>
            </g>
            <ellipse cx="2.024" cy="1.403" fill="url(#n)" fill-rule="nonzero" rx="1" ry="1.049" transform="rotate(-26.98 2.024 1.403)"/>
        </g>
        <g transform="translate(20.676 13.472)">
            <g transform="translate(0 .14)">
                <mask id="p" fill="#fff">
                    <use xlink:href="#o"/>
                </mask>
                <g fill="#20C7F5" fill-rule="nonzero" mask="url(#p)">
                    <path d="M0 4.524h3.007v.029H0v-.03Zm0-.13h3.007v.108H0v-.109Zm0-.374h3.007v.373H0V4.02Zm3.007.004H0v-.108h3.007v.108Zm0-.108H0V0h3.007v3.916Z"/>
                </g>
            </g>
            <g fill-rule="nonzero">
                <ellipse cx="1.503" cy="2.253" fill="url(#m)" rx="1.503" ry="2.253"/>
                <path fill="#021B7C" d="M1.549 4.16C.846 4.16.277 3.352.277 2.357c0-.255.037-.496.104-.716a2.405 2.405 0 0 0-.154.86c0 .996.57 1.802 1.272 1.802.523 0 .972-.447 1.167-1.086-.215.56-.635.941-1.118.941Z" opacity=".73"/>
            </g>
            <ellipse cx="2.024" cy="1.403" fill="url(#n)" fill-rule="nonzero" rx="1" ry="1.049" transform="rotate(-26.98 2.024 1.403)"/>
        </g>
    </g>
</svg>
