<?xml version="1.0" encoding="UTF-8" standalone="no"?>
<!-- Generator: Adobe Illustrator 13.0.2, SVG Export Plug-In . SVG Version: 6.00 Build 14948)  -->
<svg xmlns:dc="http://purl.org/dc/elements/1.1/" xmlns:cc="http://creativecommons.org/ns#" xmlns:rdf="http://www.w3.org/1999/02/22-rdf-syntax-ns#" xmlns:svg="http://www.w3.org/2000/svg" xmlns="http://www.w3.org/2000/svg" xmlns:sodipodi="http://sodipodi.sourceforge.net/DTD/sodipodi-0.dtd" xmlns:inkscape="http://www.inkscape.org/namespaces/inkscape" version="1.1" id="kubuntu__x5F__black" x="0px" y="0px" width="872.23975" height="170.07799" viewBox="0 0 872.23974 170.07799" enable-background="new 0 0 779.617 170.079" xml:space="preserve" inkscape:version="0.47 r22583" sodipodi:docname="kubuntu-logo-lucid.svg" inkscape:export-filename="/home/jr/src/logo/kubuntu_logotype_black.png" inkscape:export-xdpi="41.27" inkscape:export-ydpi="41.27"><metadata id="metadata27"><rdf:RDF><cc:Work rdf:about=""><dc:format>image/svg+xml</dc:format><dc:type rdf:resource="http://purl.org/dc/dcmitype/StillImage"/><dc:title/></cc:Work></rdf:RDF></metadata><defs id="defs25"><inkscape:perspective sodipodi:type="inkscape:persp3d" inkscape:vp_x="0 : 85.039497 : 1" inkscape:vp_y="0 : 1000 : 0" inkscape:vp_z="779.617 : 85.039497 : 1" inkscape:persp3d-origin="389.8085 : 56.692998 : 1" id="perspective29"/><inkscape:perspective id="perspective3135" inkscape:persp3d-origin="0.5 : 0.33333333 : 1" inkscape:vp_z="1 : 0.5 : 1" inkscape:vp_y="0 : 1000 : 0" inkscape:vp_x="0 : 0.5 : 1" sodipodi:type="inkscape:persp3d"/><inkscape:perspective id="perspective3415" inkscape:persp3d-origin="0.5 : 0.33333333 : 1" inkscape:vp_z="1 : 0.5 : 1" inkscape:vp_y="0 : 1000 : 0" inkscape:vp_x="0 : 0.5 : 1" sodipodi:type="inkscape:persp3d"/><inkscape:perspective id="perspective2861" inkscape:persp3d-origin="0.5 : 0.33333333 : 1" inkscape:vp_z="1 : 0.5 : 1" inkscape:vp_y="0 : 1000 : 0" inkscape:vp_x="0 : 0.5 : 1" sodipodi:type="inkscape:persp3d"/></defs><sodipodi:namedview pagecolor="#ffffff" bordercolor="#666666" borderopacity="1" objecttolerance="10" gridtolerance="10" guidetolerance="10" inkscape:pageopacity="0" inkscape:pageshadow="2" inkscape:window-width="1920" inkscape:window-height="1182" id="namedview23" showgrid="false" inkscape:zoom="1.68417" inkscape:cx="436.11987" inkscape:cy="85.038994" inkscape:window-x="0" inkscape:window-y="-3" inkscape:window-maximized="1" inkscape:current-layer="kubuntu__x5F__black"/>


<g id="g3657"><g transform="translate(-1.5885229e-5,0)" id="g7">
	<path id="path9" d="m 40.794,105.76 c 4.316,3.312 8.883,7.413 13.705,12.303 4.819,4.895 9.567,10.183 14.245,15.864 4.674,5.687 9.099,11.439 13.274,17.267 4.171,5.827 7.695,11.26 10.576,16.295 h -24.39 c -3.021,-5.035 -6.512,-10.145 -10.468,-15.322 -3.959,-5.181 -8.06,-10.146 -12.303,-14.895 -4.245,-4.748 -8.562,-9.135 -12.95,-13.166 -4.391,-4.027 -8.525,-7.409 -12.41,-10.145 v 53.527 H 0 V 3.453 L 20.073,0 v 102.307 c 3.453,-3.453 7.265,-7.265 11.439,-11.439 4.172,-4.172 8.272,-8.417 12.303,-12.734 4.026,-4.315 7.841,-8.451 11.438,-12.409 3.596,-3.957 6.691,-7.447 9.281,-10.469 h 23.742 c -3.312,3.598 -6.906,7.553 -10.792,11.87 -3.885,4.317 -7.915,8.671 -12.087,13.059 -4.175,4.39 -8.384,8.778 -12.626,13.166 -4.245,4.389 -8.238,8.524 -11.977,12.409 z"/>
	<path id="path11" d="m 196.408,164.252 c -4.606,1.152 -10.685,2.374 -18.238,3.668 -7.555,1.296 -16.296,1.943 -26.225,1.943 -8.633,0 -15.9,-1.261 -21.8,-3.776 -5.901,-2.516 -10.649,-6.078 -14.245,-10.685 -3.598,-4.604 -6.188,-10.036 -7.77,-16.295 -1.585,-6.261 -2.374,-13.2 -2.374,-20.829 V 55.255 h 20.072 v 58.706 c 0,13.672 2.158,23.456 6.476,29.354 4.316,5.902 11.581,8.852 21.8,8.852 2.158,0 4.387,-0.073 6.69,-0.218 2.3,-0.142 4.458,-0.324 6.476,-0.539 2.013,-0.216 3.848,-0.432 5.504,-0.647 1.652,-0.216 2.839,-0.465 3.561,-0.755 V 55.255 h 20.073 v 108.997 z"/>
	<path id="path13" d="m 245.4,60.218 c 2.444,-1.58 6.151,-3.237 11.115,-4.963 4.964,-1.728 10.684,-2.59 17.159,-2.59 8.057,0 15.216,1.439 21.476,4.315 6.259,2.88 11.547,6.907 15.863,12.088 4.317,5.18 7.589,11.368 9.821,18.562 2.229,7.195 3.346,15.107 3.346,23.74 0,9.066 -1.333,17.234 -3.993,24.499 -2.664,7.267 -6.441,13.417 -11.332,18.452 -4.894,5.039 -10.791,8.924 -17.698,11.656 -6.906,2.731 -14.677,4.101 -23.311,4.101 -9.354,0 -17.627,-0.647 -24.821,-1.943 -7.196,-1.294 -13.095,-2.588 -17.698,-3.884 V 3.453 L 245.4,0 v 60.218 z m 0,89.789 c 2.013,0.576 4.855,1.115 8.525,1.617 3.669,0.506 8.235,0.757 13.705,0.757 10.792,0 19.426,-3.562 25.9,-10.684 6.476,-7.123 9.713,-17.23 9.713,-30.326 0,-5.753 -0.577,-11.148 -1.727,-16.188 -1.153,-5.035 -3.021,-9.389 -5.612,-13.057 -2.59,-3.671 -5.936,-6.547 -10.036,-8.635 -4.101,-2.085 -9.031,-3.13 -14.784,-3.13 -5.471,0 -10.506,0.938 -15.108,2.806 -4.607,1.873 -8.132,3.815 -10.576,5.827 v 71.013 z"/>
	<path id="path15" d="m 436.195,164.252 c -4.605,1.152 -10.684,2.374 -18.236,3.668 -7.555,1.296 -16.296,1.943 -26.225,1.943 -8.633,0 -15.901,-1.261 -21.799,-3.776 -5.902,-2.516 -10.651,-6.078 -14.245,-10.685 -3.6,-4.604 -6.189,-10.036 -7.771,-16.295 -1.586,-6.261 -2.374,-13.2 -2.374,-20.829 V 55.255 h 20.072 v 58.706 c 0,13.672 2.158,23.456 6.476,29.354 4.315,5.902 11.58,8.852 21.8,8.852 2.158,0 4.386,-0.073 6.689,-0.218 2.3,-0.142 4.459,-0.324 6.477,-0.539 2.012,-0.216 3.847,-0.432 5.504,-0.647 1.65,-0.216 2.839,-0.465 3.561,-0.755 V 55.255 h 20.071 v 108.997 z"/>
	<path id="path17" d="m 465.115,58.492 c 4.604,-1.151 10.718,-2.374 18.347,-3.671 7.626,-1.294 16.404,-1.94 26.332,-1.94 8.921,0 16.33,1.261 22.231,3.776 5.898,2.52 10.609,6.043 14.137,10.576 3.524,4.533 6.007,9.966 7.447,16.295 1.437,6.333 2.158,13.312 2.158,20.937 v 63.023 h -20.073 v -58.707 c 0,-6.906 -0.469,-12.804 -1.403,-17.698 -0.937,-4.89 -2.48,-8.849 -4.64,-11.87 -2.159,-3.023 -5.038,-5.215 -8.633,-6.584 -3.6,-1.366 -8.061,-2.051 -13.382,-2.051 -2.159,0 -4.392,0.074 -6.691,0.216 -2.304,0.145 -4.499,0.325 -6.583,0.541 -2.088,0.216 -3.96,0.469 -5.611,0.755 -1.656,0.29 -2.844,0.506 -3.562,0.646 v 94.752 H 465.116 V 58.492 z"/>
	<path id="path19" d="m 602.17,55.255 h 42.52 V 72.09 h -42.52 v 51.8 c 0,5.612 0.431,10.253 1.295,13.922 0.863,3.67 2.158,6.549 3.885,8.633 1.727,2.088 3.886,3.562 6.476,4.425 2.59,0.863 5.611,1.297 9.064,1.297 6.185,0 11.079,-0.683 14.677,-2.052 3.595,-1.366 6.044,-2.337 7.339,-2.913 l 4.316,16.403 c -2.017,1.008 -5.578,2.304 -10.684,3.884 -5.109,1.583 -10.899,2.375 -17.375,2.375 -7.628,0 -13.921,-0.971 -18.886,-2.914 -4.965,-1.943 -8.957,-4.856 -11.979,-8.74 -3.021,-3.887 -5.146,-8.669 -6.367,-14.354 -1.225,-5.683 -1.835,-12.265 -1.835,-19.749 V 23.958 l 20.073,-3.453 v 34.75 z"/>
	<path id="path21" d="m 753.899,164.252 c -4.606,1.152 -10.684,2.374 -18.237,3.668 -7.555,1.296 -16.296,1.943 -26.225,1.943 -8.633,0 -15.9,-1.261 -21.799,-3.776 -5.902,-2.516 -10.65,-6.078 -14.245,-10.685 -3.599,-4.604 -6.188,-10.036 -7.771,-16.295 -1.585,-6.261 -2.374,-13.2 -2.374,-20.829 V 55.255 h 20.073 v 58.706 c 0,13.672 2.158,23.456 6.475,29.354 4.316,5.902 11.581,8.852 21.8,8.852 2.158,0 4.387,-0.073 6.69,-0.218 2.3,-0.142 4.459,-0.324 6.476,-0.539 2.013,-0.216 3.848,-0.432 5.504,-0.647 1.651,-0.216 2.839,-0.465 3.561,-0.755 V 55.255 h 20.072 v 108.997 z"/>
</g><g id="g3647"><path style="fill:#0079c1" d="m 872.23977,55.171341 c 0,24.64394 -19.97925,44.625008 -44.62479,44.625008 -24.64456,0 -44.62309,-19.981068 -44.62309,-44.625008 0,-24.644245 19.97853,-44.622169 44.62309,-44.622169 24.64554,0 44.62479,19.977924 44.62479,44.622169 z" id="path2819-8-3-8"/><g id="g4835-5-6-3" transform="matrix(0.415288,0,0,0.415288,609.13611,80.906538)" style="fill:#ffffff;fill-opacity:1"><path id="path79-9-8-1" style="fill:#ffffff;fill-opacity:1" d="m 490.89173,-23.585335 3.65182,-79.224895 -24.28352,-22.12009 c -0.57715,-0.37695 -1.33691,-0.29883 -1.82178,0.18945 l -11.21875,11.2168 c -0.47168,0.47314 -0.56055,1.20801 -0.21289,1.78076 l 13.13428,21.631353 c -2.32959,3.9165 -4.19531,8.13965 -5.52979,12.594237 l -24.11377,5.01563 c -0.6709,0.13916 -1.1543,0.7334 -1.1543,1.42188 l 0,15.862785 c 0,0.6709 0.45801,1.25195 1.10449,1.4082 l 23.4043,5.7207 c 1.24805,5.15918 3.18262,10.05078 5.73877,14.5459 l -13.54639,20.6582 c -0.37793,0.57715 -0.29883,1.33789 0.18945,1.82422 l 11.21533,11.21680039 c 0.47168,0.4707 1.20801,0.56152 1.7832,0.21582 L 490.89173,-23.585335 z" sodipodi:nodetypes="ccccccccccccccccccc"/></g><g id="g4835-5-6-3-7" transform="matrix(-0.21579109,0.35482154,-0.35482154,-0.21579109,919.22927,-144.75119)" style="fill:#ffffff;fill-opacity:1"><path id="path79-9-8-1-7" style="fill:#ffffff;fill-opacity:1" d="m 492.48953,-21.721918 0.2923,-79.602262 -22.5218,-23.60614 c -0.57715,-0.37695 -1.33691,-0.29883 -1.82178,0.18945 l -11.21875,11.2168 c -0.47168,0.47314 -0.56055,1.20801 -0.21289,1.78076 l 13.13428,21.631353 c -2.32959,3.9165 -4.19531,8.13965 -5.52979,12.594237 l -24.11377,5.01563 c -0.6709,0.13916 -1.1543,0.7334 -1.1543,1.42188 l 0,15.862785 c 0,0.6709 0.45801,1.25195 1.10449,1.4082 l 23.4043,5.7207 c 1.24805,5.15918 3.18262,10.05078 5.73877,14.5459 l -13.54639,20.6582 c -0.37793,0.57715 -0.29883,1.33789 0.18945,1.82422 l 11.21533,11.21680039 c 0.47168,0.4707 1.20801,0.56152 1.7832,0.21582 L 492.48953,-21.721918 z" sodipodi:nodetypes="ccccccccccccccccccc"/></g><g id="g4835-5-6-3-1" transform="matrix(-0.20731956,-0.35983709,0.35983709,-0.20731956,958.85963,231.66525)" style="fill:#ffffff;fill-opacity:1"><path id="path79-9-8-1-5" style="fill:#ffffff;fill-opacity:1" d="m 491.63809,-24.019439 1.65581,-78.077921 -23.03387,-22.83296 c -0.57715,-0.37695 -1.33691,-0.29883 -1.82178,0.18945 l -11.21875,11.2168 c -0.47168,0.47314 -0.56055,1.20801 -0.21289,1.78076 l 13.13428,21.631353 c -2.32959,3.9165 -4.19531,8.13965 -5.52979,12.594237 l -24.11377,5.01563 c -0.6709,0.13916 -1.1543,0.7334 -1.1543,1.42188 l 0,15.862785 c 0,0.6709 0.45801,1.25195 1.10449,1.4082 l 23.4043,5.7207 c 1.24805,5.15918 3.18262,10.05078 5.73877,14.5459 l -13.54639,20.6582 c -0.37793,0.57715 -0.29883,1.33789 0.18945,1.82422 l 11.21533,11.21680039 c 0.47168,0.4707 1.20801,0.56152 1.7832,0.21582 L 491.63809,-24.019439 z" sodipodi:nodetypes="ccccccccccccccccccc"/></g><path style="fill:#0079c1;fill-opacity:1" d="m 849.15577,55.172072 c 0,11.895612 -9.64397,21.540458 -21.54035,21.540458 -11.89591,0 -21.53953,-9.644846 -21.53953,-21.540458 0,-11.895759 9.64362,-21.539088 21.53953,-21.539088 11.89638,0 21.54035,9.643329 21.54035,21.539088 z" id="path2819-8-3-8-5"/></g></g></svg>