<svg xmlns="http://www.w3.org/2000/svg" width="872.24" height="170.078" xml:space="preserve"><path d="M40.794 105.76c4.316 3.312 8.883 7.413 13.705 12.303 4.819 4.895 9.567 10.183 14.245 15.864a328.426 328.426 0 0 1 13.274 17.267c4.171 5.827 7.695 11.26 10.576 16.295h-24.39c-3.021-5.035-6.512-10.145-10.468-15.322a251.884 251.884 0 0 0-12.303-14.895c-4.245-4.748-8.562-9.135-12.95-13.166-4.391-4.027-8.525-7.409-12.41-10.145v53.527H0V3.453L20.073 0v102.307l11.439-11.439a517.001 517.001 0 0 0 12.303-12.734c4.026-4.315 7.841-8.451 11.438-12.409 3.596-3.957 6.691-7.447 9.281-10.469h23.742a1452.048 1452.048 0 0 0-10.792 11.87 649.868 649.868 0 0 1-12.087 13.059c-4.175 4.39-8.384 8.778-12.626 13.166a7042.826 7042.826 0 0 0-11.977 12.409zm155.614 58.492c-4.606 1.152-10.685 2.374-18.238 3.668-7.555 1.296-16.296 1.943-26.225 1.943-8.633 0-15.9-1.261-21.8-3.776-5.901-2.516-10.649-6.078-14.245-10.685-3.598-4.604-6.188-10.036-7.77-16.295-1.585-6.261-2.374-13.2-2.374-20.829V55.255h20.072v58.706c0 13.672 2.158 23.456 6.476 29.354 4.316 5.902 11.581 8.852 21.8 8.852 2.158 0 4.387-.073 6.69-.218 2.3-.142 4.458-.324 6.476-.539 2.013-.216 3.848-.432 5.504-.647 1.652-.216 2.839-.465 3.561-.755V55.255h20.073v108.997zM245.4 60.218c2.444-1.58 6.151-3.237 11.115-4.963 4.964-1.728 10.684-2.59 17.159-2.59 8.057 0 15.216 1.439 21.476 4.315 6.259 2.88 11.547 6.907 15.863 12.088 4.317 5.18 7.589 11.368 9.821 18.562 2.229 7.195 3.346 15.107 3.346 23.74 0 9.066-1.333 17.234-3.993 24.499-2.664 7.267-6.441 13.417-11.332 18.452-4.894 5.039-10.791 8.924-17.698 11.656-6.906 2.731-14.677 4.101-23.311 4.101-9.354 0-17.627-.647-24.821-1.943-7.196-1.294-13.095-2.588-17.698-3.884V3.453L245.4 0v60.218zm0 89.789c2.013.576 4.855 1.115 8.525 1.617 3.669.506 8.235.757 13.705.757 10.792 0 19.426-3.562 25.9-10.684 6.476-7.123 9.713-17.23 9.713-30.326 0-5.753-.577-11.148-1.727-16.188-1.153-5.035-3.021-9.389-5.612-13.057-2.59-3.671-5.936-6.547-10.036-8.635-4.101-2.085-9.031-3.13-14.784-3.13-5.471 0-10.506.938-15.108 2.806-4.607 1.873-8.132 3.815-10.576 5.827v71.013zm190.795 14.245c-4.605 1.152-10.684 2.374-18.236 3.668-7.555 1.296-16.296 1.943-26.225 1.943-8.633 0-15.901-1.261-21.799-3.776-5.902-2.516-10.651-6.078-14.245-10.685-3.6-4.604-6.189-10.036-7.771-16.295-1.586-6.261-2.374-13.2-2.374-20.829V55.255h20.072v58.706c0 13.672 2.158 23.456 6.476 29.354 4.315 5.902 11.58 8.852 21.8 8.852 2.158 0 4.386-.073 6.689-.218 2.3-.142 4.459-.324 6.477-.539a252.51 252.51 0 0 0 5.504-.647c1.65-.216 2.839-.465 3.561-.755V55.255h20.071v108.997zm28.92-105.76c4.604-1.151 10.718-2.374 18.347-3.671 7.626-1.294 16.404-1.94 26.332-1.94 8.921 0 16.33 1.261 22.231 3.776 5.898 2.52 10.609 6.043 14.137 10.576 3.524 4.533 6.007 9.966 7.447 16.295 1.437 6.333 2.158 13.312 2.158 20.937v63.023h-20.073v-58.707c0-6.906-.469-12.804-1.403-17.698-.937-4.89-2.48-8.849-4.64-11.87-2.159-3.023-5.038-5.215-8.633-6.584-3.6-1.366-8.061-2.051-13.382-2.051-2.159 0-4.392.074-6.691.216-2.304.145-4.499.325-6.583.541a83.46 83.46 0 0 0-5.611.755c-1.656.29-2.844.506-3.562.646v94.752h-20.073V58.492zm137.055-3.237h42.52V72.09h-42.52v51.8c0 5.612.431 10.253 1.295 13.922.863 3.67 2.158 6.549 3.885 8.633 1.727 2.088 3.886 3.562 6.476 4.425s5.611 1.297 9.064 1.297c6.185 0 11.079-.683 14.677-2.052 3.595-1.366 6.044-2.337 7.339-2.913l4.316 16.403c-2.017 1.008-5.578 2.304-10.684 3.884-5.109 1.583-10.899 2.375-17.375 2.375-7.628 0-13.921-.971-18.886-2.914s-8.957-4.856-11.979-8.74c-3.021-3.887-5.146-8.669-6.367-14.354-1.225-5.683-1.835-12.265-1.835-19.749V23.958l20.073-3.453v34.75zm151.729 108.997c-4.606 1.152-10.684 2.374-18.237 3.668-7.555 1.296-16.296 1.943-26.225 1.943-8.633 0-15.9-1.261-21.799-3.776-5.902-2.516-10.65-6.078-14.245-10.685-3.599-4.604-6.188-10.036-7.771-16.295-1.585-6.261-2.374-13.2-2.374-20.829V55.255h20.073v58.706c0 13.672 2.158 23.456 6.475 29.354 4.316 5.902 11.581 8.852 21.8 8.852 2.158 0 4.387-.073 6.69-.218 2.3-.142 4.459-.324 6.476-.539 2.013-.216 3.848-.432 5.504-.647 1.651-.216 2.839-.465 3.561-.755V55.255h20.072v108.997z"/><path style="fill:#0079c1" d="M872.24 55.171c0 24.644-19.98 44.625-44.625 44.625s-44.623-19.98-44.623-44.625c0-24.644 19.978-44.622 44.623-44.622 24.646 0 44.625 19.978 44.625 44.622z"/><path style="fill:#fff;fill-opacity:1" d="m490.892-23.585 3.652-79.225-24.284-22.12a1.448 1.448 0 0 0-1.822.19l-11.219 11.216a1.454 1.454 0 0 0-.212 1.78l13.134 21.632a56.144 56.144 0 0 0-5.53 12.594l-24.114 5.016c-.67.14-1.154.733-1.154 1.422v15.863c0 .67.458 1.252 1.105 1.408l23.404 5.72a56.077 56.077 0 0 0 5.739 14.546l-13.547 20.659a1.45 1.45 0 0 0 .19 1.824L467.449.157c.472.47 1.208.561 1.783.215l21.66-23.957z" transform="translate(609.136 80.907) scale(.41529)"/><path style="fill:#fff;fill-opacity:1" d="m492.49-21.722.292-79.602-22.522-23.606a1.448 1.448 0 0 0-1.822.19l-11.218 11.216a1.454 1.454 0 0 0-.213 1.78l13.134 21.632a56.144 56.144 0 0 0-5.53 12.594l-24.114 5.016c-.67.14-1.154.733-1.154 1.422v15.863c0 .67.458 1.252 1.105 1.408l23.404 5.72a56.077 56.077 0 0 0 5.739 14.546l-13.547 20.659a1.45 1.45 0 0 0 .19 1.824L467.449.157c.472.47 1.208.561 1.783.215l23.258-22.094z" transform="rotate(121.306 500.309 186.04) scale(.41529)"/><path style="fill:#fff;fill-opacity:1" d="m491.638-24.02 1.656-78.077-23.034-22.833a1.448 1.448 0 0 0-1.822.19l-11.219 11.216a1.454 1.454 0 0 0-.212 1.78l13.134 21.632a56.144 56.144 0 0 0-5.53 12.594l-24.114 5.016c-.67.14-1.154.733-1.154 1.422v15.863c0 .67.458 1.252 1.105 1.408l23.404 5.72a56.077 56.077 0 0 0 5.739 14.546l-13.547 20.659a1.45 1.45 0 0 0 .19 1.824L467.449.157c.472.47 1.208.561 1.783.215l22.406-24.391z" transform="rotate(-119.948 546.377 -161.254) scale(.41529)"/><path style="fill:#0079c1;fill-opacity:1" d="M849.156 55.172c0 11.896-9.644 21.54-21.54 21.54-11.896 0-21.54-9.644-21.54-21.54 0-11.896 9.644-21.539 21.54-21.539 11.896 0 21.54 9.643 21.54 21.54z"/></svg>