<svg xmlns="http://www.w3.org/2000/svg" xmlns:xlink="http://www.w3.org/1999/xlink" width="30" height="30">
    <defs>
        <radialGradient id="a" cx="100.758%" cy="11.323%" r="77.82%" fx="100.758%" fy="11.323%" gradientTransform="matrix(.9667 0 0 1 .034 0)">
            <stop offset="0%" stop-color="#F8FAFF"/>
            <stop offset="40.366%" stop-color="#E0EFFF"/>
            <stop offset="86.53%" stop-color="#5682B4"/>
            <stop offset="100%" stop-color="#4071AD"/>
        </radialGradient>
        <radialGradient id="b" cx="65.35%" cy="7.927%" r="97.174%" fx="65.35%" fy="7.927%" gradientTransform="matrix(.8389 0 0 1 .105 0)">
            <stop offset="0%" stop-color="#F1F2F2"/>
            <stop offset="77%" stop-color="#1C396E"/>
            <stop offset="100%" stop-color="#FFF"/>
        </radialGradient>
        <radialGradient id="c" cx="65.348%" cy="7.926%" r="97.252%" fx="65.348%" fy="7.926%" gradientTransform="matrix(.8349 0 0 1 .108 0)">
            <stop offset="0%" stop-color="#F1F2F2"/>
            <stop offset="77%" stop-color="#1C396E"/>
            <stop offset="100%" stop-color="#6374A7"/>
        </radialGradient>
        <radialGradient id="i" cx="50.383%" cy="49.228%" r="65.441%" fx="50.383%" fy="49.228%" gradientTransform="matrix(.8249 0 0 1 .088 0)">
            <stop offset="0%" stop-color="#01D1FE"/>
            <stop offset="17%" stop-color="#00CDFD"/>
            <stop offset="33%" stop-color="#00C2FB"/>
            <stop offset="48%" stop-color="#00AFF8"/>
            <stop offset="63%" stop-color="#0095F4"/>
            <stop offset="69%" stop-color="#0088F2"/>
            <stop offset="100%" stop-color="#002A90"/>
        </radialGradient>
        <radialGradient id="j" cx="50%" cy="78.872%" r="60.702%" fx="50%" fy="78.872%" gradientTransform="matrix(.5184 0 0 1 .24 0)">
            <stop offset="0%" stop-color="#00217D"/>
            <stop offset="100%" stop-color="#00104E"/>
        </radialGradient>
        <radialGradient id="m" cx="50%" cy="-352.347%" r="0%" fx="50%" fy="-352.347%" gradientTransform="matrix(1 0 0 .6686 0 -1.168)">
            <stop offset="0%" stop-color="#001F5C"/>
            <stop offset="100%" stop-color="#000B34"/>
        </radialGradient>
        <radialGradient id="n" cx="50.009%" cy="50.02%" r="61.13%" fx="50.009%" fy="50.02%" gradientTransform="scale(1 .7089) rotate(-76.033 .631 .603)">
            <stop offset="0%" stop-color="#FFF" stop-opacity=".4"/>
            <stop offset="100%" stop-color="#F8FAFF" stop-opacity="0"/>
        </radialGradient>
        <ellipse id="k" cx="1.409" cy="2.108" rx="1.409" ry="2.108"/>
        <ellipse id="o" cx="1.409" cy="2.108" rx="1.409" ry="2.108"/>
        <path id="d" d="M13.532 22.529a15.03 15.03 0 0 1-5.243-.931 13.94 13.94 0 0 1-4.295-2.52c-1.246-1.077-2.227-2.325-2.916-3.71A10.03 10.03 0 0 1 0 10.868c0-3.03 1.427-5.81 4.017-7.832C6.527 1.078 9.906 0 13.532 0c3.626 0 7.005 1.078 9.515 3.036 2.59 2.021 4.017 4.803 4.017 7.833 0 1.547-.363 3.06-1.079 4.499-.689 1.385-1.67 2.633-2.915 3.71a13.926 13.926 0 0 1-4.295 2.52 15.038 15.038 0 0 1-5.243.93Z"/>
        <path id="g" d="M12.83 21.36c-1.718 0-3.39-.298-4.971-.884a13.208 13.208 0 0 1-4.072-2.389c-1.181-1.02-2.111-2.204-2.764-3.517A9.508 9.508 0 0 1 0 10.304c0-2.872 1.353-5.51 3.808-7.426C6.188 1.022 9.391 0 12.83 0c3.438 0 6.641 1.022 9.02 2.878 2.457 1.916 3.809 4.553 3.809 7.426a9.507 9.507 0 0 1-1.023 4.266c-.653 1.313-1.583 2.496-2.764 3.517a13.208 13.208 0 0 1-4.072 2.39c-1.58.585-3.253.882-4.97.882Z"/>
        <linearGradient id="e" x1="15.365%" x2="93.253%" y1="75.751%" y2="33.066%">
            <stop offset="0%" stop-color="#1C396E"/>
            <stop offset="100%" stop-color="#FFF"/>
        </linearGradient>
    </defs>
    <g fill="none" fill-rule="evenodd">
        <path fill="url(#a)" fill-rule="nonzero" d="M30 14.915C30 23.399 23.284 29 15 29 6.716 29 0 23.486 0 14.915 0 6.345 6.748 0 15.032 0 23.316 0 30 6.431 30 14.915Z" transform="translate(0 1)"/>
        <g fill-rule="nonzero">
            <path fill="url(#b)" d="M14.072 23.609c-1.876 0-3.703-.325-5.43-.965a14.479 14.479 0 0 1-4.46-2.618c-1.301-1.124-2.326-2.429-3.047-3.878A10.564 10.564 0 0 1 0 11.408c0-3.2 1.5-6.132 4.225-8.257C6.829 1.119 10.326 0 14.072 0c3.746 0 7.243 1.119 9.847 3.15 2.725 2.126 4.225 5.059 4.225 8.259 0 1.63-.382 3.225-1.135 4.74-.721 1.448-1.746 2.753-3.046 3.878a14.479 14.479 0 0 1-4.46 2.617 15.58 15.58 0 0 1-5.431.965Z" transform="translate(.948 5.141)"/>
            <path fill="url(#c)" d="M14.072 23.271c-1.835 0-3.623-.317-5.313-.943a14.143 14.143 0 0 1-4.357-2.556c-1.266-1.095-2.263-2.365-2.965-3.774-.73-1.467-1.1-3.01-1.1-4.59 0-3.093 1.455-5.931 4.096-7.991C6.978 1.43 10.4.337 14.073.337c3.67 0 7.093 1.094 9.639 3.08 2.64 2.06 4.095 4.907 4.095 7.992 0 1.578-.37 3.122-1.1 4.589-.7 1.41-1.698 2.679-2.965 3.774a14.136 14.136 0 0 1-4.356 2.556c-1.69.626-3.478.943-5.314.943Z" transform="translate(.948 5.141)"/>
        </g>
        <g transform="translate(1.488 5.681)">
            <mask id="f" fill="#fff">
                <use xlink:href="#d"/>
            </mask>
            <g fill="url(#e)" fill-rule="nonzero" mask="url(#f)">
                <path d="M14.06 22.529 0 11.749V6.803l.285-.371L21.07 22.367l-.125.162H14.06ZM0 11.749l14.06 10.78H9.246L0 15.439v-3.69Zm0 3.69 9.246 7.09H0v-7.09ZM.731 5.85l20.784 15.934-.445.58L.285 6.432l.446-.58Zm.127-.166 20.785 15.934-.043.055-.042.056-.043.055L.731 5.85l.042-.056.043-.055.042-.055Zm.17-.221 20.785 15.934-.042.055-.073-.056.072.056-.042.055-.042.056-.043.055L.859 5.684.9 5.629l.085-.11.043-.056Zm.128-.167L21.94 21.23l-.042.056-.043.055-.042.055L1.028 5.462l.043-.055.043-.055.042-.056Zm.17-.221 20.785 15.934-.043.055-.042.056-.145-.111.145.11-.043.056-.042.055L1.156 5.296l.043-.055.042-.055.043-.056.042-.055Zm.256-.332 20.784 15.934-.043.055-.042.055-.043.055-.042.056-.216-.166.216.166-.042.055-.043.056L1.327 5.075l.042-.055.043-.056.042-.055.042-.056.043-.055.043-.055Zm.17-.222 20.784 15.934-.042.056-.043.055-.043.055-.042.056L1.58 4.743l.043-.056.043-.055.042-.055.043-.056Zm.127-.166 20.785 15.934-.043.055-.042.056-.043.055L1.752 4.521l.042-.055.073.055-.073-.055.043-.056.042-.055Zm.17-.221 20.785 15.934-.043.055-.042.055-.043.055-.042.056L1.879 4.355l.043-.055.042-.056.145.11-.144-.11.042-.055.043-.055Zm.298-.388L23.131 19.68l-.042.055-.043.056-.042.055-.043.055-.042.056-.043.055-.042.055L2.049 4.133l.043-.055.073.056-.073-.056.043-.055.042-.056.042-.055.043-.055.144.11-.144-.11.042-.056.043-.055Zm.128-.166 20.784 15.934-.042.055-.043.055-.042.056L2.347 3.746l.043-.055.042-.056.145.11-.145-.11.043-.055Zm.17-.222 20.784 15.934-.042.055-.043.056-.042.055-.043.056L2.475 3.58l.042-.056.073.056-.072-.056.042-.055.042-.055.043-.056Zm.298-.387 20.784 15.934-.042.055-.043.055-.042.056-.043.055L2.772 3.192l.043-.055.073.055-.073-.055.043-.056.042-.055.043-.055Zm.723-.941L24.45 17.963l-.042.056-.043.055-.042.055L3.538 2.195l.043-.055.042-.055.043-.055ZM5.154.09 25.94 16.025l-.043.056-.432-.331.432.33-.043.056-.042.055-.043.055L4.984.312l.043-.055.042-.055.043-.055.042-.056ZM14.445 0l12.618 9.674v.176L14.216 0h.23Zm9.07 19.181-.043.056-.043.055L2.645 3.358l.042-.055.043-.056.144.111-.144-.11.043-.056 20.784 15.934-.043.055-.288-.22.288.22Zm.254-.332-.042.056L2.942 2.97l.043-.056.073.056-.073-.056.043-.055.042-.055 20.784 15.934-.042.055-.043.055-.144-.11.144.11Zm.213-.277-.042.056-.043.055-.042.055L3.07 2.804l.043-.055.042-.055.043-.056.144.111-.144-.11.042-.056 20.785 15.934-.043.056-.145-.112.145.111Zm.085-.11-.042.055L3.24 2.583l.043-.055.145.11-.145-.11.042-.056.043-.055L24.152 18.35l-.042.055-.043.056-.289-.222.29.222Zm.17-.222-.042.055-.043.056L3.368 2.417l.042-.056.043-.055.144.11-.144-.11.043-.055.042-.056L24.322 18.13l-.042.056-.043.055-.144-.11.144.11Zm.298-.388-.043.056-.042.055L3.666 2.03l.042-.055.042-.056.217.167-.216-.166.042-.056 20.784 15.934-.042.056-.217-.167.217.166Zm.17-.221-.042.055-.043.056-.043.055L3.793 1.863l.043-.055.144.11-.144-.11.042-.056.043-.055.144.11-.144-.11.042-.055 20.785 15.934-.043.055-.145-.11.145.11Zm.085-.11-.042.054L3.963 1.642l.043-.056.145.111-.145-.11.043-.056.042-.055L24.875 17.41l-.042.055-.043.055-.144-.11.144.11Zm.17-.223-.042.056-.043.055L4.091 1.475l.042-.055.043-.055.144.11-.144-.11.043-.056.042-.055 20.784 15.934-.042.055-.042.056-.145-.111.144.11Zm.128-.166-.043.056L4.261 1.254l.043-.056.144.111-.144-.11.042-.055.043-.056 20.784 15.934-.042.055-.043.055-.289-.22.289.22Zm.17-.22-.042.054-.043.056L4.39 1.088l.042-.055.043-.056.144.11-.144-.11.042-.055.043-.056L25.343 16.8l-.043.056-.042.055-.144-.11.144.11Zm.17-.222-.042.055-.043.055L4.56.866 4.6.811l.043-.055.144.11-.144-.11L4.687.7 25.47 16.634l-.043.056-.145-.111.145.11Zm.085-.111-.042.055L4.686.7 4.73.645l.145.11-.145-.11.043-.055.042-.056.043-.055L25.64 16.413l-.043.055-.042.055-.043.056-.144-.11.144.11Zm.213-.277-.043.055-.042.055L4.856.478 4.9.423l.04-.055.145.11-.144-.11.042-.055L25.77 16.246l-.043.056-.289-.221.289.22Zm1.337-6.012v.176l-6.02-4.616 6.02 4.616v.44l-4.016-3.08 4.016 3.08v.176L20.24 5.85l6.823 5.232v.44l-6.639-5.09 6.64 5.09v.176L23.85 9.234l3.213 2.464v.44l-5.32-4.08 5.32 4.08v.176l-7.187-5.51 7.187 5.51v.44l-4.59-3.52 4.59 3.52v.176l-4.016-3.08 4.016 3.08v.44l-6.427-4.928 6.427 4.928v.176L21.44 9.234l5.623 4.312v.44l-4.59-3.52 4.59 3.52v.175l-6.426-4.927 6.426 4.927v.401l-.019.025-.042.055L14.307 4.91l12.695 9.733-.043.056-.042.055-5.018-3.847 5.018 3.847-.043.056-.085.11-2.824-2.165 2.824 2.165-.042.056-.043.055-6.182-4.74 6.182 4.74-.043.055-.042.056-6.097-4.675 6.097 4.675-.043.055-.042.055-.042.056-.043.055-1.796-1.376 1.796 1.376-.043.056-5.655-4.336 5.655 4.336-.042.055-.043.055-6.258-4.798 6.258 4.798-.042.056-.043.055-12.84-9.844 12.84 9.844-.042.055-.043.056-.042.055-.043.056-.043.055-6.763-5.186 6.763 5.186-.042.055-.042.054L5.154.091l.043-.055L5.226 0h3.023l1.563 1.198L8.248 0H9.97l.84.645L9.97 0h.803l.552.423L10.773 0h1.148l.84.645-.84-.645h1.147l.625.479L13.068 0h1.148l12.847 9.85v.44l-5.79-4.44 5.79 4.44ZM17.085 0h9.978v7.826l-3.444-2.64 3.444 2.64v.616l-4.392-3.367 4.392 3.367v.616l-3.426-2.627 3.426 2.627v.176l-4.63-3.55 4.63 3.55v.44L14.445 0h.115l1.275.977L14.56 0h1.033l.84.645-.84-.645h1.148l1.419 1.088L16.74 0h.345l.191.147L17.085 0Z"/>
            </g>
        </g>
        <path fill="#6374A7" fill-rule="nonzero" d="M15.02 28.26c-1.817 0-3.587-.314-5.26-.933a13.989 13.989 0 0 1-4.31-2.53c-1.252-1.081-2.236-2.335-2.928-3.726a10.08 10.08 0 0 1-1.084-4.521c0-3.046 1.433-5.842 4.036-7.873 2.519-1.965 5.909-3.046 9.546-3.046 3.637 0 7.027 1.082 9.546 3.046 2.603 2.031 4.036 4.827 4.036 7.873a10.08 10.08 0 0 1-1.083 4.521c-.692 1.391-1.678 2.645-2.928 3.726a13.985 13.985 0 0 1-4.31 2.53 15.09 15.09 0 0 1-5.26.934h-.001Zm0-22.528c-3.615 0-6.983 1.074-9.483 3.025-2.578 2.011-3.998 4.779-3.998 7.793 0 1.539.361 3.045 1.073 4.477.686 1.379 1.663 2.622 2.904 3.694a13.885 13.885 0 0 0 4.28 2.51c1.66.616 3.419.928 5.224.928 1.806 0 3.564-.312 5.225-.927a13.892 13.892 0 0 0 4.28-2.51c1.24-1.073 2.217-2.317 2.903-3.695a9.978 9.978 0 0 0 1.073-4.477c0-3.014-1.42-5.782-3.997-7.793-2.5-1.95-5.869-3.025-9.483-3.025h-.001Z"/>
        <g transform="translate(2.19 6.85)">
            <mask id="h" fill="#fff">
                <use xlink:href="#g"/>
            </mask>
            <g fill="#6374A7" fill-rule="nonzero" mask="url(#h)">
                <path d="M7.02-.269v.235h.044l.074-.203v.203h.055c.02-.058.041-.115.063-.172v.172h.066l.051-.14v.14h.078l.04-.108v.108h.09l.028-.077v.077h.101l.017-.046v.046h.112l.006-.014v.014h.124l.02-.054.027-.07v.124H8.1l.09-.233v.233h.04c.024-.066.05-.132.076-.198v.198h.053c.02-.055.042-.11.064-.164v.164h.066l.05-.13v.13h.08l.037-.094v.094h.372l.012-.029.035-.085v.114h.364l.051-.125v.125h.36l.003-.006v.006h.411l.05-.114v.114h.365l.026-.058.067-.144v.202h.324l.03-.063v.063h.39l.06-.12v.12h.362l.017-.034.064-.123v.157h.345a7.3 7.3 0 0 1 .093-.173v.173h.336l.003-.005v.005h.431c.029-.048.057-.096.087-.143v.143h.354l.002-.004.06-.094v.098h.386l.022-.033v.033h.436l.05-.068v.068h.421l.047-.059v.059h.444l.004-.005v.005h.515a5.14 5.14 0 0 1 .065-.063v.063h.502l.034-.027v.027h.63c.142-.085.287-.16.434-.223v.223h.574l.06-.015a2.608 2.608 0 0 1 1.269.015h.768v-.153c.08.046.158.097.235.153h.55v-.114c.04.037.078.075.115.114h.438v-.167c.045.054.089.11.13.167h.435V-.17c.03.044.058.09.085.136h.482v-.018l.009.018h.456V-.07l.015.035h.454v-.012l.004.012h.37V-.25c.027.07.053.143.078.216h.398v-.134c.015.044.028.089.042.134h.432v-.01l.002.01h.384v-.177l.045.177h.143v.798a7.826 7.826 0 0 1 0 1.843v1.51h.08a9.176 9.176 0 0 1-.08.25v.618h.18a9.945 9.945 0 0 1-.18.423v.513h.174c-.056.11-.113.22-.173.33v.664h.049l-.05.079v.54h.097l-.096.14v.51h.096l-.096.127v.544h.05l-.05.06v.407h.15l-.15.174V9.8h.234c-.077.087-.155.172-.234.257v.05h.117a15.25 15.25 0 0 1-.08.085h.164a13 13 0 0 1-.201.213v.097h.073l-.073.075v.012h.156l-.156.16v.151h.016l-.016.017v.073h.096l-.091.09h.171l-.176.172v.143h.023l-.023.023v.07h.1l-.097.092h.175l-.178.166v.152h.012l-.012.01v.084h.087l-.087.078v.017h.16a7.166 7.166 0 0 1-.16.144v.066h.109a19.06 19.06 0 0 1-.11.096v.113h.054l-.053.046v.051h.125l-.113.097h.185l-.197.17v.254h.07l-.07.059v.041h.14l-.121.1h.19c-.07.057-.139.114-.21.17v.044h.139l-.138.111v.105h.063l-.063.05v.052h.13a17.04 17.04 0 0 1-.13.102h.196l-.196.154v.064h.115l-.115.088v.13h.03l-.03.023v.08h.094l-.094.071v.032h.159l-.138.104h.201l-.222.167v.054h.13a18.68 18.68 0 0 1-.13.096v.126h.034l-.034.024v.081h.095l-.095.07v.036h.157l-.147.106h.208l-.218.156v.068h.114l-.114.08v.144h.007l-.007.005v.103h.066l-.066.045v.062h.124a19.69 19.69 0 0 1-.124.086v.022h.183l-.183.125v.102h.068l-.068.046v.062h.125l-.125.084v.143h.005l-.005.003v.107h.06l-.06.04v.07h.117a19.85 19.85 0 0 1-.117.077v.032h.172l-.166.11h.222l-.228.148v.082h.099l-.1.064v.046h.155l-.155.1v.132h.02l-.02.012v.099h.072l-.072.045v.066h.125l-.125.078v.033h.18l-.179.111h.231c-.077.049-.154.097-.232.144v.09h.088l-.088.054v.059h.14l-.14.085v.027h.191l-.19.116v.12h.04l-.04.023v.089h.09l-.124.074v2.226h-5.306c-.18.047-.361.091-.542.133v-.1l-.146.001a19.1 19.1 0 0 1-.735.147v-.132c-.29.052-.58.097-.87.135v-.13c-.572.074-1.144.12-1.714.138-.96.03-1.913-.022-2.85-.158h-.573v.044l-.04-.008v.14a16.09 16.09 0 0 1-.841-.176h-.04v.131c-.213-.05-.424-.105-.634-.165H0V0h1.04l.032-.11v.076h.105l.016-.055v.055h.111l.01-.035v.035h.118l.004-.015v.015h.123l.064-.218v.218h.063l.059-.196v.196h.069l.052-.175v.175h.075l.046-.153v.153h.082l.038-.13v.13h.089l.032-.109v.109h.096l.026-.087v.087h.101l.02-.065v.065h.108l.012-.043v.043h.115l.006-.021v.02h.122l.031-.102.032-.104v.207h.064l.014-.047.043-.137v.184h.07l.019-.058.031-.102v.16h.079v-.001l.041-.135v.136h.087l.003-.012.031-.1v.112h.093l.028-.09v.09h.1L3.62-.1v.066h.108l.013-.043v.043h.114l.068-.214v.214h.06l.06-.188v.188h.068c.017-.055.034-.11.052-.163v.163h.076l.044-.138v.138h.084l.036-.113v.113h.092l.028-.088v.088h.1l.02-.063v.063h.108l.012-.038v.038h.116l.004-.013v.013h.124l.015-.048.04-.12v.168h.074l.007-.022.04-.12v.142h.08l.01-.026.028-.088v.114h.09l.03-.087v.087h.099c.026-.078.052-.156.08-.234v.234h.048l.07-.206v.206h.059l.06-.178v.178h.068l.052-.15v.15h.076l.042-.121v.12h.087l.032-.092v.093h.097L6.313-.1v.065h.107l.012-.036v.036h.116l.003-.008v.008h.126l.021-.059.028-.08v.139h.08l.001-.004a8.2 8.2 0 0 1 .038-.104v.108h.09v-.002L7.02-.27Z"/>
            </g>
        </g>
        <path fill="#FFF" fill-rule="nonzero" d="M15.02 28.244a14.29 14.29 0 0 1-4.982-.885 13.235 13.235 0 0 1-4.082-2.395c-1.185-1.024-2.118-2.211-2.773-3.528a9.54 9.54 0 0 1-1.026-4.281c0-2.883 1.357-5.53 3.822-7.453 2.385-1.86 5.596-2.885 9.041-2.885 3.446 0 6.656 1.024 9.042 2.885 2.464 1.923 3.821 4.57 3.821 7.453a9.543 9.543 0 0 1-1.026 4.28c-.655 1.318-1.588 2.505-2.772 3.529a13.249 13.249 0 0 1-4.082 2.395 14.29 14.29 0 0 1-4.982.885h-.001Zm0-21.36c-3.43 0-6.627 1.02-9 2.872-2.448 1.91-3.796 4.537-3.796 7.399 0 1.461.343 2.891 1.02 4.25.65 1.31 1.578 2.49 2.756 3.508a13.178 13.178 0 0 0 4.06 2.383c1.578.584 3.246.88 4.96.88 1.713 0 3.381-.296 4.958-.88a13.172 13.172 0 0 0 4.062-2.383c1.177-1.018 2.105-2.198 2.756-3.507a9.475 9.475 0 0 0 1.019-4.251c0-2.862-1.348-5.49-3.796-7.4-2.373-1.85-5.57-2.87-9-2.87Z"/>
        <path fill="url(#i)" fill-rule="nonzero" d="M27.294 16.155c0 5.637-5.495 10.5-12.274 10.5-6.778 0-12.274-4.863-12.274-10.5s5.496-9.75 12.274-9.75c6.779 0 12.274 4.113 12.274 9.75Z" transform="translate(0 1)"/>
        <g fill-rule="nonzero">
            <path fill="#4DE9FE" d="M18.127 19.943c0 1.337-1.382 2.447-3.087 2.447-1.705 0-3.087-1.11-3.087-2.447 0-1.336 1.382-.488 3.087-.488 1.705 0 3.087-.849 3.087.488Z"/>
            <path fill="url(#j)" d="M6.174.754C6.174 2.09 4.792 3.2 3.087 3.2 1.382 3.2 0 2.09 0 .754S1.382.266 3.087.266c1.705 0 3.087-.85 3.087.488Z" transform="translate(11.953 19.051)"/>
        </g>
        <g transform="translate(7.495 13.603)">
            <g transform="translate(0 .13)">
                <mask id="l" fill="#fff">
                    <use xlink:href="#k"/>
                </mask>
                <g fill="#20C7F5" fill-rule="nonzero" mask="url(#l)">
                    <path d="M0 4.231h2.819v.027H0v-.027Zm0-.121h2.819v.1H0v-.1Zm0-.35h2.819v.35H0v-.35Zm2.819.003H0v-.1h2.819v.1Zm0-.1H0V0h2.819v3.663Z"/>
                </g>
            </g>
            <g fill-rule="nonzero">
                <ellipse cx="1.409" cy="2.108" fill="url(#m)" rx="1.409" ry="2.108"/>
                <path fill="#021B7C" d="M1.452 3.89C.793 3.89.26 3.137.26 2.206c0-.237.035-.464.098-.669-.093.24-.145.514-.145.805 0 .931.534 1.686 1.192 1.686.49 0 .912-.419 1.095-1.017-.202.525-.596.88-1.048.88Z" opacity=".73"/>
            </g>
            <circle cx="1.897" cy="1.312" r="1" fill="url(#n)" fill-rule="nonzero" transform="rotate(-26.98 1.897 1.312)"/>
        </g>
        <g transform="translate(19.384 13.603)">
            <g transform="translate(0 .13)">
                <mask id="p" fill="#fff">
                    <use xlink:href="#o"/>
                </mask>
                <g fill="#20C7F5" fill-rule="nonzero" mask="url(#p)">
                    <path d="M0 4.231h2.819v.027H0v-.027Zm0-.121h2.819v.1H0v-.1Zm0-.35h2.819v.35H0v-.35Zm2.819.003H0v-.1h2.819v.1Zm0-.1H0V0h2.819v3.663Z"/>
                </g>
            </g>
            <g fill-rule="nonzero">
                <ellipse cx="1.409" cy="2.108" fill="url(#m)" rx="1.409" ry="2.108"/>
                <path fill="#021B7C" d="M1.452 3.89C.793 3.89.26 3.137.26 2.206c0-.237.035-.464.098-.669-.093.24-.145.514-.145.805 0 .931.534 1.686 1.192 1.686.49 0 .912-.419 1.095-1.017-.202.525-.596.88-1.048.88Z" opacity=".73"/>
            </g>
            <circle cx="1.897" cy="1.312" r="1" fill="url(#n)" fill-rule="nonzero" transform="rotate(-26.98 1.897 1.312)"/>
        </g>
    </g>
</svg>
