<svg xmlns="http://www.w3.org/2000/svg" xmlns:xlink="http://www.w3.org/1999/xlink" width="100" height="100"><defs><linearGradient id="b" x1="50%" x2="50%" y1="-2.782%" y2="99.64%"><stop offset="0%" stop-color="#5EB8E6"/><stop offset="100%" stop-color="#26A8DF"/></linearGradient><linearGradient id="e" x1=".001%" x2="100.006%" y1="49.999%" y2="49.999%"><stop offset="0%" stop-color="#8CC63F"/><stop offset="100%" stop-color="#38B549"/></linearGradient><linearGradient id="h" x1="-.001%" x2="100.001%" y1="49.999%" y2="49.999%"><stop offset="0%" stop-color="#8CC63F"/><stop offset="100%" stop-color="#38B549"/></linearGradient><path id="a" d="M37.633 0c-.07-.004-.206.018-.206.018C-1.276 2.902-.737 39.744.304 54.732c.084 1.208 5.803 44.628 9.98 44.648 5.765.027 2.883-7.799 2.883-7.799s8.9 2.57 24.26 2.67v.004l.206-.002.207.002v-.004c15.358-.1 24.259-2.67 24.259-2.67s-2.882 7.826 2.883 7.799c4.176-.02 9.895-43.44 9.98-44.648 1.04-14.988 1.58-51.83-37.122-54.714 0 0-.113-.018-.186-.018h-.021"/><path id="d" d="m37.457 65.117-.86-.626-.597.525 1.43 1.595.003-.002.002.002 2.564-2.609-.457-.602z"/><path id="g" d="M31.2 64.762a6.558 6.558 0 0 0 6.555 6.561 6.559 6.559 0 0 0 6.555-6.561 6.559 6.559 0 0 0-6.555-6.562 6.558 6.558 0 0 0-6.555 6.562m2.941-2.087 3.614-1.54 3.613 1.54s-.24 5.712-3.613 5.712-3.614-5.712-3.614-5.712"/></defs><g fill="none" fill-rule="evenodd" transform="translate(12)"><mask id="c" fill="#fff"><use xlink:href="#a"/></mask><path fill="url(#b)" d="M37.633 0c-.07-.004-.206.018-.206.018C-1.276 2.902-.737 39.744.304 54.732c.084 1.208 5.803 44.628 9.98 44.648 5.765.027 2.883-7.799 2.883-7.799s8.9 2.57 24.26 2.67v.004l.206-.002.207.002v-.004c15.358-.1 24.259-2.67 24.259-2.67s-2.882 7.826 2.883 7.799c4.176-.02 9.895-43.44 9.98-44.648 1.04-14.988 1.58-51.83-37.122-54.714 0 0-.113-.018-.186-.018h-.021" mask="url(#c)"/><path fill="#1A1A1A" d="M53.845 38.495a3.453 3.453 0 0 0 3.444-3.448 3.452 3.452 0 0 0-3.444-3.447 3.453 3.453 0 0 0-3.445 3.447 3.453 3.453 0 0 0 3.445 3.448" mask="url(#c)"/><path fill="#FFF" d="M55.21 34.623c.557 0 1.011-.454 1.011-1.012 0-.556-.454-1.011-1.01-1.011a1.013 1.013 0 0 0-.001 2.023" mask="url(#c)"/><path fill="#1A1A1A" d="M21.244 38.495a3.453 3.453 0 0 0 3.444-3.448 3.452 3.452 0 0 0-3.444-3.447 3.452 3.452 0 0 0-3.444 3.447 3.453 3.453 0 0 0 3.444 3.448" mask="url(#c)"/><path fill="#FFF" d="M22.81 34.623a1.013 1.013 0 0 0 0-2.023 1.012 1.012 0 0 0 0 2.023" mask="url(#c)"/><path fill="#1A1A1A" d="M43.45 45.013a.903.903 0 0 0-1.267.103c-.016.018-1.642 1.843-4.599 1.843-3.156 0-4.415-1.598-4.54-1.768a.9.9 0 1 0-1.487 1.02c.071.104 1.769 2.553 6.027 2.553 3.817 0 5.883-2.375 5.968-2.474a.908.908 0 0 0-.102-1.277" mask="url(#c)"/><path fill="#A7A9AC" d="M55.774 67.897 37.788 78.515 19.8 67.897c0-.01 0-.021.003-.03.014-.067 1.007-.897 2.522-2.128l.04-.035C27.332 61.667 37.788 53.4 37.788 53.4s10.454 8.267 15.42 12.304c1.539 1.249 2.55 2.093 2.564 2.164.002.008.002.02.002.029" mask="url(#c)"/><path fill="#FFF" d="M30.524 80.066h19.408a3.015 3.015 0 0 0 3.014-3.017V55.617a3.016 3.016 0 0 0-3.014-3.017H25.614a3.015 3.015 0 0 0-3.014 3.017v16.517l7.924 7.932z" mask="url(#c)"/><path fill="#D1D3D4" d="M55.775 68v17.274a2.199 2.199 0 0 1-2.192 2.194H21.986a2.193 2.193 0 0 1-2.186-2.194V68l17.987 10.617L55.775 68z" mask="url(#c)"/><path fill="#F4F4F4" d="M55.163 86.79 43.585 75.201l-5.802 3.425-5.805-3.426L20.4 86.79a2.17 2.17 0 0 0 1.582.688h31.596a2.18 2.18 0 0 0 1.584-.688" mask="url(#c)"/><path fill="#179BC9" d="M.811 58.822c.402 9.435 3.872 20.398 11.615 24.113 7.579 3.636 19.823 2.386 19.906-.1.045-1.347-1.248-.963-1.167-2.086.11-1.518 2.621-.735 2.447-2.51-.144-1.437-2.61-.53-2.706-1.953-.123-1.812 2.266-1.495 1.11-3.235-1.155-1.74-4.105 2.966-12.714.545-7.76-2.181-10.393-7.806-11.51-16.134-1.117-8.329-7.291-5.934-6.98 1.36m73.797 0c-.401 9.435-3.871 20.398-11.614 24.113-7.58 3.636-19.824 2.386-19.906-.1-.045-1.347 1.248-.963 1.166-2.086-.11-1.518-2.621-.735-2.446-2.51.143-1.437 2.61-.53 2.706-1.953.122-1.812-2.266-1.495-1.111-3.235 1.156-1.74 4.105 2.966 12.714.545 7.76-2.181 10.393-7.806 11.51-16.134 1.117-8.329 7.291-5.934 6.981 1.36" mask="url(#c)"/><path fill="#27AAE1" d="M.811 58.022c.402 9.435 3.872 20.398 11.615 24.113 7.579 3.636 19.823 2.386 19.906-.1.045-1.347-1.248-.963-1.167-2.086.11-1.518 2.621-.735 2.447-2.51-.144-1.437-2.61-.53-2.706-1.952-.123-1.813 2.266-1.496 1.11-3.236-1.155-1.74-4.105 2.966-12.714.545-7.76-2.182-10.393-7.806-11.51-16.134-1.117-8.329-7.291-5.934-6.98 1.36m73.797 0c-.401 9.435-3.871 20.398-11.614 24.113-7.58 3.636-19.824 2.386-19.906-.1-.045-1.347 1.248-.963 1.166-2.086-.11-1.518-2.621-.735-2.446-2.51.143-1.437 2.61-.53 2.706-1.953.122-1.812-2.266-1.495-1.111-3.235 1.156-1.74 4.105 2.966 12.714.545 7.76-2.182 10.393-7.806 11.51-16.134 1.117-8.329 7.291-5.934 6.981 1.36" mask="url(#c)"/><mask id="f" fill="#fff"><use xlink:href="#d"/></mask><path fill="url(#e)" d="m37.457 65.117-.86-.626-.597.525 1.43 1.595.003-.002.002.002 2.564-2.609-.457-.602z" mask="url(#f)"/><mask id="i" fill="#fff"><use xlink:href="#g"/></mask><path fill="url(#h)" d="M31.2 64.762a6.558 6.558 0 0 0 6.555 6.561 6.559 6.559 0 0 0 6.555-6.561 6.559 6.559 0 0 0-6.555-6.562 6.558 6.558 0 0 0-6.555 6.562m2.941-2.087 3.614-1.54 3.613 1.54s-.24 5.712-3.613 5.712-3.614-5.712-3.614-5.712" mask="url(#i)"/><text fill="#43B0E3" font-family="Whitney-Book" font-size="2"><tspan x="71.631" y="87.6">TM</tspan></text></g></svg>