<svg xmlns="http://www.w3.org/2000/svg" xmlns:xlink="http://www.w3.org/1999/xlink" width="30" height="30"><defs><path id="a" d="M11.36 0a.418.418 0 0 0-.062.006C-.385.876-.222 11.998.092 16.522.117 16.887 1.843 29.994 3.104 30c1.74.008.87-2.354.87-2.354s2.687.776 7.324.806h.125c4.636-.03 7.323-.806 7.323-.806s-.87 2.362.87 2.354c1.26-.006 2.987-13.113 3.013-13.478.314-4.524.477-15.646-11.206-16.516 0 0-.034-.006-.056-.006h-.007"/><path id="d" d="M11.36 0a.418.418 0 0 0-.062.006C-.385.876-.222 11.998.092 16.522.117 16.887 1.843 29.994 3.104 30c1.74.008.87-2.354.87-2.354s2.687.776 7.324.806h.125c4.636-.03 7.323-.806 7.323-.806s-.87 2.362.87 2.354c1.26-.006 2.987-13.113 3.013-13.478.314-4.524.477-15.646-11.206-16.516 0 0-.034-.006-.056-.006h-.007"/><path id="f" d="M11.36 0a.418.418 0 0 0-.062.006C-.385.876-.222 11.998.092 16.522.117 16.887 1.843 29.994 3.104 30c1.74.008.87-2.354.87-2.354s2.687.776 7.324.806h.125c4.636-.03 7.323-.806 7.323-.806s-.87 2.362.87 2.354c1.26-.006 2.987-13.113 3.013-13.478.314-4.524.477-15.646-11.206-16.516 0 0-.034-.006-.056-.006h-.007"/><path id="h" d="M11.36 0a.418.418 0 0 0-.062.006C-.385.876-.222 11.998.092 16.522.117 16.887 1.843 29.994 3.104 30c1.74.008.87-2.354.87-2.354s2.687.776 7.324.806h.125c4.636-.03 7.323-.806 7.323-.806s-.87 2.362.87 2.354c1.26-.006 2.987-13.113 3.013-13.478.314-4.524.477-15.646-11.206-16.516 0 0-.034-.006-.056-.006h-.007"/><path id="j" d="M11.36 0a.418.418 0 0 0-.062.006C-.385.876-.222 11.998.092 16.522.117 16.887 1.843 29.994 3.104 30c1.74.008.87-2.354.87-2.354s2.687.776 7.324.806h.125c4.636-.03 7.323-.806 7.323-.806s-.87 2.362.87 2.354c1.26-.006 2.987-13.113 3.013-13.478.314-4.524.477-15.646-11.206-16.516 0 0-.034-.006-.056-.006h-.007"/><path id="l" d="M11.36 0a.418.418 0 0 0-.062.006C-.385.876-.222 11.998.092 16.522.117 16.887 1.843 29.994 3.104 30c1.74.008.87-2.354.87-2.354s2.687.776 7.324.806h.125c4.636-.03 7.323-.806 7.323-.806s-.87 2.362.87 2.354c1.26-.006 2.987-13.113 3.013-13.478.314-4.524.477-15.646-11.206-16.516 0 0-.034-.006-.056-.006h-.007"/><path id="n" d="M11.36 0a.418.418 0 0 0-.062.006C-.385.876-.222 11.998.092 16.522.117 16.887 1.843 29.994 3.104 30c1.74.008.87-2.354.87-2.354s2.687.776 7.324.806h.125c4.636-.03 7.323-.806 7.323-.806s-.87 2.362.87 2.354c1.26-.006 2.987-13.113 3.013-13.478.314-4.524.477-15.646-11.206-16.516 0 0-.034-.006-.056-.006h-.007"/><path id="p" d="M11.36 0a.418.418 0 0 0-.062.006C-.385.876-.222 11.998.092 16.522.117 16.887 1.843 29.994 3.104 30c1.74.008.87-2.354.87-2.354s2.687.776 7.324.806h.125c4.636-.03 7.323-.806 7.323-.806s-.87 2.362.87 2.354c1.26-.006 2.987-13.113 3.013-13.478.314-4.524.477-15.646-11.206-16.516 0 0-.034-.006-.056-.006h-.007"/><path id="r" d="M11.36 0a.418.418 0 0 0-.062.006C-.385.876-.222 11.998.092 16.522.117 16.887 1.843 29.994 3.104 30c1.74.008.87-2.354.87-2.354s2.687.776 7.324.806h.125c4.636-.03 7.323-.806 7.323-.806s-.87 2.362.87 2.354c1.26-.006 2.987-13.113 3.013-13.478.314-4.524.477-15.646-11.206-16.516 0 0-.034-.006-.056-.006h-.007"/><path id="t" d="M11.36 0a.418.418 0 0 0-.062.006C-.385.876-.222 11.998.092 16.522.117 16.887 1.843 29.994 3.104 30c1.74.008.87-2.354.87-2.354s2.687.776 7.324.806h.125c4.636-.03 7.323-.806 7.323-.806s-.87 2.362.87 2.354c1.26-.006 2.987-13.113 3.013-13.478.314-4.524.477-15.646-11.206-16.516 0 0-.034-.006-.056-.006h-.007"/><path id="v" d="M11.36 0a.418.418 0 0 0-.062.006C-.385.876-.222 11.998.092 16.522.117 16.887 1.843 29.994 3.104 30c1.74.008.87-2.354.87-2.354s2.687.776 7.324.806h.125c4.636-.03 7.323-.806 7.323-.806s-.87 2.362.87 2.354c1.26-.006 2.987-13.113 3.013-13.478.314-4.524.477-15.646-11.206-16.516 0 0-.034-.006-.056-.006h-.007"/><path id="x" d="M11.36 0a.418.418 0 0 0-.062.006C-.385.876-.222 11.998.092 16.522.117 16.887 1.843 29.994 3.104 30c1.74.008.87-2.354.87-2.354s2.687.776 7.324.806h.125c4.636-.03 7.323-.806 7.323-.806s-.87 2.362.87 2.354c1.26-.006 2.987-13.113 3.013-13.478.314-4.524.477-15.646-11.206-16.516 0 0-.034-.006-.056-.006h-.007"/><path id="z" d="M.44.518.18.33 0 .488l.432.481h.001l.774-.787L1.07 0z"/><path id="C" d="M0 1.98a1.98 1.98 0 1 0 3.96.003A1.98 1.98 0 0 0 0 1.98m.888-.63 1.09-.465 1.091.465s-.072 1.724-1.09 1.724S.888 1.351.888 1.351"/><linearGradient id="b" x1="50%" x2="50%" y1="-2.782%" y2="99.64%"><stop offset="0%" stop-color="#5EB8E6"/><stop offset="100%" stop-color="#26A8DF"/></linearGradient><linearGradient id="A" x1=".001%" x2="100.006%" y1="49.999%" y2="49.999%"><stop offset="0%" stop-color="#8CC63F"/><stop offset="100%" stop-color="#38B549"/></linearGradient><linearGradient id="D" x1="-.001%" x2="100.001%" y1="49.999%" y2="49.999%"><stop offset="0%" stop-color="#8CC63F"/><stop offset="100%" stop-color="#38B549"/></linearGradient></defs><g fill="none" fill-rule="evenodd"><g transform="translate(4)"><mask id="c" fill="#fff"><use xlink:href="#a"/></mask><path fill="url(#b)" fill-rule="nonzero" d="M11.36 0a.418.418 0 0 0-.062.006C-.385.876-.222 11.998.092 16.522.117 16.887 1.843 29.994 3.104 30c1.74.008.87-2.354.87-2.354s2.687.776 7.324.806h.125c4.636-.03 7.323-.806 7.323-.806s-.87 2.362.87 2.354c1.26-.006 2.987-13.113 3.013-13.478.314-4.524.477-15.646-11.206-16.516 0 0-.034-.006-.056-.006h-.007" mask="url(#c)"/></g><g transform="translate(4)"><mask id="e" fill="#fff"><use xlink:href="#d"/></mask><path fill="#1A1A1A" fill-rule="nonzero" d="M16.254 11.62a1.042 1.042 0 0 0 1.04-1.04 1.041 1.041 0 0 0-1.04-1.04 1.042 1.042 0 0 0-1.04 1.04c.001.574.466 1.04 1.04 1.04" mask="url(#e)"/></g><g transform="translate(4)"><mask id="g" fill="#fff"><use xlink:href="#f"/></mask><path fill="#FFF" fill-rule="nonzero" d="M16.666 10.452a.306.306 0 0 0 0-.61.306.306 0 0 0 0 .61" mask="url(#g)"/></g><g transform="translate(4)"><mask id="i" fill="#fff"><use xlink:href="#h"/></mask><path fill="#1A1A1A" fill-rule="nonzero" d="M6.413 11.62a1.042 1.042 0 0 0 1.04-1.04 1.041 1.041 0 0 0-1.04-1.04 1.042 1.042 0 0 0-1.04 1.04c.001.574.466 1.04 1.04 1.04" mask="url(#i)"/></g><g transform="translate(4)"><mask id="k" fill="#fff"><use xlink:href="#j"/></mask><path fill="#FFF" fill-rule="nonzero" d="M6.886 10.452a.306.306 0 0 0 0-.61.305.305 0 0 0 0 .61" mask="url(#k)"/></g><g transform="translate(4)"><mask id="m" fill="#fff"><use xlink:href="#l"/></mask><path fill="#1A1A1A" fill-rule="nonzero" d="M13.116 13.588a.273.273 0 0 0-.382.031c-.005.006-.496.557-1.389.557-.952 0-1.332-.483-1.37-.534a.272.272 0 1 0-.449.308c.021.031.534.77 1.82.77 1.152 0 1.775-.716 1.801-.746a.274.274 0 0 0-.03-.386" mask="url(#m)"/></g><g transform="translate(4)"><mask id="o" fill="#fff"><use xlink:href="#n"/></mask><path fill="#A7A9AC" fill-rule="nonzero" d="m16.836 20.496-5.429 3.205-5.43-3.205v-.009c.005-.02.305-.27.762-.642l.012-.01c1.5-1.22 4.656-3.715 4.656-3.715s3.156 2.496 4.655 3.714c.464.377.77.632.774.653v.01" mask="url(#o)"/></g><g transform="translate(4)"><mask id="q" fill="#fff"><use xlink:href="#p"/></mask><path fill="#FFF" fill-rule="nonzero" d="M9.214 24.17h5.859a.91.91 0 0 0 .91-.911v-6.47a.91.91 0 0 0-.91-.91h-7.34a.91.91 0 0 0-.91.91v4.986l2.391 2.395Z" mask="url(#q)"/></g><g transform="translate(4)"><mask id="s" fill="#fff"><use xlink:href="#r"/></mask><path fill="#D1D3D4" fill-rule="nonzero" d="M16.837 20.527v5.215a.664.664 0 0 1-.662.662H6.637a.662.662 0 0 1-.66-.662v-5.215l5.43 3.205 5.43-3.205Z" mask="url(#s)"/></g><g transform="translate(4)"><mask id="u" fill="#fff"><use xlink:href="#t"/></mask><path fill="#F4F4F4" fill-rule="nonzero" d="m16.652 26.2-3.495-3.5-1.751 1.034L9.653 22.7l-3.495 3.498a.655.655 0 0 0 .478.208h9.538a.658.658 0 0 0 .478-.208" mask="url(#u)"/></g><g transform="translate(4)"><mask id="w" fill="#fff"><use xlink:href="#v"/></mask><path fill="#179BC9" fill-rule="nonzero" d="M.245 17.757c.121 2.848 1.169 6.157 3.506 7.279 2.288 1.097 5.984.72 6.009-.03.014-.407-.377-.291-.352-.63.033-.458.79-.222.738-.758-.043-.434-.787-.16-.816-.59-.038-.546.684-.45.335-.976-.349-.525-1.24.895-3.838.165-2.343-.659-3.138-2.357-3.475-4.87-.337-2.515-2.2-1.792-2.107.41m22.277 0c-.12 2.848-1.168 6.157-3.506 7.279-2.288 1.097-5.984.72-6.009-.03-.013-.407.377-.291.352-.63-.033-.458-.791-.222-.738-.758.043-.434.788-.16.817-.59.037-.546-.684-.45-.336-.976.35-.525 1.24.895 3.838.165 2.343-.659 3.138-2.357 3.475-4.87.337-2.515 2.2-1.792 2.107.41" mask="url(#w)"/></g><g transform="translate(4)"><mask id="y" fill="#fff"><use xlink:href="#x"/></mask><path fill="#27AAE1" fill-rule="nonzero" d="M.245 17.515c.121 2.848 1.169 6.158 3.506 7.28 2.288 1.097 5.984.72 6.009-.031.014-.407-.377-.29-.352-.63.033-.458.79-.222.738-.757-.043-.434-.787-.16-.816-.59-.038-.547.684-.451.335-.976-.349-.526-1.24.895-3.838.164-2.343-.659-3.138-2.356-3.475-4.87-.337-2.515-2.2-1.792-2.107.41m22.277 0c-.12 2.848-1.168 6.158-3.506 7.28-2.288 1.097-5.984.72-6.009-.031-.013-.407.377-.29.352-.63-.033-.458-.791-.222-.738-.757.043-.434.788-.16.817-.59.037-.547-.684-.451-.336-.976.35-.526 1.24.895 3.838.164 2.343-.659 3.138-2.356 3.475-4.87.337-2.515 2.2-1.792 2.107.41" mask="url(#y)"/></g><g transform="translate(14.867 19.139)"><mask id="B" fill="#fff"><use xlink:href="#z"/></mask><path fill="url(#A)" fill-rule="nonzero" d="M.44.518.18.33 0 .488l.432.481h.001l.774-.787L1.07 0z" mask="url(#B)"/></g><g transform="translate(13.418 17.569)"><mask id="E" fill="#fff"><use xlink:href="#C"/></mask><path fill="url(#D)" fill-rule="nonzero" d="M0 1.98a1.98 1.98 0 1 0 3.96.003A1.98 1.98 0 0 0 0 1.98m.888-.63 1.09-.465 1.091.465s-.072 1.724-1.09 1.724S.888 1.351.888 1.351" mask="url(#E)"/></g><text fill="#43B0E3" fill-rule="nonzero" font-family="Helvetica" font-size="2" transform="translate(25.623 25.84)">
                    <tspan x="0" y="2">TM</tspan>
                </text></g></svg>