<svg height="364.3" width="1461.24" xmlns="http://www.w3.org/2000/svg" xmlns:xlink="http://www.w3.org/1999/xlink"><path d="M1324.08 0c-75.756 0-137.156 61.432-137.156 137.188 0 1.76.028 3.506.094 5.25 43.812-30.923 118.52-81.877 137.031-83.219 6.136-7.771 27.089-13.949 30.906-13.812l-10.937 13.687s-.347 13.992-4.438 16.719c38.188 25.52 56.515 117.301 64.313 172.906 34.722-24.888 57.344-65.552 57.344-111.531C1461.257 61.432 1399.857 0 1324.097 0zm-6.781 123.938c-10.273.307-31.348 31.002-55.157 63.875-11.44 15.797-23.262 32.273-34.156 47.25 24.749 24.301 58.669 39.281 96.094 39.281 26.828 0 51.86-7.686 73-21-16.266-49.732-47.194-129.156-78.844-129.344a4.499 4.499 0 0 0-.937-.062zm-76.907 12.531c-9.408-.07-32.69 8.02-52.656 15.719 2.03 18.662 7.782 36.196 16.531 51.844a1734.53 1734.53 0 0 1 12.344-18.406c15.853-23.296 31.201-43.875 27.594-48.125-.644-.711-1.964-1.018-3.813-1.032zm24.75 11.719c-7.593 1.15-35.02 35.336-56.812 62.625a137.469 137.469 0 0 0 11.75 15.813c22.4-36.68 47.473-76.665 46.125-78.313-.29-.136-.653-.187-1.063-.125z" fill="#0068c8" fill-rule="evenodd"/><path d="m30 135.875-1.219.25-28 6-.781.187v.781c.656 54.392-.913 108.84.281 163.22.28 11.908.885 14.225 2 18.405 3.197 11.986 6.51 18.662 12.594 25.094 6.215 6.571 14.514 10.954 24.906 13.219 10.013 2.182 32.957 1.433 45.407-1.406a101.434 101.434 0 0 0 6.656-1.75 34.752 34.752 0 0 0 2.312-.781c.303-.117.557-.233.781-.344s.386-.167.626-.406c.343-.343.41-.65.468-.938s.083-.593.094-.937c.023-.69-.04-1.52-.125-2.5-.171-1.96-.525-4.426-.969-6.907s-.967-4.961-1.5-6.937c-.266-.988-.547-1.842-.812-2.531s-.402-1.186-.969-1.657c-.833-.691-1.772-.632-3-.531s-2.728.399-4.5.875c-3.1.834-10.627 1.514-18.844 1.625-6.64.09-10.06.12-12.406-.219-2.346-.339-3.708-1.039-6.563-2.5-7.49-3.833-11.405-9.24-14-19.5-.923-3.653-1.397-6.193-1.625-13.437-.154-52.382-.461-107.187-.812-165.156v-1.219z" fill="#033c71"/><path id="a" d="M107 189.125c-.083 16.656-.186 33.313-.281 49.969-.182 31.961-.04 50.45 1.219 63.219s3.65 19.831 7.874 28.687c7.664 16.066 22.323 27.061 41.47 31.156 2.118.454 7.643 1.016 12.624 1.344 11.476.756 27.39.373 39.688-.969 6.25-.682 15.291-2.163 23-3.625 3.854-.73 7.362-1.461 10.031-2.093 1.335-.316 2.484-.584 3.344-.844.43-.13.788-.254 1.094-.375s.532-.21.812-.438c.41-.333.422-.61.5-.875.078-.265.133-.534.188-.906.109-.743.198-1.779.28-3.187.166-2.818.28-7.136.376-13.438.443-51.015.281-98.719.281-148.219-10.164.247-20.338.266-30.5.594-.73 47.034.535 86.886-.75 134.312-.136 4.736-.323 7.382-.563 8.781-.12.7-.258 1.093-.343 1.25s-.075.096-.188.156c-.486.26-2.419.775-4.969 1.156s-5.805.724-9.375 1c-7.138.553-15.527.83-22.03.594-9.949-.361-13.788-.913-18.126-2.594-7.45-2.885-14.608-9.52-18.25-16.937-3.033-6.177-4.541-9.63-5.406-19.094-.864-9.464-1.026-24.871-1.25-54.437-.046-18.26-.406-36.521-.406-54.781-10.112.233-20.234.268-30.344.593z" fill="#033c71"/><path d="M317.844 104.594c-.883 0-2.65.268-5.188.656-6.001.94-11.522 1.861-17.343 3-1.178.231-2.16.455-2.907.625-.373.085-.689.15-.937.219-.248.069-.35.073-.688.281-.002.001-.292.233-.343.313-.051.08-.045.143-.063.187-.035.09-.052.111-.062.156-.02.091-.022.175-.031.25-.019.151-.049.336-.063.563a57.48 57.48 0 0 0-.094 1.906c-.053 1.667-.076 4.106-.125 7.219-.097 6.227-.207 15.177-.281 26.219-.148 22.083-.219 52.48-.219 85.844 0 47.923.061 78.3.25 96.812.095 9.256.21 15.553.375 19.594.082 2.02.176 3.46.282 4.469.053.504.117.898.187 1.218.035.16.065.317.125.47s.094.332.375.562c.28.227.468.247.719.343s.55.206.906.313c.71.214 1.625.476 2.75.75 2.25.548 5.254 1.191 8.594 1.875 6.68 1.368 14.723 2.829 20.781 3.719 2.905.426 11.373 1.017 19.094 1.343 7.724.327 17.386.478 21.594.313 22.63-.886 44.783-10.709 58.312-25.906 26.297-29.54 29.136-82.817 6.313-116.938-9.503-14.212-22.446-24.953-37.342-30.97-10.575-4.272-19.448-5.627-33.375-5.125-13.12.472-22.111 2.706-33.407 8.312a23.85 23.85 0 0 1-3.375 1.375 9.642 9.642 0 0 1-1.25.313c-.054.009-.015-.003-.062 0-.071-.294-.147-.729-.219-1.407-.157-1.477-.28-3.833-.375-7.28-.19-6.896-.25-18.176-.25-35.688 0-20.477-.057-31.693-.281-37.844-.112-3.076-.245-4.845-.5-6-.128-.578-.288-1.046-.594-1.438s-.873-.625-1.281-.625zM361 211.688c5.382-.011 10.566.457 13.281 1.281 17.839 5.415 31.279 20.42 36.844 41.375 2.442 9.195 2.5 31.147.125 40-5.547 20.678-19.9 36.15-37.562 40.75-2.04.532-6.03.932-10.875 1.156s-10.569.283-16.22.188c-5.65-.095-11.24-.337-15.812-.719-4.467-.373-7.91-.912-9.375-1.437-.005-.017.005-.013 0-.031-.083-.309-.165-.89-.25-1.72-.17-1.659-.308-4.348-.406-8.437.017-32.281-.989-56.993 0-91.094.117-3.76.278-5.942.5-7.218s.412-1.498.656-1.719c.574-.519 2.109-1.483 4.063-2.531s4.358-2.236 6.875-3.375c5.034-2.278 10.549-4.39 13.5-5.094 3.656-.873 9.275-1.364 14.656-1.375z" fill="#033c71"/><use transform="translate(377.83)" xlink:href="#a"/><path d="M733.812 185.812c-4.567.099-8.923.306-12.656.688-5.736.586-14.808 1.985-23 3.437-4.096.726-7.973 1.464-11.094 2.125-3.12.66-5.441 1.225-6.656 1.688l-2.281.875-.625.218v.719c.096 46.027-.18 94.22.187 139 .063 7.438.136 13.497.219 17.719.041 2.11.08 3.76.125 4.906.023.573.068 1.018.093 1.344.013.163.014.315.032.437.009.061.01.107.03.188.021.08-.077.14.282.5.264.264.427.27.563.312.135.043.235.069.375.094.279.05.628.089 1.03.125.807.072 1.885.15 3.188.188 2.607.076 6.07.076 9.813 0l13.562-.282.969-.032c.223-24.321.362-48.646.53-72.968l.5-71.157 5.188-1.062c4.766-.944 12.773-1.615 20.47-1.875 7.695-.26 15.172-.076 18.655.562 15.718 2.882 25.293 12.278 29.907 29.5 1.382 5.162 1.736 13.868 2.218 61.032l.563 55v1h30v-57c0-29.839-.03-45.166-.688-55.032-.658-9.865-1.996-14.298-4.5-21.968-6.251-19.152-20.68-32.474-41.062-37.938-4.484-1.202-12.822-1.973-22-2.281-4.59-.154-9.371-.161-13.938-.063zm179.157-49.937L883 142.312v45.719l-34.344.062V214l34.344-.312c.222 30.87-.396 61.766.281 92.625.28 11.908.854 14.226 1.97 18.406 3.196 11.985 6.54 18.661 12.624 25.094 6.215 6.57 14.514 10.953 24.906 13.218 10.013 2.183 32.926 1.433 45.376-1.406 2.482-.566 4.86-1.196 6.687-1.75a33.168 33.168 0 0 0 2.281-.781 9.17 9.17 0 0 0 .782-.344c.224-.11.417-.167.656-.406.343-.343.379-.65.437-.938.06-.288.082-.593.094-.937.023-.689-.01-1.52-.094-2.5-.17-1.96-.525-4.426-.968-6.906-.444-2.48-.968-4.962-1.5-6.938a25.817 25.817 0 0 0-.813-2.531c-.266-.69-.402-1.186-.969-1.656-.833-.692-1.772-.633-3-.532s-2.76.399-4.531.875c-3.1.834-10.596 1.514-18.813 1.625-6.64.09-10.06.12-12.406-.218s-3.707-1.04-6.562-2.5c-7.491-3.834-11.406-9.24-14-19.5-.924-3.654-1.397-6.194-1.625-13.438-.35-31.247-.017-54.05.187-88.252l61.187-.562-.312-25.438-60.906.094-1-52.22z" fill="#033c71"/><use transform="translate(896.83)" xlink:href="#a"/></svg>