<?xml version="1.0" encoding="UTF-8"?>
<svg width="1462px" height="365px" viewBox="0 0 1462 365" version="1.1" xmlns="http://www.w3.org/2000/svg" xmlns:xlink="http://www.w3.org/1999/xlink">
    <title>Group</title>
    <g id="Page-1" stroke="none" stroke-width="1" fill="none" fill-rule="evenodd">
        <g id="Group">
            <path d="M1324.26217,0 C1248.50617,0 1187.10617,61.4316 1187.10617,137.188 C1187.10617,138.94784 1187.13417,140.69423 1187.20017,142.438 C1231.01207,111.5153 1305.72017,60.5607 1324.23117,59.2192 C1330.36667,51.44755 1351.31977,45.2704 1355.13747,45.4067 L1344.19987,59.0942 C1344.19987,59.0942 1343.85307,73.086 1339.76247,75.813 C1377.94977,101.3334 1396.27707,193.114 1404.07487,248.719 C1438.79687,223.8311 1461.41868,183.167 1461.41868,137.188 C1461.43867,61.4316 1400.03867,0 1324.27867,0 L1324.26217,0 Z M1317.48087,123.938 C1307.20847,124.24451 1286.13307,154.9404 1262.32457,187.813 C1250.88347,203.6097 1239.06197,220.0863 1228.16837,235.063 C1252.91707,259.3643 1286.83697,274.3442 1324.26217,274.3442 C1351.09037,274.3442 1376.12227,266.65778 1397.26217,253.3442 C1380.99637,203.6122 1350.06817,124.1882 1318.41837,124.0002 C1318.10977,123.9459 1317.81227,123.9278 1317.48087,123.9377 L1317.48087,123.938 Z M1240.57457,136.468735 C1231.16627,136.3981 1207.88387,144.48902 1187.91837,152.188 C1189.94797,170.8497 1195.70017,188.3842 1204.44957,204.0318 C1208.45837,197.97428 1212.64297,191.7248 1216.79337,185.6256 C1232.64577,162.3296 1247.99417,141.7515 1244.38717,137.5006 C1243.74277,136.78951 1242.42317,136.48332 1240.57457,136.468735 L1240.57457,136.468735 Z M1265.32457,148.188 C1257.73147,149.33876 1230.30497,183.524 1208.51217,210.813 C1212.05527,216.37196 1215.97847,221.6497 1220.26217,226.6255 C1242.66217,189.9467 1267.73567,149.9611 1266.38717,148.313 C1266.09737,148.17665 1265.73377,148.126 1265.32457,148.188 Z" id="Shape" fill="#0068C8"></path>
            <path d="M30.1821728,135.875 L28.9634228,136.125 L0.963422837,142.125 L0.182222837,142.312 L0.182222837,143.09325 C0.838352837,197.48485 -0.730637163,251.93225 0.463472837,306.31225 C0.743772837,318.22105 1.34867284,320.53825 2.46347284,324.71845 C5.65988284,336.70405 8.97374284,343.37985 15.0572728,349.81225 C21.2719828,356.38339 29.5706728,360.76595 39.9634728,363.03105 C49.9763728,365.21329 72.9200728,364.46403 85.3696728,361.6248 C87.8519828,361.05869 90.1990128,360.42852 92.0259228,359.8748 C92.9393728,359.59794 93.7319828,359.3265 94.3384228,359.09355 C94.6416428,358.97707 94.8947428,358.8607 95.1196728,358.7498 C95.3446028,358.6389 95.5055928,358.58263 95.7446728,358.34355 C96.0877028,358.00052 96.1548228,357.6939 96.2134228,357.40605 C96.2720228,357.1182 96.2957228,356.81285 96.3071228,356.46855 C96.3300228,355.77994 96.2676228,354.94813 96.1821228,353.96855 C96.0110328,352.00939 95.6570428,349.54259 95.2133728,347.0623 C94.7697028,344.58201 94.2457028,342.10088 93.7133728,340.1248 C93.4472128,339.13676 93.1665528,338.28288 92.9008728,337.59355 C92.6351928,336.90422 92.4991728,336.40791 91.9321228,335.9373 C91.0991328,335.24597 90.1600328,335.30504 88.9321228,335.40605 C87.7042128,335.50706 86.2038728,335.80454 84.4321228,336.28105 C81.3325828,337.11466 73.8053228,337.79501 65.5883228,337.90605 C58.9479928,337.99575 55.5277228,338.02657 53.1821228,337.6873 C50.8365128,337.34803 49.4746428,336.64837 46.6196228,335.1873 C39.1285428,331.35369 35.2142228,325.94736 32.6196228,315.6873 C31.6957928,312.03404 31.2226528,309.49374 30.9946228,302.2498 C30.8406728,249.8678 30.5327428,195.0628 30.1821228,137.0938 L30.1821228,135.875 L30.1821728,135.875 Z" id="Path" fill="#FFFFFF" fill-rule="nonzero"></path>
            <path d="M107.182173,189.125 C107.099373,205.7813 106.996523,222.4375 106.900923,239.0938 C106.718763,271.055 106.861323,289.5448 108.119673,302.3126 C109.378023,315.0804 111.770453,322.1445 115.994673,331.0001 C123.658233,347.0659 138.317073,358.061 157.463473,362.1563 C159.582653,362.60957 165.107273,363.1721 170.088473,363.50005 C181.564273,364.25559 197.478773,363.8727 209.775973,362.5313 C216.027093,361.84942 225.067673,360.36784 232.775973,358.9063 C236.630123,358.17553 240.138233,357.44456 242.807173,356.81255 C244.141673,356.49655 245.290913,356.22928 246.150923,355.9688 C246.580933,355.83856 246.939353,355.71468 247.244673,355.5938 C247.549993,355.47292 247.776823,355.3848 248.057173,355.1563 C248.466313,354.82283 248.479143,354.54673 248.557173,354.2813 C248.635173,354.01587 248.690053,353.74671 248.744673,353.37505 C248.853903,352.63174 248.943443,351.59618 249.025923,350.18755 C249.190883,347.37028 249.305923,343.05232 249.400923,336.75005 C249.843683,285.73525 249.682173,238.03125 249.682173,188.5305 C239.518173,188.77764 229.344473,188.79746 219.182173,189.12475 C218.452673,236.15905 219.716913,276.01125 218.432173,323.43675 C218.295713,328.17301 218.109663,330.81884 217.869673,332.218 C217.749683,332.91758 217.611423,333.31082 217.525923,333.468 C217.440423,333.62518 217.451223,333.5639 217.338423,333.62425 C216.852443,333.88434 214.919243,334.39933 212.369673,334.7805 C209.820103,335.16167 206.564043,335.50441 202.994673,335.7805 C195.855933,336.33269 187.467473,336.61061 180.963473,336.37425 C171.015593,336.01275 167.176673,335.46097 162.838473,333.7805 C155.388973,330.89485 148.230173,324.25933 144.588473,316.843 C141.555113,310.66564 140.046713,307.21353 139.182223,297.7492 C138.317733,288.28492 138.156243,272.8775 137.932223,243.3117 C137.885923,225.0513 137.525973,206.7909 137.525973,188.5305 C127.414273,188.76395 117.292173,188.7987 107.182173,189.1243 L107.182173,189.125 Z" id="a" fill="#FFFFFF" fill-rule="nonzero"></path>
            <path d="M318.026173,104.5924 C317.142993,104.5924 315.376943,104.86196 312.838673,105.25025 C306.837103,106.19067 301.316373,107.11132 295.494873,108.25025 C294.317333,108.48141 293.335463,108.70494 292.588623,108.87525 C292.215203,108.96035 291.899193,109.02516 291.651123,109.094 C291.403053,109.1628 291.301043,109.1667 290.963623,109.37525 C290.961623,109.37625 290.670823,109.60779 290.619873,109.68775 C290.568873,109.76775 290.575073,109.83077 290.557373,109.87525 C290.522073,109.96425 290.505173,109.98602 290.494873,110.0315 C290.474273,110.1225 290.472773,110.20622 290.463673,110.2815 C290.445373,110.43206 290.415473,110.61741 290.401173,110.844 C290.372573,111.29718 290.334073,111.91703 290.307473,112.75025 C290.254173,114.41669 290.231273,116.85573 290.182473,119.969 C290.084973,126.19555 289.975103,135.1459 289.901223,146.1878 C289.753463,168.2715 289.682473,198.6671 289.682473,232.0316 C289.682473,279.9549 289.743373,310.3322 289.932473,328.8441 C290.027073,338.10007 290.143123,344.3973 290.307473,348.4379 C290.389673,350.45816 290.482713,351.8989 290.588723,352.90665 C290.641723,353.41053 290.705923,353.8053 290.776223,354.1254 C290.811323,354.28545 290.841523,354.44195 290.901223,354.59415 C290.960923,354.74635 290.995023,354.92749 291.276223,355.15665 C291.555423,355.38421 291.744613,355.4042 291.994973,355.5004 C292.245333,355.5966 292.545883,355.70602 292.901223,355.8129 C293.611903,356.02665 294.526623,356.28862 295.651223,356.5629 C297.900413,357.11146 300.905333,357.75405 304.244973,358.4379 C310.924253,359.80559 318.968173,361.2668 325.026173,362.15665 C327.930933,362.58332 336.399573,363.17418 344.119973,363.5004 C351.843703,363.8268 361.506073,363.97761 365.713773,363.8129 C388.343673,362.92709 410.496773,353.1041 424.026273,337.9067 C450.323073,308.3679 453.161873,255.0901 430.338773,220.9687 C420.835773,206.7567 407.892773,196.0157 392.996773,189.9987 C382.422073,185.72738 373.549473,184.37184 359.621773,184.8737 C346.501373,185.34648 337.510973,187.57978 326.215573,193.1862 C325.024403,193.77743 323.819023,194.25657 322.840573,194.5612 C322.351343,194.71352 321.897443,194.82463 321.590573,194.8737 C321.536573,194.8827 321.574973,194.8707 321.528073,194.8737 C321.456773,194.57998 321.381383,194.14517 321.309323,193.46745 C321.152203,191.98971 321.029323,189.63359 320.934323,186.1862 C320.744323,179.29143 320.684323,168.0112 320.684323,150.4987 C320.684323,130.0219 320.627523,118.8059 320.403073,112.6549 C320.290853,109.57943 320.158563,107.81032 319.903073,106.6549 C319.775333,106.07719 319.615073,105.6094 319.309323,105.2174 C319.003573,104.8254 318.436003,104.5924 318.028073,104.5924 L318.026173,104.5924 Z M361.182373,211.6878 C366.563713,211.6767 371.748073,212.14503 374.463573,212.96925 C392.301873,218.38357 405.741673,233.38915 411.307373,254.34425 C413.749383,263.53861 413.807673,285.49105 411.432373,294.34425 C405.884713,315.02155 391.533073,330.49355 373.869873,335.09425 C371.829973,335.62558 367.839923,336.02637 362.994873,336.2505 C358.149823,336.47463 352.426573,336.53303 346.776073,336.438 C341.125593,336.343 335.534573,336.10143 330.963573,335.71925 C326.496613,335.34578 323.052653,334.80686 321.588573,334.28175 C321.583573,334.26515 321.593573,334.26905 321.588573,334.25055 C321.504773,333.94234 321.423543,333.36168 321.338573,332.5318 C321.168623,330.87205 321.030583,328.18342 320.932323,324.0943 C320.948923,291.8128 319.943633,267.1009 320.932323,233.0005 C321.048893,229.23959 321.209863,227.05752 321.432323,225.78175 C321.654783,224.50598 321.844443,224.28372 322.088573,224.063 C322.662493,223.54412 324.196853,222.5802 326.151073,221.53175 C328.105293,220.4833 330.508863,219.29584 333.026073,218.15675 C338.060503,215.87856 343.574973,213.76781 346.526073,213.063 C350.182493,212.18974 355.800983,211.69935 361.182273,211.6878 L361.182373,211.6878 Z" id="Shape" fill="#FFFFFF" fill-rule="nonzero"></path>
            <g id="a-link" transform="translate(484.666268, 188.530500)" fill="#FFFFFF" fill-rule="nonzero">
                <path d="M0.345904432,0.5945 C0.263104432,17.2508 0.160254432,33.907 0.0646544318,50.5633 C-0.117505568,82.5245 0.0250544318,101.0143 1.28340443,113.7821 C2.54175443,126.5499 4.93418443,133.614 9.15840443,142.4696 C16.8219644,158.5354 31.4808044,169.5305 50.6272044,173.6258 C52.7463844,174.07907 58.2710044,174.6416 63.2522044,174.96955 C74.7280044,175.72509 90.6425044,175.3422 102.939704,174.0008 C109.190824,173.31892 118.231404,171.83734 125.939704,170.3758 C129.793854,169.64503 133.301964,168.91406 135.970904,168.28205 C137.305404,167.96605 138.454644,167.69878 139.314654,167.4383 C139.744664,167.30806 140.103084,167.18418 140.408404,167.0633 C140.713724,166.94242 140.940554,166.8543 141.220904,166.6258 C141.630044,166.29233 141.642874,166.01623 141.720904,165.7508 C141.798904,165.48537 141.853784,165.21621 141.908404,164.84455 C142.017634,164.10124 142.107174,163.06568 142.189654,161.65705 C142.354614,158.83978 142.469654,154.52182 142.564654,148.21955 C143.007414,97.20475 142.845904,49.50075 142.845904,0 C132.681904,0.24714 122.508204,0.26696 112.345904,0.59425 C111.616404,47.62855 112.880644,87.48075 111.595904,134.90625 C111.459444,139.64251 111.273394,142.28834 111.033404,143.6875 C110.913414,144.38708 110.775154,144.78032 110.689654,144.9375 C110.604154,145.09468 110.614954,145.0334 110.502154,145.09375 C110.016174,145.35384 108.082974,145.86883 105.533404,146.25 C102.983834,146.63117 99.7277744,146.97391 96.1584044,147.25 C89.0196644,147.80219 80.6312044,148.08011 74.1272044,147.84375 C64.1793244,147.48225 60.3404044,146.93047 56.0022044,145.25 C48.5527044,142.36435 41.3939044,135.72883 37.7522044,128.3125 C34.7188444,122.13514 33.2104444,118.68303 32.3459544,109.2187 C31.4814644,99.75442 31.3199744,84.347 31.0959544,54.7812 C31.0496544,36.5208 30.6897044,18.2604 30.6897044,0 C20.5780044,0.23345 10.4559044,0.2682 0.345904432,0.5938 L0.345904432,0.5945 Z" id="a"></path>
            </g>
            <path d="M733.994173,185.812 C729.427573,185.9105 725.071353,186.11807 721.337973,186.4995 C715.601983,187.08552 706.529773,188.48475 698.337973,189.937 C694.242063,190.66313 690.365143,191.40147 687.244173,192.062 C684.123253,192.72253 681.803173,193.28747 680.587923,193.7495 L678.306673,194.6245 L677.681673,194.84325 L677.681673,195.562 C677.778573,241.5893 677.502923,289.7816 677.869173,334.562 C677.932073,342.00006 678.004873,348.0594 678.087923,352.2808 C678.129423,354.39148 678.167323,356.0406 678.212923,357.18705 C678.235723,357.76027 678.281623,358.20495 678.306623,358.5308 C678.319123,358.69372 678.320423,358.84625 678.337823,358.9683 C678.346823,359.0293 678.348823,359.07503 678.369023,359.1558 C678.389223,359.2366 678.290823,359.29641 678.650273,359.6558 C678.914503,359.92001 679.077483,359.92506 679.212773,359.9683 C679.348063,360.0115 679.448293,360.0366 679.587773,360.062 C679.866723,360.1129 680.215813,360.151 680.619023,360.187 C681.425433,360.259 682.503183,360.33639 683.806523,360.3745 C686.413203,360.4507 689.876783,360.451 693.619023,360.3745 L707.181023,360.0925 L708.149773,360.0613 C708.373053,335.7395 708.512063,311.4153 708.680973,287.0925 L709.180973,215.9363 L714.368473,214.8738 C719.134503,213.9299 727.140873,213.25945 734.837273,212.9988 C742.533643,212.73815 750.009773,212.9227 753.493473,213.5613 C769.211373,216.44264 778.785673,225.8386 783.399673,243.0613 C784.782543,248.2231 785.135733,256.9286 785.618423,304.0925 L786.180923,359.0925 L786.180923,360.0925 L816.180923,360.0925 L816.180923,303.0925 C816.180923,273.2541 816.151423,257.9267 815.493423,248.0613 C814.835463,238.19587 813.497083,233.7626 810.993423,226.0925 C804.741993,206.9411 790.313823,193.6186 769.930923,188.155 C765.446983,186.95308 757.109323,186.18188 747.930923,185.87375 C743.341713,185.71969 738.560023,185.7127 733.993423,185.81125 L733.994173,185.812 Z" id="Path" fill="#FFFFFF" fill-rule="nonzero"></path>
            <path d="M913.151173,135.87295 L883.182173,142.312 L883.182173,188.0308 L848.838373,188.0933 L848.838373,213.9995 L883.182373,213.6875 C883.404013,244.5585 882.785993,275.4536 883.463623,306.3125 C883.743923,318.2213 884.317573,320.5385 885.432373,324.7187 C888.628783,336.7043 891.973893,343.3801 898.057373,349.8125 C904.272083,356.38364 912.570773,360.7662 922.963573,363.0313 C932.976473,365.21354 955.888973,364.46428 968.338673,361.62505 C970.820973,361.05894 973.199173,360.42877 975.026173,359.87505 C975.939573,359.59819 976.700973,359.32675 977.307373,359.0938 C977.610573,358.97732 977.863673,358.86095 978.088673,358.75005 C978.313573,358.63915 978.505773,358.58288 978.744873,358.3438 C979.087873,358.00077 979.123773,357.69415 979.182373,357.4063 C979.241373,357.11845 979.264373,356.8131 979.276373,356.4688 C979.299373,355.78019 979.266373,354.94838 979.182373,353.9688 C979.011273,352.00964 978.657273,349.54284 978.213673,347.06255 C977.769973,344.58226 977.245973,342.10113 976.713673,340.12505 C976.447473,339.13701 976.166773,338.28313 975.901173,337.5938 C975.635473,336.90447 975.499473,336.40816 974.932373,335.93755 C974.099373,335.24622 973.160273,335.30529 971.932373,335.4063 C970.704473,335.50731 969.172873,335.80479 967.401173,336.2813 C964.301573,337.11491 956.805573,337.79526 948.588673,337.9063 C941.948273,337.996 938.527973,338.02682 936.182373,337.68755 C933.836773,337.34828 932.474873,336.64862 929.619873,335.18755 C922.128773,331.35394 918.214473,325.94761 915.619873,315.68755 C914.696043,312.03429 914.222903,309.49399 913.994873,302.25005 C913.644873,271.00305 913.977873,248.20005 914.181873,213.99805 L975.369373,213.43555 L975.057173,187.99805 L914.150873,188.09175 L913.150923,135.87295 L913.151173,135.87295 Z" id="Path" fill="#FFFFFF" fill-rule="nonzero"></path>
            <g id="a-link" transform="translate(1003.666268, 188.530500)" fill="#FFFFFF" fill-rule="nonzero">
                <path d="M0.345904432,0.5945 C0.263104432,17.2508 0.160254432,33.907 0.0646544318,50.5633 C-0.117505568,82.5245 0.0250544318,101.0143 1.28340443,113.7821 C2.54175443,126.5499 4.93418443,133.614 9.15840443,142.4696 C16.8219644,158.5354 31.4808044,169.5305 50.6272044,173.6258 C52.7463844,174.07907 58.2710044,174.6416 63.2522044,174.96955 C74.7280044,175.72509 90.6425044,175.3422 102.939704,174.0008 C109.190824,173.31892 118.231404,171.83734 125.939704,170.3758 C129.793854,169.64503 133.301964,168.91406 135.970904,168.28205 C137.305404,167.96605 138.454644,167.69878 139.314654,167.4383 C139.744664,167.30806 140.103084,167.18418 140.408404,167.0633 C140.713724,166.94242 140.940554,166.8543 141.220904,166.6258 C141.630044,166.29233 141.642874,166.01623 141.720904,165.7508 C141.798904,165.48537 141.853784,165.21621 141.908404,164.84455 C142.017634,164.10124 142.107174,163.06568 142.189654,161.65705 C142.354614,158.83978 142.469654,154.52182 142.564654,148.21955 C143.007414,97.20475 142.845904,49.50075 142.845904,0 C132.681904,0.24714 122.508204,0.26696 112.345904,0.59425 C111.616404,47.62855 112.880644,87.48075 111.595904,134.90625 C111.459444,139.64251 111.273394,142.28834 111.033404,143.6875 C110.913414,144.38708 110.775154,144.78032 110.689654,144.9375 C110.604154,145.09468 110.614954,145.0334 110.502154,145.09375 C110.016174,145.35384 108.082974,145.86883 105.533404,146.25 C102.983834,146.63117 99.7277744,146.97391 96.1584044,147.25 C89.0196644,147.80219 80.6312044,148.08011 74.1272044,147.84375 C64.1793244,147.48225 60.3404044,146.93047 56.0022044,145.25 C48.5527044,142.36435 41.3939044,135.72883 37.7522044,128.3125 C34.7188444,122.13514 33.2104444,118.68303 32.3459544,109.2187 C31.4814644,99.75442 31.3199744,84.347 31.0959544,54.7812 C31.0496544,36.5208 30.6897044,18.2604 30.6897044,0 C20.5780044,0.23345 10.4559044,0.2682 0.345904432,0.5938 L0.345904432,0.5945 Z" id="a"></path>
            </g>
        </g>
    </g>
</svg>