<?xml version="1.0" encoding="UTF-8"?>
<svg height="364.3" width="1461.24" xmlns="http://www.w3.org/2000/svg" xmlns:xlink="http://www.w3.org/1999/xlink">
 <path d="m1324.08 0c-75.756 0-137.156 61.4316-137.156 137.188 0 1.75984.028 3.50623.094 5.25 43.8119-30.9227 118.52-81.8773 137.031-83.2188 6.1355-7.77165 27.0886-13.9488 30.9063-13.8125l-10.9376 13.6875s-.3468 13.9918-4.4374 16.7188c38.1873 25.5204 56.5146 117.301 64.3124 172.906 34.722-24.8879 57.3438-65.552 57.3438-111.531.02-75.7564-61.38-137.188-137.14-137.188zm-6.7813 123.938c-10.2724.30651-31.3478 31.0024-55.1563 63.875-11.4411 15.7967-23.2626 32.2733-34.1562 47.25 24.7487 24.3013 58.6686 39.2812 96.0938 39.2812 26.8282 0 51.8601-7.68642 73-21-16.2658-49.732-47.194-129.156-78.8438-129.344-.3086-.0543-.6061-.0724-.9375-.0625zm-76.9063 12.5312c-9.4083-.0711-32.6907 8.01982-52.6562 15.7188 2.0296 18.6617 7.7818 36.1962 16.5312 51.8438 4.0088-6.05752 8.1934-12.307 12.3438-18.4062 15.8524-23.296 31.2008-43.8741 27.5938-48.125-.6444-.71109-1.964-1.01728-3.8126-1.03125zm24.75 11.7188c-7.5931 1.15076-35.0196 35.336-56.8124 62.625 3.5431 5.55896 7.4663 10.8367 11.75 15.8125 22.4-36.6788 47.4735-76.6644 46.125-78.3125-.2898-.13635-.6534-.187-1.0626-.125z" fill="#0068c8" fill-rule="evenodd"/>
 <path d="m30 135.875-1.21875.25-28 6-.7812.187v.78125c.65613 54.3916-.91286 108.839.28125 163.219.2803 11.9088.8852 14.226 2 18.4062 3.19641 11.9856 6.51027 18.6614 12.5938 25.0938 6.21471 6.57114 14.5134 10.9537 24.9062 13.2188 10.0129 2.18224 32.9566 1.43298 45.4062-1.40625 2.48231-.56611 4.82934-1.19628 6.65625-1.75.91345-.27686 1.70606-.5483 2.3125-.78125.30322-.11648.55632-.23285.78125-.34375s.38592-.16717.625-.40625c.34303-.34303.41015-.64965.46875-.9375s.0823-.5932.0937-.9375c.0229-.68861-.0395-1.52042-.125-2.5-.17109-1.95916-.52508-4.42596-.96875-6.90625s-.96767-4.96142-1.5-6.9375c-.26616-.98804-.54682-1.84192-.8125-2.53125s-.4017-1.18564-.96875-1.65625c-.83299-.69133-1.77209-.63226-3-.53125s-2.72825.39849-4.5.875c-3.09954.83361-10.6268 1.51396-18.8438 1.625-6.64033.0897-10.0606.12052-12.4062-.21875-2.34561-.33927-3.70748-1.03893-6.5625-2.5-7.49108-3.83361-11.4054-9.23994-14-19.5-.92383-3.65326-1.39697-6.19356-1.625-13.4375-.15395-52.382-.46188-107.187-.8125-165.156v-1.21875z" fill="#033c71"/>
 <path id="a" d="m107 189.125c-.0828 16.6563-.18565 33.3125-.28125 49.9688-.18216 31.9612-.0396 50.451 1.21875 63.2188s3.65078 19.8319 7.875 28.6875c7.66356 16.0658 22.3224 27.0609 41.4688 31.1562 2.11918.45327 7.6438 1.0158 12.625 1.34375 11.4758.75554 27.3903.37265 39.6875-.96875 6.25112-.68188 15.2917-2.16346 23-3.625 3.85415-.73077 7.36226-1.46174 10.0312-2.09375 1.3345-.316 2.48374-.58327 3.34375-.84375.43001-.13024.78843-.25412 1.09375-.375s.53215-.209.8125-.4375c.40914-.33347.42197-.60957.5-.875.078-.26543.13288-.53459.1875-.90625.10923-.74331.19877-1.77887.28125-3.1875.16496-2.81727.28-7.13523.375-13.4375.44276-51.0148.28125-98.7188.28125-148.219-10.164.24659-20.3377.26641-30.5.5937-.7295 47.0343.53474 86.8865-.75 134.312-.13646 4.73626-.32251 7.38209-.5625 8.78125-.11999.69958-.25825 1.09282-.34375 1.25s-.0747.0959-.1875.15625c-.48598.26009-2.41918.77508-4.96875 1.15625s-5.80563.72391-9.375 1c-7.13874.55219-15.5272.83011-22.0312.59375-9.94788-.3615-13.7868-.91328-18.125-2.59375-7.4495-2.88565-14.6083-9.52117-18.25-16.9375-3.03336-6.17736-4.54176-9.62947-5.40625-19.0938-.86449-9.46428-1.02598-24.8717-1.25-54.4375-.0463-18.2604-.40625-36.5208-.40625-54.7812-10.1117.23345-20.2338.2682-30.3438.5938z" fill="#033c71"/>
 <path d="m317.844 104.594c-.88318 0-2.64923.26796-5.1875.65625-6.00157.94042-11.5223 1.86107-17.3438 3-1.17754.23116-2.15941.45469-2.90625.625-.37342.0851-.68943.14991-.9375.21875-.24807.0688-.35008.0727-.6875.28125-.002.001-.2928.23254-.34375.3125-.051.08-.0448.14302-.0625.1875-.0353.089-.0522.11077-.0625.15625-.0206.091-.0221.17472-.0312.25-.0183.15056-.0482.33591-.0625.5625-.0286.45318-.0671 1.07303-.0937 1.90625-.0533 1.66644-.0762 4.10548-.125 7.21875-.0975 6.22655-.20737 15.1769-.28125 26.2188-.14776 22.0837-.21875 52.4793-.21875 85.8438 0 47.9233.0609 78.3006.25 96.8125.0946 9.25597.21065 15.5532.375 19.5938.0822 2.02026.17524 3.461.28125 4.46875.053.50388.1172.89865.1875 1.21875.0351.16005.0653.31655.125.46875s.0938.33334.375.5625c.2792.22756.46839.24755.71875.34375s.55091.20562.90625.3125c.71068.21375 1.6254.47572 2.75.75 2.24919.54856 5.25411 1.19115 8.59375 1.875 6.67928 1.36769 14.7232 2.8289 20.7812 3.71875 2.90476.42667 11.3734 1.01753 19.0938 1.34375 7.72373.3264 17.3861.47721 21.5938.3125 22.6299-.88581 44.783-10.7088 58.3125-25.9062 26.2968-29.5388 29.1356-82.8166 6.3125-116.938-9.503-14.212-22.446-24.953-37.342-30.97-10.5747-4.27132-19.4473-5.62686-33.375-5.125-13.1204.47278-22.1108 2.70608-33.4062 8.3125-1.19117.59123-2.39655 1.07037-3.375 1.375-.48923.15232-.94313.26343-1.25.3125-.054.009-.0156-.003-.0625 0-.0713-.29372-.14669-.72853-.21875-1.40625-.15712-1.47774-.28-3.83386-.375-7.28125-.19-6.89477-.25-18.175-.25-35.6875 0-20.4768-.0568-31.6928-.28125-37.8438-.11222-3.07547-.24451-4.84458-.5-6-.12774-.57771-.288-1.0455-.59375-1.4375s-.87332-.625-1.28125-.625zm43.1562 107.094c5.38134-.0113 10.5657.45703 13.2812 1.28125 17.8383 5.41432 31.2781 20.4199 36.8438 41.375 2.44201 9.19436 2.5003 31.1468.125 40-5.54766 20.6773-19.8993 36.1493-37.5625 40.75-2.0399.53133-6.02995.93212-10.875 1.15625s-10.5683.28253-16.2188.1875c-5.65048-.095-11.2415-.33657-15.8125-.71875-4.46696-.37347-7.91092-.91239-9.375-1.4375-.005-.0166.005-.0127 0-.0312-.0838-.30821-.16503-.88887-.25-1.71875-.16995-1.65975-.30799-4.34838-.40625-8.4375.0166-32.2815-.98869-56.9934 0-91.0938.11657-3.76091.27754-5.94298.5-7.21875s.41212-1.49803.65625-1.71875c.57392-.51888 2.10828-1.4828 4.0625-2.53125s4.35779-2.23591 6.875-3.375c5.03443-2.27819 10.5489-4.38894 13.5-5.09375 3.65642-.87326 9.27491-1.36365 14.6562-1.375z" fill="#033c71"/>
 <use transform="translate(377.83)" xlink:href="#a"/>
 <path d="m733.812 185.812c-4.5666.0985-8.92282.30607-12.6562.6875-5.73599.58602-14.8082 1.98525-23 3.4375-4.09591.72613-7.97283 1.46447-11.0938 2.125-3.12092.66053-5.441 1.22547-6.65625 1.6875l-2.28125.875-.625.21875v.71875c.0969 46.0273-.17875 94.2196.1875 139 .0629 7.43806.1357 13.4974.21875 17.7188.0415 2.11068.0794 3.7598.125 4.90625.0228.57322.0687 1.0179.0937 1.34375.0125.16292.0138.31545.0312.4375.009.061.011.10673.0312.1875.0202.0808-.0782.14061.28125.5.26423.26421.42721.26926.5625.3125.13529.0432.23552.0683.375.0937.27895.0509.62804.089 1.03125.125.80641.072 1.88416.14939 3.1875.1875 2.60668.0762 6.07026.0765 9.8125 0l13.562-.282.96875-.0312c.22328-24.3218.36229-48.646.5312-72.9688l.5-71.1562 5.1875-1.0625c4.76603-.9439 12.7724-1.61435 20.4688-1.875 7.69637-.26065 15.1725-.0761 18.6562.5625 15.7179 2.88134 25.2922 12.2773 29.9062 29.5 1.38287 5.1618 1.73606 13.8673 2.21875 61.0312l.5625 55v1h30v-57c0-29.8384-.0295-45.1658-.6875-55.0312-.65796-9.86543-1.99634-14.2987-4.5-21.9688-6.25143-19.1514-20.6796-32.4739-41.0625-37.9375-4.48394-1.20192-12.8216-1.97312-22-2.28125-4.58921-.15406-9.3709-.16105-13.9375-.0625z" fill="#033c71"/>
 <path d="m912.969 135.875-29.969 6.437v45.7188l-34.3438.0625v25.9062l34.344-.312c.22164 30.871-.39638 61.7661.28125 92.625.2803 11.9088.85395 14.226 1.96875 18.4062 3.19641 11.9856 6.54152 18.6614 12.625 25.0938 6.21471 6.57114 14.5134 10.9537 24.9062 13.2188 10.0129 2.18224 32.9254 1.43298 45.3751-1.40625 2.4823-.56611 4.8605-1.19628 6.6875-1.75.9134-.27686 1.6748-.5483 2.2812-.78125.3032-.11648.5563-.23285.7813-.34375.2249-.1109.4171-.16717.6562-.40625.343-.34303.3789-.64965.4375-.9375.059-.28785.082-.5932.094-.9375.023-.68861-.01-1.52042-.094-2.5-.1711-1.95916-.5251-4.42596-.9687-6.90625-.4437-2.48029-.9677-4.96142-1.5-6.9375-.2662-.98804-.5469-1.84192-.8125-2.53125-.2657-.68933-.4017-1.18564-.9688-1.65625-.833-.69133-1.7721-.63226-3-.53125s-2.7595.39849-4.5312.875c-3.0996.83361-10.5956 1.51396-18.8125 1.625-6.6404.0897-10.0607.12052-12.4063-.21875s-3.7075-1.03893-6.5625-2.5c-7.4911-3.83361-11.4054-9.23994-14-19.5-.92383-3.65326-1.39697-6.19356-1.625-13.4375-.35-31.247-.017-54.05.187-88.252l61.1875-.5625-.3122-25.4375-60.9063.0937-.99995-52.2188z" fill="#033c71"/>
 <use transform="translate(896.83)" xlink:href="#a"/>
</svg>
