<svg width="1462" height="365" xmlns="http://www.w3.org/2000/svg"><g fill="none" fill-rule="evenodd"><path d="M1324.262 0c-75.756 0-137.156 61.432-137.156 137.188 0 1.76.028 3.506.094 5.25 43.812-30.923 118.52-81.877 137.031-83.219 6.136-7.771 27.089-13.949 30.906-13.812L1344.2 59.094s-.347 13.992-4.438 16.719c38.188 25.52 56.515 117.301 64.313 172.906 34.722-24.888 57.344-65.552 57.344-111.531C1461.439 61.432 1400.039 0 1324.279 0h-.017Zm-6.781 123.938c-10.273.307-31.348 31.002-55.156 63.875-11.442 15.797-23.263 32.273-34.157 47.25 24.75 24.301 58.669 39.281 96.094 39.281 26.828 0 51.86-7.686 73-21-16.266-49.732-47.194-129.156-78.844-129.344a4.499 4.499 0 0 0-.937-.062Zm-76.906 12.53c-9.409-.07-32.691 8.021-52.657 15.72 2.03 18.662 7.782 36.196 16.532 51.844a1734.53 1734.53 0 0 1 12.343-18.406c15.853-23.296 31.201-43.875 27.594-48.125-.644-.711-1.964-1.018-3.812-1.032Zm24.75 11.72c-7.594 1.15-35.02 35.336-56.813 62.625a137.469 137.469 0 0 0 11.75 15.813c22.4-36.68 47.474-76.665 46.125-78.313-.29-.136-.653-.187-1.062-.125Z" fill="#0068C8"/><path d="m30.182 135.875-1.219.25-28 6-.78.187v.781c.655 54.392-.914 108.84.28 163.22.28 11.908.886 14.225 2 18.405 3.197 11.986 6.51 18.662 12.594 25.094 6.215 6.571 14.514 10.954 24.906 13.219 10.013 2.182 32.957 1.433 45.407-1.406a101.434 101.434 0 0 0 6.656-1.75 34.752 34.752 0 0 0 2.312-.781 9.21 9.21 0 0 0 .782-.344c.225-.111.386-.167.625-.406.343-.343.41-.65.468-.938.059-.288.083-.593.094-.937.023-.69-.04-1.52-.125-2.5-.171-1.96-.525-4.426-.969-6.907-.443-2.48-.967-4.961-1.5-6.937a25.784 25.784 0 0 0-.812-2.531c-.266-.69-.402-1.186-.969-1.657-.833-.691-1.772-.632-3-.531-1.228.101-2.728.399-4.5.875-3.1.834-10.627 1.514-18.844 1.625-6.64.09-10.06.12-12.406-.219-2.345-.339-3.707-1.039-6.562-2.5-7.491-3.833-11.406-9.24-14-19.5-.924-3.653-1.397-6.193-1.625-13.437-.154-52.382-.462-107.187-.813-165.156v-1.219Zm77 53.25c-.083 16.656-.185 33.313-.281 49.969-.182 31.961-.04 50.45 1.219 63.219 1.258 12.767 3.65 19.832 7.875 28.687 7.663 16.066 22.322 27.061 41.468 31.156 2.12.454 7.644 1.016 12.625 1.344 11.476.756 27.39.373 39.688-.969 6.251-.682 15.292-2.163 23-3.625 3.854-.73 7.362-1.461 10.031-2.093 1.335-.316 2.484-.584 3.344-.844.43-.13.788-.254 1.094-.375.305-.121.532-.21.812-.438.41-.333.422-.61.5-.875.078-.265.133-.534.188-.906.109-.743.198-1.779.28-3.187.166-2.818.28-7.136.376-13.438.443-51.015.281-98.719.281-148.22-10.164.248-20.338.267-30.5.595-.73 47.034.535 86.886-.75 134.312-.136 4.736-.322 7.382-.562 8.781-.12.7-.259 1.093-.344 1.25-.086.157-.075.096-.188.156-.486.26-2.419.775-4.968 1.156-2.55.382-5.806.724-9.375 1-7.14.553-15.528.83-22.032.594-9.947-.361-13.786-.913-18.125-2.594-7.449-2.885-14.608-9.52-18.25-16.937-3.033-6.177-4.541-9.63-5.406-19.094-.864-9.464-1.026-24.872-1.25-54.437-.046-18.26-.406-36.521-.406-54.782-10.112.234-20.234.269-30.344.594v.001Zm210.844-84.533c-.883 0-2.65.27-5.187.658-6.002.94-11.523 1.861-17.344 3-1.178.231-2.16.455-2.906.625-.374.085-.69.15-.938.219s-.35.073-.687.281c-.002.001-.293.233-.344.313-.051.08-.045.143-.063.187-.035.09-.052.111-.062.156-.02.091-.022.175-.031.25-.019.151-.049.336-.063.563a57.48 57.48 0 0 0-.094 1.906c-.053 1.667-.076 4.106-.125 7.219-.097 6.227-.207 15.177-.28 26.219-.149 22.084-.22 52.48-.22 85.844 0 47.923.061 78.3.25 96.812.095 9.256.211 15.553.375 19.594.083 2.02.176 3.46.282 4.469.053.504.117.898.187 1.218.035.16.066.317.125.47.06.151.094.332.375.562.28.227.469.247.719.343.25.097.55.206.906.313.71.214 1.626.476 2.75.75 2.25.548 5.254 1.191 8.594 1.875 6.68 1.368 14.723 2.829 20.781 3.719 2.905.426 11.374 1.017 19.094 1.343 7.724.327 17.386.478 21.594.313 22.63-.886 44.783-10.709 58.312-25.906 26.297-29.54 29.136-82.817 6.313-116.938-9.503-14.212-22.446-24.953-37.342-30.97-10.575-4.272-19.448-5.627-33.375-5.125-13.12.472-22.111 2.706-33.406 8.312a23.85 23.85 0 0 1-3.375 1.375c-.49.153-.944.264-1.25.313-.054.009-.016-.003-.063 0-.071-.294-.147-.729-.219-1.407-.157-1.477-.28-3.833-.375-7.28-.19-6.896-.25-18.176-.25-35.688 0-20.477-.056-31.693-.28-37.844-.113-3.076-.245-4.845-.5-6-.129-.578-.289-1.046-.595-1.438-.305-.392-.873-.625-1.28-.625h-.003Zm43.156 107.096c5.382-.011 10.566.457 13.282 1.281 17.838 5.415 31.278 20.42 36.843 41.375 2.442 9.195 2.5 31.147.125 40-5.547 20.678-19.899 36.15-37.562 40.75-2.04.532-6.03.932-10.875 1.156-4.845.225-10.568.283-16.219.188-5.65-.095-11.241-.337-15.812-.719-4.467-.373-7.911-.912-9.375-1.437-.005-.017.005-.013 0-.031-.084-.309-.165-.89-.25-1.72-.17-1.659-.308-4.348-.407-8.437.017-32.281-.988-56.993 0-91.094.117-3.76.278-5.942.5-7.218.223-1.276.412-1.498.657-1.719.573-.519 2.108-1.483 4.062-2.531a116.965 116.965 0 0 1 6.875-3.375c5.035-2.278 10.549-4.39 13.5-5.094 3.656-.873 9.275-1.364 14.656-1.375Zm123.83-22.563c-.083 16.656-.185 33.313-.281 49.969-.182 31.961-.04 50.45 1.219 63.219 1.258 12.767 3.65 19.832 7.875 28.687 7.663 16.066 22.322 27.061 41.468 31.156 2.12.454 7.644 1.016 12.625 1.344 11.476.756 27.39.373 39.688-.969 6.251-.682 15.292-2.163 23-3.625 3.854-.73 7.362-1.461 10.031-2.093 1.335-.316 2.484-.584 3.344-.844.43-.13.788-.254 1.094-.375.305-.121.532-.21.812-.438.41-.333.422-.61.5-.875.078-.265.133-.534.188-.906.109-.743.198-1.779.28-3.187.166-2.818.28-7.136.376-13.438.443-51.015.281-98.719.281-148.22-10.164.248-20.338.267-30.5.595-.73 47.034.535 86.886-.75 134.312-.136 4.736-.322 7.382-.562 8.781-.12.7-.259 1.093-.344 1.25-.086.157-.075.096-.188.156-.486.26-2.419.775-4.968 1.156-2.55.382-5.806.724-9.375 1-7.14.553-15.528.83-22.032.594-9.947-.361-13.786-.913-18.125-2.594-7.449-2.885-14.608-9.52-18.25-16.937-3.033-6.177-4.541-9.63-5.406-19.094-.864-9.464-1.026-24.872-1.25-54.437-.046-18.26-.406-36.521-.406-54.782-10.112.234-20.234.269-30.344.594v.001Zm248.982-3.313c-4.566.099-8.923.306-12.656.688-5.736.586-14.808 1.985-23 3.437-4.096.726-7.973 1.464-11.094 2.125-3.12.66-5.44 1.225-6.656 1.688l-2.281.875-.625.218v.719c.097 46.027-.18 94.22.187 139 .063 7.438.136 13.497.219 17.719.041 2.11.08 3.76.125 4.906.023.573.069 1.018.094 1.344.012.163.013.315.03.437.01.061.012.107.032.188.02.08-.078.14.281.5.265.264.427.27.563.312.135.043.235.069.375.094.279.05.628.089 1.031.125.806.072 1.884.15 3.188.188 2.606.076 6.07.076 9.812 0l13.562-.283.969-.03c.223-24.322.362-48.647.531-72.97l.5-71.156 5.187-1.062c4.767-.944 12.773-1.615 20.47-1.875 7.696-.26 15.172-.076 18.655.562 15.718 2.882 25.293 12.278 29.907 29.5 1.383 5.162 1.736 13.868 2.218 61.031l.563 55v1h30v-57c0-29.838-.03-45.165-.688-55.03-.658-9.866-1.996-14.3-4.5-21.97-6.251-19.15-20.68-32.473-41.062-37.937-4.484-1.202-12.822-1.973-22-2.281-4.59-.154-9.371-.161-13.938-.063l.001.001Zm179.157-49.939-29.969 6.439v45.719l-34.344.062V214l34.344-.313c.222 30.871-.396 61.767.282 92.625.28 11.91.854 14.226 1.968 18.407 3.197 11.985 6.542 18.661 12.625 25.094 6.215 6.57 14.514 10.953 24.907 13.218 10.012 2.183 32.925 1.433 45.375-1.406 2.482-.566 4.86-1.196 6.687-1.75a33.168 33.168 0 0 0 2.281-.781 9.17 9.17 0 0 0 .782-.344c.225-.11.417-.167.656-.406.343-.343.379-.65.437-.938.06-.288.082-.593.094-.937.023-.689-.01-1.52-.094-2.5-.17-1.96-.525-4.426-.968-6.906-.444-2.48-.968-4.962-1.5-6.938a25.817 25.817 0 0 0-.813-2.531c-.266-.69-.402-1.186-.969-1.656-.833-.692-1.772-.633-3-.532-1.228.101-2.76.399-4.53.875-3.1.834-10.596 1.514-18.813 1.625-6.64.09-10.061.12-12.407-.218-2.345-.34-3.707-1.04-6.562-2.5-7.491-3.834-11.406-9.24-14-19.5-.924-3.654-1.397-6.194-1.625-13.438-.35-31.247-.017-54.05.187-88.252l61.187-.562-.312-25.438-60.906.094-1-52.22Zm90.861 53.252c-.083 16.656-.185 33.313-.281 49.969-.182 31.961-.04 50.45 1.219 63.219 1.258 12.767 3.65 19.832 7.875 28.687 7.663 16.066 22.322 27.061 41.468 31.156 2.12.454 7.644 1.016 12.625 1.344 11.476.756 27.39.373 39.688-.969 6.251-.682 15.292-2.163 23-3.625 3.854-.73 7.362-1.461 10.031-2.093 1.335-.316 2.484-.584 3.344-.844.43-.13.788-.254 1.094-.375.305-.121.532-.21.812-.438.41-.333.422-.61.5-.875.078-.265.133-.534.188-.906.109-.743.198-1.779.28-3.187.166-2.818.28-7.136.376-13.438.443-51.015.281-98.719.281-148.22-10.164.248-20.338.267-30.5.595-.73 47.034.535 86.886-.75 134.312-.136 4.736-.322 7.382-.562 8.781-.12.7-.259 1.093-.344 1.25-.086.157-.075.096-.188.156-.486.26-2.419.775-4.968 1.156-2.55.382-5.806.724-9.375 1-7.14.553-15.528.83-22.032.594-9.947-.361-13.786-.913-18.125-2.594-7.449-2.885-14.608-9.52-18.25-16.937-3.033-6.177-4.541-9.63-5.406-19.094-.864-9.464-1.026-24.872-1.25-54.437-.046-18.26-.406-36.521-.406-54.782-10.112.234-20.234.269-30.344.594v.001Z" fill="#FFF" fill-rule="nonzero"/></g></svg>