<svg xmlns="http://www.w3.org/2000/svg" width="936" height="936" version="1.0" viewBox="0 0 702 702"><path d="M345.9.4c-.2.2-4 .6-8.4 1-22.2 1.8-54.2 8.7-77 16.6-14.3 5-42.8 18.8-54 26.2-24.1 15.9-44.7 35.6-61.7 58.8C116 142.5 96.1 199 89 261.5c-.5 4.9-1.2 11-1.5 13.5-2 18.4-2.6 65.1-1.2 95.2.4 9.2 1 17.5 1.1 18.5.2 1 .7 4.3 1.1 7.3.3 3 .8 6.6 1 8 .4 2.4 1.7 12.4 3.1 23.5.3 2.7.7 5.7.9 6.5.1.8.6 4 .9 7 .4 3 1.1 7.7 1.6 10.5.5 2.7 1.2 7.2 1.5 10 .3 2.7.8 5.7 1 6.5.2.8.6 3.3 1 5.5.4 3.2 7.9 49.2 10 61.8.8 4.8 2.4 13.9 3 16.7.3 1.4 1 5.2 1.5 8.5 4.4 24.8 14 68.9 19.5 89.7 7.4 27.6 14.7 45.4 20.4 50 2.2 1.6 3.5 1.9 7.5 1.3 6-.8 11.3-2.9 14.3-5.6 3-2.9 6.1-10.6 6.9-17 .7-5.8-.8-18.3-3.2-26.3-.8-2.7-1.2-5.1-1-5.4.3-.2 2 .1 3.8.7 6.2 1.9 33.2 6.9 51.8 9.5 23.3 3.2 23.8 3.2 39.5 4.5 7.2.6 15.5 1.3 18.5 1.6 25.3 2.3 92.3 2.3 118 0 1.9-.2 7.3-.6 12-1 4.7-.3 9.6-.8 11-1 1.4-.2 5.9-.6 10-1 17.3-1.5 51.4-7 68.9-11.1 5.7-1.3 10.6-2.3 10.7-2.1.2.2-.1 1.9-.7 3.8-5.5 18.4-4.1 37.7 3.4 44.8 3 2.8 8.9 5.1 14.6 5.7 6.5.7 9.1-1.6 14.6-12.9 7.7-16.1 16.9-50.1 26.4-97.5 2.8-13.9 5.3-26.7 5.6-28.5.3-1.8 1.7-9.3 3-16.7 2-11.4 7.6-44.5 9-53 .2-1.4 1.3-8.1 2.4-15 3-18.9 4.1-26.1 4.6-30 .2-1.9.7-5.3 1-7.5.4-2.2.8-5.1 1-6.5.2-1.4.7-4.5 1.1-7 .3-2.5.7-5.4.9-6.5.3-2.8 1.6-13.5 2-16.5.4-2.6 1.2-8.7 2-15.5 2.5-21.6 2.5-97.5.1-113.6-.2-1.3-.7-5.3-1.1-8.9-.8-8.6-4.2-30.9-6-40-14-71.4-44.5-127.6-90-165.6-36.9-30.8-85.7-50.5-143-57.8C361 1 346.5-.2 345.9.4zm246.3 608.3c1.2.3 1.8 1.8 2.1 5.1l.3 4.7.2-4.7c.2-3.5.6-4.8 2-5.1.9-.3-.1-.5-2.3-.5-2.2 0-3.2.2-2.3.5zm7.6 1.8c-.3 1.4-.1 2.8.4 3.1.4.3.8.2.7-.3-.3-2 .2-2.7 1.1-1.3.8 1.3 1 1.3 1-.1 0-.9-.6-2.2-1.4-2.8-1.1-.9-1.5-.6-1.8 1.4zm7.3-.2c-1.5 3.8-1.4 4.5.4 2.1 1.3-1.8 1.4-1.6 1.6 2.1.2 3.4.3 3.5.6 1 .2-1.7 0-4.2-.5-5.5l-1-2.5-1.1 2.8zm-3.7 5.3c.3.8.6 1.8.6 2 0 .3.5.2 1-.1 1.5-.9 1.2-2.2-.6-2.9-1.2-.5-1.5-.2-1 1zm-3.9.4c-.3.5-.1 1 .4 1 .6 0 1.1-.5 1.1-1 0-.6-.2-1-.4-1-.3 0-.8.4-1.1 1z"/></svg>