<?xml version="1.0" standalone="no"?>
<!DOCTYPE svg PUBLIC "-//W3C//DTD SVG 20010904//EN"
 "http://www.w3.org/TR/2001/REC-SVG-20010904/DTD/svg10.dtd">
<svg version="1.0" xmlns="http://www.w3.org/2000/svg"
 width="702.000000pt" height="702.000000pt" viewBox="0 0 702.000000 702.000000"
 preserveAspectRatio="xMidYMid meet">
<metadata>
Created by potrace 1.11, written by Peter Selinger 2001-2013
</metadata>
<g transform="translate(0.000000,702.000000) scale(0.100000,-0.100000)"
fill="#000000" stroke="none">
<path d="M3459 7016 c-2 -2 -40 -6 -84 -10 -222 -18 -542 -87 -770 -166 -143
-50 -428 -188 -540 -262 -241 -159 -447 -356 -617 -588 -288 -395 -487 -960
-558 -1585 -5 -49 -12 -110 -15 -135 -20 -184 -26 -651 -12 -952 4 -92 10
-175 11 -185 2 -10 7 -43 11 -73 3 -30 8 -66 10 -80 4 -24 17 -124 31 -235 3
-27 7 -57 9 -65 1 -8 6 -40 9 -70 4 -30 11 -77 16 -105 5 -27 12 -72 15 -100
3 -27 8 -57 10 -65 2 -8 6 -33 10 -55 4 -32 79 -492 100 -618 8 -48 24 -139
30 -167 3 -14 10 -52 15 -85 44 -248 140 -689 195 -897 74 -276 147 -454 204
-500 22 -16 35 -19 75 -13 60 8 113 29 143 56 30 29 61 106 69 170 7 58 -8
183 -32 263 -8 27 -12 51 -10 54 3 2 20 -1 38 -7 62 -19 332 -69 518 -95 233
-32 238 -32 395 -45 72 -6 155 -13 185 -16 253 -23 923 -23 1180 0 19 2 73 6
120 10 47 3 96 8 110 10 14 2 59 6 100 10 173 15 514 70 689 111 57 13 106 23
107 21 2 -2 -1 -19 -7 -38 -55 -184 -41 -377 34 -448 30 -28 89 -51 146 -57
65 -7 91 16 146 129 77 161 169 501 264 975 28 139 53 267 56 285 3 18 17 93
30 167 20 114 76 445 90 530 2 14 13 81 24 150 30 189 41 261 46 300 2 19 7
53 10 75 4 22 8 51 10 65 2 14 7 45 11 70 3 25 7 54 9 65 3 28 16 135 20 165
4 26 12 87 20 155 25 216 25 975 1 1136 -2 13 -7 53 -11 89 -8 86 -42 309 -60
400 -140 714 -445 1276 -900 1656 -369 308 -857 505 -1430 578 -125 16 -270
28 -276 22z"/>
<path d="M5922 933 c12 -3 18 -18 21 -51 l3 -47 2 47 c2 35 6 48 20 51 9 3 -1
5 -23 5 -22 0 -32 -2 -23 -5z"/>
<path d="M5998 915 c-3 -14 -1 -28 4 -31 4 -3 8 -2 7 3 -3 20 2 27 11 13 8
-13 10 -13 10 1 0 9 -6 22 -14 28 -11 9 -15 6 -18 -14z"/>
<path d="M6071 917 c-15 -38 -14 -45 4 -21 13 18 14 16 16 -21 2 -34 3 -35 6
-10 2 17 0 42 -5 55 l-10 25 -11 -28z"/>
<path d="M6034 864 c3 -8 6 -18 6 -20 0 -3 5 -2 10 1 15 9 12 22 -6 29 -12 5
-15 2 -10 -10z"/>
<path d="M5995 860 c-3 -5 -1 -10 4 -10 6 0 11 5 11 10 0 6 -2 10 -4 10 -3 0
-8 -4 -11 -10z"/>
</g>
</svg>
