<svg xmlns="http://www.w3.org/2000/svg" xmlns:xlink="http://www.w3.org/1999/xlink" width="1200" height="630"><defs><path id="a" d="M28.499 0a1.052 1.052 0 0 0-.156.015C-.967 2.19-.557 29.995.23 41.305c.063.912 4.393 33.68 7.556 33.695 4.366.02 2.183-5.885 2.183-5.885s6.74 1.94 18.374 2.015h.314c11.63-.075 18.372-2.015 18.372-2.015S44.846 75.02 49.209 75c3.162-.015 7.495-32.783 7.56-33.695.788-11.31 1.197-39.115-28.113-41.29 0 0-.086-.015-.14-.015h-.018"/><path id="d" d="M28.499 0a1.052 1.052 0 0 0-.156.015C-.967 2.19-.557 29.995.23 41.305c.063.912 4.393 33.68 7.556 33.695 4.366.02 2.183-5.885 2.183-5.885s6.74 1.94 18.374 2.015h.314c11.63-.075 18.372-2.015 18.372-2.015S44.846 75.02 49.209 75c3.162-.015 7.495-32.783 7.56-33.695.788-11.31 1.197-39.115-28.113-41.29 0 0-.086-.015-.14-.015h-.018"/><path id="f" d="M28.499 0a1.052 1.052 0 0 0-.156.015C-.967 2.19-.557 29.995.23 41.305c.063.912 4.393 33.68 7.556 33.695 4.366.02 2.183-5.885 2.183-5.885s6.74 1.94 18.374 2.015h.314c11.63-.075 18.372-2.015 18.372-2.015S44.846 75.02 49.209 75c3.162-.015 7.495-32.783 7.56-33.695.788-11.31 1.197-39.115-28.113-41.29 0 0-.086-.015-.14-.015h-.018"/><path id="h" d="M28.499 0a1.052 1.052 0 0 0-.156.015C-.967 2.19-.557 29.995.23 41.305c.063.912 4.393 33.68 7.556 33.695 4.366.02 2.183-5.885 2.183-5.885s6.74 1.94 18.374 2.015h.314c11.63-.075 18.372-2.015 18.372-2.015S44.846 75.02 49.209 75c3.162-.015 7.495-32.783 7.56-33.695.788-11.31 1.197-39.115-28.113-41.29 0 0-.086-.015-.14-.015h-.018"/><path id="j" d="M28.499 0a1.052 1.052 0 0 0-.156.015C-.967 2.19-.557 29.995.23 41.305c.063.912 4.393 33.68 7.556 33.695 4.366.02 2.183-5.885 2.183-5.885s6.74 1.94 18.374 2.015h.314c11.63-.075 18.372-2.015 18.372-2.015S44.846 75.02 49.209 75c3.162-.015 7.495-32.783 7.56-33.695.788-11.31 1.197-39.115-28.113-41.29 0 0-.086-.015-.14-.015h-.018"/><path id="l" d="M28.499 0a1.052 1.052 0 0 0-.156.015C-.967 2.19-.557 29.995.23 41.305c.063.912 4.393 33.68 7.556 33.695 4.366.02 2.183-5.885 2.183-5.885s6.74 1.94 18.374 2.015h.314c11.63-.075 18.372-2.015 18.372-2.015S44.846 75.02 49.209 75c3.162-.015 7.495-32.783 7.56-33.695.788-11.31 1.197-39.115-28.113-41.29 0 0-.086-.015-.14-.015h-.018"/><path id="n" d="M28.499 0a1.052 1.052 0 0 0-.156.015C-.967 2.19-.557 29.995.23 41.305c.063.912 4.393 33.68 7.556 33.695 4.366.02 2.183-5.885 2.183-5.885s6.74 1.94 18.374 2.015h.314c11.63-.075 18.372-2.015 18.372-2.015S44.846 75.02 49.209 75c3.162-.015 7.495-32.783 7.56-33.695.788-11.31 1.197-39.115-28.113-41.29 0 0-.086-.015-.14-.015h-.018"/><path id="p" d="M28.499 0a1.052 1.052 0 0 0-.156.015C-.967 2.19-.557 29.995.23 41.305c.063.912 4.393 33.68 7.556 33.695 4.366.02 2.183-5.885 2.183-5.885s6.74 1.94 18.374 2.015h.314c11.63-.075 18.372-2.015 18.372-2.015S44.846 75.02 49.209 75c3.162-.015 7.495-32.783 7.56-33.695.788-11.31 1.197-39.115-28.113-41.29 0 0-.086-.015-.14-.015h-.018"/><path id="r" d="M28.499 0a1.052 1.052 0 0 0-.156.015C-.967 2.19-.557 29.995.23 41.305c.063.912 4.393 33.68 7.556 33.695 4.366.02 2.183-5.885 2.183-5.885s6.74 1.94 18.374 2.015h.314c11.63-.075 18.372-2.015 18.372-2.015S44.846 75.02 49.209 75c3.162-.015 7.495-32.783 7.56-33.695.788-11.31 1.197-39.115-28.113-41.29 0 0-.086-.015-.14-.015h-.018"/><path id="t" d="M28.499 0a1.052 1.052 0 0 0-.156.015C-.967 2.19-.557 29.995.23 41.305c.063.912 4.393 33.68 7.556 33.695 4.366.02 2.183-5.885 2.183-5.885s6.74 1.94 18.374 2.015h.314c11.63-.075 18.372-2.015 18.372-2.015S44.846 75.02 49.209 75c3.162-.015 7.495-32.783 7.56-33.695.788-11.31 1.197-39.115-28.113-41.29 0 0-.086-.015-.14-.015h-.018"/><path id="v" d="M28.499 0a1.052 1.052 0 0 0-.156.015C-.967 2.19-.557 29.995.23 41.305c.063.912 4.393 33.68 7.556 33.695 4.366.02 2.183-5.885 2.183-5.885s6.74 1.94 18.374 2.015h.314c11.63-.075 18.372-2.015 18.372-2.015S44.846 75.02 49.209 75c3.162-.015 7.495-32.783 7.56-33.695.788-11.31 1.197-39.115-28.113-41.29 0 0-.086-.015-.14-.015h-.018"/><path id="x" d="M28.499 0a1.052 1.052 0 0 0-.156.015C-.967 2.19-.557 29.995.23 41.305c.063.912 4.393 33.68 7.556 33.695 4.366.02 2.183-5.885 2.183-5.885s6.74 1.94 18.374 2.015h.314c11.63-.075 18.372-2.015 18.372-2.015S44.846 75.02 49.209 75c3.162-.015 7.495-32.783 7.56-33.695.788-11.31 1.197-39.115-28.113-41.29 0 0-.086-.015-.14-.015h-.018"/><path id="z" d="M1.094 1.036.447.66 0 .976l1.074.962h.002L3 .364 2.66 0z"/><path id="C" d="M0 4.996a5 5 0 1 0 10 .008 5 5 0 0 0-10-.008m2.242-1.59L4.995 2.23 7.75 3.405S7.568 7.76 4.997 7.76c-2.57 0-2.755-4.351-2.755-4.351"/><linearGradient id="b" x1="50%" x2="50%" y1="-2.782%" y2="99.64%"><stop offset="0%" stop-color="#5EB8E6"/><stop offset="100%" stop-color="#26A8DF"/></linearGradient><linearGradient id="A" x1=".001%" x2="100.006%" y1="49.999%" y2="49.999%"><stop offset="0%" stop-color="#8CC63F"/><stop offset="100%" stop-color="#38B549"/></linearGradient><linearGradient id="D" x1="-.001%" x2="100.001%" y1="49.999%" y2="49.999%"><stop offset="0%" stop-color="#8CC63F"/><stop offset="100%" stop-color="#38B549"/></linearGradient></defs><g fill="none" fill-rule="evenodd" transform="translate(1 1)"><path fill="#06191E" fill-rule="nonzero" stroke="#333A40" stroke-width="2" d="M0 0h1198v628H0z"/><text fill="#E9ECEF" fill-rule="nonzero" font-family="HelveticaNeue, Helvetica Neue" font-size="40" transform="translate(51 305)">
                    <tspan x="0" y="38">LINE1</tspan>
                </text><text fill="#E9ECEF" fill-rule="nonzero" font-family="HelveticaNeue, Helvetica Neue" font-size="40" transform="translate(51 352)">
                    <tspan x="0" y="38">LINE2</tspan>
                </text><text fill="#E9ECEF" fill-rule="nonzero" font-family="HelveticaNeue, Helvetica Neue" font-size="40" transform="translate(51 399)">
                    <tspan x="0" y="38">LINE3</tspan>
                </text><text fill="#E9ECEF" fill-rule="nonzero" font-family="VCHoney-Bold, VC Honey Bold, VC Honey" font-size="60" font-weight="bold" transform="translate(50.998 231.19)">
                    <tspan x="0" y="56">TITLE</tspan>
                </text><g fill-rule="nonzero"><path fill="#E9ECEF" d="M89.41 541v-17.94h-7.26v-3.21h18.36v3.21h-7.26V541h-3.84Zm13.17 0v-14.67h3.66v3.54h-.3c.28-1.2.83-2.115 1.65-2.745.82-.63 1.91-.995 3.27-1.095l1.14-.09.24 3.18-2.16.21c-1.22.12-2.14.495-2.76 1.125-.62.63-.93 1.515-.93 2.655V541h-3.81Zm17.07.3c-1.22 0-2.23-.225-3.03-.675-.8-.45-1.395-1.125-1.785-2.025-.39-.9-.585-2.02-.585-3.36v-8.91H118v8.97c0 .68.093 1.25.278 1.71.184.46.476.8.873 1.02.398.22.899.33 1.502.33.671 0 1.262-.155 1.772-.465.51-.31.91-.75 1.2-1.318.29-.568.435-1.234.435-1.997v-8.25h3.75V541h-3.66v-3.06h.42c-.42 1.08-1.055 1.91-1.905 2.49-.85.58-1.855.87-3.015.87Zm17.43 0c-.82 0-1.615-.07-2.385-.21-.77-.14-1.475-.335-2.115-.585a6.49 6.49 0 0 1-1.68-.945l.96-2.46c.5.32 1.04.6 1.62.84a9.616 9.616 0 0 0 3.63.72c.96 0 1.675-.165 2.145-.495.47-.33.705-.765.705-1.305 0-.46-.155-.815-.465-1.065-.31-.25-.775-.435-1.395-.555l-3-.57c-1.24-.24-2.185-.695-2.835-1.365-.65-.67-.975-1.535-.975-2.595 0-.96.265-1.79.795-2.49.53-.7 1.265-1.24 2.205-1.62.94-.38 2.02-.57 3.24-.57.7 0 1.38.065 2.04.195.66.13 1.285.32 1.875.57.59.25 1.105.575 1.545.975l-1.02 2.46c-.38-.32-.82-.595-1.32-.825a8.58 8.58 0 0 0-1.545-.54 6.476 6.476 0 0 0-1.545-.195c-.98 0-1.705.17-2.175.51-.47.34-.705.79-.705 1.35 0 .42.14.77.42 1.05.28.28.71.47 1.29.57l3 .57c1.3.24 2.285.68 2.955 1.32.67.64 1.005 1.5 1.005 2.58 0 .98-.26 1.82-.78 2.52s-1.25 1.235-2.19 1.605c-.94.37-2.04.555-3.3.555Zm15.99 0c-1.96 0-3.42-.49-4.38-1.47s-1.44-2.41-1.44-4.29v-6.39h-2.82v-2.82h2.82v-4.38H151v4.38h4.44v2.82H151v6.18c0 .96.21 1.68.63 2.16.42.48 1.1.72 2.04.72.28 0 .57-.035.87-.105.3-.07.61-.145.93-.225l.57 2.76c-.36.2-.815.36-1.365.48a7.52 7.52 0 0 1-1.605.18Zm12.03 0c-1.66 0-3.09-.31-4.29-.93-1.2-.62-2.125-1.5-2.775-2.64-.65-1.14-.975-2.49-.975-4.05 0-1.52.315-2.85.945-3.99a6.944 6.944 0 0 1 2.61-2.685c1.11-.65 2.375-.975 3.795-.975 1.4 0 2.6.3 3.6.9 1 .6 1.775 1.45 2.325 2.55.55 1.1.825 2.41.825 3.93v1.11h-11.07v-2.16h8.43l-.48.45c0-1.36-.3-2.405-.9-3.135-.6-.73-1.46-1.095-2.58-1.095-.84 0-1.555.195-2.145.585-.59.39-1.04.94-1.35 1.65-.31.71-.465 1.555-.465 2.535v.21c0 1.1.17 2.01.51 2.73.34.72.85 1.26 1.53 1.62.68.36 1.52.54 2.52.54.82 0 1.64-.125 2.46-.375.82-.25 1.57-.645 2.25-1.185l1.05 2.52c-.7.58-1.58 1.04-2.64 1.38-1.06.34-2.12.51-3.18.51Zm14.67 0c-1.28 0-2.405-.31-3.375-.93-.97-.62-1.725-1.505-2.265-2.655s-.81-2.505-.81-4.065c0-1.58.27-2.935.81-4.065.54-1.13 1.295-2.005 2.265-2.625.97-.62 2.095-.93 3.375-.93 1.22 0 2.285.3 3.195.9.91.6 1.525 1.39 1.845 2.37h-.33v-9.45h3.75V541h-3.66v-3.12h.27c-.3 1.04-.91 1.87-1.83 2.49-.92.62-2 .93-3.24.93Zm1.05-2.85c1.12 0 2.02-.405 2.7-1.215.68-.81 1.02-2.005 1.02-3.585 0-1.6-.34-2.795-1.02-3.585-.68-.79-1.58-1.185-2.7-1.185s-2.02.395-2.7 1.185c-.68.79-1.02 1.985-1.02 3.585 0 1.58.34 2.775 1.02 3.585.68.81 1.58 1.215 2.7 1.215Zm27.87 2.85c-1.24 0-2.325-.31-3.255-.93-.93-.62-1.545-1.45-1.845-2.49h.3V541h-3.66v-21.15h3.75v9.45h-.36c.32-.98.94-1.77 1.86-2.37.92-.6 1.99-.9 3.21-.9 1.3 0 2.43.31 3.39.93.96.62 1.71 1.495 2.25 2.625s.81 2.485.81 4.065c0 1.56-.27 2.915-.81 4.065-.54 1.15-1.295 2.035-2.265 2.655-.97.62-2.095.93-3.375.93Zm-1.05-2.85c1.12 0 2.02-.405 2.7-1.215.68-.81 1.02-2.005 1.02-3.585 0-1.6-.34-2.795-1.02-3.585-.68-.79-1.58-1.185-2.7-1.185s-2.02.395-2.7 1.185c-.68.79-1.02 1.985-1.02 3.585 0 1.58.34 2.775 1.02 3.585.68.81 1.58 1.215 2.7 1.215Zm11.91 7.95 3.06-6.75v1.56l-6.45-14.88h3.99l4.56 11.37h-.9l4.65-11.37h3.78l-8.82 20.07h-3.87Z"/><path fill="#4DB4E4" d="M249.34 541.3c-.92 0-1.825-.1-2.715-.3-.89-.2-1.72-.48-2.49-.84a8.718 8.718 0 0 1-1.995-1.26l1.26-2.94c.92.7 1.87 1.225 2.85 1.575.98.35 1.99.525 3.03.525 1.26 0 2.245-.325 2.955-.975.71-.65 1.065-1.525 1.065-2.625 0-1.12-.34-2.025-1.02-2.715-.68-.69-1.61-1.035-2.79-1.035-.86 0-1.63.165-2.31.495-.68.33-1.3.835-1.86 1.515h-2.58v-12.87h12.99v3.18h-9.24v6.72h-.99c.52-.7 1.205-1.24 2.055-1.62.85-.38 1.795-.57 2.835-.57 1.34 0 2.505.285 3.495.855.99.57 1.76 1.36 2.31 2.37s.825 2.185.825 3.525c0 1.38-.31 2.595-.93 3.645-.62 1.05-1.505 1.87-2.655 2.46-1.15.59-2.515.885-4.095.885Zm17.82 0c-1.66 0-3.065-.425-4.215-1.275-1.15-.85-2.02-2.083-2.61-3.699-.59-1.615-.885-3.598-.885-5.946 0-2.36.294-4.343.88-5.95.588-1.606 1.458-2.821 2.61-3.645 1.154-.823 2.56-1.235 4.22-1.235 1.68 0 3.095.41 4.245 1.23 1.15.82 2.015 2.03 2.595 3.63.58 1.6.87 3.58.87 5.94 0 2.34-.295 4.325-.885 5.955-.59 1.63-1.455 2.87-2.596 3.72-1.14.85-2.55 1.275-4.229 1.275Zm.01-3.15c1.353 0 2.355-.625 3.005-1.875.65-1.25.975-3.225.975-5.925 0-2.68-.323-4.625-.97-5.835-.645-1.21-1.649-1.815-3.01-1.815-1.346 0-2.35.605-3.01 1.815-.66 1.21-.99 3.16-.99 5.85 0 2.69.328 4.66.984 5.91.657 1.25 1.662 1.875 3.015 1.875h.001Zm17.99 3.15c-1.66 0-3.065-.425-4.215-1.275-1.15-.85-2.02-2.083-2.61-3.699-.59-1.615-.885-3.598-.885-5.946 0-2.36.294-4.343.88-5.95.588-1.606 1.458-2.821 2.61-3.645 1.154-.823 2.56-1.235 4.22-1.235 1.68 0 3.095.41 4.245 1.23 1.15.82 2.015 2.03 2.595 3.63.58 1.6.87 3.58.87 5.94 0 2.34-.295 4.325-.885 5.955-.59 1.63-1.455 2.87-2.596 3.72-1.14.85-2.55 1.275-4.229 1.275Zm.01-3.15c1.353 0 2.355-.625 3.005-1.875.65-1.25.975-3.225.975-5.925 0-2.68-.323-4.625-.97-5.835-.645-1.21-1.649-1.815-3.01-1.815-1.346 0-2.35.605-3.01 1.815-.66 1.21-.99 3.16-.99 5.85 0 2.69.328 4.66.984 5.91.657 1.25 1.662 1.875 3.015 1.875h.001Zm12.44 6.84-1.53-1.2c.44-.44.78-.855 1.02-1.245.24-.39.415-.785.525-1.185.11-.4.165-.81.165-1.23l.81.87h-2.82v-4.17h4.2v2.76c0 .68-.075 1.32-.225 1.92-.15.6-.395 1.185-.735 1.755-.34.57-.81 1.145-1.41 1.725Zm12.99-3.69c-1.66 0-3.065-.425-4.215-1.275-1.15-.85-2.02-2.083-2.61-3.699-.59-1.615-.885-3.598-.885-5.946 0-2.36.294-4.343.88-5.95.588-1.606 1.458-2.821 2.61-3.645 1.154-.823 2.56-1.235 4.22-1.235 1.68 0 3.095.41 4.245 1.23 1.15.82 2.015 2.03 2.595 3.63.58 1.6.87 3.58.87 5.94 0 2.34-.295 4.325-.885 5.955-.59 1.63-1.455 2.87-2.596 3.72-1.14.85-2.55 1.275-4.229 1.275Zm.01-3.15c1.353 0 2.355-.625 3.005-1.875.65-1.25.975-3.225.975-5.925 0-2.68-.323-4.625-.97-5.835-.645-1.21-1.649-1.815-3.01-1.815-1.346 0-2.35.605-3.01 1.815-.66 1.21-.99 3.16-.99 5.85 0 2.69.328 4.66.984 5.91.657 1.25 1.662 1.875 3.015 1.875h.001Zm17.99 3.15c-1.66 0-3.065-.425-4.215-1.275-1.15-.85-2.02-2.083-2.61-3.699-.59-1.615-.885-3.598-.885-5.946 0-2.36.294-4.343.88-5.95.588-1.606 1.458-2.821 2.61-3.645 1.154-.823 2.56-1.235 4.22-1.235 1.68 0 3.095.41 4.245 1.23 1.15.82 2.015 2.03 2.595 3.63.58 1.6.87 3.58.87 5.94 0 2.34-.295 4.325-.885 5.955-.59 1.63-1.455 2.87-2.596 3.72-1.14.85-2.55 1.275-4.229 1.275Zm.01-3.15c1.353 0 2.355-.625 3.005-1.875.65-1.25.975-3.225.975-5.925 0-2.68-.323-4.625-.97-5.835-.645-1.21-1.649-1.815-3.01-1.815-1.346 0-2.35.605-3.01 1.815-.66 1.21-.99 3.16-.99 5.85 0 2.69.328 4.66.984 5.91.657 1.25 1.662 1.875 3.015 1.875h.001Zm17.99 3.15c-1.66 0-3.065-.425-4.215-1.275-1.15-.85-2.02-2.083-2.61-3.699-.59-1.615-.885-3.598-.885-5.946 0-2.36.294-4.343.88-5.95.588-1.606 1.458-2.821 2.61-3.645 1.154-.823 2.56-1.235 4.22-1.235 1.68 0 3.095.41 4.245 1.23 1.15.82 2.015 2.03 2.595 3.63.58 1.6.87 3.58.87 5.94 0 2.34-.295 4.325-.885 5.955-.59 1.63-1.455 2.87-2.596 3.72-1.14.85-2.55 1.275-4.229 1.275Zm.01-3.15c1.353 0 2.355-.625 3.005-1.875.65-1.25.975-3.225.975-5.925 0-2.68-.323-4.625-.97-5.835-.645-1.21-1.649-1.815-3.01-1.815-1.346 0-2.35.605-3.01 1.815-.66 1.21-.99 3.16-.99 5.85 0 2.69.328 4.66.984 5.91.657 1.25 1.662 1.875 3.015 1.875h.001Zm16.61 1.65v-6.09h-5.94v-2.64h5.94v-5.91h2.76v5.91h5.94v2.64h-5.94v6.09h-2.76Z"/><path fill="#E9ECEF" d="M389.29 541.3c-1.28 0-2.405-.31-3.375-.93-.97-.62-1.725-1.505-2.265-2.655s-.81-2.505-.81-4.065c0-1.58.27-2.935.81-4.065.54-1.13 1.295-2.005 2.265-2.625.97-.62 2.095-.93 3.375-.93 1.22 0 2.285.3 3.195.9.91.6 1.525 1.39 1.845 2.37H394v-9.45h3.75V541h-3.66v-3.12h.27c-.3 1.04-.91 1.87-1.83 2.49-.92.62-2 .93-3.24.93Zm1.05-2.85c1.12 0 2.02-.405 2.7-1.215.68-.81 1.02-2.005 1.02-3.585 0-1.6-.34-2.795-1.02-3.585-.68-.79-1.58-1.185-2.7-1.185s-2.02.395-2.7 1.185c-.68.79-1.02 1.985-1.02 3.585 0 1.58.34 2.775 1.02 3.585.68.81 1.58 1.215 2.7 1.215Zm18 2.85c-1.522 0-2.843-.31-3.962-.93a6.486 6.486 0 0 1-2.608-2.655c-.62-1.15-.93-2.504-.93-4.065 0-1.56.31-2.91.93-4.05a6.509 6.509 0 0 1 2.608-2.64c1.119-.62 2.44-.93 3.962-.93 1.522 0 2.843.31 3.962.93a6.5 6.5 0 0 1 2.608 2.646c.62 1.144.93 2.492.93 4.044 0 1.56-.31 2.915-.93 4.065a6.486 6.486 0 0 1-2.608 2.655c-1.119.62-2.44.93-3.962.93Zm-.01-2.85c1.126 0 2.03-.405 2.71-1.215.68-.81 1.02-2.01 1.02-3.6 0-1.59-.34-2.78-1.02-3.57-.68-.79-1.584-1.185-2.71-1.185-1.114 0-2.01.395-2.69 1.185-.68.79-1.02 1.98-1.02 3.57 0 1.59.34 2.79 1.02 3.6.68.81 1.576 1.215 2.69 1.215Zm10.66 2.55v-14.67h3.66v2.94h-.33c.26-.68.62-1.26 1.08-1.74a4.71 4.71 0 0 1 1.65-1.11c.64-.26 1.35-.39 2.13-.39 1.18 0 2.15.28 2.91.84.76.56 1.29 1.42 1.59 2.58h-.42c.4-1.06 1.06-1.895 1.98-2.505.92-.61 1.98-.915 3.18-.915 1.12 0 2.045.22 2.775.66.73.44 1.275 1.105 1.635 1.995.36.89.54 2.015.54 3.375V541h-3.75v-8.79c0-1.12-.185-1.94-.555-2.46-.37-.52-.995-.78-1.875-.78-.64 0-1.2.155-1.68.465-.48.31-.845.755-1.095 1.335s-.375 1.28-.375 2.1V541h-3.75v-8.79c0-1.12-.185-1.94-.555-2.46-.37-.52-.985-.78-1.845-.78-.66 0-1.225.155-1.695.465-.47.31-.83.755-1.08 1.335-.25.58-.375 1.28-.375 2.1V541h-3.75Zm31.08.3c-1.06 0-2.005-.205-2.835-.615-.83-.41-1.48-.965-1.95-1.665-.47-.7-.705-1.49-.705-2.37 0-1.08.28-1.935.84-2.565.56-.63 1.47-1.085 2.73-1.365s2.95-.42 5.07-.42h1.5v2.16h-1.47c-.94 0-1.73.035-2.37.105-.64.07-1.155.18-1.545.33-.39.15-.67.355-.84.615-.17.26-.255.58-.255.96 0 .66.23 1.2.69 1.62.46.42 1.1.63 1.92.63.66 0 1.245-.155 1.755-.465.51-.31.915-.735 1.215-1.275.3-.54.45-1.16.45-1.86v-3.45c0-1-.22-1.72-.66-2.16-.44-.44-1.18-.66-2.22-.66-.82 0-1.66.125-2.52.375-.86.25-1.73.635-2.61 1.155l-1.08-2.55a8.604 8.604 0 0 1 1.845-.945c.71-.27 1.46-.48 2.25-.63.79-.15 1.535-.225 2.235-.225 1.44 0 2.625.22 3.555.66.93.44 1.625 1.105 2.085 1.995.46.89.69 2.035.69 3.435V541h-3.51v-3.12h.24c-.14.7-.415 1.305-.825 1.815a4.13 4.13 0 0 1-1.545 1.185c-.62.28-1.33.42-2.13.42Zm11.34-18.12v-3.66h4.2v3.66h-4.2Zm.24 17.82v-14.67h3.75V541h-3.75Zm7.65 0v-14.67h3.66v2.94h-.33c.44-1.06 1.125-1.865 2.055-2.415.93-.55 1.985-.825 3.165-.825s2.152.219 2.915.656c.763.437 1.333 1.103 1.71 1.999.377.895.565 2.02.565 3.375V541h-3.75v-8.76c0-.76-.095-1.38-.285-1.86-.19-.48-.48-.835-.87-1.065-.39-.23-.885-.345-1.485-.345-.72 0-1.352.155-1.895.464a3.16 3.16 0 0 0-1.26 1.318c-.297.569-.445 1.235-.445 1.998V541h-3.75Zm22.92.3c-.82 0-1.615-.07-2.385-.21-.77-.14-1.475-.335-2.115-.585a6.49 6.49 0 0 1-1.68-.945l.96-2.46c.5.32 1.04.6 1.62.84a9.616 9.616 0 0 0 3.63.72c.96 0 1.675-.165 2.145-.495.47-.33.705-.765.705-1.305 0-.46-.155-.815-.465-1.065-.31-.25-.775-.435-1.395-.555l-3-.57c-1.24-.24-2.185-.695-2.835-1.365-.65-.67-.975-1.535-.975-2.595 0-.96.265-1.79.795-2.49.53-.7 1.265-1.24 2.205-1.62.94-.38 2.02-.57 3.24-.57.7 0 1.38.065 2.04.195.66.13 1.285.32 1.875.57.59.25 1.105.575 1.545.975l-1.02 2.46c-.38-.32-.82-.595-1.32-.825a8.58 8.58 0 0 0-1.545-.54 6.476 6.476 0 0 0-1.545-.195c-.98 0-1.705.17-2.175.51-.47.34-.705.79-.705 1.35 0 .42.14.77.42 1.05.28.28.71.47 1.29.57l3 .57c1.3.24 2.285.68 2.955 1.32.67.64 1.005 1.5 1.005 2.58 0 .98-.26 1.82-.78 2.52s-1.25 1.235-2.19 1.605c-.94.37-2.04.555-3.3.555Zm17.13-18.12v-3.66h4.2v3.66h-4.2Zm.24 17.82v-14.67h3.75V541h-3.75Zm7.65 0v-14.67h3.66v2.94h-.33c.44-1.06 1.125-1.865 2.055-2.415.93-.55 1.985-.825 3.165-.825s2.152.219 2.915.656c.763.437 1.333 1.103 1.71 1.999.377.895.565 2.02.565 3.375V541h-3.75v-8.76c0-.76-.095-1.38-.285-1.86-.19-.48-.48-.835-.87-1.065-.39-.23-.885-.345-1.485-.345-.72 0-1.352.155-1.895.464a3.16 3.16 0 0 0-1.26 1.318c-.297.569-.445 1.235-.445 1.998V541h-3.75Zm24.33.3c-1.54 0-2.88-.315-4.02-.945a6.506 6.506 0 0 1-2.64-2.685c-.62-1.16-.93-2.52-.93-4.08s.31-2.905.93-4.035c.62-1.13 1.5-2 2.64-2.61 1.14-.61 2.48-.915 4.02-.915.94 0 1.87.15 2.79.45.92.3 1.68.72 2.28 1.26l-1.11 2.61a5.504 5.504 0 0 0-1.755-1.05 5.405 5.405 0 0 0-1.875-.36c-1.3 0-2.305.405-3.015 1.215s-1.065 1.965-1.065 3.465c0 1.48.355 2.645 1.065 3.495.71.85 1.715 1.275 3.015 1.275.58 0 1.2-.12 1.86-.36.66-.24 1.25-.6 1.77-1.08l1.11 2.64c-.6.52-1.365.935-2.295 1.245-.93.31-1.855.465-2.775.465Zm12.48 0c-1.74 0-3.025-.475-3.855-1.425-.83-.95-1.245-2.345-1.245-4.185v-15.84h3.75v15.66c0 .58.085 1.075.255 1.485.17.41.425.715.765.915.34.2.76.3 1.26.3.22 0 .44-.01.66-.03.22-.02.43-.06.63-.12l-.06 2.97c-.36.08-.715.145-1.065.195a7.87 7.87 0 0 1-1.095.075Zm9.78 0c-1.22 0-2.23-.225-3.03-.675-.8-.45-1.395-1.125-1.785-2.025-.39-.9-.585-2.02-.585-3.36v-8.91h3.75v8.97c0 .68.093 1.25.278 1.71.185.46.476.8.873 1.02.398.22.899.33 1.502.33.671 0 1.262-.155 1.772-.465.51-.31.91-.75 1.2-1.318.29-.568.435-1.234.435-1.997v-8.25h3.75V541h-3.66v-3.06h.42c-.42 1.08-1.055 1.91-1.905 2.49-.85.58-1.855.87-3.015.87Zm17.7 0c-1.28 0-2.405-.31-3.375-.93-.97-.62-1.725-1.505-2.265-2.655s-.81-2.505-.81-4.065c0-1.58.27-2.935.81-4.065.54-1.13 1.295-2.005 2.265-2.625.97-.62 2.095-.93 3.375-.93 1.22 0 2.285.3 3.195.9.91.6 1.525 1.39 1.845 2.37h-.33v-9.45h3.75V541h-3.66v-3.12h.27c-.3 1.04-.91 1.87-1.83 2.49-.92.62-2 .93-3.24.93Zm1.05-2.85c1.12 0 2.02-.405 2.7-1.215.68-.81 1.02-2.005 1.02-3.585 0-1.6-.34-2.795-1.02-3.585-.68-.79-1.58-1.185-2.7-1.185s-2.02.395-2.7 1.185c-.68.79-1.02 1.985-1.02 3.585 0 1.58.34 2.775 1.02 3.585.68.81 1.58 1.215 2.7 1.215Zm11.07-15.27v-3.66h4.2v3.66h-4.2Zm.24 17.82v-14.67h3.75V541h-3.75Zm7.65 0v-14.67h3.66v2.94h-.33c.44-1.06 1.125-1.865 2.055-2.415.93-.55 1.985-.825 3.165-.825s2.152.219 2.915.656c.763.437 1.333 1.103 1.71 1.999.377.895.565 2.02.565 3.375V541h-3.75v-8.76c0-.76-.095-1.38-.285-1.86-.19-.48-.48-.835-.87-1.065-.39-.23-.885-.345-1.485-.345-.72 0-1.352.155-1.895.464a3.16 3.16 0 0 0-1.26 1.318c-.297.569-.445 1.235-.445 1.998V541h-3.75Zm24.39 5.7c-1.36 0-2.635-.155-3.825-.465-1.19-.31-2.235-.785-3.135-1.425l1.08-2.61c.56.36 1.15.665 1.77.915.62.25 1.25.435 1.89.555.64.12 1.28.18 1.92.18 1.34 0 2.345-.325 3.015-.975.67-.65 1.005-1.615 1.005-2.895v-2.7h.27c-.3 1.02-.925 1.835-1.875 2.445-.95.61-2.025.915-3.225.915-1.32 0-2.47-.305-3.45-.915-.98-.61-1.74-1.465-2.28-2.565-.54-1.1-.81-2.38-.81-3.84s.27-2.735.81-3.825c.54-1.09 1.3-1.94 2.28-2.55.98-.61 2.13-.915 3.45-.915 1.24 0 2.325.305 3.255.915.93.61 1.535 1.415 1.815 2.415h-.24v-3.03h3.66v13.2c0 1.58-.28 2.905-.84 3.975a5.364 5.364 0 0 1-2.49 2.4c-1.1.53-2.45.795-4.05.795Zm-.09-8.91c1.16 0 2.08-.4 2.76-1.2.68-.8 1.02-1.89 1.02-3.27 0-1.38-.34-2.465-1.02-3.255-.68-.79-1.6-1.185-2.76-1.185-1.16 0-2.08.395-2.76 1.185-.68.79-1.02 1.875-1.02 3.255s.34 2.47 1.02 3.27c.68.8 1.6 1.2 2.76 1.2Zm11.04-7.32v-4.14h4.2v4.14h-4.2Zm0 10.53v-4.17h4.2V541h-4.2Z"/></g><rect width="101" height="52" x="666" y="505" fill="#FFF" fill-rule="nonzero" stroke="#333A40" stroke-width="2" rx="8"/><path fill="#343A40" fill-rule="nonzero" d="M678.925 539v-17.625h2.4l10.125 13.15h-.65v-13.15h2.975V539H691.4l-10.125-13.175h.625V539h-2.975Zm24.425.25c-1.383 0-2.575-.258-3.575-.775a5.51 5.51 0 0 1-2.313-2.2c-.541-.95-.812-2.075-.812-3.375 0-1.267.262-2.375.788-3.325a5.787 5.787 0 0 1 2.174-2.238c.925-.541 1.98-.812 3.163-.812 1.167 0 2.167.25 3 .75.833.5 1.48 1.208 1.938 2.125.458.917.687 2.008.687 3.275v.925h-9.225v-1.8h7.025l-.4.375c0-1.133-.25-2.004-.75-2.612-.5-.609-1.217-.913-2.15-.913-.7 0-1.296.163-1.788.488-.491.324-.866.783-1.125 1.375-.258.591-.387 1.295-.387 2.112v.175c0 .917.142 1.675.425 2.275.283.6.708 1.05 1.275 1.35.567.3 1.267.45 2.1.45.683 0 1.367-.104 2.05-.313a5.632 5.632 0 0 0 1.875-.987l.875 2.1c-.583.483-1.317.867-2.2 1.15a8.634 8.634 0 0 1-2.65.425Zm13.125 0c-1.633 0-2.85-.408-3.65-1.225-.8-.817-1.2-2.008-1.2-3.575v-5.325h-2.35v-2.35h2.35v-3.65h3.125v3.65h3.7v2.35h-3.7v5.15c0 .8.175 1.4.525 1.8.35.4.917.6 1.7.6.233 0 .475-.03.725-.087.25-.059.508-.121.775-.188l.475 2.3c-.3.167-.68.3-1.138.4-.458.1-.904.15-1.337.15Zm4.825-.25v-9.875h-2.35v-2.35h3.25l-.9.825v-.85c0-1.733.454-3.042 1.362-3.925.909-.883 2.321-1.383 4.238-1.5l1.225-.075.2 2.3-1.15.075c-.667.033-1.2.154-1.6.363-.4.208-.692.495-.875.862-.183.367-.275.833-.275 1.4v.925l-.4-.4h3.725v2.35h-3.325V539H721.3Zm12.525.25c-1.45 0-2.52-.396-3.213-1.188-.691-.791-1.037-1.954-1.037-3.487v-13.2h3.125v13.05c0 .483.07.896.212 1.238.142.341.355.595.638.762.283.167.633.25 1.05.25.183 0 .367-.008.55-.025.183-.017.358-.05.525-.1l-.05 2.475c-.3.067-.596.12-.888.163a6.46 6.46 0 0 1-.912.062Zm3.525-15.1v-3.05h3.5v3.05h-3.5Zm.2 14.85v-12.225h3.125V539h-3.125Zm4.675 0 5.725-7.05v1.475l-5.4-6.65h3.65l3.5 4.475h-1.1l3.5-4.475h3.65l-5.4 6.625V532l5.725 7H752.4l-3.8-4.8h1.05l-3.775 4.8h-3.65Z"/><rect width="109" height="52" x="785" y="505" fill="#FFF" fill-rule="nonzero" stroke="#333A40" stroke-width="2" rx="8"/><path fill="#343A40" fill-rule="nonzero" d="M805.25 539.25c-2.417 0-4.263-.63-5.538-1.888-1.274-1.258-1.912-3.12-1.912-5.587v-10.4h3.2v10.375c0 1.583.362 2.77 1.087 3.563.726.791 1.78 1.187 3.163 1.187 1.383 0 2.433-.396 3.15-1.188.717-.791 1.075-1.979 1.075-3.562v-10.375h3.175v10.4c0 2.467-.625 4.33-1.875 5.587-1.25 1.259-3.092 1.888-5.525 1.888Zm17.875 0c-1.033 0-1.938-.258-2.713-.775-.775-.517-1.287-1.208-1.537-2.075h.25v2.6h-3.05v-17.625h3.125v7.875h-.3c.267-.817.783-1.475 1.55-1.975s1.658-.75 2.675-.75c1.083 0 2.025.258 2.825.775.8.517 1.425 1.246 1.875 2.188.45.941.675 2.07.675 3.387 0 1.3-.225 2.43-.675 3.388-.45.958-1.08 1.695-1.888 2.212-.808.517-1.745.775-2.812.775Zm-.875-2.375c.933 0 1.683-.337 2.25-1.013.567-.674.85-1.67.85-2.987 0-1.333-.283-2.33-.85-2.987-.567-.659-1.317-.988-2.25-.988s-1.683.33-2.25.988c-.567.658-.85 1.654-.85 2.987 0 1.317.283 2.313.85 2.987.567.676 1.317 1.013 2.25 1.013Zm13.25 2.375c-1.017 0-1.858-.188-2.525-.563-.667-.375-1.163-.937-1.488-1.687-.325-.75-.487-1.684-.487-2.8v-7.425h3.125v7.475c0 .567.077 1.042.231 1.425.154.384.397.667.729.85.331.183.748.275 1.25.275.56 0 1.052-.13 1.477-.387.43-.264.777-.645 1-1.099.242-.474.363-1.028.363-1.664v-6.875h3.125V539h-3.05v-2.55h.35c-.35.9-.88 1.592-1.588 2.075-.708.483-1.545.725-2.512.725Zm10.05-.25v-12.225h3.05v2.45h-.275c.367-.883.937-1.554 1.712-2.013.775-.458 1.655-.687 2.638-.687.983 0 1.793.182 2.43.546.635.364 1.11.92 1.424 1.666.314.746.471 1.684.471 2.813V539h-3.125v-7.3c0-.633-.08-1.15-.238-1.55-.158-.4-.4-.696-.725-.887-.325-.192-.737-.288-1.237-.288-.6 0-1.126.129-1.58.387a2.64 2.64 0 0 0-1.05 1.098c-.246.474-.37 1.03-.37 1.665V539h-3.125Zm20.225.25c-1.633 0-2.85-.408-3.65-1.225-.8-.817-1.2-2.008-1.2-3.575v-5.325h-2.35v-2.35h2.35v-3.65h3.125v3.65h3.7v2.35h-3.7v5.15c0 .8.175 1.4.525 1.8.35.4.917.6 1.7.6.233 0 .475-.03.725-.087.25-.059.508-.121.775-.188l.475 2.3c-.3.167-.68.3-1.138.4-.458.1-.904.15-1.337.15Zm8.425 0c-1.017 0-1.858-.188-2.525-.563-.667-.375-1.163-.937-1.487-1.687-.326-.75-.488-1.684-.488-2.8v-7.425h3.125v7.475c0 .567.077 1.042.231 1.425.154.384.397.667.729.85.331.183.748.275 1.25.275.56 0 1.053-.13 1.477-.387.43-.264.777-.645 1-1.099.242-.474.363-1.028.363-1.664v-6.875H881V539h-3.05v-2.55h.35c-.35.9-.88 1.592-1.587 2.075-.709.483-1.546.725-2.513.725Z"/><rect width="87" height="52" x="912" y="504" fill="#FFF" fill-rule="nonzero" stroke="#333A40" stroke-width="2" rx="8"/><path fill="#343A40" fill-rule="nonzero" d="M925.925 538v-17.625h3.2v14.9h8.45V538h-11.65Zm13.55-14.85v-3.05h3.5v3.05h-3.5Zm.2 14.85v-12.225h3.125V538h-3.125Zm6.375 0v-12.225h3.05v2.45h-.275c.367-.883.937-1.554 1.712-2.013.775-.458 1.655-.687 2.638-.687.983 0 1.793.182 2.43.546.635.364 1.11.92 1.424 1.666.314.746.471 1.684.471 2.813V538h-3.125v-7.3c0-.633-.08-1.15-.238-1.55-.158-.4-.4-.696-.725-.887-.325-.192-.737-.288-1.237-.288-.6 0-1.126.129-1.58.387a2.64 2.64 0 0 0-1.05 1.098c-.246.474-.37 1.03-.37 1.665V538h-3.125Zm19.05.25c-1.017 0-1.858-.188-2.525-.563-.667-.375-1.163-.937-1.488-1.687-.325-.75-.487-1.684-.487-2.8v-7.425h3.125v7.475c0 .567.077 1.042.231 1.425.154.384.397.667.729.85.331.183.748.275 1.25.275.56 0 1.053-.13 1.477-.387.43-.264.777-.645 1-1.099.242-.474.363-1.028.363-1.664v-6.875h3.125V538h-3.05v-2.55h.35c-.35.9-.88 1.592-1.588 2.075-.708.483-1.545.725-2.512.725Zm8.35-.25 5.725-7.05v1.475l-5.4-6.65h3.65l3.5 4.475h-1.1l3.5-4.475h3.65l-5.4 6.625V531l5.725 7h-3.675l-3.8-4.8h1.05L977.1 538h-3.65Z"/><rect width="100" height="52" x="1017" y="504" fill="#FFF" fill-rule="nonzero" stroke="#333A40" stroke-width="2" rx="8"/><path fill="#343A40" fill-rule="nonzero" d="M1029.525 523.15v-3.05h3.5v3.05h-3.5Zm-2.65 19.675-.225-2.275 1.15-.125c.65-.083 1.133-.304 1.45-.662.317-.359.475-.888.475-1.588v-12.4h3.125v12c0 .817-.092 1.525-.275 2.125-.183.6-.467 1.1-.85 1.5-.383.4-.887.708-1.512.925-.625.217-1.38.358-2.263.425l-1.075.075Zm22.2.5-2.425-3.925a2.225 2.225 0 0 0-.938-.862c-.391-.192-.87-.288-1.437-.288l2.475-.975c.517 0 .967.058 1.35.175.383.117.725.308 1.025.575.3.267.583.633.85 1.1l1.825 2.9-2.725 1.3Zm-4.775-5.075c-1.283 0-2.446-.212-3.487-.637a7.42 7.42 0 0 1-2.676-1.838c-.741-.8-1.312-1.758-1.712-2.875-.4-1.117-.6-2.358-.6-3.725 0-1.383.2-2.63.6-3.737.4-1.109.97-2.059 1.713-2.85a7.494 7.494 0 0 1 2.675-1.825c1.041-.426 2.204-.638 3.487-.638s2.446.212 3.488.638a7.572 7.572 0 0 1 2.675 1.812c.741.783 1.312 1.73 1.712 2.837.4 1.109.6 2.355.6 3.738s-.2 2.633-.6 3.75c-.4 1.117-.97 2.075-1.712 2.875a7.42 7.42 0 0 1-2.675 1.838c-1.042.424-2.205.637-3.488.637Zm0-2.75c1.083 0 2.004-.25 2.763-.75.758-.5 1.341-1.225 1.75-2.175.408-.95.612-2.083.612-3.4 0-1.333-.2-2.47-.6-3.412-.4-.942-.983-1.659-1.75-2.15-.767-.492-1.692-.738-2.775-.738-1.067 0-1.983.246-2.75.738-.767.491-1.354 1.208-1.762 2.15-.409.941-.613 2.079-.613 3.412 0 1.317.204 2.45.613 3.4.408.95.995 1.675 1.762 2.175.767.5 1.683.75 2.75.75Zm15.85 2.75c-1.017 0-1.858-.188-2.525-.563-.667-.375-1.162-.937-1.487-1.687-.325-.75-.488-1.684-.488-2.8v-7.425h3.125v7.475c0 .567.077 1.042.231 1.425.154.384.397.667.729.85.331.183.748.275 1.25.275.56 0 1.053-.13 1.478-.387.43-.264.777-.645 1-1.099.241-.474.362-1.028.362-1.664v-6.875h3.125V538h-3.05v-2.55h.35c-.35.9-.88 1.592-1.587 2.075-.709.483-1.546.725-2.513.725Zm16.075 0c-1.383 0-2.575-.258-3.575-.775a5.51 5.51 0 0 1-2.313-2.2c-.541-.95-.812-2.075-.812-3.375 0-1.267.263-2.375.787-3.325a5.787 5.787 0 0 1 2.176-2.238c.925-.541 1.979-.812 3.162-.812 1.167 0 2.167.25 3 .75.833.5 1.48 1.208 1.938 2.125.458.917.687 2.008.687 3.275v.925h-9.225v-1.8h7.025l-.4.375c0-1.133-.25-2.004-.75-2.612-.5-.609-1.217-.913-2.15-.913-.7 0-1.296.163-1.787.488-.492.324-.867.783-1.125 1.375-.259.591-.388 1.295-.388 2.112v.175c0 .917.142 1.675.425 2.275.283.6.708 1.05 1.275 1.35.567.3 1.267.45 2.1.45.683 0 1.367-.104 2.05-.313a5.632 5.632 0 0 0 1.875-.987l.875 2.1c-.583.483-1.317.867-2.2 1.15a8.634 8.634 0 0 1-2.65.425Zm7.525-.25v-12.225h3.05v2.95h-.25c.233-1 .692-1.763 1.375-2.288.683-.524 1.592-.829 2.725-.912l.95-.075.2 2.65-1.8.175c-1.017.1-1.783.413-2.3.938-.517.525-.775 1.262-.775 2.212V538h-3.175Zm10.9 4.5 2.55-5.625v1.3l-5.375-12.4h3.325l3.8 9.475h-.75l3.875-9.475h3.15l-7.35 16.725h-3.225Z"/><rect width="1094" height="90" x="52" y="486" stroke="#FFF" stroke-linejoin="round" rx="10"/><path fill="#E9ECEF" fill-rule="nonzero" d="M135 103.64v-28.2h18.44v4.08h-13.32v7.96h12.48v4.08h-12.48v12.08H135Zm30.92.4c-2.03 0-3.79-.413-5.282-1.24s-2.651-2.006-3.478-3.54c-.827-1.532-1.24-3.339-1.24-5.42 0-2.08.413-3.88 1.24-5.4a8.678 8.678 0 0 1 3.477-3.52c1.492-.827 3.253-1.24 5.283-1.24 2.03 0 3.79.413 5.282 1.24s2.651 2.003 3.478 3.528c.827 1.525 1.24 3.322 1.24 5.392 0 2.08-.413 3.887-1.24 5.42s-1.986 2.713-3.478 3.54c-1.491.827-3.252 1.24-5.282 1.24Zm-.014-3.8c1.503 0 2.707-.54 3.614-1.62s1.36-2.68 1.36-4.8c0-2.12-.453-3.707-1.36-4.76s-2.111-1.58-3.614-1.58c-1.484 0-2.68.527-3.586 1.58-.907 1.053-1.36 2.64-1.36 4.76 0 2.12.453 3.72 1.36 4.8.907 1.08 2.102 1.62 3.586 1.62Zm14.134 3.4V84.08h4.88v4.72h-.4c.373-1.6 1.107-2.82 2.2-3.66 1.093-.84 2.547-1.327 4.36-1.46l1.52-.12.32 4.24-2.88.28c-1.627.16-2.853.66-3.68 1.5s-1.24 2.02-1.24 3.54v10.52h-5.08Zm21.08 0-7.72-19.56h5.12l5.44 15h-.92l5.52-15h3.52l5.44 15h-.84l5.44-15h4.84l-7.68 19.56h-4.36L209 88h2.28l-5.8 15.64h-4.36Zm35.16.4c-1.413 0-2.673-.273-3.78-.82-1.107-.547-1.973-1.287-2.6-2.22-.627-.933-.94-1.987-.94-3.16 0-1.44.373-2.58 1.12-3.42.747-.84 1.96-1.447 3.64-1.82 1.68-.373 3.933-.56 6.76-.56h2v2.88h-1.96c-1.253 0-2.307.047-3.16.14-.853.093-1.54.24-2.06.44s-.893.473-1.12.82c-.227.347-.34.773-.34 1.28 0 .88.307 1.6.92 2.16s1.467.84 2.56.84c.88 0 1.66-.207 2.34-.62.68-.413 1.22-.98 1.62-1.7.4-.72.6-1.547.6-2.48v-4.6c0-1.333-.293-2.293-.88-2.88-.587-.587-1.573-.88-2.96-.88-1.093 0-2.213.167-3.36.5-1.147.333-2.307.847-3.48 1.54l-1.44-3.4c.693-.48 1.513-.9 2.46-1.26.947-.36 1.947-.64 3-.84 1.053-.2 2.047-.3 2.98-.3 1.92 0 3.5.293 4.74.88 1.24.587 2.167 1.473 2.78 2.66s.92 2.713.92 4.58v11.84h-4.68v-4.16h.32c-.187.933-.553 1.74-1.1 2.42a5.507 5.507 0 0 1-2.06 1.58c-.827.373-1.773.56-2.84.56Zm15.44-.4V84.08h4.88v4.72h-.4c.373-1.6 1.107-2.82 2.2-3.66 1.093-.84 2.547-1.327 4.36-1.46l1.52-.12.32 4.24-2.88.28c-1.627.16-2.853.66-3.68 1.5s-1.24 2.02-1.24 3.54v10.52h-5.08Zm23.2.4c-1.707 0-3.207-.413-4.5-1.24-1.293-.827-2.3-2.007-3.02-3.54-.72-1.533-1.08-3.34-1.08-5.42 0-2.107.36-3.913 1.08-5.42.72-1.507 1.727-2.673 3.02-3.5s2.793-1.24 4.5-1.24c1.627 0 3.047.4 4.26 1.2 1.213.8 2.033 1.853 2.46 3.16h-.44v-12.6h5v28.2h-4.88v-4.16h.36c-.4 1.387-1.213 2.493-2.44 3.32-1.227.827-2.667 1.24-4.32 1.24Zm1.4-3.8c1.493 0 2.693-.54 3.6-1.62s1.36-2.673 1.36-4.78c0-2.133-.453-3.727-1.36-4.78-.907-1.053-2.107-1.58-3.6-1.58-1.493 0-2.693.527-3.6 1.58s-1.36 2.647-1.36 4.78c0 2.107.453 3.7 1.36 4.78s2.107 1.62 3.6 1.62Zm26.36 3.4v-28.2h18.76v4.08H307.6v7.76h12.96v4.08H307.6v8.2h13.84v4.08h-18.76Zm23.48 0V84.08h4.88V88h-.44c.347-.907.827-1.68 1.44-2.32a6.28 6.28 0 0 1 2.2-1.48c.853-.347 1.8-.52 2.84-.52 1.573 0 2.867.373 3.88 1.12 1.013.747 1.72 1.893 2.12 3.44h-.56c.533-1.413 1.413-2.527 2.64-3.34 1.227-.813 2.64-1.22 4.24-1.22 1.493 0 2.727.293 3.7.88.973.587 1.7 1.473 2.18 2.66.48 1.187.72 2.687.72 4.5v11.92h-5V91.92c0-1.493-.247-2.587-.74-3.28-.493-.693-1.327-1.04-2.5-1.04-.853 0-1.6.207-2.24.62-.64.413-1.127 1.007-1.46 1.78-.333.773-.5 1.707-.5 2.8v10.84h-5V91.92c0-1.493-.247-2.587-.74-3.28-.493-.693-1.313-1.04-2.46-1.04-.88 0-1.633.207-2.26.62-.627.413-1.107 1.007-1.44 1.78-.333.773-.5 1.707-.5 2.8v10.84h-5Zm41.44.4c-1.413 0-2.673-.273-3.78-.82-1.107-.547-1.973-1.287-2.6-2.22-.627-.933-.94-1.987-.94-3.16 0-1.44.373-2.58 1.12-3.42.747-.84 1.96-1.447 3.64-1.82 1.68-.373 3.933-.56 6.76-.56h2v2.88h-1.96c-1.253 0-2.307.047-3.16.14-.853.093-1.54.24-2.06.44s-.893.473-1.12.82c-.227.347-.34.773-.34 1.28 0 .88.307 1.6.92 2.16s1.467.84 2.56.84c.88 0 1.66-.207 2.34-.62.68-.413 1.22-.98 1.62-1.7.4-.72.6-1.547.6-2.48v-4.6c0-1.333-.293-2.293-.88-2.88-.587-.587-1.573-.88-2.96-.88-1.093 0-2.213.167-3.36.5-1.147.333-2.307.847-3.48 1.54l-1.44-3.4c.693-.48 1.513-.9 2.46-1.26.947-.36 1.947-.64 3-.84 1.053-.2 2.047-.3 2.98-.3 1.92 0 3.5.293 4.74.88 1.24.587 2.167 1.473 2.78 2.66s.92 2.713.92 4.58v11.84h-4.68v-4.16h.32c-.187.933-.553 1.74-1.1 2.42a5.507 5.507 0 0 1-2.06 1.58c-.827.373-1.773.56-2.84.56Zm15.12-24.16V75h5.6v4.88h-5.6Zm.32 23.76V84.08h5v19.56h-5Zm17 .4c-2.32 0-4.033-.633-5.14-1.9-1.107-1.267-1.66-3.127-1.66-5.58V75.44h5v20.88c0 .773.113 1.433.34 1.98.227.547.567.953 1.02 1.22.453.267 1.013.4 1.68.4.293 0 .587-.013.88-.04.293-.027.573-.08.84-.16l-.08 3.96c-.48.107-.953.193-1.42.26-.467.067-.953.1-1.46.1Z"/><g transform="translate(51 52)"><mask id="c" fill="#fff"><use xlink:href="#a"/></mask><path fill="url(#b)" fill-rule="nonzero" d="M28.499 0a1.052 1.052 0 0 0-.156.015C-.967 2.19-.557 29.995.23 41.305c.063.912 4.393 33.68 7.556 33.695 4.366.02 2.183-5.885 2.183-5.885s6.74 1.94 18.374 2.015h.314c11.63-.075 18.372-2.015 18.372-2.015S44.846 75.02 49.209 75c3.162-.015 7.495-32.783 7.56-33.695.788-11.31 1.197-39.115-28.113-41.29 0 0-.086-.015-.14-.015h-.018" mask="url(#c)"/></g><g transform="translate(51 52)"><mask id="e" fill="#fff"><use xlink:href="#d"/></mask><path fill="#1A1A1A" fill-rule="nonzero" d="M40.777 29.05a2.61 2.61 0 0 0 2.609-2.6 2.61 2.61 0 0 0-5.218 0 2.607 2.607 0 0 0 2.609 2.6" mask="url(#e)"/></g><g transform="translate(51 52)"><mask id="g" fill="#fff"><use xlink:href="#f"/></mask><path fill="#FFF" fill-rule="nonzero" d="M41.81 26.13a.766.766 0 0 0 0-1.525.766.766 0 0 0 0 1.525" mask="url(#g)"/></g><g transform="translate(51 52)"><mask id="i" fill="#fff"><use xlink:href="#h"/></mask><path fill="#1A1A1A" fill-rule="nonzero" d="M16.088 29.05a2.61 2.61 0 0 0 2.609-2.6 2.61 2.61 0 0 0-5.218 0 2.607 2.607 0 0 0 2.609 2.6" mask="url(#i)"/></g><g transform="translate(51 52)"><mask id="k" fill="#fff"><use xlink:href="#j"/></mask><path fill="#FFF" fill-rule="nonzero" d="M17.275 26.13a.766.766 0 0 0 0-1.525.764.764 0 0 0-.766.762c0 .422.343.763.766.763" mask="url(#k)"/></g><g transform="translate(51 52)"><mask id="m" fill="#fff"><use xlink:href="#l"/></mask><path fill="#1A1A1A" fill-rule="nonzero" d="M32.904 33.97a.687.687 0 0 0-.958.077c-.013.015-1.245 1.393-3.485 1.393-2.388 0-3.342-1.208-3.437-1.335a.684.684 0 0 0-1.234.26.68.68 0 0 0 .108.51c.052.077 1.34 1.925 4.566 1.925 2.89 0 4.453-1.79 4.518-1.865a.683.683 0 0 0-.075-.965" mask="url(#m)"/></g><g transform="translate(51 52)"><mask id="o" fill="#fff"><use xlink:href="#n"/></mask><path fill="#A7A9AC" fill-rule="nonzero" d="m42.237 51.24-13.62 8.012-13.623-8.012v-.023c.013-.05.765-.675 1.912-1.605l.03-.025c3.763-3.05 11.68-9.287 11.68-9.287s7.918 6.24 11.679 9.285c1.164.942 1.932 1.58 1.942 1.632v.025" mask="url(#o)"/></g><g transform="translate(51 52)"><mask id="q" fill="#fff"><use xlink:href="#p"/></mask><path fill="#FFF" fill-rule="nonzero" d="M23.115 60.425h14.699c.606 0 1.187-.24 1.615-.667a2.271 2.271 0 0 0 .668-1.61V41.971a2.279 2.279 0 0 0-2.283-2.275H19.399a2.279 2.279 0 0 0-2.283 2.275v12.465l5.999 5.988v.001Z" mask="url(#q)"/></g><g transform="translate(51 52)"><mask id="s" fill="#fff"><use xlink:href="#r"/></mask><path fill="#D1D3D4" fill-rule="nonzero" d="M42.24 51.317v13.038a1.663 1.663 0 0 1-1.662 1.655H16.65a1.658 1.658 0 0 1-1.656-1.655V51.317l13.623 8.013 13.622-8.013Z" mask="url(#s)"/></g><g transform="translate(51 52)"><mask id="u" fill="#fff"><use xlink:href="#t"/></mask><path fill="#F4F4F4" fill-rule="nonzero" d="m41.775 65.5-8.768-8.75-4.393 2.585-4.398-2.585-8.768 8.745c.31.331.745.52 1.2.52h23.928c.454-.001.888-.19 1.2-.52" mask="url(#u)"/></g><g transform="translate(51 52)"><mask id="w" fill="#fff"><use xlink:href="#v"/></mask><path fill="#179BC9" fill-rule="nonzero" d="M.614 44.392c.303 7.12 2.933 15.393 8.796 18.198 5.74 2.742 15.012 1.8 15.075-.075.035-1.018-.946-.728-.883-1.575.082-1.145 1.982-.555 1.85-1.895-.107-1.085-1.973-.4-2.046-1.475-.095-1.365 1.716-1.125.84-2.44-.875-1.313-3.11 2.237-9.628.412C8.74 53.895 6.745 49.65 5.9 43.367 5.054 37.08.38 38.887.614 44.392m55.888 0c-.301 7.12-2.93 15.393-8.796 18.198-5.74 2.742-15.013 1.8-15.075-.075-.033-1.018.945-.728.883-1.575-.083-1.145-1.985-.555-1.852-1.895.108-1.085 1.977-.4 2.05-1.475.093-1.365-1.716-1.125-.843-2.44.878-1.313 3.11 2.237 9.629.412 5.878-1.647 7.872-5.892 8.718-12.175.845-6.287 5.519-4.48 5.286 1.025" mask="url(#w)"/></g><g transform="translate(51 52)"><mask id="y" fill="#fff"><use xlink:href="#x"/></mask><path fill="#27AAE1" fill-rule="nonzero" d="M.614 43.787c.303 7.12 2.933 15.395 8.796 18.2 5.74 2.743 15.012 1.8 15.075-.077.035-1.018-.946-.725-.883-1.575.082-1.145 1.982-.555 1.85-1.893-.107-1.085-1.973-.4-2.046-1.475-.095-1.367 1.716-1.127.84-2.44-.875-1.315-3.11 2.238-9.628.41C8.74 53.29 6.745 49.047 5.9 42.762c-.846-6.287-5.52-4.48-5.286 1.025m55.888 0c-.301 7.12-2.93 15.395-8.796 18.2-5.74 2.743-15.013 1.8-15.075-.077-.033-1.018.945-.725.883-1.575-.083-1.145-1.985-.555-1.852-1.893.108-1.085 1.977-.4 2.05-1.475.093-1.367-1.716-1.127-.843-2.44.878-1.315 3.11 2.238 9.629.41 5.878-1.647 7.872-5.89 8.718-12.175.845-6.287 5.519-4.48 5.286 1.025" mask="url(#y)"/></g><g transform="translate(78 100.031)"><mask id="B" fill="#fff"><use xlink:href="#z"/></mask><path fill="url(#A)" fill-rule="nonzero" d="M1.094 1.036.447.66 0 .976l1.074.962h.002L3 .364 2.66 0z" mask="url(#B)"/></g><g transform="translate(74 96)"><mask id="E" fill="#fff"><use xlink:href="#C"/></mask><path fill="url(#D)" fill-rule="nonzero" d="M0 4.996a5 5 0 1 0 10 .008 5 5 0 0 0-10-.008m2.242-1.59L4.995 2.23 7.75 3.405S7.568 7.76 4.997 7.76c-2.57 0-2.755-4.351-2.755-4.351" mask="url(#E)"/></g><text fill="#43B0E3" fill-rule="nonzero" font-family="Helvetica, Arial" font-size="2" transform="translate(107 118.5)">
                    <tspan x="0" y="2">TM</tspan>
                </text><g fill-rule="nonzero"><path fill="#FFF" stroke="#333A40" stroke-width="2" d="M1127.78 52c6.383 0 8.678.712 11.007 1.957a13.56 13.56 0 0 1 5.64 5.64c1.246 2.33 1.958 4.625 1.958 11.005v32.796c0 6.38-.712 8.675-1.958 11.004a13.56 13.56 0 0 1-5.64 5.64c-2.329 1.246-4.624 1.958-11.005 1.958H987.295c-6.381 0-8.676-.712-11.005-1.957a13.56 13.56 0 0 1-5.64-5.64c-1.246-2.33-1.958-4.625-1.958-11.005v-3.534L955.828 87l12.864-12.865v-3.533c0-6.38.712-8.675 1.958-11.004a13.56 13.56 0 0 1 5.64-5.64c2.329-1.246 4.624-1.958 11.005-1.958h140.486Zm-200.576 0c6.382 0 8.677.712 11.006 1.957a13.56 13.56 0 0 1 5.64 5.64c1.246 2.33 1.958 4.625 1.958 11.005v32.796c0 6.38-.712 8.675-1.958 11.004a13.56 13.56 0 0 1-5.64 5.64c-2.329 1.246-4.624 1.958-11.005 1.958H809.602c-6.38 0-8.675-.712-11.004-1.957a13.56 13.56 0 0 1-5.64-5.64c-1.246-2.33-1.958-4.625-1.958-11.005V70.602c0-6.38.712-8.675 1.957-11.004a13.56 13.56 0 0 1 5.64-5.64c2.33-1.246 4.625-1.958 11.005-1.958h117.602Z"/><path fill="#000" d="M826 66.808c-11.15 0-20.192 9.268-20.192 20.704 0 9.147 5.785 16.905 13.809 19.644 1.01.191 1.378-.448 1.378-.998 0-.49-.016-1.795-.027-3.522-5.616 1.252-6.8-2.773-6.8-2.773-.92-2.394-2.245-3.03-2.245-3.03-1.832-1.282.14-1.258.14-1.258 2.026.145 3.091 2.134 3.091 2.134 1.803 3.163 4.728 2.25 5.879 1.719.184-1.338.704-2.248 1.281-2.767-4.482-.523-9.2-2.3-9.2-10.23 0-2.262.788-4.112 2.08-5.559-.208-.522-.901-2.629.201-5.479 0 0 1.693-.555 5.55 2.123A18.89 18.89 0 0 1 826 76.82a18.94 18.94 0 0 1 5.055.696c3.857-2.678 5.549-2.123 5.549-2.123 1.1 2.85.408 4.957.202 5.48 1.293 1.446 2.074 3.297 2.074 5.555 0 7.953-4.722 9.706-9.221 10.217.725.64 1.372 1.902 1.372 3.834 0 2.766-.023 5-.023 5.68 0 .553.363 1.198 1.386.996 8.02-2.745 13.798-10.5 13.798-19.643 0-11.436-9.042-20.704-20.192-20.704m34.907 24.442h-4.604c-.02 1.333.222 2.485.727 3.454a6.8 6.8 0 0 0 2.045 2.392c.894.643 1.9 1.11 2.968 1.379 1.133.294 2.298.442 3.468.439 1.474 0 2.772-.171 3.892-.515 1.121-.343 2.06-.824 2.817-1.44a5.988 5.988 0 0 0 1.711-2.194 6.61 6.61 0 0 0 .576-2.757c0-1.212-.258-2.207-.772-2.983a6.45 6.45 0 0 0-1.832-1.863 8.055 8.055 0 0 0-2.137-1.015 20.585 20.585 0 0 0-1.68-.44 335.93 335.93 0 0 1-3.287-.847c-.837-.222-1.494-.445-1.968-.667-.474-.222-.793-.464-.955-.727-.161-.262-.242-.605-.242-1.03 0-.464.101-.848.303-1.15.202-.303.459-.555.773-.758a3.08 3.08 0 0 1 1.044-.423c.384-.08.768-.121 1.151-.121.586 0 1.127.05 1.621.15.494.102.934.273 1.318.515.383.242.692.576.923 1 .233.424.37.959.41 1.605h4.603c0-1.252-.238-2.316-.712-3.195a6.206 6.206 0 0 0-1.923-2.166 8.121 8.121 0 0 0-2.77-1.226 13.768 13.768 0 0 0-3.258-.378c-.97 0-1.939.13-2.908.393a8.117 8.117 0 0 0-2.604 1.211 6.448 6.448 0 0 0-1.863 2.045c-.475.817-.712 1.781-.712 2.892 0 .99.187 1.833.56 2.53a5.363 5.363 0 0 0 1.47 1.741 8.139 8.139 0 0 0 2.06 1.136c.767.292 1.555.54 2.362.742.788.222 1.565.424 2.332.606.767.181 1.454.394 2.06.635.605.242 1.095.547 1.468.909.374.363.561.838.561 1.424 0 .545-.14.995-.424 1.347a2.97 2.97 0 0 1-1.06.834 4.76 4.76 0 0 1-1.363.409 9.571 9.571 0 0 1-1.363.105 7.229 7.229 0 0 1-1.818-.226 4.523 4.523 0 0 1-1.529-.699 3.44 3.44 0 0 1-1.044-1.226c-.263-.505-.395-1.12-.395-1.849v.002Zm21.415-8.48v-4.695h-4.301v4.694h-2.605v2.878h2.605v9.237c0 .788.13 1.425.393 1.91a2.81 2.81 0 0 0 1.075 1.12 4.442 4.442 0 0 0 1.575.53c.595.091 1.227.136 1.893.136.424 0 .859-.01 1.303-.03.444-.02.848-.06 1.212-.121v-3.332c-.202.04-.415.07-.637.09a7.7 7.7 0 0 1-.696.031c-.727 0-1.212-.12-1.454-.363s-.363-.727-.363-1.454v-7.754h3.15V82.77h-3.15v.001Zm5.028 4.816c.06-1.01.312-1.849.756-2.515a5.156 5.156 0 0 1 1.696-1.605 7.39 7.39 0 0 1 2.318-.863c.853-.17 1.72-.257 2.589-.257.788 0 1.586.054 2.394.166a7.335 7.335 0 0 1 2.21.651 4.362 4.362 0 0 1 1.635 1.348c.424.576.637 1.338.637 2.287v8.148c0 .706.04 1.383.121 2.029.081.646.222 1.13.424 1.454h-4.361a6.172 6.172 0 0 1-.303-1.515 5.619 5.619 0 0 1-2.423 1.485 9.724 9.724 0 0 1-2.847.423 7.692 7.692 0 0 1-2.09-.272 4.786 4.786 0 0 1-1.697-.848 3.948 3.948 0 0 1-1.135-1.454c-.273-.586-.409-1.283-.409-2.09 0-.889.156-1.62.468-2.195a3.938 3.938 0 0 1 1.212-1.38 5.437 5.437 0 0 1 1.696-.77 18.008 18.008 0 0 1 1.925-.41 32.853 32.853 0 0 1 1.908-.242c.561-.05 1.117-.142 1.665-.274.484-.12.868-.296 1.15-.529.284-.233.415-.57.395-1.015 0-.464-.075-.833-.227-1.105a1.67 1.67 0 0 0-.606-.637 2.383 2.383 0 0 0-.88-.303 7.188 7.188 0 0 0-1.073-.075c-.848 0-1.515.182-2 .545-.484.364-.767.97-.847 1.818h-4.301Zm9.934 3.18c-.182.16-.409.287-.68.379a6.96 6.96 0 0 1-.88.227 13.46 13.46 0 0 1-.984.151c-.343.04-.687.09-1.03.15a7.796 7.796 0 0 0-.954.243c-.294.092-.57.229-.819.41a1.944 1.944 0 0 0-.56.65c-.141.263-.211.596-.211 1.001 0 .382.07.706.211.97.142.26.334.468.576.619.243.152.525.258.849.319.323.06.655.091.998.091.848 0 1.505-.143 1.97-.425.464-.283.808-.62 1.03-1.014a3.26 3.26 0 0 0 .408-1.197c.05-.403.076-.727.076-.969v-1.606Zm7.633-7.996v15.66h4.3v-7.057c0-.708.07-1.363.212-1.97a4.294 4.294 0 0 1 .712-1.589 3.463 3.463 0 0 1 1.318-1.076c.545-.262 1.212-.394 2-.394a8.49 8.49 0 0 1 1.543.152v-3.998a3.355 3.355 0 0 0-.938-.15c-.545 0-1.07.08-1.575.242-.505.161-.98.387-1.424.68-.444.293-.842.65-1.18 1.06a5.29 5.29 0 0 0-.82 1.348h-.06V82.77h-4.088v.001Zm15.113 10.57h-4.088c.04 1.05.277 1.924.712 2.62a5.188 5.188 0 0 0 1.665 1.681 7.027 7.027 0 0 0 2.317.909 13.32 13.32 0 0 0 5.285.015 6.642 6.642 0 0 0 2.288-.894c.666-.424 1.221-1 1.62-1.68.414-.697.62-1.56.62-2.59 0-.727-.14-1.338-.424-1.832a3.881 3.881 0 0 0-1.12-1.243 6.028 6.028 0 0 0-1.59-.802 17.887 17.887 0 0 0-1.833-.514c-.606-.142-1.2-.273-1.786-.395a13.719 13.719 0 0 1-1.56-.409 3.268 3.268 0 0 1-1.106-.59 1.18 1.18 0 0 1-.424-.94c0-.322.081-.58.243-.772.161-.19.358-.338.59-.439.232-.1.49-.167.772-.196.261-.03.524-.045.787-.046.768 0 1.434.147 2 .439.565.293.879.853.94 1.681h4.087c-.08-.969-.327-1.771-.741-2.408a4.901 4.901 0 0 0-1.56-1.53 6.529 6.529 0 0 0-2.136-.818 12.411 12.411 0 0 0-2.468-.242c-.834 0-1.666.075-2.484.229a6.838 6.838 0 0 0-2.18.786 4.364 4.364 0 0 0-1.561 1.53c-.393.645-.59 1.475-.59 2.484 0 .687.142 1.266.424 1.74.283.476.656.87 1.12 1.183.465.312.995.565 1.592.756.595.193 1.206.36 1.83.5 1.535.323 2.733.646 3.59.969.858.323 1.287.808 1.287 1.454 0 .383-.09.702-.271.956-.18.25-.412.457-.682.605-.284.156-.59.268-.908.333a4.6 4.6 0 0 1-.956.106 4.91 4.91 0 0 1-1.225-.152 3.181 3.181 0 0 1-1.046-.47 2.515 2.515 0 0 1-.742-.817c-.2-.366-.3-.78-.288-1.197Z"/><text fill="#000" font-family="HelveticaNeue-Bold, Helvetica Neue, Helvetica, Arial" font-size="40" font-weight="bold" transform="translate(1013 63)">
                        <tspan x="47.5" y="39" text-anchor="middle">COUNT</tspan>
                    </text></g></g></svg>