<svg xmlns="http://www.w3.org/2000/svg" xmlns:xlink="http://www.w3.org/1999/xlink" width="1200" height="630"><defs><linearGradient id="o" x1="50.001%" x2="50.001%" y1="-.001%" y2="99.999%"><stop offset="0%" stop-color="#8CC53F"/><stop offset="100%" stop-color="#39B44A"/></linearGradient><linearGradient id="p" x1="50%" x2="50%" y1="118.57%" y2="320.71%"><stop offset="0%" stop-color="#80B43A"/><stop offset="100%" stop-color="#8AC43F"/></linearGradient><linearGradient id="q" x1="50%" x2="50%" y1="21.157%" y2="93.077%"><stop offset="0%" stop-color="#80B43A"/><stop offset="100%" stop-color="#8AC43F"/></linearGradient><linearGradient id="r" x1=".001%" x2="100%" y1="50.001%" y2="50.001%"><stop offset="0%" stop-color="#FAAF40"/><stop offset="100%" stop-color="#F6931E"/></linearGradient><linearGradient id="s" x1="10.413%" x2="88.688%" y1="85.52%" y2="21.052%"><stop offset="0%" stop-color="#FAAF40"/><stop offset="100%" stop-color="#F6931E"/></linearGradient><linearGradient id="t" x1="50%" x2="50%" y1="99.219%" y2=".316%"><stop offset="0%" stop-color="#FAAF40"/><stop offset="100%" stop-color="#F6931E"/></linearGradient><linearGradient id="u" x1="50%" x2="50%" y1="102.781%" y2=".36%"><stop offset="0%" stop-color="#5FB7E6"/><stop offset="100%" stop-color="#26A8DF"/></linearGradient><linearGradient id="v" x1=".002%" x2="100.004%" y1="49.999%" y2="49.999%"><stop offset="0%" stop-color="#8CC53F"/><stop offset="100%" stop-color="#39B44A"/></linearGradient><linearGradient id="w" x1=".001%" x2="100.001%" y1="49.999%" y2="49.999%"><stop offset="0%" stop-color="#8CC53F"/><stop offset="100%" stop-color="#39B44A"/></linearGradient><path id="a" d="M0 0h1118.137v628.006H0z"/><path id="c" d="M0 624.291h757.052V0H0z"/><path id="e" d="M0 624.291h757.052V0H0z"/><path id="g" d="M0 584.394h677.135V0H0z"/><path id="i" d="M0 544.495h597.219V0H0z"/><path id="k" d="M0 243.122h1004.656V0H0z"/><path id="m" d="M0 106.846h1041.75V0H0z"/><radialGradient id="x" cx="50%" cy="50%" r="60.82%" fx="50%" fy="50%"><stop offset="0%" stop-color="#FFF" stop-opacity="0"/><stop offset="71.241%" stop-color="#FFF" stop-opacity=".5"/><stop offset="100%" stop-color="#FFF" stop-opacity=".5"/></radialGradient></defs><g fill="none" fill-rule="evenodd"><path fill="#000" stroke="#35363A" stroke-width="5" d="M2.5 2.5h1195v625H2.5z"/><g transform="matrix(1 0 0 -1 41 629.006)"><mask id="b" fill="#fff"><use xlink:href="#a"/></mask><g mask="url(#b)"><g transform="translate(178.182 -.008)"><mask id="d" fill="#fff"><use xlink:href="#c"/></mask><g mask="url(#d)" opacity=".1"><mask id="f" fill="#fff"><use xlink:href="#e"/></mask><g fill="#27A9E0" fill-rule="nonzero" mask="url(#f)" opacity=".7"><path d="M39.96 246.335c0 186.408 151.88 338.059 338.563 338.059 186.685 0 338.57-151.65 338.57-338.06C717.093 149.31 675.927 61.71 610.137 0h55.236c57.104 66.203 91.677 152.311 91.677 246.335 0 208.408-169.805 377.956-378.527 377.956C169.808 624.291 0 454.743 0 246.335 0 152.311 34.571 66.202 91.675 0h55.239C81.123 61.708 39.961 149.31 39.961 246.335"/></g><g transform="translate(39.961)"><mask id="h" fill="#fff"><use xlink:href="#g"/></mask><g fill="#27A9E0" fill-rule="nonzero" mask="url(#h)" opacity=".3"><path d="M677.132 246.335c0 186.408-151.885 338.059-338.57 338.059C151.878 584.394 0 432.744 0 246.334 0 149.31 41.162 61.709 106.953 0h63.344C91.609 53.697 39.952 143.984 39.952 246.335c0 164.675 133.691 298.16 298.61 298.16 164.92 0 298.608-133.485 298.608-298.16C637.17 143.984 585.515 53.697 506.83 0h63.346c65.79 61.708 106.956 149.31 106.956 246.335"/></g></g><g transform="translate(79.913)"><mask id="j" fill="#fff"><use xlink:href="#i"/></mask><g fill="#27A9E0" fill-rule="nonzero" mask="url(#j)" opacity=".6"><path d="M597.219 246.335c0 164.675-133.69 298.16-298.608 298.16C133.69 544.495 0 411.011 0 246.335 0 143.984 51.657 53.697 130.345 0h336.533c78.685 53.697 130.34 143.984 130.34 246.335"/></g></g></g></g><g transform="translate(41.745 343.53)"><mask id="l" fill="#fff"><use xlink:href="#k"/></mask><g fill="#27A9E0" fill-rule="nonzero" mask="url(#l)" opacity=".2"><path d="m872.042 146.317 4.013-.156c2.384-.099 5.935-1.293 7.89-2.654l3.294-2.296c1.957-1.364 3.632-.532 3.73 1.849l.157 4.005c.094 2.379 1.289 5.925 2.654 7.877l2.295 3.287c1.368 1.954.536 3.629-1.848 3.724l-4.013.158c-2.383.097-5.931 1.288-7.889 2.652l-3.29 2.29c-1.959 1.367-3.637.538-3.729-1.845l-.159-4.004c-.092-2.382-1.29-5.927-2.655-7.88l-2.3-3.289c-1.367-1.948-.529-3.625 1.85-3.718M2.806 2.404l3.883.593c2.302.354 5.93-.128 8.062-1.072L18.34.336c2.13-.944 3.58.168 3.226 2.466l-.596 3.88c-.355 2.297.13 5.919 1.076 8.045l1.589 3.588c.945 2.125-.164 3.578-2.471 3.222l-3.878-.597c-2.306-.353-5.929.13-8.06 1.075L5.637 23.6c-2.134.944-3.585-.163-3.23-2.466l.598-3.873c.352-2.302-.131-5.92-1.077-8.052L.34 5.63c-.95-2.128.164-3.58 2.467-3.226m294.316 232.729 2.043-3.489c1.21-2.067 2.118-5.719 2.016-8.116l-.164-4.033c-.096-2.395 1.518-3.365 3.588-2.158l3.49 2.038c2.078 1.21 5.732 2.115 8.131 2.02l4.041-.167c2.395-.103 3.37 1.511 2.157 3.584l-2.037 3.483c-1.212 2.072-2.122 5.724-2.023 8.12l.166 4.034c.1 2.395-1.517 3.358-3.588 2.152l-3.49-2.034c-2.073-1.21-5.732-2.116-8.13-2.017l-4.04.166c-2.396.098-3.366-1.515-2.16-3.583m685.55-200.146c-1.946 5.906 1.272 12.27 7.187 14.209 5.91 1.945 12.281-1.273 14.225-7.176 1.948-5.904-1.274-12.267-7.185-14.207-5.913-1.942-12.284 1.27-14.226 7.174m-672.02 105.92c-3.151-.483-6.098 1.674-6.58 4.821-.487 3.144 1.68 6.081 4.829 6.564a5.77 5.77 0 0 0 4.287-1.048 5.76 5.76 0 0 0-2.536-10.337m-236.02 22.73a5.773 5.773 0 0 0-6.581 4.824c-.482 3.141 1.68 6.08 4.83 6.564 3.15.482 6.097-1.674 6.577-4.815a5.765 5.765 0 0 0-4.825-6.573m715.854-84.159a5.77 5.77 0 0 0-6.58 4.821 5.767 5.767 0 0 0 4.829 6.568c3.15.481 6.097-1.674 6.578-4.816a5.765 5.765 0 0 0-4.827-6.573m-98.196 113.44c-3.152-.482-6.096 1.674-6.579 4.815a5.75 5.75 0 0 0 1.05 4.285 5.767 5.767 0 0 0 3.778 2.285 5.773 5.773 0 0 0 4.288-1.047 5.756 5.756 0 0 0 2.29-3.768 5.766 5.766 0 0 0-4.827-6.57"/></g></g><g transform="translate(58.209 48.124)"><mask id="n" fill="#fff"><use xlink:href="#m"/></mask><g fill="#27A9E0" fill-rule="nonzero" mask="url(#n)" opacity=".2"><path d="m1017.053 5.761 4.014-.157c2.385-.095 5.936-1.288 7.89-2.65l3.292-2.297c1.958-1.364 3.636-.535 3.73 1.85l.158 4.005c.094 2.378 1.29 5.921 2.655 7.877l2.297 3.286c1.368 1.955.534 3.626-1.85 3.722l-4.013.16c-2.383.097-5.932 1.286-7.89 2.651l-3.291 2.293c-1.957 1.364-3.633.539-3.728-1.845l-.16-4.007c-.091-2.383-1.288-5.929-2.65-7.88l-2.302-3.287c-1.369-1.948-.532-3.627 1.848-3.72M2.806 19.604l3.881.59c2.304.356 5.932-.124 8.065-1.072l3.588-1.587c2.128-.945 3.58.17 3.226 2.468l-.596 3.877c-.355 2.298.13 5.919 1.076 8.047l1.589 3.585c.945 2.125-.164 3.581-2.47 3.225l-3.879-.596c-2.306-.356-5.929.126-8.06 1.073l-3.59 1.588c-2.134.942-3.585-.163-3.23-2.468l.598-3.874c.352-2.3-.132-5.92-1.077-8.05L.34 22.83c-.948-2.128.163-3.58 2.467-3.224M928.601 92.07c-1.946 5.905 1.274 12.269 7.188 14.209 5.91 1.944 12.282-1.274 14.225-7.176 1.947-5.906-1.274-12.266-7.186-14.208-5.912-1.943-12.282 1.271-14.227 7.175M83.97 94.527a5.77 5.77 0 0 0-6.58 4.824c-.484 3.14 1.678 6.081 4.829 6.563 3.148.483 6.096-1.673 6.578-4.816a5.764 5.764 0 0 0-4.826-6.57"/></g></g></g></g><path fill="#35363A" d="M0 0h1200v80H0zm0 550h1200v80H0z"/><rect width="768.619" height="151.818" x="216.639" y="250.206" fill="#28A745" rx="20"/><path fill="#1E7E34" fill-rule="nonzero" d="M965.291 250.206c11.027 0 19.967 8.926 19.967 19.936v111.945c0 11.01-8.94 19.937-19.967 19.937H236.606c-11.028 0-19.967-8.926-19.967-19.937V270.142c0-11.01 8.94-19.936 19.967-19.936H965.29Z"/><path fill="url(#o)" d="M965.291 255.19H236.606c-8.27 0-14.975 6.694-14.975 14.952v111.945c0 8.258 6.704 14.953 14.975 14.953H965.29c8.27 0 14.975-6.695 14.975-14.953V270.142c0-8.258-6.704-14.952-14.975-14.952Z"/><text text-anchor="middle" alignment-baseline="middle" fill="#FFF" font-family="Menlo,Monaco,Consolas,'Liberation Mono','Courier New'" font-size="30">
                <tspan x="600" y="600">NO_CREDIT_CARD</tspan>
            </text><text text-anchor="middle" alignment-baseline="middle" fill="#E9ECEF" font-family="'Nunito Sans',BlinkMacSystemFont,'Segoe UI',Roboto,'Helvetica Neue',Arial" font-size="56" font-weight="bold">
                <tspan x="600" y="495">PRIVATE_BUSINESS</tspan>
            </text><text text-anchor="middle" alignment-baseline="middle" fill="#E9ECEF" font-family="'Nunito Sans',BlinkMacSystemFont,'Segoe UI',Roboto,'Helvetica Neue',Arial" font-size="85" font-weight="bold">
                <tspan x="600" y="355">FREE_EMAIL</tspan>
            </text><rect width="1160" height="60" x="22" y="11" fill="#202124" rx="30"/><path fill="#28A745" fill-rule="nonzero" d="M75.136 39.001h-1.393v-4.205c0-4.895-3.96-8.878-8.825-8.878-4.865 0-8.824 3.983-8.824 8.878V39H54.7a2.796 2.796 0 0 0-2.787 2.804v11.214a2.796 2.796 0 0 0 2.787 2.804h20.436a2.796 2.796 0 0 0 2.787-2.804V41.805A2.796 2.796 0 0 0 75.136 39Zm-5.883.295h-8.67v-4.328a4.337 4.337 0 0 1 4.335-4.328 4.337 4.337 0 0 1 4.335 4.328v4.328Z"/><text alignment-baseline="middle" fill="#FFF" font-family="Menlo,Monaco,Consolas,'Liberation Mono','Courier New'" font-size="24">
                <tspan x="213" y="50">forwardemail.net</tspan>
            </text><path fill="#8CC53F" fill-rule="nonzero" d="M453.766 201.29c-2.123.982-4.697 6.087-7.907 4.903-3.21-1.183-9.714-11.978-10.798-13.01-1.174-1.116-2.093-1.494-2.639-.912-.546.584-.166 1.484-.166 1.484s-1.653-1.863-2.917-.662c-1.195 1.136-.004 2.628-.004 2.628s-1.57-.048-2.293.859c-.55.689 4.435 5.761 7.159 9.63 2.462 3.496 8.702 12.52 15.243 10.498 6.542-2.023 11.527-6.381 10.661-9.686-.864-3.304-3.412-7.087-6.34-5.732m64.47 0c2.123.982 4.697 6.087 7.907 4.903 3.209-1.183 9.715-11.978 10.798-13.01 1.175-1.116 2.093-1.494 2.639-.912.546.584.166 1.484.166 1.484s1.652-1.863 2.917-.662c1.194 1.136.003 2.628.003 2.628s1.57-.048 2.293.859c.55.689-4.435 5.761-7.158 9.63-2.462 3.496-8.703 12.52-15.244 10.498-6.541-2.023-11.526-6.381-10.66-9.686.865-3.304 3.412-7.087 6.34-5.732"/><path fill="#B6D351" fill-rule="nonzero" d="M456 247.487c3.417-.153 6.537-2.033 5.898-.037-.64 1.995 1.183 1.978 3.035.444.78-.645 8.273-.477 9.31.163 2.11 1.304-.658-4.94-2.6-7.413-1.944-2.475-7.707 2.695-15.643 6.843"/><path fill="#B6D351" fill-rule="nonzero" d="M463.696 248.165H456v-1.802h7.696v1.802ZM519 244.758c-3.41-.147-5.933 1.67-5.297 3.582-1.046-3.137 1.386 2.676-2.146-.13-.107-.087-7.354-1.269-9.286-.123-2.105 1.249.655-4.734 2.594-7.103 1.938-2.37 6.218-.201 14.135 3.774"/><path fill="#B6D351" fill-rule="nonzero" d="M519 247h-9v-4l8.7 1.598z"/><path fill="url(#p)" fill-rule="nonzero" d="M34.552 186.33c5.565-5.124 10.523-16.811-1.977-23.219-3.281-1.679-3.176-2.883-1.09-2.643 2.31.266 6.336 4.249 6.983 3.803.569-.393-.917-1.595-1.284-3.808-.215-1.294.371-1.146 1.395-.417 1.435 1.02 3.697 4.097 4.894 4.14.67.022 2.03-1.245 3.322-2.512 1.997-1.957 3.84-3.915 2.754-1.116-4.098 10.555-2.037 15.3 12.094 15.13.275-.016.568-.024.896-.016.33-.008.622 0 .899.016 14.13.17 16.191-4.575 12.094-15.13-1.087-2.799.754-.841 2.752 1.116 1.292 1.267 2.651 2.534 3.322 2.512 1.199-.043 3.46-3.414 4.894-4.433.693-.493.992-.385 1.139-.276.083.061.117.122.147.074-.522 2.247-1.989 5.528-1.465 5.89.647.446 7.293-5.292 9.605-5.558 2.086-.24 1.026 1.841-2.254 3.52-12.501 6.408-8.708 17.803-3.143 22.926-.123 1.114-14.056 1.671-27.99 1.671-13.932 0-27.866-.557-27.987-1.67M87.897 159c-.06.356-.083.505-.111.551.043-.182.08-.366.111-.551" transform="matrix(1 0 0 -1 425 408)"/><path fill="url(#q)" fill-rule="nonzero" d="M20 129.5C20 106.09 39.092 87 62.498 87 85.906 87 105 106.091 105 129.5c0 23.408-19.092 42.5-42.5 42.5S20 152.908 20 129.5" transform="matrix(1 0 0 -1 425 320)"/><path fill="#1A1A1A" fill-rule="nonzero" d="M504.5 188a3.506 3.506 0 0 0 3.5-3.5 3.506 3.506 0 0 0-3.5-3.5 3.506 3.506 0 0 0-3.5 3.5 3.507 3.507 0 0 0 3.5 3.5"/><path fill="#FFF" fill-rule="nonzero" d="M506.021 184a1.01 1.01 0 0 0 .979-1 1.01 1.01 0 0 0-.979-1 1.01 1.01 0 0 0-1.021 1c0 .552.457 1 1.021 1"/><path fill="#1A1A1A" fill-rule="nonzero" d="M471.5 188a3.507 3.507 0 0 0 3.5-3.5 3.507 3.507 0 0 0-3.5-3.5 3.506 3.506 0 0 0-3.5 3.5 3.507 3.507 0 0 0 3.5 3.5"/><path fill="#FFF" fill-rule="nonzero" d="M473 184c.559-.023 1-.464 1-1s-.441-.977-1-1c-.559.023-1 .464-1 1s.441.977 1 1"/><path fill="#1A1A1A" fill-rule="nonzero" d="M493.665 196.216a.973.973 0 0 0-1.334.104c-.017.018-1.73 1.86-4.844 1.86-3.324 0-4.65-1.613-4.781-1.785a.979.979 0 0 0-1.293-.197.887.887 0 0 0-.273 1.226c.074.105 1.862 2.576 6.347 2.576 4.02 0 6.196-2.396 6.285-2.495a.89.89 0 0 0-.106-1.289"/><path fill="url(#r)" fill-rule="nonzero" d="M229.448 133.774c-.604-.248-.968.23-1.336.708-.366.472-.735.944-1.346.716-1.52-.568.13-2.302-1.066-3-.434-.253-.706-.09-.998.072-.302.167-.625.336-1.175.043-1.997-1.064 1.908-11.55 7.926-16.271 6.148-4.825 16.496-3.26 24.361.195 6.082 2.67 5.553 8.665-1.696 6.238-7.252-2.428-12.903-2.535-17.806 2.917-5.439 6.049-2.783 10.34-4.67 10.585a2.542 2.542 0 0 1-.317.023c-1.426 0-.443-1.637-1.877-2.226" transform="matrix(1 0 0 -1 425 310)"/><path fill="url(#s)" fill-rule="nonzero" d="M323.291 146.118c5.608-1.6 9.212-3.993 9.958-9.63.829-6.253-2.685-7.852-1.603-8.831.625-.565.893-.238 1.245.09.259.24.562.48 1.083.369.967-.208.106-1.844 1.077-2.083.635-.157.852.279 1.07.716.196.39.393.779.89.746.778-.054.39-.92 1.318-1.02 1.714-.186 3.756 8.247 1.994 13.901-1.8 5.777-8.987 9.279-15.423 10.487a7.64 7.64 0 0 1-1.415.137c-3.931 0-5.236-3.444-.194-4.882" transform="matrix(1 0 0 -1 425 338)"/><path fill="url(#t)" fill-rule="nonzero" d="M287.617 186.98c-16.016-.388-30.7-10.892-33.353-23.98-3.973-19.609-.46-60.95-.46-60.95h.044c.185-6.429.272-13.454-.172-14.864-.853-2.715-3.354-2.847-2.501-4.153.92-1.407 3.172-.022 3.172-.022s-.65-2.497 2.06-2.949c2.668-.443 2.73 1.622 2.73 1.622s2.447-.723 3.307.436c1.05 1.414-.577 1.843-1.26 3.2-.683 1.358-.272 8.076.725 11.66.697 2.506 5.61 5.104 8.848 5.823 12.274 2.724 24.213 2.788 37.067.677 3.016-.495 9.197-3.33 10.082-6.342 1.045-3.571 1.55-10.283.885-11.65-.662-1.365-2.285-1.819-1.215-3.217.876-1.146 3.306-.39 3.306-.39s.098-2.065 2.761-1.584c2.704.49 2.016 2.685 2.016 2.685s2.271-1.063 3.173.357c.835 1.317-1.668 1.417-2.558 4.118-.482 1.458-.475 8.986-.368 15.609l.076.001s4.08 38.594-3.237 59.32C316.143 181.093 304.971 187 289.22 187c-.528 0-1.063-.008-1.602-.02" transform="matrix(1 0 0 -1 425 328)"/><path fill="#1A1A1A" fill-rule="nonzero" d="M730.5 180a3.506 3.506 0 0 0 3.5-3.5 3.506 3.506 0 0 0-3.5-3.5 3.506 3.506 0 0 0-3.5 3.5 3.507 3.507 0 0 0 3.5 3.5"/><path fill="#FFF" fill-rule="nonzero" d="M731.979 176c.561 0 1.021-.45 1.021-1 0-.551-.46-1-1.021-1a1.01 1.01 0 0 0-.979 1c0 .536.432.976.979 1"/><path fill="#1A1A1A" fill-rule="nonzero" d="M696.5 180a3.507 3.507 0 0 0 3.5-3.5 3.506 3.506 0 0 0-3.5-3.5 3.507 3.507 0 0 0-3.5 3.5 3.508 3.508 0 0 0 3.5 3.5"/><path fill="#FFF" fill-rule="nonzero" d="M698.005 176c.558-.028.995-.467.995-1 0-.533-.437-.972-.995-1-.562.023-1.005.464-1.005 1s.443.976 1.005 1"/><path fill="#1A1A1A" fill-rule="nonzero" d="M719.667 188.217a.974.974 0 0 0-1.335.103c-.018.018-1.73 1.86-4.845 1.86-3.325 0-4.65-1.612-4.781-1.785a.98.98 0 0 0-1.293-.197.887.887 0 0 0-.273 1.226c.074.106 1.862 2.576 6.347 2.576 4.022 0 6.197-2.396 6.285-2.495a.889.889 0 0 0-.106-1.288"/><path fill="#27A9E0" fill-rule="nonzero" d="M663 248.5c0 .827-.654 1.5-1.46 1.5H542.462a1.455 1.455 0 0 1-1.266-.75 1.534 1.534 0 0 1 0-1.5c.261-.464.744-.75 1.266-.75H661.54c.388 0 .759.158 1.033.44.273.28.427.662.427 1.06"/><path fill="#8CC53F" fill-rule="nonzero" d="M537 248.535a1.46 1.46 0 0 1-1.454 1.465h-86.949c-.52 0-1-.28-1.26-.732a1.473 1.473 0 0 1 0-1.465c.26-.454.74-.733 1.26-.733h86.949c.386 0 .756.154 1.029.43.273.274.425.647.425 1.035m-93.821-.035c0 .828-.664 1.5-1.487 1.5H426.49a1.496 1.496 0 0 1-1.491-1.5c0-.828.668-1.5 1.491-1.5h15.2c.824 0 1.488.673 1.488 1.5"/><path fill="#F6931E" fill-rule="nonzero" d="M763.663 248.5c0 .827-.654 1.5-1.46 1.5h-93.74c-.388 0-.76-.158-1.035-.44a1.52 1.52 0 0 1-.428-1.06c0-.398.153-.78.428-1.062a1.441 1.441 0 0 1 1.035-.438h93.74c.387 0 .76.158 1.033.44.274.28.427.662.427 1.06m3.787 0c0 .827.654 1.5 1.461 1.5h4.627c.81 0 1.462-.673 1.462-1.5 0-.398-.153-.78-.427-1.061a1.442 1.442 0 0 0-1.035-.439h-4.627c-.388 0-.76.158-1.034.44a1.516 1.516 0 0 0-.426 1.06"/><path fill="url(#u)" fill-rule="nonzero" d="M176.5 188a2.46 2.46 0 0 1-.392-.034c-73.533-5.456-72.507-75.15-70.531-103.504.162-2.285 11.026-84.424 18.96-84.462 10.954-.052 5.479 14.753 5.479 14.753s16.911-4.86 46.092-5.051v-.008c.133.001.26.003.392.003s.259-.002.393-.003v.008c29.18.19 46.09 5.05 46.09 5.05S217.51-.051 228.464 0c7.934.038 18.8 82.177 18.96 84.462 1.977 28.354 3 98.048-70.53 103.504 0 0-.216.034-.353.034h-.04" transform="matrix(1 0 0 -1 425 249)"/><path fill="#1A1A1A" fill-rule="nonzero" d="M632.501 134c3.58 0 6.499-2.921 6.499-6.5 0-3.582-2.92-6.5-6.5-6.5-3.579 0-6.5 2.92-6.5 6.5 0 3.579 2.921 6.5 6.501 6.5"/><path fill="#FFF" fill-rule="nonzero" d="M635.001 127a2.004 2.004 0 0 0 1.999-2c0-1.1-.898-2-1.999-2-1.105.002-2 .897-2.001 2 0 1.1.898 2 2.001 2"/><path fill="#1A1A1A" fill-rule="nonzero" d="M571.5 134c3.58 0 6.5-2.921 6.5-6.5 0-3.582-2.92-6.5-6.5-6.5s-6.5 2.918-6.5 6.5c0 3.579 2.92 6.5 6.5 6.5"/><path fill="#FFF" fill-rule="nonzero" d="M574.002 127a2.003 2.003 0 0 0 1.998-2 2.001 2.001 0 1 0-1.998 2"/><path fill="#1A1A1A" fill-rule="nonzero" d="M613.41 146.432c-.705-.643-1.756-.55-2.357.208-.029.036-3.053 3.718-8.552 3.718-5.87 0-8.21-3.223-8.444-3.566-.382-.608-1.066-.906-1.73-.752-.665.153-1.178.727-1.299 1.452-.081.472.014.96.265 1.357.131.21 3.288 5.151 11.209 5.151 7.098 0 10.94-4.791 11.097-4.992.601-.768.517-1.92-.188-2.575"/><path fill="#A6A8AB" fill-rule="nonzero" d="M636 190.705 602 211l-34-20.295c0-.015 0-.038.004-.055.028-.128 1.903-1.715 4.767-4.068.027-.021.05-.043.076-.067C582.237 178.8 602 163 602 163s19.762 15.8 29.15 23.516c2.908 2.387 4.818 4 4.844 4.135a.222.222 0 0 1 .006.054"/><path fill="#FFF" fill-rule="nonzero" d="M588.145 213h37.093a5.788 5.788 0 0 0 4.074-1.673 5.679 5.679 0 0 0 1.686-4.037l.002-40.577a5.683 5.683 0 0 0-1.686-4.039 5.793 5.793 0 0 0-4.076-1.674H578.76a5.79 5.79 0 0 0-4.074 1.674 5.68 5.68 0 0 0-1.686 4.038v31.272L588.145 213Z"/><path fill="#D0D2D3" fill-rule="nonzero" d="M636 190v32.83c0 2.295-1.864 4.17-4.143 4.17h-59.726c-2.28 0-4.131-1.876-4.131-4.17V190l34 20.177L636 190Z"/><path fill="#F3F3F3" fill-rule="nonzero" d="m635 225.712-21.981-21.71-11.016 6.416L590.98 204 569 225.711a4.148 4.148 0 0 0 3.001 1.289h59.992a4.16 4.16 0 0 0 3.007-1.289"/><path fill="#179AC8" fill-rule="nonzero" d="M532.021 172.64c.764 18.007 7.343 38.93 22.03 46.02 14.372 6.943 37.596 4.554 37.752-.19.085-2.57-2.367-1.838-2.213-3.98.208-2.898 4.97-1.404 4.64-4.79-.272-2.743-4.951-1.013-5.133-3.726-.232-3.46 4.299-2.855 2.107-6.177-2.19-3.32-7.786 5.66-24.113 1.04-14.716-4.163-19.712-14.9-21.83-30.794-2.118-15.896-13.829-11.326-13.24 2.596m139.958 0c-.762 18.008-7.342 38.932-22.027 46.022-14.375 6.942-37.598 4.553-37.754-.19-.085-2.57 2.367-1.839 2.213-3.98-.21-2.9-4.974-1.405-4.64-4.792.272-2.742 4.95-1.012 5.132-3.726.233-3.46-4.297-2.855-2.108-6.175 2.194-3.32 7.788 5.66 24.114 1.039 14.716-4.163 19.712-14.9 21.83-30.794 2.118-15.896 13.829-11.326 13.24 2.596"/><path fill="#27A9E0" fill-rule="nonzero" d="M532.021 171.639c.764 18.008 7.343 38.931 22.03 46.022 14.372 6.94 37.596 4.554 37.752-.19.085-2.57-2.367-1.838-2.213-3.982.208-2.897 4.97-1.404 4.64-4.79-.272-2.743-4.951-1.011-5.133-3.727-.232-3.46 4.299-2.854 2.107-6.177-2.19-3.318-7.786 5.662-24.113 1.041-14.716-4.162-19.712-14.898-21.83-30.793-2.118-15.897-13.829-11.325-13.24 2.597m139.958-.001c-.762 18.008-7.342 38.931-22.027 46.022-14.375 6.94-37.598 4.554-37.754-.19-.085-2.57 2.367-1.84 2.213-3.982-.21-2.897-4.974-1.404-4.64-4.79.272-2.743 4.95-1.011 5.132-3.727.233-3.46-4.297-2.854-2.108-6.177 2.194-3.318 7.788 5.662 24.114 1.041 14.716-4.162 19.712-14.898 21.83-30.793 2.118-15.896 13.829-11.325 13.24 2.597"/><path fill="url(#v)" d="m176.915 123.79-1.721 1.171-1.194-.98 2.86-2.981.007.005.004-.005 5.129 4.874-.916 1.126z" transform="matrix(1 0 0 -1 425 309)"/><path fill="url(#w)" d="M165 123.499c0-6.9 5.596-12.499 12.499-12.499 6.904 0 12.501 5.596 12.501 12.499 0 6.904-5.597 12.501-12.501 12.501-6.903 0-12.499-5.597-12.499-12.501m5.609 3.975 6.89 2.934h.001l6.89-2.934s-.459-10.88-6.89-10.88c-6.433 0-6.891 10.882-6.891 10.882" transform="matrix(1 0 0 -1 425 308)"/><path fill="#2AA9DF" fill-rule="nonzero" d="M663.768 238v-1.763H663V236h1.846v.237h-.77V238h-.308Zm1.079 0v-2h.448l.535 1.416c.049.132.086.23.108.296a11.3 11.3 0 0 1 .12-.32l.54-1.392H667v2h-.288v-1.674l-.656 1.674h-.27l-.652-1.702V238h-.288Z"/><text alignment-baseline="middle" fill="#8F9192" font-family="Menlo,Monaco,Consolas,'Liberation Mono','Courier New'" font-size="24">
                <tspan x="97.41" y="50">https://</tspan>
            </text><path fill="#FFF" fill-rule="nonzero" d="M1140.085 28.92c-1.034 0-1.87.835-1.87 1.87v1.121c-4.264.865-7.477 4.638-7.477 9.16v1.098a11.24 11.24 0 0 1-2.834 7.454l-.432.485a1.876 1.876 0 0 0-.31 2.01c.298.672.97 1.104 1.706 1.104h22.433c.736 0 1.402-.432 1.706-1.104a1.865 1.865 0 0 0-.31-2.01l-.432-.485a11.232 11.232 0 0 1-2.834-7.454v-1.098c0-4.522-3.213-8.295-7.477-9.16v-1.122a1.867 1.867 0 0 0-1.87-1.869Zm2.646 28.818a3.74 3.74 0 0 0 1.092-2.647h-7.478a3.74 3.74 0 0 0 1.093 2.647 3.74 3.74 0 0 0 2.647 1.092 3.74 3.74 0 0 0 2.646-1.092Z"/><ellipse cx="1153.5" cy="31" fill="red" fill-rule="nonzero" stroke="#202124" stroke-width="2" rx="11.5" ry="12"/><path fill="#E9ECEF" fill-rule="nonzero" d="M1149 27.623v-1.549c1.474-.142 2.503-.38 3.085-.712.582-.333 1.017-1.12 1.304-2.362H1155v16h-2.178V27.623H1149Z"/><path fill="#1DA1F2" fill-rule="nonzero" d="M1005 251.172c0 1.748-.42 3.369-1.26 4.853-.84 1.485-1.963 2.647-3.379 3.457.04.264.059.674.059 1.23 0 2.647-.889 4.893-2.647 6.749-1.767 1.865-3.896 2.793-6.386 2.793a8.362 8.362 0 0 1-3.184-.615 9.685 9.685 0 0 1-3.379 3.877A8.396 8.396 0 0 1 980 275c-1.787 0-3.408-.479-4.854-1.455-1.455-.967-2.568-2.266-3.35-3.906a8.326 8.326 0 0 1-3.183.615c-2.49 0-4.629-.928-6.416-2.793-1.787-1.856-2.676-4.111-2.676-6.748 0-.293.04-.703.108-1.23-1.416-.82-2.54-1.973-3.379-3.458a9.791 9.791 0 0 1-1.25-4.853c0-1.856.469-3.565 1.396-5.108.928-1.543 2.178-2.685 3.74-3.427a9.657 9.657 0 0 1-.615-3.35c0-2.637.89-4.892 2.676-6.748 1.787-1.855 3.926-2.793 6.416-2.793 1.114 0 2.178.205 3.184.615a9.685 9.685 0 0 1 3.379-3.877c1.465-.986 3.076-1.484 4.824-1.484 1.748 0 3.36.498 4.824 1.475a9.76 9.76 0 0 1 3.38 3.877 8.326 8.326 0 0 1 3.183-.616c2.49 0 4.619.928 6.386 2.793 1.768 1.866 2.647 4.112 2.647 6.748 0 1.23-.186 2.344-.557 3.35 1.563.742 2.813 1.885 3.74 3.428.928 1.552 1.397 3.261 1.397 5.117Zm-25.808 7.981 10.514-15.406c.269-.409.348-.856.259-1.333-.1-.477-.348-.857-.766-1.11a1.973 1.973 0 0 0-1.363-.282 1.75 1.75 0 0 0-1.194.72l-9.26 13.625-4.268-4.165c-.378-.37-.816-.545-1.304-.525a2.033 2.033 0 0 0-1.303.525c-.338.331-.507.75-.507 1.256 0 .496.17.914.507 1.255l5.86 5.732.288.224c.338.224.686.331 1.025.331.666-.01 1.173-.282 1.512-.847Z"/><path fill="#FFF" fill-rule="nonzero" d="M980 220c2.734 0 5.31.79 7.617 2.327a14.963 14.963 0 0 1 2.777 2.406l.032.038.084-.007c.146-.01.291-.016.437-.02l.44-.008c3.876 0 7.313 1.502 10.016 4.354 2.653 2.8 4.017 6.28 4.017 10.187 0 .328-.01.652-.028.972l-.011.137.11.1a13.979 13.979 0 0 1 2.173 2.632l.232.372c1.395 2.335 2.104 4.93 2.104 7.682 0 2.606-.64 5.076-1.908 7.316a14.519 14.519 0 0 1-2.434 3.2l-.286.272-.03.346c-.31 3.134-1.55 5.95-3.67 8.302l-.27.292c-2.702 2.852-6.139 4.354-10.015 4.354-.293 0-.585-.01-.874-.028l-.082-.006-.173.193a14.596 14.596 0 0 1-2.263 1.99l-.36.247A13.395 13.395 0 0 1 980 280c-2.782 0-5.378-.775-7.62-2.29a14.332 14.332 0 0 1-2.654-2.27l-.194-.217-.042.004c-.146.009-.291.016-.437.02l-.44.007c-3.869 0-7.306-1.495-10.017-4.324-2.41-2.503-3.774-5.576-4.03-9.013l-.001-.013-.245-.234a14.459 14.459 0 0 1-2.202-2.808l-.232-.396a14.79 14.79 0 0 1-1.886-7.294c0-2.755.712-5.356 2.111-7.684a14.032 14.032 0 0 1 2.399-2.993l.061-.057-.019-.217c-.01-.155-.018-.31-.023-.467l-.008-.467c0-3.925 1.386-7.425 4.075-10.217 2.722-2.826 6.157-4.324 10.017-4.324.293 0 .585.01.874.028l.082.006.04-.045a14.676 14.676 0 0 1 2.391-2.134l.383-.264c2.289-1.541 4.872-2.337 7.617-2.337Zm0 5c-1.748 0-3.36.498-4.824 1.484a9.685 9.685 0 0 0-3.38 3.877 8.362 8.362 0 0 0-3.183-.615c-2.49 0-4.629.938-6.416 2.793-1.787 1.856-2.676 4.111-2.676 6.748 0 1.113.206 2.236.616 3.35-1.563.742-2.813 1.884-3.74 3.427-.928 1.543-1.397 3.252-1.397 5.108a9.79 9.79 0 0 0 1.25 4.853c.84 1.485 1.963 2.637 3.379 3.457-.068.528-.108.938-.108 1.23 0 2.638.89 4.893 2.676 6.749 1.787 1.865 3.926 2.793 6.416 2.793a8.326 8.326 0 0 0 3.184-.615c.781 1.64 1.894 2.94 3.35 3.906 1.445.976 3.066 1.455 4.853 1.455 1.748 0 3.36-.488 4.824-1.484a9.685 9.685 0 0 0 3.38-3.877 8.36 8.36 0 0 0 3.183.615c2.49 0 4.619-.928 6.386-2.793 1.758-1.856 2.647-4.102 2.647-6.748 0-.557-.02-.967-.059-1.23 1.416-.811 2.54-1.973 3.38-3.458.84-1.484 1.259-3.105 1.259-4.853 0-1.856-.469-3.565-1.396-5.117-.928-1.543-2.178-2.686-3.74-3.428.37-1.006.556-2.12.556-3.35 0-2.636-.879-4.882-2.647-6.748-1.767-1.865-3.896-2.793-6.386-2.793a8.326 8.326 0 0 0-3.184.616 9.76 9.76 0 0 0-3.379-3.877C983.36 225.498 981.748 225 980 225Zm7.836 16.022c.487-.068.945.02 1.363.282.418.253.666.633.766 1.11.09.477.01.924-.259 1.333l-10.514 15.406c-.339.565-.846.837-1.512.847a1.85 1.85 0 0 1-1.025-.33l-.289-.225-5.859-5.732a1.713 1.713 0 0 1-.507-1.255c0-.507.17-.925.507-1.256.378-.33.806-.506 1.303-.525.488-.02.926.155 1.304.525l4.267 4.165 9.261-13.625a1.75 1.75 0 0 1 1.194-.72Z"/><g fill="url(#x)" stroke="#FFF" transform="translate(836 256)"><circle cx="101.5" cy="101.5" r="43.5" opacity=".485"/><circle cx="101.5" cy="101.5" r="65.5" opacity=".485"/><circle cx="101.5" cy="101.5" r="101.5" opacity=".235"/></g><path fill="#FFF" fill-rule="nonzero" d="M930.147 359.188c0-3.972 3.236-7.188 7.231-7.188 3.996 0 7.232 3.216 7.232 7.188v26.63a8.673 8.673 0 0 1 5.785-2.193 8.689 8.689 0 0 1 8.136 5.606c1.59-1.67 3.833-2.731 6.328-2.731 4.574 0 8.316 3.504 8.66 7.96a8.647 8.647 0 0 1 5.803-2.21c4.791 0 8.678 3.863 8.678 8.625V421c0 12.704-10.36 23-23.141 23h-15.422c-.904 0-1.79-.054-2.657-.18-9.998-1.006-19.2-6.11-25.311-14.195l-13.017-17.25c-2.405-3.18-1.754-7.673 1.446-10.063a7.25 7.25 0 0 1 10.124 1.438l10.125 13.423v-57.986ZM950 406.875c0-1.581-1.35-2.875-3-2.875s-3 1.294-3 2.875v17.25c0 1.581 1.35 2.875 3 2.875s3-1.294 3-2.875v-17.25Zm9-2.875c-1.65 0-3 1.294-3 2.875v17.25c0 1.581 1.35 2.875 3 2.875s3-1.294 3-2.875v-17.25c0-1.581-1.35-2.875-3-2.875Zm14 2.875c0-1.581-1.35-2.875-3-2.875s-3 1.294-3 2.875v17.25c0 1.581 1.35 2.875 3 2.875s3-1.294 3-2.875v-17.25Z"/><path fill="#000" fill-rule="nonzero" d="M937.378 342c9.505 0 17.232 7.68 17.232 17.188v14.916l.213.05c2.14.52 4.149 1.41 5.946 2.606l.214.145.056-.011a18.665 18.665 0 0 1 3.387-.389l.433-.005c5.226 0 9.978 2.145 13.382 5.624l.142.149.04-.002c.15-.007.3-.012.449-.016l.45-.005c10.3 0 18.678 8.327 18.678 18.625V421c0 18.24-14.85 33-33.141 33h-15.422a28.64 28.64 0 0 1-3.822-.245l-.427-.048a46.276 46.276 0 0 1-31.34-17.587l-.362-.471-13.011-17.243c-5.753-7.61-4.199-18.402 3.44-24.106 4.753-3.55 10.738-4.283 15.956-2.484l.275.098v-32.726c0-9.399 7.551-17.011 16.905-17.185l.327-.003Zm0 10c-3.995 0-7.231 3.216-7.231 7.188v57.985l-10.125-13.423a7.25 7.25 0 0 0-10.124-1.438 7.149 7.149 0 0 0-1.446 10.063l13.017 17.25c6.11 8.086 15.313 13.19 25.31 14.195.868.126 1.754.18 2.658.18h15.422C977.64 444 988 433.704 988 421v-20.125c0-4.762-3.887-8.625-8.678-8.625a8.647 8.647 0 0 0-5.803 2.21c-.344-4.456-4.086-7.96-8.66-7.96-2.495 0-4.737 1.06-6.328 2.731a8.689 8.689 0 0 0-8.136-5.606 8.673 8.673 0 0 0-5.785 2.192v-26.63c0-3.97-3.236-7.187-7.232-7.187ZM947 404c1.65 0 3 1.294 3 2.875v17.25c0 1.581-1.35 2.875-3 2.875s-3-1.294-3-2.875v-17.25c0-1.581 1.35-2.875 3-2.875Zm12 0c1.65 0 3 1.294 3 2.875v17.25c0 1.581-1.35 2.875-3 2.875s-3-1.294-3-2.875v-17.25c0-1.581 1.35-2.875 3-2.875Zm11 0c1.65 0 3 1.294 3 2.875v17.25c0 1.581-1.35 2.875-3 2.875s-3-1.294-3-2.875v-17.25c0-1.581 1.35-2.875 3-2.875Z"/></g></svg>
