<svg width="241" height="99" xmlns="http://www.w3.org/2000/svg"><g fill="none"><path d="m0 13.135.313 55.798S.019 92.387 25.484 97.33c14.646 2.843 42.347-3.75 42.347-3.75l-.22-80.504H45.334v62.639H24.381V34.25h-9.043l10.587-21.394L0 13.136Z" fill="#E95420"/><path d="M106.401 38.905c-1.09.272-2.539.562-4.345.869-1.772.306-3.834.46-6.186.46-2.045 0-3.766-.29-5.163-.87-1.398-.613-2.522-1.465-3.375-2.555-.852-1.091-1.465-2.37-1.84-3.835-.375-1.5-.562-3.152-.562-4.959V13.087h4.754v13.906c0 3.238.511 5.555 1.534 6.953 1.022 1.397 2.743 2.096 5.163 2.096.511 0 1.04-.017 1.585-.051a173.61 173.61 0 0 0 1.534-.103c.477-.068.903-.119 1.278-.153.409-.068.698-.136.869-.204V13.087h4.754v25.818M118.1 14.263c.58-.375 1.448-.766 2.607-1.176 1.193-.408 2.556-.613 4.09-.613 1.909 0 3.596.34 5.061 1.022a10.52 10.52 0 0 1 3.783 2.863c1.023 1.227 1.79 2.693 2.3 4.397.546 1.704.819 3.579.819 5.623 0 2.148-.324 4.09-.971 5.829-.614 1.704-1.5 3.152-2.659 4.345-1.159 1.193-2.556 2.113-4.192 2.76-1.636.648-3.476.972-5.521.972-2.216 0-4.175-.153-5.88-.46-1.703-.307-3.1-.614-4.191-.92V.818L118.099 0v14.263m0 21.267c.477.137 1.142.273 1.994.41.886.102 1.977.153 3.272.153 2.556 0 4.6-.835 6.134-2.505 1.534-1.704 2.301-4.107 2.301-7.209 0-1.363-.136-2.64-.409-3.834-.273-1.193-.716-2.215-1.33-3.067a6.09 6.09 0 0 0-2.402-2.045c-.954-.511-2.113-.767-3.476-.767-1.295 0-2.488.222-3.579.665-1.09.443-1.926.903-2.505 1.38v16.82m45.941 3.374c-1.09.272-2.539.562-4.345.869-1.772.306-3.834.46-6.186.46-2.045 0-3.766-.29-5.164-.87-1.397-.613-2.522-1.465-3.374-2.555-.852-1.091-1.465-2.37-1.84-3.835-.375-1.5-.562-3.152-.562-4.959V13.087h4.754v13.906c0 3.238.511 5.555 1.534 6.953 1.022 1.397 2.743 2.096 5.163 2.096.511 0 1.04-.017 1.585-.051.545-.034 1.056-.069 1.534-.103.477-.068.903-.119 1.278-.153.409-.068.698-.136.869-.204V13.087h4.754v25.818m7.567-25.05c1.09-.273 2.54-.563 4.346-.87 1.806-.306 3.885-.46 6.237-.46 2.113 0 3.868.307 5.265.92 1.398.58 2.505 1.415 3.323 2.505.852 1.057 1.449 2.335 1.79 3.835.34 1.5.511 3.152.511 4.959V39.67h-4.754V25.766c0-1.636-.12-3.033-.358-4.192-.205-1.159-.563-2.096-1.074-2.812a4.196 4.196 0 0 0-2.045-1.534c-.852-.34-1.908-.51-3.17-.51-.51 0-1.039.016-1.584.05a22.71 22.71 0 0 0-1.585.154c-.477.034-.92.085-1.33.153-.374.068-.647.12-.817.153v22.443h-4.755V13.854m31.932-.767h10.072v3.988h-10.072v12.27c0 1.329.103 2.436.307 3.323.205.852.511 1.533.92 2.045.41.477.92.818 1.534 1.022.613.204 1.33.307 2.147.307 1.432 0 2.573-.154 3.425-.46.886-.341 1.5-.58 1.84-.716l.921 3.936c-.477.239-1.312.529-2.505.87-1.193.374-2.556.562-4.09.562-1.806 0-3.306-.222-4.499-.665-1.158-.477-2.096-1.176-2.811-2.096-.716-.92-1.227-2.045-1.534-3.374-.273-1.363-.41-2.931-.41-4.703V5.675l4.755-.818v8.23m36.663 25.818c-1.09.272-2.54.562-4.346.869-1.772.306-3.834.46-6.186.46-2.045 0-3.766-.29-5.163-.87-1.397-.613-2.522-1.465-3.374-2.555-.852-1.091-1.466-2.37-1.84-3.835-.376-1.5-.563-3.152-.563-4.959V13.087h4.754v13.906c0 3.238.512 5.555 1.534 6.953 1.023 1.397 2.744 2.096 5.164 2.096.51 0 1.04-.017 1.584-.051a173.58 173.58 0 0 0 1.534-.103c.477-.068.903-.119 1.278-.153.41-.068.699-.136.87-.204V13.087h4.754v25.818M108.078 62.21c0 2.113-.307 4.022-.92 5.726-.614 1.704-1.483 3.17-2.607 4.396a11.388 11.388 0 0 1-3.937 2.863c-1.534.648-3.204.971-5.01.971-1.806 0-3.476-.323-5.01-.97a11.914 11.914 0 0 1-3.988-2.864c-1.09-1.227-1.942-2.692-2.556-4.396-.613-1.704-.92-3.613-.92-5.726 0-2.08.307-3.97.92-5.675.614-1.738 1.466-3.22 2.556-4.448a11.323 11.323 0 0 1 3.988-2.811c1.534-.682 3.204-1.023 5.01-1.023 1.806 0 3.476.341 5.01 1.023a10.838 10.838 0 0 1 3.937 2.811c1.124 1.227 1.993 2.71 2.607 4.448.613 1.704.92 3.596.92 5.675m-4.959 0c0-3-.682-5.368-2.045-7.106-1.329-1.773-3.152-2.659-5.47-2.659-2.318 0-4.158.886-5.521 2.659-1.33 1.738-1.994 4.107-1.994 7.106 0 2.999.665 5.385 1.994 7.157 1.363 1.738 3.203 2.607 5.521 2.607s4.141-.869 5.47-2.607c1.363-1.772 2.045-4.158 2.045-7.157m10.4-12.525c1.091-.273 2.54-.563 4.346-.87 1.806-.306 3.885-.46 6.237-.46 2.113 0 3.868.307 5.266.92 1.397.58 2.505 1.415 3.323 2.506.852 1.056 1.448 2.334 1.789 3.834.34 1.5.511 3.153.511 4.959v14.928h-4.754V61.597c0-1.636-.12-3.033-.358-4.192-.205-1.159-.562-2.096-1.074-2.812a4.196 4.196 0 0 0-2.045-1.533c-.852-.341-1.908-.511-3.17-.511-.51 0-1.039.017-1.584.05-.545.035-1.074.086-1.585.154-.477.034-.92.085-1.33.153-.374.069-.647.12-.817.154v22.443h-4.754V49.686m26.625 12.576c0-2.352.34-4.397 1.023-6.135.681-1.772 1.584-3.238 2.71-4.396a11.002 11.002 0 0 1 3.884-2.608 12.151 12.151 0 0 1 4.5-.869c3.578 0 6.321 1.125 8.23 3.374 1.909 2.216 2.863 5.607 2.863 10.174v.818c0 .307-.017.596-.051.869h-18.2c.205 2.76 1.005 4.857 2.403 6.288 1.397 1.431 3.578 2.147 6.544 2.147 1.67 0 3.067-.136 4.192-.409 1.158-.307 2.028-.596 2.607-.869l.665 3.988c-.58.306-1.602.63-3.068.971-1.431.34-3.067.511-4.908.511-2.317 0-4.328-.34-6.032-1.022-1.67-.716-3.05-1.687-4.141-2.914-1.09-1.227-1.909-2.676-2.454-4.346-.511-1.704-.767-3.561-.767-5.572m18.251-2.607c.034-2.147-.511-3.903-1.636-5.266-1.09-1.397-2.607-2.096-4.55-2.096-1.09 0-2.062.222-2.914.665a6.583 6.583 0 0 0-2.096 1.635 8.07 8.07 0 0 0-1.38 2.352c-.307.886-.511 1.79-.614 2.71h13.19" fill="#1D1D1D"/></g></svg>