<?xml version="1.0" encoding="UTF-8"?>
<svg width="573px" height="78px" viewBox="0 0 573 78" version="1.1" xmlns="http://www.w3.org/2000/svg" xmlns:xlink="http://www.w3.org/1999/xlink">
    <title>ubuntu-studio 2</title>
    <g id="Page-1" stroke="none" stroke-width="1" fill="none" fill-rule="evenodd">
        <g id="ubuntu-studio-2" transform="translate(0.267360, 0.625000)" fill-rule="nonzero">
            <g id="ubuntu-studio">
                <path d="M572.465278,20.7633052 C572.465278,32.2305615 563.16923,41.5266094 551.701973,41.5266094 C540.234716,41.5266094 530.938668,32.2305615 530.938668,20.7633052 C530.938668,13.3452908 534.896131,6.49076272 541.32032,2.78175545 C547.744509,-0.927251818 555.659437,-0.927251818 562.083626,2.78175545 C568.507815,6.49076272 572.465278,13.3452908 572.465278,20.7633052 L572.465278,20.7633052 Z" id="path10060" fill="#009BF9"></path>
                <path d="M551.58665,8.56516028 C548.43091,8.56516028 545.28268,9.76138028 542.88553,12.1584803 C542.84613,12.1945803 542.81133,12.2288803 542.77543,12.2686203 C542.15676,12.9498603 542.20433,14.0042303 542.88553,14.6228803 C543.5668,15.2415403 544.62115,15.1939603 545.23982,14.5127303 C548.76057,10.9919503 554.42646,10.9919503 557.94724,14.5127303 C561.46799,18.0335203 561.46799,23.6993803 557.94724,27.2201303 C554.42646,30.7409403 548.76057,30.7409403 545.23982,27.2201303 C544.82139,26.7897303 544.19578,26.6269603 543.61522,26.7796003 C543.03471,26.9322303 542.58386,27.3830503 542.43123,27.9636103 C542.27862,28.5441403 542.45543,29.1559703 542.88553,29.5744103 C547.67982,34.3686503 555.50721,34.3686503 560.30145,29.5744103 C565.09573,24.7801403 565.09573,16.9527603 560.30145,12.1584803 C557.90435,9.76138028 554.74236,8.56516028 551.58665,8.56516028 L551.58665,8.56516028 Z M551.58665,14.3337503 C549.90957,14.3337503 548.23179,14.9764003 546.96074,16.2474303 C544.41868,18.7895103 544.41869,22.9571603 546.96074,25.4992203 C549.5028,28.0412803 553.67043,28.0412703 556.21251,25.4992203 C558.7546,22.9571603 558.7546,18.7895103 556.21251,16.2474303 C554.94148,14.9764003 553.26366,14.3337503 551.58665,14.3337503 L551.58665,14.3337503 Z M535.79527,14.8982403 C535.31042,14.9042403 534.83594,15.1169003 534.50114,15.5040003 C534.31908,15.7109903 534.18357,15.9665403 534.11565,16.2336903 C533.28394,19.3376503 533.28394,22.3263703 534.11565,25.4303803 C534.36555,26.3611403 535.31886,26.9193603 536.2496,26.6694503 C537.18036,26.4195803 537.73857,25.4662503 537.4887,24.5354803 C536.79409,21.9432703 536.79409,19.7208203 537.4887,17.1285703 C537.71748,16.3422803 537.36825,15.5097503 536.64886,15.1185203 C536.37909,14.9717803 536.0862,14.8942803 535.79527,14.8982403 L535.79527,14.8982403 Z M541.13707,16.4264303 C540.78385,16.4623303 540.43284,16.6113803 540.1596,16.8669803 C539.92505,17.0854203 539.75614,17.3684903 539.67772,17.6792803 C539.10496,19.8168403 539.11871,21.9160603 539.69152,24.0536203 C539.92984,24.9418803 540.84086,25.4621703 541.72912,25.2238703 C542.61737,24.9855703 543.15145,24.0745403 542.91312,23.1862703 C542.47136,21.5376803 542.4576,20.1952203 542.89932,18.5466203 C543.10533,17.8272103 542.80802,17.0508203 542.16963,16.6604703 C541.85041,16.4652803 541.49029,16.3904103 541.13706,16.4264303 L541.13707,16.4264303 Z M551.58665,17.5415803 C552.43588,17.5415803 553.28653,17.8647603 553.94089,18.5190803 C555.24953,19.8277503 555.24953,21.9189203 553.94089,23.2275703 C552.6322,24.5362303 550.5548,24.5362303 549.24617,23.2275703 C547.93748,21.9189103 547.93748,19.8277503 549.24617,18.5190803 C549.90046,17.8647603 550.73738,17.5415803 551.58665,17.5415803 Z" id="path3627" fill="#FFFFFF"></path>
                <path d="M564.9564,10.0567703 C565.19799,9.63635028 565.25752,9.12003028 565.09528,8.63464028 C565.00998,8.37247028 564.85935,8.12558028 564.6642,7.93091028 C562.41829,5.63255028 559.84742,4.10841028 556.75324,3.24091028 C555.82517,2.98123028 554.85884,3.51659028 554.59913,4.44466028 C554.33944,5.37272028 554.8748,6.33905028 555.80287,6.59874028 C558.38694,7.32322028 560.29866,8.45662028 562.17426,10.3760203 C562.73396,10.9737903 563.6282,11.0979603 564.33159,10.6786803 C564.59539,10.5214503 564.81143,10.3090103 564.9564,10.0567703 Z" id="path6713" fill="#FFFFFF"></path>
                <path d="M564.7081,31.7669403 C564.94806,32.1883103 565.00549,32.7048603 564.84135,33.1896203 C564.75505,33.4514303 564.60342,33.6977103 564.40748,33.8916003 C562.15249,36.1810403 559.57559,37.6949803 556.47796,38.5501803 C555.54889,38.8062103 554.58469,38.2670003 554.32868,37.3379003 C554.07266,36.4088203 554.61186,35.4446203 555.54095,35.1886003 C558.12785,34.4743803 560.04409,33.3486103 561.92727,31.4366303 C562.48933,30.8411003 563.38404,30.7204703 564.08579,31.1425503 C564.34896,31.3008303 564.56414,31.5141203 564.7081,31.7669403 Z" id="path6717" fill="#FFFFFF"></path>
                <path d="M529.86944,70.6003703 L530.49746,70.6003703 C531.0272,70.6003703 531.51242,70.5733703 531.51242,69.9654403 C531.51242,69.4528603 531.07076,69.3740403 530.66428,69.3740403 L529.86944,69.3740403 L529.86944,70.6003703 L529.86944,70.6003703 Z M529.27017,68.8883303 L530.76116,68.8883303 C531.67975,68.8883303 532.11262,69.2498403 532.11262,69.9923103 C532.11262,70.6884603 531.67093,70.9799803 531.0967,71.0420903 L532.20022,72.7462503 L531.556,72.7462503 L530.50578,71.0861003 L529.86944,71.0861003 L529.86944,72.7462503 L529.27017,72.7462503 L529.27017,68.8883303 L529.27017,68.8883303 Z M530.55954,73.6365703 C532.08575,73.6365703 533.26853,72.4190203 533.26853,70.8034003 C533.26853,69.2234303 532.08575,68.0049703 530.55954,68.0049703 C529.01391,68.0049703 527.83112,69.2234303 527.83112,70.8034003 C527.83112,72.4190203 529.01391,73.6365703 530.55954,73.6365703 M530.55954,67.5201903 C532.35966,67.5201903 533.86869,68.9407203 533.86869,70.8034003 C533.86869,72.7012903 532.35966,74.1222503 530.55954,74.1222503 C528.74878,74.1222503 527.23186,72.7012903 527.23186,70.8034003 C527.23186,68.9407203 528.74878,67.5201903 530.55954,67.5201903" id="path3005" fill="#FFFFFF"></path>
                <path d="M39.60232,74.0299903 C37.59073,74.5481103 34.91913,75.0985703 31.58755,75.6814203 C28.31876,76.2642803 24.51571,76.5557103 20.17833,76.5557103 C16.40664,76.5557103 13.23219,76.0052403 10.65492,74.9042703 C8.07762,73.7385603 6.0032,72.1195403 4.43169,70.0471503 C2.86015,67.9747803 1.72868,65.5462403 1.03721,62.7614703 C0.34572,59.9119703 0,56.7710103 0,53.3386303 L0,24.9729903 L8.76907,24.9729903 L8.76907,51.3957703 C8.76904,57.5481703 9.71202,61.9519503 11.59783,64.6071703 C13.48362,67.2624103 16.6581,68.5900203 21.12124,68.5900103 C22.06412,68.5900203 23.03845,68.5575103 24.04426,68.4929103 C25.05001,68.4282103 25.99292,68.3633903 26.87302,68.2986103 C27.75303,68.1691003 28.5388,68.0719703 29.23028,68.0071703 C29.98458,67.8776703 30.51891,67.7481503 30.83324,67.6186203 L30.83324,24.9729903 L39.60232,24.9729903 L39.60232,74.0300103" id="path14505" fill="#FFFFFF"></path>
                <path d="M55.84695,27.2072703 C56.91558,26.4949603 58.51853,25.7501903 60.65583,24.9729903 C62.85593,24.1959103 65.37036,23.8073403 68.19913,23.8072803 C71.7193,23.8073403 74.83091,24.4549603 77.53395,25.7501603 C80.29979,27.0454203 82.62564,28.8587403 84.51151,31.1901403 C86.39729,33.5215803 87.81165,36.3063503 88.75462,39.5444003 C89.76034,42.7825203 90.26328,46.3444203 90.26328,50.2300603 C90.26328,54.3100903 89.66604,58.0015003 88.47173,61.3043203 C87.34018,64.5424403 85.70583,67.2948003 83.56859,69.5614703 C81.43128,71.8281103 78.85399,73.5766703 75.83671,74.8071503 C72.81937,76.0376403 69.42489,76.6528603 65.65323,76.6528603 C61.56728,76.6528603 57.95279,76.3614503 54.80976,75.7785903 C51.6667,75.1957403 49.0894,74.6128503 47.07788,74.0299903 L47.07788,1.65878028 L55.84695,0.104490281 L55.84695,27.2072703 M55.84695,67.6186003 C56.727,67.8776503 57.95279,68.1366903 59.52432,68.3957503 C61.15869,68.5900203 63.17023,68.6871703 65.55899,68.6871703 C70.27349,68.6871703 74.04513,67.1005103 76.87391,63.9271803 C79.70261,60.6891203 81.11703,56.1234103 81.11703,50.2300603 C81.11703,47.6396303 80.86553,45.2110603 80.3627,42.9443903 C79.85976,40.6777403 79.04259,38.7349003 77.91112,37.1158203 C76.7796,35.4320503 75.30236,34.1368003 73.47944,33.2301203 C71.7193,32.2587403 69.58204,31.7729503 67.06764,31.7729503 C64.67887,31.7729503 62.47876,32.1939703 60.46724,33.0358303 C58.45567,33.8777703 56.91558,34.7520703 55.84695,35.6587003 L55.84695,67.6186003" id="path14507" fill="#FFFFFF"></path>
                <path d="M134.09988,74.0299903 C132.08831,74.5481103 129.4167,75.0985703 126.08515,75.6814203 C122.81633,76.2642803 119.01326,76.5557103 114.67589,76.5557103 C110.90422,76.5557103 107.72975,76.0052403 105.15249,74.9042703 C102.57517,73.7385603 100.50077,72.1195403 98.92924,70.0471503 C97.35773,67.9747803 96.22624,65.5462403 95.53478,62.7614703 C94.84328,59.9119703 94.49757,56.7710103 94.49757,53.3386303 L94.49757,24.9729903 L103.26664,24.9729903 L103.26664,51.3957703 C103.26663,57.5481703 104.20955,61.9519503 106.09539,64.6071703 C107.98122,67.2624103 111.15567,68.5900203 115.61881,68.5900103 C116.56169,68.5900203 117.53602,68.5575103 118.54184,68.4929103 C119.54758,68.4282103 120.49048,68.3633903 121.37058,68.2986103 C122.25058,68.1691003 123.03635,68.0719703 123.72784,68.0071703 C124.48215,67.8776703 125.01647,67.7481503 125.3308,67.6186203 L125.3308,24.9729903 L134.09988,24.9729903 L134.09988,74.0300103" id="path14509" fill="#FFFFFF"></path>
                <path d="M141.57546,26.4301403 C143.58699,25.9120803 146.25858,25.3616203 149.59019,24.7787103 C152.9218,24.1959103 156.75631,23.9044203 161.09375,23.9044203 C164.9911,23.9044203 168.22842,24.4873403 170.80574,25.6530103 C173.38299,26.7540003 175.42598,28.3406303 176.93468,30.4129803 C178.50616,32.4206503 179.6062,34.8492003 180.23486,37.6986803 C180.86343,40.5482403 181.17779,43.6891803 181.17779,47.1215003 L181.17779,75.4871703 L172.40868,75.4871703 L172.40868,49.0643603 C172.40864,45.9558203 172.18865,43.3005803 171.74864,41.0986703 C171.37145,38.8968103 170.71141,37.1158603 169.76852,35.7558303 C168.82559,34.3958603 167.5684,33.4244403 165.99688,32.8415503 C164.42531,32.1939703 162.47664,31.8701703 160.15081,31.8701303 C159.20788,31.8701703 158.23353,31.9026303 157.22779,31.9672303 C156.22198,32.0319303 155.24765,32.1291903 154.30477,32.2586703 C153.42472,32.3232703 152.60749,32.4206103 151.8532,32.5501103 C151.16173,32.6796603 150.65881,32.7767803 150.34453,32.8415203 L150.34453,75.4871703 L141.57546,75.4871703 L141.57546,26.4301103" id="path14511" fill="#FFFFFF"></path>
                <path d="M196.29092,24.9729903 L214.8663,24.9729903 L214.8663,32.5501403 L196.29092,32.5501403 L196.29092,55.8643303 C196.2909,58.3900603 196.4795,60.4948303 196.85667,62.1786203 C197.23382,63.7976903 197.79958,65.0929203 198.55391,66.0643003 C199.30823,66.9709903 200.25111,67.6186103 201.38265,68.0071503 C202.51411,68.3957603 203.83418,68.5900203 205.3429,68.5900103 C207.98301,68.5900203 210.08883,68.2985903 211.66041,67.7157403 C213.29476,67.0681103 214.42622,66.6148203 215.05487,66.3557303 L216.75212,73.8357303 C215.87204,74.2890703 214.33196,74.8395403 212.13185,75.4871703 C209.9317,76.1995403 207.41727,76.5557103 204.58858,76.5557103 C201.25689,76.5557103 198.49104,76.1347503 196.29092,75.2928603 C194.15367,74.3861903 192.42499,73.0585803 191.10493,71.3100203 C189.78484,69.5614803 188.84192,67.4243103 188.27615,64.8986003 C187.77326,62.3081603 187.52186,59.3291103 187.52186,55.9615103 L187.52186,10.8873203 L196.29092,9.33305028 L196.29092,24.9729903" id="path14513" fill="#FFFFFF"></path>
                <path d="M259.42998,74.0299903 C257.41839,74.5481103 254.7468,75.0985703 251.41522,75.6814203 C248.14642,76.2642803 244.34335,76.5557103 240.006,76.5557103 C236.23431,76.5557103 233.05985,76.0052403 230.48258,74.9042703 C227.90525,73.7385603 225.83086,72.1195403 224.25933,70.0471503 C222.68782,67.9747803 221.55632,65.5462403 220.86488,62.7614703 C220.17338,59.9119703 219.82765,56.7710103 219.82765,53.3386303 L219.82765,24.9729903 L228.59672,24.9729903 L228.59672,51.3957703 C228.5967,57.5481703 229.53962,61.9519503 231.42549,64.6071703 C233.31128,67.2624103 236.48575,68.5900203 240.9489,68.5900103 C241.89178,68.5900203 242.86612,68.5575103 243.87193,68.4929103 C244.87767,68.4282103 245.82059,68.3633903 246.70065,68.2986103 C247.58068,68.1691003 248.36644,68.0719703 249.05796,68.0071703 C249.81224,67.8776703 250.34655,67.7481503 250.66089,67.6186203 L250.66089,24.9729903 L259.42998,24.9729903 L259.42998,74.0300103" id="path14515" fill="#FFFFFF"></path>
                <path d="M310.41428,68.9786003 C313.99732,68.9786003 316.63748,68.4928903 318.33473,67.5214503 C320.09481,66.5500303 320.97487,64.9957603 320.9749,62.8586103 C320.97487,60.6567303 320.12626,58.9081703 318.42902,57.6129003 C316.73178,56.3176903 313.93445,54.8605603 310.03712,53.2415003 C308.15126,52.4643703 306.32831,51.6872403 304.56823,50.9100803 C302.87095,50.0681903 301.39373,49.0967703 300.13655,47.9957803 C298.87929,46.8948803 297.87353,45.5672603 297.11921,44.0129503 C296.36486,42.4587103 295.98771,40.5482403 295.98772,38.2815103 C295.98771,33.8130003 297.59064,30.2835003 300.79658,27.6930103 C304.00246,25.0378203 308.37128,23.7101603 313.90304,23.7101603 C315.28597,23.7101603 316.66892,23.8073603 318.05186,24.0015903 C319.43477,24.1311403 320.72343,24.3254503 321.91782,24.5844303 C323.11213,24.7787803 324.14933,25.0054403 325.02941,25.2644203 C325.9723,25.5235303 326.6952,25.7501903 327.19813,25.9444403 L325.59517,33.7158303 C324.65222,33.1977903 323.17499,32.6796903 321.16348,32.1615403 C319.15191,31.5787403 316.73178,31.2872903 313.90304,31.2872503 C311.45145,31.2872903 309.31418,31.8053903 307.49124,32.8415503 C305.66827,33.8130003 304.75679,35.3673003 304.7568,37.5043803 C304.75679,38.6701503 304.94537,39.6739403 305.32256,40.5158003 C305.76258,41.2929803 306.39117,42.0053703 307.20837,42.6529503 C308.08843,43.3005803 309.15704,43.9482303 310.41428,44.5957903 C311.67149,45.1787003 313.18012,45.7939203 314.94026,46.4415203 C317.20323,47.3482203 319.24619,48.2548803 321.06918,49.1615203 C322.89214,50.0034403 324.46364,51.0072403 325.78376,52.1729103 C327.1038,53.3386503 328.10957,54.7634203 328.80107,56.4472003 C329.4925,58.0662403 329.83828,60.0738803 329.83828,62.4700503 C329.83828,67.1329003 328.14099,70.6623903 324.74656,73.0585803 C321.35202,75.4547703 316.57461,76.6528603 310.41428,76.6528603 C306.07686,76.6528603 302.68238,76.2642803 300.23082,75.4871703 C297.77925,74.7747403 296.11342,74.2242803 295.23339,73.8357303 L296.83634,66.0643003 C297.84211,66.4529203 299.44506,67.0357703 301.64518,67.8128803 C303.84532,68.5900203 306.76834,68.9786003 310.41428,68.9786003" id="path14517" fill="#FFFFFF"></path>
                <path d="M343.56578,24.9729903 L362.14118,24.9729903 L362.14118,32.5501403 L343.56578,32.5501403 L343.56578,55.8643303 C343.56576,58.3900603 343.75436,60.4948303 344.13153,62.1786203 C344.5087,63.7976903 345.07444,65.0929203 345.8288,66.0643003 C346.58307,66.9709903 347.52597,67.6186103 348.65753,68.0071503 C349.789,68.3957603 351.10908,68.5900203 352.61775,68.5900103 C355.25788,68.5900203 357.36373,68.2985903 358.93528,67.7157403 C360.56962,67.0681103 361.70109,66.6148203 362.32975,66.3557303 L364.02699,73.8357303 C363.14692,74.2890703 361.60683,74.8395403 359.4067,75.4871703 C357.20657,76.1995403 354.69214,76.5557103 351.86342,76.5557103 C348.53178,76.5557103 345.7659,76.1347503 343.56578,75.2928603 C341.42851,74.3861903 339.69984,73.0585803 338.37977,71.3100203 C337.05967,69.5614803 336.11679,67.4243103 335.55104,64.8986003 C335.04813,62.3081603 334.79671,59.3291103 334.79671,55.9615103 L334.79671,10.8873203 L343.56578,9.33305028 L343.56578,24.9729903" id="path14519" fill="#FFFFFF"></path>
                <path d="M406.70485,74.0299903 C404.69325,74.5481103 402.02166,75.0985703 398.6901,75.6814203 C395.42129,76.2642803 391.61822,76.5557103 387.28085,76.5557103 C383.50918,76.5557103 380.33472,76.0052403 377.75744,74.9042703 C375.18011,73.7385603 373.10573,72.1195403 371.53421,70.0471503 C369.96267,67.9747803 368.83119,65.5462403 368.13973,62.7614703 C367.44825,59.9119703 367.10254,56.7710103 367.10254,53.3386303 L367.10254,24.9729903 L375.87159,24.9729903 L375.87159,51.3957703 C375.87157,57.5481703 376.81448,61.9519503 378.70036,64.6071703 C380.58616,67.2624103 383.76061,68.5900203 388.22375,68.5900103 C389.16665,68.5900203 390.14098,68.5575103 391.14679,68.4929103 C392.15254,68.4282103 393.09542,68.3633903 393.97551,68.2986103 C394.85556,68.1691003 395.64129,68.0719703 396.33279,68.0071703 C397.0871,67.8776703 397.6214,67.7481503 397.93576,67.6186203 L397.93576,24.9729903 L406.70485,24.9729903 L406.70485,74.0300103" id="path14521" fill="#FFFFFF"></path>
                <path d="M445.86227,35.6587003 C444.7936,34.7520703 443.25352,33.8777703 441.242,33.0358303 C439.23041,32.1939703 437.03029,31.7729503 434.64161,31.7729503 C432.12714,31.7729503 429.95845,32.2587403 428.13549,33.2301203 C426.37538,34.1368003 424.92959,35.4320503 423.79811,37.1158203 C422.66661,38.7349003 421.84941,40.6777403 421.34653,42.9443903 C420.84363,45.2110603 420.5922,47.6396303 420.5922,50.2300603 C420.5922,56.1234103 422.00657,60.6891203 424.83531,63.9271803 C427.66403,67.1005103 431.43568,68.6871703 436.15027,68.6871703 C438.53894,68.6871703 440.51905,68.5900703 442.09063,68.3957503 C443.72496,68.1366903 444.98217,67.8776503 445.86227,67.6186003 L445.86227,35.6587003 M445.86227,1.65878028 L454.63135,0.104490281 L454.63135,74.0299903 C452.61976,74.6128503 450.04247,75.1957403 446.89948,75.7785903 C443.75639,76.3614503 440.14189,76.6528603 436.05598,76.6528603 C432.2843,76.6528603 428.88983,76.0376403 425.87251,74.8071503 C422.85518,73.5766703 420.27789,71.8281103 418.14063,69.5614703 C416.00337,67.2948003 414.33754,64.5424403 413.14321,61.3043203 C412.01169,58.0015003 411.44597,54.3100903 411.44597,50.2300603 C411.44597,46.3444203 411.9174,42.7825203 412.86034,39.5444003 C413.86611,36.3063503 415.31188,33.5215803 417.19772,31.1901403 C419.08354,28.8587403 421.37796,27.0454203 424.08099,25.7501603 C426.84682,24.4549603 429.9899,23.8073403 433.51012,23.8072803 C436.33882,23.8073403 438.82182,24.1959103 440.95912,24.9729903 C443.15923,25.7501903 444.7936,26.4949603 445.86227,27.2072703 L445.86227,1.65878028" id="path14523" fill="#FFFFFF"></path>
                <path d="M470.93493,75.4871703 L462.16583,75.4871703 L462.16583,24.9729903 L470.93493,24.9729903 L470.93493,75.4871703 M466.50322,15.8416003 C464.93171,15.8416003 463.58019,15.3235503 462.44871,14.2873103 C461.38008,13.1864203 460.84575,11.7293003 460.84575,9.91588028 C460.84575,8.10263028 461.38008,6.67789028 462.44871,5.64164028 C463.58019,4.54074028 464.93171,3.99019028 466.50322,3.99019028 C468.07473,3.99019028 469.39483,4.54074028 470.46345,5.64164028 C471.59494,6.67789028 472.16071,8.10263028 472.16071,9.91588028 C472.16071,11.7293003 471.59494,13.1864203 470.46345,14.2873103 C469.39483,15.3235503 468.07473,15.8416003 466.50322,15.8416003" id="path14525" fill="#FFFFFF"></path>
                <path d="M521.755,50.2300603 C521.755,54.2453103 521.18919,57.8720003 520.05776,61.1100603 C518.92621,64.3481403 517.32326,67.1329003 515.2489,69.4643003 C513.23732,71.7957303 510.81717,73.6090503 507.98847,74.9042703 C505.1597,76.1347503 502.07953,76.7500003 498.74792,76.7500003 C495.41627,76.7500003 492.33611,76.1347503 489.50738,74.9042703 C486.67865,73.6090503 484.22706,71.7957303 482.15269,69.4643003 C480.14112,67.1329003 478.5696,64.3481403 477.43812,61.1100603 C476.30662,57.8720003 475.74085,54.2453103 475.74085,50.2300603 C475.74085,46.2796303 476.30662,42.6853503 477.43812,39.4472303 C478.5696,36.1444403 480.14112,33.3273103 482.15269,30.9958303 C484.22706,28.6644503 486.67865,26.8835403 489.50738,25.6530103 C492.33611,24.3578103 495.41627,23.7101603 498.74792,23.7101603 C502.07953,23.7101603 505.1597,24.3578103 507.98847,25.6530103 C510.81717,26.8835403 513.23732,28.6644503 515.2489,30.9958303 C517.32326,33.3273103 518.92621,36.1444403 520.05776,39.4472303 C521.18919,42.6853503 521.755,46.2796303 521.755,50.2300603 M512.60874,50.2300603 C512.60874,44.5310703 511.35148,40.0301303 508.8371,36.7272603 C506.38549,33.3596903 503.02245,31.6758403 498.74792,31.6758403 C494.47338,31.6758403 491.07889,33.3596903 488.56447,36.7272603 C486.1129,40.0301303 484.88711,44.5310703 484.88711,50.2300603 C484.88711,55.9291403 486.1129,60.4624303 488.56447,63.8300203 C491.07889,67.1329003 494.47338,68.7843103 498.74792,68.7843103 C503.02245,68.7843103 506.38549,67.1329003 508.8371,63.8300203 C511.35148,60.4624303 512.60874,55.9291403 512.60874,50.2300603" id="path14527" fill="#FFFFFF"></path>
            </g>
        </g>
    </g>
</svg>