<svg xmlns="http://www.w3.org/2000/svg" width="241" height="98" viewBox="0 0 241 98">
  <g fill="none">
    <path fill="#E95420" d="M0,13.135439 L0.31287126,68.932744 C0.31287126,68.932744 0.01889328,92.386503 25.484029,97.329566 C40.130335,100.17257 67.831123,93.580074 67.831123,93.580074 L67.61056,13.076489 L45.334226,13.076489 L45.334226,75.714906 L24.381236,75.714906 L24.381236,34.250043 L15.338366,34.250043 L25.925141,12.85593 L0,13.135439 Z"/>
    <path fill="#FFF" d="M23.2763613 38.9046182C22.1857134 39.1772747 20.7372294 39.4669732 18.930905 39.7737095 17.1586205 40.080448 15.0966618 40.2338183 12.7450202 40.2338183 10.7000859 40.2338183 8.97894551 39.9441197 7.58159464 39.3647271 6.1842238 38.7512501 5.05951827 37.899201 4.20747582 36.8085753 3.35542005 35.717954 2.74194309 34.4398804 2.36704716 32.9743498 1.99214014 31.4747484 1.80469217 29.8217721 1.80469217 28.0154167L1.80469217 13.0874944 6.55913305 13.0874944 6.55913305 26.9929551C6.55912639 30.2307568 7.07035497 32.5483297 8.09282544 33.9456873 9.11527372 35.3430537 10.8364141 36.0417346 13.2562487 36.0417302 13.767464 36.0417346 14.2957347 36.0246392 14.8410631 35.9906127 15.3863582 35.9565417 15.8975868 35.9224486 16.3747533 35.8883776 16.851882 35.8202135 17.2779066 35.769096 17.6528292 35.7350028 18.0617938 35.6668387 18.3514902 35.5986746 18.5219204 35.5305105L18.5219204 13.0874944 23.2763613 13.0874944 23.2763613 38.9046293M34.9740056 14.2633239C35.5533894 13.8884476 36.4224806 13.4965048 37.5812793 13.0874944 38.7741379 12.6785373 40.1374155 12.4740455 41.6711213 12.4740182 43.5796963 12.4740455 45.2667546 12.8148653 46.7322984 13.4964786 48.2318865 14.1781443 49.4929181 15.1324398 50.5154019 16.3593678 51.5378368 17.5863421 52.3046819 19.0518673 52.8159393 20.7559473 53.3612233 22.4600642 53.6339064 24.3345749 53.6339064 26.3794803 53.6339064 28.5266563 53.3101014 30.4693311 52.662569 32.2075025 52.0490676 33.9116096 51.1629365 35.3600936 50.0041733 36.552961 48.8453613 37.7458329 47.4479993 38.6660461 45.8120852 39.3136029 44.1761311 39.9611619 42.3357046 40.2849403 40.2907992 40.2849403 38.0754569 40.2849403 36.1157421 40.1315655 34.4116528 39.8248337 32.7075457 39.5180952 31.3101837 39.2113567 30.2195647 38.9046182L30.2195647.817969898 34.9740056.00000159181988 34.9740056 14.2633239M34.9740056 35.5304994C35.4511432 35.6668276 36.1157421 35.8031603 36.9678024 35.939484 37.8539224 36.0417413 38.9445459 36.0928588 40.239675 36.0928588 42.7958113 36.0928588 44.84073 35.2578541 46.3744379 33.5878312 47.9081081 31.8837397 48.6749732 29.4809605 48.6749732 26.379487 48.6749732 25.0162204 48.5386228 23.7381467 48.2659908 22.5452593 47.9933122 21.3524008 47.5502455 20.3299414 46.9367907 19.4778719 46.323296 18.5917607 45.5223689 17.910121 44.5340093 17.4329511 43.5796963 16.9217436 42.4209087 16.6661058 41.0576443 16.6661058 39.7625152 16.6661058 38.5696455 16.8876625 37.4790332 17.330705 36.3883986 17.7737932 35.5533894 18.2338998 34.9740056 18.7110266L34.9740056 35.5304994M80.9152571 38.9046182C79.8246092 39.1772747 78.3761231 39.4669732 76.5698009 39.7737095 74.7975164 40.080448 72.7355577 40.2338183 70.3839138 40.2338183 68.3389817 40.2338183 66.6178413 39.9441197 65.2204905 39.3647271 63.8231196 38.7512501 62.6984141 37.899201 61.8463716 36.8085753 60.9943159 35.717954 60.3808389 34.4398804 60.005943 32.9743498 59.631036 31.4747484 59.443588 29.8217721 59.443588 28.0154167L59.443588 13.0874944 64.1980289 13.0874944 64.1980289 26.9929551C64.19802 30.2307568 64.7092508 32.5483297 65.7317191 33.9456873 66.7541696 35.3430537 68.4753099 36.0417346 70.8951446 36.0417302 71.4063598 36.0417346 71.9346305 36.0246392 72.4799589 35.9906127 73.025254 35.9565417 73.5364826 35.9224486 74.0136491 35.8883776 74.4907779 35.8202135 74.9168024 35.769096 75.291725 35.7350028 75.7006897 35.6668387 75.990386 35.5986746 76.1608162 35.5305105L76.1608162 13.0874944 80.9152571 13.0874944 80.9152571 38.9046293M88.4822853 13.8543398C89.5729043 13.5817097 91.0213883 13.292013 92.8277415 12.9852485 94.6340793 12.6785373 96.7130801 12.5251412 99.0647506 12.5251412 101.177818 12.5251412 102.93304 12.8319061 104.330422 13.4453556 105.727762 14.0247755 106.835428 14.8597839 107.653419 15.9503836 108.505444 17.0069485 109.101879 18.2850229 109.442724 19.7846099 109.783517 21.2842369 109.953954 22.9372129 109.953954 24.7435418L109.953954 39.6714633 105.199514 39.6714633 105.199514 25.7660034C105.199491 24.1300826 105.08021 22.7327206 104.841653 21.5739157 104.637141 20.4151465 104.279278 19.4778921 103.76807 18.7621496 103.256819 18.0464489 102.57518 17.5352193 101.723149 17.228459 100.871082 16.8876616 99.8145402 16.7172518 98.5535198 16.7172289 98.0422779 16.7172518 97.5140072 16.7342977 96.9687077 16.7683509 96.4233837 16.8024551 95.895113 16.8535793 95.3838933 16.921719 94.9067357 16.9558232 94.463669 17.0069474 94.0546954 17.0750871 93.679784 17.1432734 93.4071276 17.1943954 93.2367262 17.2284553L93.2367262 39.6714633 88.4822853 39.6714633 88.4822853 13.854336M120.414295 13.0874944L130.485529 13.0874944 130.485529 17.07509 120.414295 17.07509 120.414295 29.3446145C120.414288 30.6738212 120.51653 31.7814869 120.721033 32.6676114 120.925526 33.5196671 121.232255 34.201306 121.641249 34.7125323 122.050222 35.1896833 122.561451 35.5305038 123.174939 35.7349917 123.788402 35.939484 124.504123 36.0417346 125.322106 36.0417302 126.753534 36.0417346 127.895282 35.8883554 128.747347 35.5816236 129.633462 35.2408075 130.246937 35.0022331 130.587775 34.8659005L131.507991 38.8023721C131.030824 39.0409487 130.195815 39.330645 129.002963 39.6714633 127.810076 40.0463659 126.446798 40.2338183 124.913121 40.2338183 123.106764 40.2338183 121.607156 40.0122794 120.414295 39.5692194 119.255501 39.0920706 118.318245 38.3933896 117.602529 37.4731742 116.886803 36.5529632 116.375573 35.4282577 116.068839 34.0990554 115.79618 32.7357821 115.659854 31.1680099 115.659854 29.3957365L115.659854 5.67465675 120.414295 4.85668836 120.414295 13.0874944M157.076713 38.9046182C155.986066 39.1772747 154.537595 39.4669732 152.731257 39.7737095 150.958968 40.080448 148.897021 40.2338183 146.54537 40.2338183 144.500447 40.2338183 142.779298 39.9441197 141.381945 39.3647271 139.984591 38.7512501 138.859873 37.899201 138.007832 36.8085753 137.155777 35.717954 136.5423 34.4398804 136.167404 32.9743498 135.792497 31.4747484 135.605051 29.8217721 135.605051 28.0154167L135.605051 13.0874944 140.359483 13.0874944 140.359483 26.9929551C140.359483 30.2307568 140.870703 32.5483297 141.893186 33.9456873 142.915626 35.3430537 144.636775 36.0417346 147.056612 36.0417302 147.567832 36.0417346 148.096098 36.0246392 148.641411 35.9906127 149.186724 35.9565417 149.697943 35.9224486 150.175114 35.8883776 150.652241 35.8202135 151.078272 35.769096 151.453186 35.7350028 151.862148 35.6668387 152.151851 35.5986746 152.322273 35.5305105L152.322273 13.0874944 157.076713 13.0874944 157.076713 38.9046293M24.9530651 62.2108207C24.9530651 64.3239147 24.6463 66.2325074 24.0328519 67.9365968 23.4193483 69.6407039 22.5502593 71.1062299 21.4255782 72.3331772 20.3349303 73.5601311 19.0227745 74.5144264 17.4891043 75.1960674 15.9553964 75.8436242 14.285378 76.1674048 12.4790492 76.1674048 10.6726893 76.1674048 9.00267088 75.8436242 7.4689918 75.1960674 5.93529275 74.5144264 4.60609711 73.5601311 3.48139824 72.3331772 2.39076809 71.1062299 1.53871898 69.6407039.925246465 67.9365968.311767288 66.2325074.00503102854 64.3239147.00503102854 62.2108207.00503102854 60.1318332.311767288 58.2402826.925246465 56.5361644 1.53871898 54.7980019 2.39076809 53.3154359 3.48139824 52.088462 4.60609711 50.8615347 5.93529275 49.9242794 7.4689918 49.2766959 9.00267088 48.5950815 10.6726893 48.2542343 12.4790492 48.2542343 14.285378 48.2542343 15.9553964 48.5950815 17.4891043 49.2766959 19.0227745 49.9242794 20.3349303 50.8615347 21.4255782 52.088462 22.5502593 53.3154359 23.4193483 54.7980019 24.0328519 56.5361644 24.6463 58.2402826 24.9530651 60.1318332 24.9530651 62.2108207M19.9941319 62.2108207C19.9941319 59.2116178 19.3124709 56.8429206 17.949211 55.1047204 16.6199931 53.332478 14.7966088 52.4463225 12.4790492 52.4463225 10.1614585 52.4463225 8.32103203 53.332478 6.95776322 55.1047204 5.62855649 56.8429206 4.96396422 59.2116178 4.96396422 62.2108207 4.96396422 65.210048 5.62855649 67.5957851 6.95776322 69.368043 8.32103203 71.1062299 10.1614585 71.9753167 12.4790492 71.9753167 14.7966088 71.9753167 16.6199931 71.1062299 17.949211 69.368043 19.3124709 67.5957851 19.9941319 65.210048 19.9941319 62.2108207M30.3945296 49.6856806C31.4851486 49.4130508 32.9336326 49.1233522 34.7399858 48.8165893 36.5463213 48.5098775 38.6253221 48.3564805 40.9769949 48.3564805 43.0900622 48.3564805 44.8452846 48.6632456 46.2426644 49.2766959 47.6400063 49.8561153 48.7476697 50.6911245 49.5656612 51.7817235 50.4176881 52.8382894 51.014123 54.116363 51.3549657 55.6159512 51.6957618 57.1155771 51.8661965 58.7685533 51.8661965 60.5748822L51.8661965 75.5028148 47.1117556 75.5028148 47.1117556 61.5973437C47.1117356 59.961423 46.9924518 58.564061 46.7538952 57.4052556 46.5493806 56.2464858 46.1915224 55.3092327 45.6803116 54.5934896 45.169063 53.8777887 44.487422 53.3665601 43.6353906 53.0597994 42.7833238 52.7190011 41.7267823 52.548593 40.4657641 52.5485686 39.95452 52.548593 39.4262493 52.5656596 38.8809497 52.5996861 38.3356258 52.6337793 37.8073551 52.684919 37.2961376 52.7530609 36.8189778 52.7871541 36.3759111 52.8382938 35.9669375 52.9064357 35.5920261 52.974622 35.3193719 53.0257396 35.1489705 53.0598105L35.1489705 75.5028148 30.3945296 75.5028148 30.3945296 49.6856917M57.0200954 62.2619427C57.0200954 59.9102988 57.3609115 57.86538 58.0425548 56.1271798 58.7241914 54.3549374 59.6273625 52.8894113 60.7520747 51.7306016 61.8767736 50.5718362 63.1718894 49.7027471 64.6374243 49.1233278 66.1029393 48.5439595 67.6025452 48.2542343 69.1362509 48.2542343 72.7148421 48.2542343 75.4584418 49.3789687 77.3670568 51.6283554 79.2756229 53.8437066 80.2299448 57.2348631 80.2299448 61.8018361 80.2299448 62.0063506 80.2299448 62.2789959 80.2299448 62.6198031 80.2299448 62.9265549 80.2128538 63.2162513 80.1788273 63.4888944L61.9790309 63.4888944C62.1835232 66.2495473 62.9844437 68.3455881 64.3818145 69.7770254 65.7791654 71.2084761 67.9604123 71.924197 70.9255598 71.9241926 72.5955605 71.924197 73.9929224 71.7878643 75.1176479 71.5152101 76.2764133 71.2084761 77.1455046 70.9187775 77.7249217 70.6461189L78.3895206 74.6337125C77.8101035 74.9404509 76.7876441 75.2642315 75.3221403 75.6050499 73.8906763 75.9458704 72.2547399 76.1162807 70.414329 76.1162807 68.0967383 76.1162807 66.0859016 75.7754601 64.3818145 75.0938213 62.7117872 74.3781004 61.3314674 73.406763 60.2408484 72.1798091 59.1502204 70.9528596 58.3322534 69.5043757 57.786945 67.8343528 57.2757119 66.1302613 57.0200954 64.2727927 57.0200954 62.2619427M75.2710161 59.6546689C75.305087 57.5075196 74.7597653 55.7522972 73.6350797 54.3889973 72.5444385 52.9916575 71.0277905 52.2929543 69.0851312 52.2929543 67.9944944 52.2929543 67.023157 52.5145154 66.171119 52.9575533 65.3531408 53.3665601 64.6544598 53.9118707 64.075076 54.5934896 63.4956722 55.2751506 63.0355656 56.0590356 62.694754 56.945149 62.3880088 57.831298 62.1835165 58.7344713 62.081277 59.6546689L75.2710161 59.6546689" transform="translate(83.125)"/>
  </g>
</svg>
