<svg width="573" height="78" xmlns="http://www.w3.org/2000/svg"><g fill="none"><path d="M572.733 21.388c0 11.468-9.296 20.764-20.764 20.764-11.467 0-20.763-9.296-20.763-20.764a20.763 20.763 0 1 1 41.527 0Z" fill="#009BF9"/><path d="M551.854 9.19a12.258 12.258 0 0 0-8.811 3.704 1.667 1.667 0 0 0 2.464 2.244 8.964 8.964 0 0 1 12.708 0 8.964 8.964 0 0 1 0 12.707 8.964 8.964 0 0 1-12.708 0 1.674 1.674 0 0 0-1.624-.44 1.657 1.657 0 0 0-.73 2.795c4.794 4.794 12.622 4.794 17.416 0 4.794-4.795 4.794-12.622 0-17.417a12.29 12.29 0 0 0-8.715-3.593Zm0 5.769a6.53 6.53 0 0 0-4.626 1.913c-2.542 2.543-2.542 6.71 0 9.252 2.542 2.542 6.71 2.542 9.252 0 2.542-2.542 2.542-6.71 0-9.252a6.53 6.53 0 0 0-4.626-1.913Zm-15.791.564a1.74 1.74 0 0 0-1.294.606 1.784 1.784 0 0 0-.386.73c-.832 3.104-.832 6.092 0 9.196a1.745 1.745 0 1 0 3.373-.895c-.695-2.592-.695-4.814 0-7.406a1.733 1.733 0 0 0-.84-2.01 1.741 1.741 0 0 0-.853-.22Zm5.341 1.528a1.673 1.673 0 0 0-1.46 1.253c-.572 2.138-.558 4.237.015 6.375a1.659 1.659 0 0 0 2.037 1.17 1.667 1.667 0 0 0 1.184-2.038c-.441-1.648-.455-2.99-.013-4.64a1.674 1.674 0 0 0-.73-1.886c-.32-.195-.68-.27-1.033-.234Zm10.45 1.116c.85 0 1.7.323 2.354.977a3.314 3.314 0 0 1 0 4.709 3.298 3.298 0 0 1-4.694 0 3.314 3.314 0 0 1 0-4.709 3.285 3.285 0 0 1 2.34-.977Zm13.37-7.485c.241-.42.3-.937.139-1.422a1.785 1.785 0 0 0-.431-.704c-2.246-2.298-4.817-3.823-7.911-4.69a1.745 1.745 0 1 0-.95 3.358c2.583.724 4.495 1.858 6.37 3.777.56.598 1.455.722 2.158.303.264-.158.48-.37.625-.622Zm-.249 21.71c.24.421.298.938.134 1.423a1.784 1.784 0 0 1-.434.702c-2.255 2.289-4.832 3.803-7.93 4.658a1.745 1.745 0 1 1-.937-3.361c2.587-.715 4.503-1.84 6.387-3.752a1.733 1.733 0 0 1 2.158-.294c.263.158.479.371.622.624Zm-34.838 38.833h.628c.53 0 1.015-.027 1.015-.635 0-.512-.442-.591-.848-.591h-.795v1.226Zm-.6-1.712h1.492c.918 0 1.351.362 1.351 1.104 0 .696-.442.988-1.016 1.05l1.104 1.704h-.645l-1.05-1.66h-.636v1.66h-.6v-3.858Zm1.29 4.749c1.526 0 2.709-1.218 2.709-2.834 0-1.58-1.183-2.798-2.71-2.798-1.545 0-2.728 1.218-2.728 2.798 0 1.616 1.183 2.834 2.729 2.834m0-6.117c1.8 0 3.31 1.42 3.31 3.283a3.29 3.29 0 0 1-3.31 3.32c-1.81 0-3.328-1.422-3.328-3.32 0-1.862 1.517-3.283 3.328-3.283M39.87 74.655c-2.012.518-4.684 1.069-8.015 1.651-3.269.583-7.072.875-11.41.875-3.771 0-6.945-.55-9.523-1.652-2.577-1.165-4.651-2.784-6.223-4.857-1.571-2.072-2.703-4.5-3.394-7.286-.692-2.849-1.038-5.99-1.038-9.422V25.598h8.77v26.423c0 6.152.942 10.556 2.828 13.211 1.886 2.655 5.06 3.983 9.524 3.983.942 0 1.917-.032 2.923-.097 1.005-.065 1.948-.13 2.828-.194.88-.13 1.666-.227 2.358-.292.754-.13 1.288-.259 1.603-.388V25.598h8.769v49.057m16.244-46.823c1.069-.712 2.672-1.457 4.81-2.234 2.2-.777 4.714-1.166 7.542-1.166 3.52 0 6.632.648 9.335 1.943 2.766 1.295 5.092 3.109 6.978 5.44 1.886 2.332 3.3 5.116 4.243 8.354 1.006 3.239 1.509 6.8 1.509 10.686 0 4.08-.598 7.772-1.792 11.074-1.131 3.238-2.766 5.99-4.903 8.257-2.137 2.267-4.715 4.016-7.732 5.246-3.017 1.23-6.412 1.846-10.183 1.846-4.086 0-7.7-.292-10.844-.874-3.143-.583-5.72-1.166-7.732-1.749V2.284l8.77-1.555v27.103m0 40.412c.88.259 2.105.518 3.677.777 1.634.194 3.646.291 6.034.291 4.715 0 8.486-1.586 11.315-4.76 2.829-3.238 4.243-7.804 4.243-13.697 0-2.59-.251-5.019-.754-7.286-.503-2.266-1.32-4.21-2.452-5.828a11.328 11.328 0 0 0-4.431-3.886c-1.76-.971-3.898-1.457-6.412-1.457-2.389 0-4.589.421-6.6 1.263-2.012.842-3.552 1.716-4.62 2.623v31.96m78.252 6.411c-2.011.518-4.683 1.069-8.014 1.651-3.27.583-7.072.875-11.41.875-3.771 0-6.946-.55-9.523-1.652-2.577-1.165-4.652-2.784-6.223-4.857-1.572-2.072-2.703-4.5-3.395-7.286-.691-2.849-1.037-5.99-1.037-9.422V25.598h8.769v26.423c0 6.152.943 10.556 2.829 13.211 1.886 2.655 5.06 3.983 9.523 3.983.943 0 1.917-.032 2.923-.097s1.949-.13 2.829-.194a45.6 45.6 0 0 1 2.357-.292c.755-.13 1.289-.259 1.603-.388V25.598h8.77v49.057m7.475-47.6c2.011-.518 4.683-1.068 8.015-1.651 3.331-.583 7.166-.875 11.503-.875 3.897 0 7.135.583 9.712 1.749 2.577 1.101 4.62 2.688 6.129 4.76 1.572 2.008 2.672 4.436 3.3 7.286.629 2.85.943 5.99.943 9.423v28.365h-8.769V49.69c0-3.108-.22-5.763-.66-7.965-.377-2.202-1.037-3.983-1.98-5.343-.943-1.36-2.2-2.332-3.772-2.914-1.571-.648-3.52-.972-5.846-.972-.943 0-1.917.033-2.923.097-1.006.065-1.98.162-2.923.292-.88.064-1.697.162-2.451.291-.692.13-1.195.227-1.51.292v42.645h-8.768V27.055m54.715-1.457h18.576v7.577h-18.576V56.49c0 2.526.189 4.63.566 6.315.377 1.619.943 2.914 1.697 3.885a6.247 6.247 0 0 0 2.829 1.943c1.131.389 2.452.583 3.96.583 2.64 0 4.746-.291 6.318-.874a323.556 323.556 0 0 0 3.394-1.36l1.697 7.48c-.88.453-2.42 1.004-4.62 1.651-2.2.713-4.714 1.069-7.543 1.069-3.332 0-6.098-.421-8.298-1.263-2.137-.907-3.866-2.234-5.186-3.983-1.32-1.749-2.263-3.886-2.828-6.411-.503-2.59-.755-5.57-.755-8.937V11.512l8.77-1.554v15.64m63.138 49.057c-2.011.518-4.683 1.069-8.014 1.651-3.27.583-7.072.875-11.41.875-3.771 0-6.946-.55-9.523-1.652-2.577-1.165-4.652-2.784-6.223-4.857-1.572-2.072-2.703-4.5-3.395-7.286-.691-2.849-1.037-5.99-1.037-9.422V25.598h8.77v26.423c0 6.152.942 10.556 2.828 13.211 1.886 2.655 5.06 3.983 9.523 3.983.943 0 1.917-.032 2.923-.097a307.96 307.96 0 0 0 2.829-.194c.88-.13 1.666-.227 2.357-.292.755-.13 1.289-.259 1.603-.388V25.598h8.77v49.057m50.984-5.051c3.583 0 6.223-.486 7.92-1.458 1.76-.971 2.64-2.525 2.64-4.662 0-2.202-.848-3.95-2.546-5.246-1.697-1.295-4.494-2.752-8.392-4.371a238.675 238.675 0 0 1-5.468-2.332c-1.698-.842-3.175-1.813-4.432-2.914a12.46 12.46 0 0 1-3.017-3.983c-.755-1.554-1.132-3.465-1.132-5.731 0-4.469 1.603-7.998 4.809-10.589 3.206-2.655 7.575-3.983 13.106-3.983 1.383 0 2.766.097 4.15.292 1.382.13 2.67.323 3.865.582 1.194.195 2.232.421 3.112.68.943.26 1.666.486 2.168.68l-1.602 7.772c-.943-.518-2.42-1.036-4.432-1.554-2.012-.583-4.432-.875-7.26-.875-2.452 0-4.59.518-6.412 1.555-1.823.971-2.735 2.525-2.735 4.662 0 1.166.189 2.17.566 3.012.44.777 1.069 1.49 1.886 2.137.88.648 1.948 1.295 3.206 1.943 1.257.583 2.765 1.198 4.526 1.846a83.864 83.864 0 0 1 6.129 2.72c1.822.841 3.394 1.845 4.714 3.01 1.32 1.167 2.326 2.591 3.017 4.275.692 1.62 1.038 3.627 1.038 6.023 0 4.663-1.698 8.192-5.092 10.589-3.395 2.396-8.172 3.594-14.332 3.594-4.338 0-7.732-.389-10.184-1.166-2.451-.712-4.117-1.263-4.997-1.651l1.603-7.772c1.005.389 2.608.972 4.809 1.749 2.2.777 5.123 1.166 8.769 1.166m33.151-44.006h18.576v7.577h-18.576V56.49c0 2.526.189 4.63.566 6.315.377 1.619.943 2.914 1.697 3.885a6.247 6.247 0 0 0 2.829 1.943c1.131.389 2.451.583 3.96.583 2.64 0 4.746-.291 6.318-.874a333.041 333.041 0 0 0 3.394-1.36l1.697 7.48c-.88.453-2.42 1.004-4.62 1.651-2.2.713-4.714 1.069-7.543 1.069-3.332 0-6.098-.421-8.298-1.263-2.137-.907-3.866-2.234-5.186-3.983-1.32-1.749-2.263-3.886-2.829-6.411-.503-2.59-.754-5.57-.754-8.937V11.512l8.77-1.554v15.64m63.138 49.057c-2.011.518-4.683 1.069-8.015 1.651-3.268.583-7.071.875-11.409.875-3.771 0-6.946-.55-9.523-1.652-2.578-1.165-4.652-2.784-6.223-4.857-1.572-2.072-2.703-4.5-3.395-7.286-.691-2.849-1.037-5.99-1.037-9.422V25.598h8.769v26.423c0 6.152.943 10.556 2.829 13.211 1.886 2.655 5.06 3.983 9.523 3.983.943 0 1.917-.032 2.923-.097s1.949-.13 2.829-.194c.88-.13 1.666-.227 2.357-.292.754-.13 1.289-.259 1.603-.388V25.598h8.77v49.057m39.157-38.371c-1.069-.907-2.61-1.781-4.62-2.623-2.012-.842-4.212-1.263-6.601-1.263-2.514 0-4.683.486-6.506 1.457-1.76.907-3.206 2.202-4.338 3.886-1.131 1.619-1.948 3.562-2.451 5.828-.503 2.267-.754 4.696-.754 7.286 0 5.893 1.414 10.46 4.243 13.697 2.828 3.174 6.6 4.76 11.315 4.76 2.388 0 4.368-.097 5.94-.291 1.634-.26 2.892-.518 3.772-.777v-31.96m0-34 8.769-1.555v73.926c-2.012.583-4.59 1.166-7.732 1.749-3.143.582-6.758.874-10.844.874-3.771 0-7.166-.615-10.183-1.846-3.017-1.23-5.595-2.979-7.732-5.246-2.137-2.266-3.803-5.019-4.997-8.257-1.132-3.302-1.698-6.994-1.698-11.074 0-3.886.472-7.447 1.415-10.686 1.005-3.238 2.451-6.022 4.337-8.354a19.69 19.69 0 0 1 6.883-5.44c2.766-1.295 5.91-1.943 9.43-1.943 2.828 0 5.311.389 7.448 1.166 2.2.777 3.835 1.522 4.904 2.234V2.284m25.072 73.828h-8.769V25.598h8.77v50.514m-4.432-59.645c-1.572 0-2.923-.518-4.055-1.555-1.069-1.1-1.603-2.558-1.603-4.371 0-1.813.534-3.238 1.603-4.274 1.132-1.101 2.483-1.652 4.055-1.652 1.571 0 2.891.55 3.96 1.652 1.131 1.036 1.697 2.46 1.697 4.274 0 1.813-.566 3.27-1.697 4.371-1.069 1.037-2.389 1.555-3.96 1.555m55.251 34.388c0 4.015-.565 7.642-1.697 10.88-1.131 3.238-2.734 6.023-4.809 8.354a21.044 21.044 0 0 1-7.26 5.44c-2.829 1.23-5.91 1.846-9.24 1.846-3.332 0-6.413-.615-9.241-1.846a22.005 22.005 0 0 1-7.355-5.44c-2.012-2.331-3.583-5.116-4.715-8.354-1.131-3.238-1.697-6.865-1.697-10.88 0-3.95.566-7.545 1.697-10.783 1.132-3.303 2.703-6.12 4.715-8.451a20.899 20.899 0 0 1 7.355-5.343c2.828-1.295 5.909-1.943 9.24-1.943 3.332 0 6.412.648 9.24 1.943a20.014 20.014 0 0 1 7.261 5.343c2.075 2.331 3.678 5.148 4.81 8.451 1.13 3.238 1.696 6.833 1.696 10.783m-9.146 0c0-5.699-1.257-10.2-3.772-13.503-2.451-3.367-5.814-5.051-10.089-5.051-4.274 0-7.669 1.684-10.183 5.051-2.452 3.303-3.678 7.804-3.678 13.503 0 5.7 1.226 10.232 3.678 13.6 2.514 3.303 5.909 4.954 10.183 4.954 4.275 0 7.638-1.651 10.09-4.954 2.514-3.368 3.771-7.9 3.771-13.6" fill="#FFF"/></g></svg>