<svg xmlns="http://www.w3.org/2000/svg" width="600" height="100"><path d="M1002.836 365.541a64.2 65.86 0 1 1-128.398 0 64.2 65.86 0 1 1 128.398 0z" transform="matrix(.32342 0 0 .31527 263.396 -82.854)" style="fill:#009bf9;fill-opacity:1;stroke:none"/><path d="M-342.317 532.458a12.258 12.258 0 0 0-8.811 3.704 1.667 1.667 0 0 0 2.464 2.244 8.964 8.964 0 0 1 12.708 0 8.964 8.964 0 0 1 0 12.707 8.964 8.964 0 0 1-12.708 0 1.674 1.674 0 0 0-1.624-.44 1.657 1.657 0 0 0-.73 2.795c4.794 4.794 12.622 4.794 17.416 0 4.794-4.795 4.794-12.622 0-17.416a12.29 12.29 0 0 0-8.715-3.594zm0 5.769a6.53 6.53 0 0 0-4.626 1.914c-2.542 2.542-2.542 6.71 0 9.251 2.542 2.542 6.71 2.542 9.252 0 2.542-2.542 2.542-6.71 0-9.251a6.53 6.53 0 0 0-4.626-1.914zm-15.791.564a1.74 1.74 0 0 0-1.294.606 1.784 1.784 0 0 0-.386.73c-.831 3.104-.831 6.092 0 9.196a1.745 1.745 0 1 0 3.373-.894c-.694-2.593-.694-4.815 0-7.407a1.733 1.733 0 0 0-.84-2.01 1.741 1.741 0 0 0-.853-.22zm5.342 1.529a1.673 1.673 0 0 0-1.46 1.253c-.572 2.137-.559 4.236.014 6.374a1.659 1.659 0 0 0 2.038 1.17 1.667 1.667 0 0 0 1.184-2.038c-.442-1.648-.456-2.99-.014-4.64a1.674 1.674 0 0 0-.73-1.885 1.642 1.642 0 0 0-1.032-.234zm10.45 1.115c.848 0 1.7.323 2.353.977a3.314 3.314 0 0 1 0 4.709 3.298 3.298 0 0 1-4.694 0 3.314 3.314 0 0 1 0-4.709 3.285 3.285 0 0 1 2.34-.977zm13.369-7.485c.242-.42.301-.937.139-1.422a1.785 1.785 0 0 0-.431-.704c-2.246-2.298-4.817-3.823-7.911-4.69a1.745 1.745 0 1 0-.95 3.358c2.584.724 4.495 1.858 6.37 3.777.56.598 1.455.722 2.158.303.264-.157.48-.37.625-.622zm-.248 21.71c.24.421.297.938.133 1.423a1.784 1.784 0 0 1-.434.702c-2.255 2.29-4.832 3.803-7.93 4.658a1.745 1.745 0 1 1-.936-3.361c2.586-.715 4.503-1.84 6.386-3.752a1.733 1.733 0 0 1 2.158-.294c.264.158.479.371.623.624z" style="fill:#fff;fill-opacity:1;fill-rule:nonzero;stroke:none;stroke-width:10;marker:none;visibility:visible;display:inline;overflow:visible;enable-background:accumulate" transform="translate(909.17 -512.268)"/><path d="M-364.034 594.493h.628c.53 0 1.015-.027 1.015-.634 0-.513-.442-.592-.848-.592h-.795v1.226zm-.6-1.712h1.492c.918 0 1.351.362 1.351 1.104 0 .697-.441.988-1.016 1.05l1.104 1.704h-.644l-1.05-1.66h-.637v1.66h-.6v-3.858zm1.29 4.749c1.526 0 2.71-1.218 2.71-2.834 0-1.58-1.184-2.798-2.71-2.798-1.546 0-2.728 1.219-2.728 2.798 0 1.616 1.182 2.834 2.728 2.834m0-6.117c1.8 0 3.31 1.42 3.31 3.283a3.29 3.29 0 0 1-3.31 3.32c-1.81 0-3.328-1.422-3.328-3.32 0-1.862 1.517-3.283 3.328-3.283" style="fill:#000;fill-opacity:1;fill-rule:nonzero;stroke:none" transform="translate(909.17 -512.268)"/><path d="M-854.301 597.923c-2.012.518-4.683 1.069-8.015 1.652-3.269.582-7.072.874-11.41.874-3.77 0-6.945-.55-9.523-1.652-2.577-1.165-4.651-2.784-6.223-4.857-1.571-2.072-2.703-4.5-3.394-7.285-.692-2.85-1.037-5.99-1.037-9.423v-28.366h8.769v26.423c0 6.152.943 10.556 2.828 13.211 1.886 2.655 5.06 3.983 9.524 3.983.943 0 1.917-.032 2.923-.097s1.948-.13 2.829-.194a45.26 45.26 0 0 1 2.357-.292c.754-.13 1.288-.259 1.603-.388v-42.646h8.769v49.057m16.245-46.823c1.068-.712 2.671-1.457 4.808-2.234 2.2-.777 4.715-1.166 7.544-1.166 3.52 0 6.631.648 9.335 1.943 2.765 1.295 5.091 3.109 6.977 5.44 1.886 2.332 3.3 5.116 4.243 8.354 1.006 3.239 1.509 6.8 1.509 10.686 0 4.08-.597 7.772-1.792 11.074-1.131 3.239-2.766 5.99-4.903 8.258-2.137 2.266-4.714 4.015-7.732 5.245-3.017 1.23-6.412 1.846-10.183 1.846-4.086 0-7.7-.291-10.844-.874-3.143-.583-5.72-1.166-7.732-1.749v-72.371l8.77-1.554V551.1m0 40.412c.88.259 2.105.518 3.677.777 1.634.194 3.646.291 6.035.291 4.714 0 8.486-1.586 11.314-4.76 2.83-3.238 4.244-7.804 4.244-13.697 0-2.59-.252-5.019-.755-7.286-.503-2.266-1.32-4.209-2.451-5.828a11.328 11.328 0 0 0-4.432-3.886c-1.76-.971-3.897-1.457-6.412-1.457-2.389 0-4.589.421-6.6 1.263-2.012.842-3.552 1.716-4.62 2.623v31.96m78.252 6.411c-2.011.518-4.683 1.069-8.014 1.652-3.27.582-7.072.874-11.41.874-3.771 0-6.946-.55-9.523-1.652-2.577-1.165-4.652-2.784-6.223-4.857-1.572-2.072-2.703-4.5-3.395-7.285-.691-2.85-1.037-5.99-1.037-9.423v-28.366h8.77v26.423c0 6.152.942 10.556 2.828 13.211 1.886 2.655 5.06 3.983 9.523 3.983.943 0 1.918-.032 2.923-.097 1.006-.065 1.95-.13 2.83-.194a45.6 45.6 0 0 1 2.356-.292c.755-.13 1.29-.259 1.603-.388v-42.646h8.77v49.057m7.475-47.6c2.012-.518 4.683-1.068 8.015-1.651 3.331-.583 7.166-.874 11.503-.875 3.898 0 7.135.583 9.712 1.75 2.578 1.1 4.62 2.687 6.13 4.76 1.57 2.007 2.67 4.435 3.3 7.285.628 2.85.942 5.99.942 9.423v28.365h-8.769v-26.423c0-3.108-.22-5.763-.66-7.965-.377-2.202-1.037-3.983-1.98-5.343-.943-1.36-2.2-2.331-3.772-2.914-1.571-.648-3.52-.972-5.846-.972-.943 0-1.917.033-2.923.097-1.005.065-1.98.162-2.923.292-.88.064-1.697.162-2.451.291-.692.13-1.195.227-1.509.292v42.645h-8.769v-49.057m54.716-1.457h18.575v7.577h-18.575v23.314c0 2.526.188 4.63.565 6.315.377 1.619.943 2.914 1.697 3.885a6.247 6.247 0 0 0 2.83 1.943c1.13.389 2.45.583 3.96.583 2.64 0 4.745-.291 6.317-.874a323.556 323.556 0 0 0 3.394-1.36l1.698 7.48c-.88.453-2.42 1.004-4.62 1.651-2.2.713-4.715 1.069-7.544 1.069-3.332 0-6.097-.421-8.297-1.263-2.138-.907-3.866-2.234-5.186-3.983-1.32-1.748-2.263-3.886-2.83-6.411-.502-2.59-.754-5.57-.754-8.937V534.78l8.77-1.554v15.64m63.139 49.057c-2.012.518-4.684 1.069-8.015 1.652-3.269.582-7.072.874-11.41.874-3.771 0-6.946-.55-9.523-1.652-2.577-1.165-4.652-2.784-6.223-4.857-1.572-2.072-2.703-4.5-3.395-7.285-.691-2.85-1.037-5.99-1.037-9.423v-28.366h8.77v26.423c0 6.152.942 10.556 2.828 13.211 1.886 2.655 5.06 3.983 9.523 3.983.943 0 1.918-.032 2.924-.097a307.96 307.96 0 0 0 2.828-.194c.88-.13 1.666-.227 2.358-.292.754-.13 1.288-.259 1.602-.388v-42.646h8.77v49.057m50.983-5.051c3.584 0 6.224-.486 7.921-1.457 1.76-.972 2.64-2.526 2.64-4.663 0-2.202-.848-3.95-2.545-5.246-1.698-1.295-4.495-2.752-8.392-4.371a238.675 238.675 0 0 1-5.47-2.332c-1.696-.842-3.174-1.813-4.43-2.914a12.46 12.46 0 0 1-3.018-3.983c-.755-1.554-1.132-3.465-1.132-5.731 0-4.469 1.603-7.998 4.81-10.589 3.205-2.655 7.574-3.983 13.106-3.983 1.383 0 2.765.097 4.148.292 1.383.13 2.672.324 3.866.583 1.195.194 2.232.42 3.112.68.943.259 1.666.485 2.169.68l-1.603 7.77c-.943-.517-2.42-1.035-4.432-1.553-2.012-.583-4.432-.875-7.26-.875-2.452 0-4.59.518-6.412 1.555-1.823.971-2.735 2.525-2.735 4.662 0 1.166.189 2.17.566 3.012.44.777 1.069 1.49 1.886 2.137.88.648 1.949 1.295 3.206 1.943 1.257.583 2.766 1.198 4.526 1.846a83.864 83.864 0 0 1 6.129 2.72c1.823.842 3.394 1.845 4.714 3.011 1.32 1.166 2.326 2.59 3.018 4.274.691 1.62 1.037 3.627 1.037 6.023 0 4.663-1.697 8.192-5.092 10.589-3.394 2.396-8.172 3.594-14.332 3.594-4.338 0-7.732-.389-10.184-1.166-2.451-.712-4.117-1.263-4.997-1.651l1.603-7.772c1.006.389 2.609.972 4.809 1.749 2.2.777 5.123 1.166 8.769 1.166m33.151-44.006h18.576v7.577h-18.576v23.314c0 2.526.189 4.63.566 6.315.377 1.619.943 2.914 1.697 3.885a6.247 6.247 0 0 0 2.83 1.943c1.13.389 2.45.583 3.96.583 2.64 0 4.745-.291 6.317-.874a323.556 323.556 0 0 0 3.394-1.36l1.698 7.48c-.88.453-2.42 1.004-4.62 1.651-2.2.713-4.715 1.069-7.544 1.069-3.332 0-6.098-.421-8.298-1.263-2.137-.907-3.866-2.234-5.186-3.983-1.32-1.748-2.263-3.886-2.828-6.411-.503-2.59-.755-5.57-.755-8.937V534.78l8.77-1.554v15.64m63.138 49.057c-2.011.518-4.683 1.069-8.014 1.652-3.27.582-7.072.874-11.41.874-3.771 0-6.946-.55-9.523-1.652-2.577-1.165-4.652-2.784-6.223-4.857-1.572-2.072-2.703-4.5-3.395-7.285-.691-2.85-1.037-5.99-1.037-9.423v-28.366h8.77v26.423c0 6.152.942 10.556 2.828 13.211 1.886 2.655 5.06 3.983 9.523 3.983.943 0 1.918-.032 2.923-.097 1.006-.065 1.949-.13 2.83-.194.88-.13 1.665-.227 2.356-.292.755-.13 1.289-.259 1.603-.388v-42.646h8.77v49.057m39.157-38.371c-1.069-.907-2.609-1.781-4.62-2.623-2.012-.842-4.212-1.263-6.6-1.263-2.515 0-4.684.486-6.507 1.457-1.76.907-3.206 2.202-4.337 3.886-1.132 1.619-1.949 3.562-2.452 5.828-.503 2.267-.754 4.696-.754 7.286 0 5.893 1.414 10.46 4.243 13.697 2.829 3.174 6.6 4.76 11.315 4.76 2.389 0 4.369-.097 5.94-.291 1.635-.26 2.892-.518 3.772-.777v-31.96m0-34 8.769-1.554v73.925c-2.012.583-4.589 1.166-7.732 1.749-3.143.583-6.758.874-10.843.874-3.772 0-7.167-.615-10.184-1.846-3.017-1.23-5.595-2.979-7.732-5.245-2.137-2.267-3.803-5.02-4.997-8.258-1.132-3.302-1.697-6.994-1.697-11.074 0-3.886.471-7.447 1.414-10.686 1.006-3.238 2.451-6.022 4.337-8.354a19.69 19.69 0 0 1 6.884-5.44c2.765-1.295 5.908-1.943 9.429-1.943 2.828 0 5.311.389 7.449 1.166 2.2.777 3.834 1.522 4.903 2.234v-25.548m25.073 73.828h-8.77v-50.514h8.77v50.514m-4.432-59.645c-1.572 0-2.923-.518-4.055-1.555-1.068-1.1-1.603-2.558-1.603-4.371 0-1.813.535-3.238 1.603-4.274 1.132-1.101 2.483-1.652 4.055-1.652 1.571 0 2.891.55 3.96 1.652 1.132 1.036 1.697 2.46 1.697 4.274 0 1.813-.565 3.27-1.697 4.371-1.069 1.037-2.389 1.555-3.96 1.555m55.252 34.388c0 4.015-.566 7.642-1.698 10.88-1.131 3.238-2.734 6.023-4.809 8.354a21.044 21.044 0 0 1-7.26 5.44c-2.829 1.23-5.909 1.846-9.24 1.846-3.332 0-6.412-.615-9.241-1.846a22.005 22.005 0 0 1-7.355-5.44c-2.011-2.331-3.583-5.116-4.714-8.354-1.132-3.238-1.698-6.865-1.698-10.88 0-3.95.566-7.545 1.698-10.783 1.131-3.302 2.703-6.12 4.714-8.451a20.899 20.899 0 0 1 7.355-5.343c2.829-1.295 5.909-1.943 9.24-1.943 3.332 0 6.412.648 9.241 1.943a20.014 20.014 0 0 1 7.26 5.343c2.075 2.331 3.678 5.149 4.81 8.451 1.13 3.238 1.697 6.833 1.697 10.783m-9.147 0c0-5.699-1.257-10.2-3.771-13.503-2.452-3.367-5.815-5.051-10.09-5.051-4.274 0-7.669 1.684-10.183 5.051-2.452 3.303-3.677 7.804-3.677 13.503 0 5.7 1.225 10.233 3.677 13.6 2.514 3.303 5.909 4.954 10.184 4.954 4.274 0 7.637-1.651 10.089-4.954 2.514-3.367 3.771-7.9 3.771-13.6" style="font-size:258.12625122px;font-style:normal;font-variant:normal;font-weight:400;font-stretch:normal;line-height:125%;letter-spacing:0;word-spacing:0;fill:#000;fill-opacity:1;stroke:none;font-family:UbuntuBeta;-inkscape-font-specification:UbuntuBeta" transform="translate(909.17 -512.268)"/></svg>